<svg width="95" height="120" viewBox="0 0 95 120" fill="none" xmlns="http://www.w3.org/2000/svg">
<path d="M34.008 49.2432C33.4716 50.2454 33.1108 51.3464 32.9185 52.4819L31.4443 52.6523L31.4441 56.1546L32.9185 56.325C33.1106 57.4602 33.4714 58.5609 34.0077 59.5635L33.0663 60.9587L35.0851 63.4353L36.2224 62.2803C37.0393 62.9383 37.9367 63.381 38.862 63.6166L39.0009 65.4252L41.8556 65.4249L41.9944 63.6166C42.92 63.3807 43.8172 62.938 44.6343 62.28L45.7716 63.435L47.7901 60.9585L46.8487 59.5632C47.385 58.5607 47.7459 57.46 47.9379 56.3247L49.4119 56.1541L49.4121 52.6517L47.9379 52.4814C47.7457 51.3461 47.3848 50.2451 46.8485 49.2429L47.7899 47.8476L45.7713 45.3711L44.6341 46.5261C43.8169 45.8681 42.9195 45.4251 41.9944 45.1895L41.8556 43.3809L39.0009 43.3811L38.862 45.1895C37.9367 45.4251 37.0393 45.8678 36.2224 46.5258L35.0851 45.3708L33.0663 47.8476L34.008 49.2432ZM43.161 51.051C44.6701 52.9024 44.6703 55.9048 43.161 57.7565C41.6517 59.6082 39.2045 59.6079 37.6955 57.7565C36.1862 55.9048 36.1862 52.9027 37.6955 51.051C39.205 49.1993 41.6517 49.1993 43.161 51.051Z" fill="#EBEBEB"/>
<path d="M22.755 40.4423C22.4329 41.0444 22.2162 41.7054 22.1007 42.3876L21.2153 42.4899V44.5934L22.1009 44.6957C22.2162 45.3776 22.4329 46.0386 22.755 46.6409L22.1896 47.4789L23.402 48.9663L24.085 48.2726C24.5758 48.6679 25.1148 48.9337 25.6706 49.0752L25.754 50.1617H27.4685L27.5519 49.0755C28.1077 48.934 28.6467 48.6679 29.1374 48.2726L29.8204 48.9663L31.0328 47.4789L30.4674 46.6409C30.7896 46.0389 31.0062 45.3778 31.1216 44.6957L32.0069 44.5934V42.4899L31.1216 42.3876C31.0062 41.7057 30.7893 41.0444 30.4672 40.4426L31.0326 39.6047L29.8202 38.1172L29.1372 38.8109C28.6465 38.4156 28.1074 38.1496 27.5517 38.008L27.4683 36.9219H25.7537L25.6703 38.008C25.1146 38.1496 24.5755 38.4154 24.0848 38.8106L23.4018 38.1169L22.1894 39.6044L22.755 40.4423ZM28.2528 41.528C29.1591 42.6399 29.1591 44.4431 28.2528 45.5553C27.3462 46.6675 25.8765 46.6673 24.9701 45.5553C24.0636 44.4431 24.0636 42.6402 24.9701 41.528C25.8765 40.416 27.3462 40.416 28.2528 41.528Z" fill="#F5F5F5"/>
<path d="M64.5873 89.6391C64.2652 90.2412 64.0485 90.9022 63.9329 91.5843L63.0476 91.6867V93.7902L63.9332 93.8925C64.0485 94.5743 64.2652 95.2354 64.5873 95.8377L64.0219 96.6756L65.2343 98.1631L65.9173 97.4694C66.408 97.8647 66.9471 98.1305 67.5028 98.272L67.5862 99.3584H69.3008L69.3842 98.2723C69.9399 98.1307 70.479 97.8647 70.9697 97.4694L71.6527 98.1631L72.8651 96.6756L72.2997 95.8377C72.6218 95.2356 72.8385 94.5746 72.9538 93.8925L73.8392 93.7902L73.8394 91.6867L72.9541 91.5843C72.8387 90.9025 72.6218 90.2412 72.2997 89.6394L72.8653 88.8014L71.6529 87.314L70.9699 88.0077C70.4792 87.6124 69.9402 87.3464 69.3844 87.2048L69.301 86.1187H67.5865L67.5031 87.2048C66.9473 87.3464 66.4083 87.6121 65.9178 88.0074L65.2348 87.3137L64.0224 88.8012L64.5873 89.6391ZM70.0848 90.7247C70.9911 91.8367 70.9914 93.6398 70.0848 94.7521C69.1782 95.8643 67.7085 95.864 66.8022 94.7521C65.8956 93.6398 65.8956 91.837 66.8022 90.7247C67.7087 89.6128 69.1782 89.6128 70.0848 90.7247Z" fill="#F5F5F5"/>
<path d="M3.02324 66.2383C2.76636 66.7183 2.59354 67.2455 2.50143 67.7894L1.79541 67.8708V69.5481L2.50143 69.6298C2.59332 70.1735 2.76614 70.7009 3.02301 71.1809L2.57208 71.8491L3.53878 73.0351L4.08339 72.4819C4.47463 72.797 4.90432 73.009 5.34766 73.1218L5.41406 73.988H6.78116L6.84779 73.1218C7.29112 73.0088 7.72081 72.7967 8.11206 72.4816L8.65666 73.0348L9.62336 71.8488L9.17243 71.1806C9.42931 70.7006 9.60212 70.1735 9.69401 69.6296L10.4 69.5478L10.4003 67.8706L9.69423 67.7888C9.60212 67.2452 9.42931 66.718 9.17243 66.2377L9.62336 65.5696L8.65666 64.3836L8.11206 64.9368C7.72081 64.6216 7.2909 64.4096 6.84779 64.2966L6.78116 63.4304H5.41406L5.34766 64.2966C4.90455 64.4096 4.47463 64.6214 4.08339 64.9365L3.53878 64.3833L2.57186 65.5696L3.02324 66.2383ZM7.40693 67.1042C8.12972 67.991 8.12972 69.4288 7.40693 70.3155C6.68414 71.2023 5.5122 71.2023 4.78941 70.3155C4.06662 69.4288 4.06662 67.991 4.78941 67.1042C5.5122 66.2174 6.68391 66.2172 7.40693 67.1042Z" fill="#F5F5F5"/>
<path d="M3.04277 96.0593C2.78589 96.5393 2.61307 97.0664 2.52096 97.6104L1.81494 97.6918V99.3694L2.52096 99.4511C2.61285 99.9947 2.78567 100.522 3.04254 101.002L2.59161 101.67L3.55831 102.856L4.10292 102.303C4.49416 102.618 4.92386 102.83 5.36719 102.943L5.43359 103.809H6.80069L6.86732 102.943C7.31065 102.83 7.74035 102.618 8.13159 102.303L8.67619 102.856L9.6429 101.67L9.19196 101.002C9.44884 100.522 9.62165 99.9947 9.71354 99.4508L10.4196 99.3691V97.6918L9.71354 97.6101C9.62143 97.0664 9.44861 96.5393 9.19174 96.0593L9.64267 95.3911L8.67597 94.2051L8.13136 94.7583C7.74012 94.4432 7.3102 94.2312 6.86709 94.1181L6.80047 93.252H5.43336L5.36696 94.1181C4.92386 94.2312 4.49394 94.4429 4.1027 94.7581L3.55809 94.2048L2.59116 95.3911L3.04277 96.0593ZM7.42646 96.9249C8.14925 97.8117 8.14925 99.2495 7.42646 100.136C6.70367 101.023 5.53173 101.023 4.80894 100.136C4.08615 99.2495 4.08615 97.8117 4.80894 96.9249C5.53173 96.0381 6.70367 96.0381 7.42646 96.9249Z" fill="#F5F5F5"/>
<path d="M75.6293 57.7487C75.3071 58.3508 75.0905 59.0118 74.9749 59.694L74.0896 59.7963V61.8998L74.9751 62.0021C75.0905 62.684 75.3071 63.3453 75.6293 63.9473L75.0639 64.7853L76.2763 66.2727L76.9593 65.579C77.45 65.9743 77.989 66.2401 78.5448 66.3816L78.6282 67.4681H80.3428L80.4261 66.3819C80.9821 66.2401 81.5209 65.9743 82.0117 65.579L82.6947 66.2727L83.9071 64.7853L83.3417 63.9473C83.6638 63.3453 83.8805 62.6842 83.9958 62.0021L84.8811 61.8998L84.8814 59.7963L83.9961 59.694C83.8807 59.0121 83.6638 58.3511 83.3417 57.749L83.9071 56.9111L82.6947 55.4236L82.0117 56.1173C81.5209 55.722 80.9819 55.456 80.4261 55.3144L80.3428 54.2283L78.6282 54.2285L78.5448 55.3147C77.989 55.4562 77.45 55.722 76.9593 56.1173L76.2763 55.4236L75.0639 56.9111L75.6293 57.7487ZM81.1268 58.8344C82.0331 59.9463 82.0331 61.7495 81.1268 62.8617C80.2202 63.9739 78.7505 63.9736 77.8442 62.8617C76.9376 61.7495 76.9376 59.9466 77.8442 58.8344C78.7507 57.7224 80.2202 57.7221 81.1268 58.8344Z" fill="#F5F5F5"/>
<path d="M18.862 54.3486C18.5398 54.9506 18.3232 55.6117 18.2076 56.2938L17.3223 56.3961V58.4996L18.2078 58.6019C18.3232 59.2838 18.5398 59.9451 18.862 60.5472L18.2966 61.3851L19.509 62.8726L20.192 62.1789C20.6827 62.5741 21.2217 62.8399 21.7775 62.9815L21.8609 64.0679H23.5754L23.6588 62.9817C24.2146 62.8402 24.7536 62.5741 25.2443 62.1789L25.9273 62.8726L27.1397 61.3851L26.5743 60.5472C26.8965 59.9451 27.1131 59.2841 27.2285 58.6019L28.1138 58.4996L28.114 56.3961L27.2287 56.2938C27.1134 55.6119 26.8965 54.9509 26.5743 54.3489L27.1397 53.5109L25.9273 52.0235L25.2443 52.7171C24.7536 52.3219 24.2146 52.0558 23.6588 51.9143L23.5754 50.8281L21.8609 50.8284L21.7775 51.9146C21.2217 52.0561 20.6827 52.3219 20.192 52.7171L19.509 52.0235L18.2966 53.5109L18.862 54.3486ZM24.3595 55.4342C25.2658 56.5462 25.2658 58.3493 24.3595 59.4615C23.4529 60.5738 21.9832 60.5735 21.0768 59.4615C20.1703 58.3493 20.1703 56.5464 21.0768 55.4342C21.9834 54.322 23.4529 54.322 24.3595 55.4342Z" fill="#EBEBEB"/>
<path d="M6.47623 81.5715C6.15407 82.1735 5.93743 82.8346 5.82185 83.5167L4.93652 83.619V85.7225L5.82207 85.8248C5.93743 86.5067 6.15407 87.168 6.47623 87.7701L5.9106 88.608L7.123 90.0955L7.806 89.4018C8.29673 89.7971 8.83574 90.0628 9.39153 90.2044L9.47492 91.2908H11.1895L11.2728 90.2046C11.8286 90.0628 12.3676 89.7971 12.8584 89.4018L13.5414 90.0955L14.7538 88.608L14.1884 87.7701C14.5105 87.168 14.7272 86.507 14.8425 85.8248L15.7278 85.7225L15.7281 83.619L14.8427 83.5167C14.7274 82.8348 14.5105 82.1738 14.1884 81.5718L14.7538 80.7338L13.5414 79.2464L12.8584 79.94C12.3676 79.5448 11.8286 79.2787 11.2728 79.1372L11.1895 78.051H9.47492L9.39153 79.1372C8.83574 79.2787 8.29673 79.5445 7.80622 79.9398L7.12323 79.2461L5.91083 80.7335L6.47623 81.5715ZM11.9737 82.6571C12.8801 83.7691 12.8801 85.5722 11.9737 86.6845C11.0672 87.7967 9.59743 87.7964 8.6911 86.6845C7.78454 85.5722 7.78454 83.7693 8.6911 82.6571C9.59766 81.5452 11.0672 81.5452 11.9737 82.6571Z" fill="#EBEBEB"/>
<path d="M58.1256 67.5536C57.623 68.4928 57.285 69.5244 57.1048 70.5886L55.7234 70.7482V74.0304L57.105 74.19C57.285 75.2537 57.623 76.2853 58.1258 77.2247L57.2436 78.5322L59.1352 80.8529L60.201 79.7706C60.9665 80.3872 61.8075 80.8022 62.6745 81.023L62.8046 82.7178L65.4796 82.7175L65.6097 81.023C66.4769 80.8019 67.3178 80.3872 68.0835 79.7706L69.1492 80.8529L71.0408 78.5322L70.1586 77.2247C70.6612 76.2855 70.9992 75.2539 71.1794 74.19L72.5606 74.0304L72.5608 70.7485L71.1794 70.5889C70.9995 69.5252 70.6612 68.4933 70.1586 67.5542L71.0408 66.2467L69.1492 63.9259L68.0835 65.0083C67.3178 64.3917 66.4769 63.9767 65.6099 63.7556L65.4798 62.0608L62.8046 62.0611L62.6745 63.7556C61.8073 63.9764 60.9665 64.3911 60.201 65.008L59.1352 63.9257L57.2436 66.2464L58.1256 67.5536ZM66.7027 69.2474C68.1168 70.9825 68.117 73.7956 66.7027 75.5307C65.2885 77.2658 62.9953 77.2656 61.5813 75.5307C60.167 73.7956 60.167 70.9825 61.5813 69.2474C62.9956 67.5122 65.2885 67.5122 66.7027 69.2474Z" fill="#EBEBEB"/>
<path d="M50.1456 21.2447C53.6144 18.1847 54.4044 12.2541 51.9102 7.99838C49.4159 3.74268 44.582 2.77344 41.1133 5.83351C37.6445 8.89359 36.8545 14.8242 39.3487 19.0799C41.8429 23.3356 46.6769 24.3048 50.1456 21.2447Z" fill="#E0E0E0"/>
<path d="M50.5236 20.1329C53.5446 16.4265 53.5446 10.4173 50.5236 6.7109C47.5026 3.00453 42.6045 3.00453 39.5835 6.7109C36.5625 10.4173 36.5625 16.4265 39.5835 20.1328C42.6045 23.8392 47.5026 23.8392 50.5236 20.1329Z" fill="#F0F0F0"/>
<path d="M46.509 21.1017C49.9665 20.1167 52.1185 15.8794 51.3156 11.6375C50.5127 7.39555 47.059 4.75533 43.6015 5.74036C40.1439 6.7254 37.9919 10.9627 38.7948 15.2046C39.5977 19.4465 43.0515 22.0868 46.509 21.1017Z" fill="white"/>
<path d="M45.2751 20.1703L45.2122 18.2997C45.2424 18.298 45.2726 18.2961 45.3026 18.2939L45.4023 20.1621C45.36 20.1657 45.3173 20.1684 45.2751 20.1703ZM42.8089 19.5886C42.77 19.5672 42.7311 19.5452 42.6922 19.5225L43.3497 17.8334C43.377 17.8493 43.4043 17.8647 43.4315 17.8798L42.8089 19.5886ZM47.8058 19.2723L47.0412 17.6524L47.1231 17.5931L47.912 19.1952C47.8767 19.2213 47.8414 19.2471 47.8058 19.2723ZM40.7302 17.6038C40.704 17.5632 40.6783 17.5221 40.6528 17.4807L41.8724 16.3553L41.9285 16.445L40.7302 17.6038ZM49.705 17.0347L48.4148 16.0349L48.4636 15.9384L49.7833 16.8783L49.7629 16.9195C49.7495 16.9475 49.7274 16.9913 49.705 17.0347ZM39.643 14.6627C39.6352 14.6114 39.6278 14.5601 39.6208 14.5088L41.1266 14.2052C41.1313 14.2416 41.1366 14.2784 41.1422 14.3149L39.643 14.6627ZM49.022 13.7998C49.0245 13.7646 49.0263 13.7293 49.0279 13.6942L50.5517 13.7945C50.5494 13.8483 50.5463 13.9018 50.5427 13.9556L49.022 13.7998ZM41.2498 11.9873L39.7925 11.4327L39.8299 11.2898L41.279 11.8751L41.2498 11.9873ZM48.7117 11.4988L48.6742 11.3943L50.0648 10.6235C50.082 10.6702 50.0987 10.7171 50.1151 10.7642L48.7117 11.4988ZM42.2296 9.98087L41.146 8.66293C41.1749 8.627 41.2041 8.59162 41.2337 8.55678L42.2976 9.89804L42.2296 9.98087ZM47.5657 9.63418C47.5427 9.61114 47.5197 9.58864 47.4962 9.56643L48.4289 8.08473C48.4631 8.1171 48.4969 8.15002 48.5302 8.1832L47.5657 9.63418ZM43.8556 8.76634L43.3958 6.98128C43.4376 6.9651 43.4792 6.94974 43.5212 6.93493L43.9393 8.73562C43.9111 8.74494 43.8831 8.75536 43.8556 8.76634ZM45.8449 8.6355L45.7555 8.61466L46.0242 6.77173C46.0658 6.78078 46.1076 6.79065 46.149 6.8008L45.8449 8.6355Z" fill="#E6E6E6"/>
<path d="M42.335 12.2387L45.1459 13.6485L45.7122 9.45801" stroke="#E0E0E0" stroke-miterlimit="10" stroke-linecap="round" stroke-linejoin="round"/>
<path d="M45.5661 13.5216C45.5435 13.8455 45.3113 14.0858 45.0472 14.0584C44.7832 14.0306 44.5873 13.7457 44.6099 13.4217C44.6325 13.0978 44.8648 12.8575 45.1288 12.8852C45.3929 12.9127 45.5887 13.1976 45.5661 13.5216Z" fill="#E0E0E0"/>
<path d="M15.8846 38.0084C18.8872 36.5491 20.3571 32.3798 19.1676 28.6959C17.9781 25.0121 14.5797 23.2088 11.5771 24.6682C8.57448 26.1275 7.10465 30.2969 8.29414 33.9807C9.48362 37.6645 12.882 39.4678 15.8846 38.0084Z" fill="#E0E0E0"/>
<path d="M17.2451 36.4421C19.6415 33.7862 19.8292 29.2497 17.6644 26.3096C15.4995 23.3695 11.8019 23.1392 9.40549 25.7952C7.00908 28.4512 6.82136 32.9876 8.9862 35.9277C11.151 38.8678 14.8487 39.0981 17.2451 36.4421Z" fill="#F0F0F0"/>
<path d="M16.9183 35.1376C18.727 32.7058 18.5865 28.9356 16.6044 26.7166C14.6223 24.4975 11.5493 24.6699 9.74057 27.1016C7.93184 29.5333 8.07236 33.3035 10.0544 35.5226C12.0365 37.7417 15.1095 37.5693 16.9183 35.1376Z" fill="white"/>
<path d="M12.4488 36.1101L12.6914 34.7266C12.7137 34.7327 12.7361 34.7382 12.7585 34.7434L12.5434 36.1337C12.5119 36.1263 12.4801 36.1184 12.4488 36.1101ZM10.7336 35.1117C10.7083 35.0871 10.6833 35.0618 10.6585 35.0363L11.4003 33.9526C11.4177 33.9704 11.4354 33.9883 11.453 34.0055L10.7336 35.1117ZM14.4397 36.0399L14.1298 34.6767L14.1989 34.6523L14.5293 36.0081C14.4994 36.0194 14.4694 36.0298 14.4397 36.0399ZM9.51831 33.1767C9.50534 33.1407 9.49304 33.1048 9.48075 33.0686L10.5469 32.528L10.5742 32.6064L9.51831 33.1767ZM16.1745 34.8432L15.3845 33.8122L15.435 33.7529L16.2559 34.7469L16.2347 34.7724C16.2206 34.7897 16.1976 34.8166 16.1745 34.8432ZM9.17603 30.7717C9.17804 30.7325 9.18072 30.6933 9.1834 30.654L10.3323 30.7813C10.3301 30.8093 10.3285 30.8373 10.3269 30.8652L9.17603 30.7717ZM16.1734 32.317C16.1806 32.2918 16.1873 32.2666 16.194 32.2411L17.2937 32.6681C17.2837 32.7068 17.2734 32.7452 17.2624 32.7839L16.1734 32.317ZM10.7645 29.1866L9.78346 28.4425L9.83286 28.3465L10.8031 29.1112L10.7645 29.1866ZM16.3013 30.5608L16.2899 30.4755L17.4265 30.2341C17.4319 30.2722 17.437 30.3106 17.4417 30.3488L16.3013 30.5608ZM11.7911 27.9457L11.2011 26.7298C11.2277 26.7104 11.2547 26.6912 11.2816 26.6725L11.8535 27.9013L11.7911 27.9457ZM15.75 28.9304C15.7368 28.9082 15.7234 28.8865 15.7095 28.8646L16.6206 27.9968C16.6407 28.0286 16.6601 28.0604 16.6794 28.0925L15.75 28.9304ZM13.1685 27.4339L13.1072 26.0208C13.1403 26.0186 13.1732 26.017 13.2063 26.0159L13.2346 27.4306C13.2123 27.4315 13.1902 27.4326 13.1685 27.4339ZM14.6445 27.8001L14.5823 27.7639L15.0632 26.4775C15.0923 26.4939 15.1213 26.5107 15.1499 26.5277L14.6445 27.8001Z" fill="#E6E6E6"/>
<path d="M11.5203 29.6224L13.36 31.3065L14.4208 28.3708" stroke="#E0E0E0" stroke-miterlimit="10" stroke-linecap="round" stroke-linejoin="round"/>
<path d="M13.6871 31.3111C13.6207 31.5428 13.4137 31.6649 13.2246 31.5834C13.0354 31.502 12.9362 31.248 13.0026 31.0159C13.0689 30.7839 13.276 30.6621 13.4651 30.7436C13.654 30.8253 13.7535 31.0793 13.6871 31.3111Z" fill="#E0E0E0"/>
<path d="M90.8524 87.2832C92.9659 85.7466 93.6639 82.3989 92.4115 79.8059C91.159 77.2129 88.4304 76.3565 86.3169 77.8931C84.2033 79.4297 83.5053 82.7773 84.7577 85.3704C86.0102 87.9634 88.7388 88.8198 90.8524 87.2832Z" fill="#E0E0E0"/>
<path d="M91.533 86.1397C93.2067 83.9335 93.1057 80.4803 91.3073 78.4268C89.509 76.3734 86.6944 76.4971 85.0207 78.7033C83.347 80.9095 83.4481 84.3627 85.2464 86.4162C87.0447 88.4697 89.8593 88.3459 91.533 86.1397Z" fill="#F0F0F0"/>
<path d="M91.6166 84.347C92.4838 82.0803 91.6892 79.3803 89.8417 78.3164C87.9941 77.2524 85.7934 78.2274 84.9262 80.494C84.059 82.7607 84.8537 85.4607 86.7012 86.5246C88.5487 87.5886 90.7494 86.6136 91.6166 84.347Z" fill="white"/>
<path d="M87.6086 86.2179L87.793 85.1655C87.81 85.1699 87.827 85.1743 87.844 85.1781L87.6803 86.2357C87.6566 86.2303 87.6325 86.2242 87.6086 86.2179ZM86.3038 85.4587C86.2846 85.44 86.2656 85.4208 86.2466 85.4014L86.8109 84.5771C86.8241 84.5908 86.8375 84.6043 86.8509 84.6172L86.3038 85.4587ZM89.123 86.1647L88.8874 85.1279L88.9399 85.1092L89.1912 86.1406C89.1684 86.1488 89.1456 86.1567 89.123 86.1647ZM85.3794 83.9866C85.3695 83.9594 85.3601 83.932 85.3508 83.9043L86.1619 83.4932L86.1824 83.553L85.3794 83.9866ZM90.4427 85.2541L89.8418 84.4699L89.8802 84.4249L90.5046 85.1811L90.4885 85.2006C90.4776 85.2135 90.4601 85.2341 90.4427 85.2541ZM85.1191 82.1574C85.1207 82.1275 85.1227 82.0976 85.1247 82.0677L85.9987 82.1645C85.9971 82.1856 85.9957 82.207 85.9946 82.2284L85.1191 82.1574ZM90.4418 83.3327C90.4472 83.3135 90.4523 83.2943 90.4575 83.2748L91.294 83.5999C91.2864 83.6292 91.2784 83.6586 91.2701 83.6879L90.4418 83.3327ZM86.3275 80.9516L85.5813 80.3858L85.6188 80.3128L86.357 80.8946L86.3275 80.9516ZM90.5391 81.9969L90.5303 81.9322L91.3949 81.7487C91.3989 81.7778 91.4029 81.8068 91.4065 81.8359L90.5391 81.9969ZM87.1084 80.0075L86.6597 79.0826C86.6799 79.0678 86.7004 79.0533 86.721 79.039L87.1561 79.9735L87.1084 80.0075ZM90.1197 80.7566C90.1096 80.7396 90.0993 80.7231 90.0888 80.7067L90.7819 80.0465C90.7971 80.0706 90.812 80.0948 90.8266 80.1192L90.1197 80.7566ZM88.1561 79.6183L88.1093 78.5434C88.1344 78.5417 88.1594 78.5404 88.1847 78.5396L88.2061 79.6159C88.1894 79.6164 88.1726 79.6172 88.1561 79.6183ZM89.2788 79.897L89.2314 79.8696L89.5972 78.8909C89.6193 78.9035 89.6414 78.9162 89.6631 78.9293L89.2788 79.897Z" fill="#E6E6E6"/>
<path d="M86.9021 81.2831L88.3016 82.5643L89.1085 80.3313" stroke="#E0E0E0" stroke-miterlimit="10" stroke-linecap="round" stroke-linejoin="round"/>
<path d="M88.5508 82.5677C88.5002 82.744 88.3426 82.8367 88.1989 82.7748C88.0551 82.7128 87.9796 82.5194 88.0301 82.343C88.0806 82.1667 88.238 82.074 88.382 82.1359C88.5257 82.1979 88.6013 82.3913 88.5508 82.5677Z" fill="#E0E0E0"/>
<path d="M88.995 40.7715C90.6218 37.2634 89.6225 32.8016 86.7632 30.8058C83.9038 28.81 80.267 30.036 78.6403 33.5441C77.0136 37.0521 78.0128 41.5139 80.8722 43.5097C83.7316 45.5055 87.3683 44.2795 88.995 40.7715Z" fill="#E0E0E0"/>
<path d="M89.3529 37.3609C89.545 33.3318 87.0385 29.8745 83.7544 29.6388C80.4703 29.4031 77.6523 32.4782 77.4602 36.5074C77.268 40.5365 79.7746 43.9938 83.0587 44.2295C86.3427 44.4652 89.1608 41.39 89.3529 37.3609Z" fill="#F0F0F0"/>
<path d="M84.16 42.9384C86.8614 42.4284 88.7143 39.3283 88.2986 36.0141C87.8829 32.6999 85.356 30.4267 82.6547 30.9367C79.9533 31.4467 78.1004 34.5468 78.5161 37.861C78.9318 41.1752 81.4587 43.4484 84.16 42.9384Z" fill="white"/>
<path d="M82.5091 42.0174L82.7562 40.6082C82.779 40.6142 82.8015 40.62 82.8243 40.6252L82.6052 42.0413C82.5733 42.0342 82.5411 42.026 82.5091 42.0174ZM80.7619 41.0007C80.7362 40.9754 80.7107 40.9499 80.6855 40.9239L81.4409 39.8201C81.4586 39.8385 81.4767 39.8563 81.4946 39.8739L80.7619 41.0007ZM84.5366 41.9461L84.2212 40.5577L84.2916 40.5327L84.6281 41.9138C84.5977 41.925 84.5673 41.9357 84.5366 41.9461ZM79.5241 39.0299C79.5109 38.9934 79.4981 38.9567 79.4858 38.9199L80.5717 38.3694L80.5994 38.4495L79.5241 39.0299ZM86.3042 40.7272L85.4993 39.677L85.5507 39.6166L86.3869 40.6293L86.3652 40.6553C86.3509 40.6726 86.3276 40.7 86.3042 40.7272ZM79.1753 36.58C79.1775 36.54 79.18 36.4999 79.1829 36.4601L80.353 36.5899C80.3508 36.6184 80.349 36.6469 80.3474 36.6755L79.1753 36.58ZM86.303 38.1541C86.3104 38.1286 86.3171 38.1026 86.3238 38.0768L87.4441 38.5118C87.4338 38.5513 87.4233 38.5905 87.4121 38.6297L86.303 38.1541ZM80.7935 34.9656L79.7941 34.2077L79.8444 34.1101L80.8328 34.889L80.7935 34.9656ZM86.4331 36.3652L86.4215 36.2786L87.5794 36.0328C87.5847 36.0718 87.5901 36.1107 87.5948 36.1496L86.4331 36.3652ZM81.8391 33.7016L81.2381 32.463C81.2652 32.4429 81.2927 32.4237 81.3202 32.4045L81.9028 33.6561L81.8391 33.7016ZM85.8716 34.7044C85.8579 34.6819 85.8443 34.6597 85.8304 34.6375L86.7584 33.7535C86.7788 33.7859 86.7989 33.8182 86.8184 33.8509L85.8716 34.7044ZM83.242 33.1802L83.1796 31.7408C83.2131 31.7386 83.2467 31.7369 83.2804 31.7358L83.3093 33.1769C83.2867 33.1778 83.2643 33.1789 83.242 33.1802ZM84.7454 33.5533L84.682 33.5165L85.1718 32.2062C85.2015 32.223 85.231 32.24 85.2601 32.2575L84.7454 33.5533Z" fill="#E6E6E6"/>
<path d="M81.5632 35.4091L83.4374 37.1248L84.5177 34.1345" stroke="#E0E0E0" stroke-miterlimit="10" stroke-linecap="round" stroke-linejoin="round"/>
<path d="M83.7704 37.1296C83.7026 37.3658 83.4918 37.49 83.2993 37.4069C83.1068 37.3238 83.0055 37.0652 83.0733 36.829C83.141 36.5928 83.3518 36.4686 83.5443 36.5517C83.7368 36.6348 83.8381 36.8934 83.7704 37.1296Z" fill="#E0E0E0"/>
<path d="M94.0274 117.764C94.0274 118.693 73.1202 119.446 47.33 119.446C21.5398 119.446 0.632568 118.693 0.632568 117.764C0.632568 116.835 21.5396 116.082 47.33 116.082C73.1204 116.082 94.0274 116.835 94.0274 117.764Z" fill="#F5F5F5"/>
<path d="M20.302 112.713C21.5316 108.965 20.0518 104.704 16.9968 103.195C13.9418 101.686 10.4683 103.502 9.23869 107.25C8.00904 110.998 9.4888 115.26 12.5438 116.768C15.5989 118.277 19.0723 116.461 20.302 112.713Z" fill="#263238"/>
<path opacity="0.3" d="M20.302 112.713C21.5316 108.965 20.0518 104.704 16.9968 103.195C13.9418 101.686 10.4683 103.502 9.23869 107.25C8.00904 110.998 9.4888 115.26 12.5438 116.768C15.5989 118.277 19.0723 116.461 20.302 112.713Z" fill="black"/>
<path d="M17.5497 116.044C20.3198 113.86 21.1221 109.334 19.3415 105.935C17.5609 102.537 13.8717 101.552 11.1015 103.737C8.33137 105.921 7.52915 110.448 9.30975 113.846C11.0903 117.245 14.7795 118.229 17.5497 116.044Z" fill="#263238"/>
<path d="M17.0305 114.987C19.3232 113.155 19.9715 109.39 18.4785 106.577C16.9855 103.765 13.9166 102.969 11.6239 104.801C9.33124 106.633 8.68295 110.398 10.1759 113.21C11.6689 116.023 14.7378 116.819 17.0305 114.987Z" fill="white"/>
<path d="M14.4937 115.098L14.4454 113.656C14.4686 113.655 14.4919 113.653 14.5151 113.651L14.5921 115.091C14.5592 115.094 14.5263 115.096 14.4937 115.098ZM12.5927 114.649C12.5627 114.633 12.5328 114.616 12.5028 114.598L13.0096 113.296C13.0307 113.309 13.0517 113.32 13.0727 113.332L12.5927 114.649ZM16.4443 114.406L15.855 113.157L15.918 113.111L16.5261 114.346C16.4991 114.366 16.4718 114.386 16.4443 114.406ZM10.9904 113.12C10.9703 113.088 10.9504 113.056 10.9307 113.025L11.8708 112.157L11.9139 112.226L10.9904 113.12ZM17.9082 112.681L16.9138 111.91L16.9513 111.836L17.9686 112.56L17.9529 112.592C17.9426 112.614 17.9254 112.647 17.9082 112.681ZM10.1525 110.853C10.1464 110.813 10.1408 110.774 10.1353 110.734L11.296 110.5C11.2996 110.528 11.3038 110.557 11.3081 110.585L10.1525 110.853ZM17.3819 110.187C17.3837 110.16 17.3851 110.133 17.3864 110.106L18.561 110.183C18.5592 110.225 18.557 110.266 18.5541 110.307L17.3819 110.187ZM11.391 108.79L10.2678 108.363L10.2967 108.253L11.4138 108.704L11.391 108.79ZM17.1427 108.414L17.1137 108.333L18.1857 107.739C18.1988 107.775 18.212 107.811 18.2246 107.847L17.1427 108.414ZM12.1465 107.244L11.3112 106.228C11.3333 106.2 11.3562 106.173 11.3787 106.146L12.199 107.18L12.1465 107.244ZM16.2592 106.977C16.2415 106.959 16.2236 106.942 16.2055 106.924L16.9245 105.782C16.9509 105.807 16.9768 105.833 17.0025 105.858L16.2592 106.977ZM13.3995 106.308L13.0452 104.932C13.0774 104.919 13.1094 104.907 13.142 104.896L13.4642 106.284C13.4425 106.291 13.4208 106.299 13.3995 106.308ZM14.933 106.207L14.8639 106.191L15.0712 104.77C15.1033 104.777 15.1353 104.785 15.1673 104.793L14.933 106.207Z" fill="black"/>
<path d="M12.2275 108.984L14.3941 110.071L14.8307 106.841" stroke="black" stroke-miterlimit="10" stroke-linecap="round" stroke-linejoin="round"/>
<path d="M14.718 109.973C14.7005 110.223 14.5214 110.408 14.318 110.386C14.1146 110.365 13.9634 110.145 13.9809 109.896C13.9983 109.646 14.1774 109.461 14.3808 109.482C14.5845 109.503 14.7354 109.723 14.718 109.973Z" fill="black"/>
<path d="M88.3724 107.96C89.883 104.669 88.9332 100.499 86.2509 98.6462C83.5687 96.7929 80.1698 97.9582 78.6592 101.249C77.1486 104.54 78.0984 108.71 80.7807 110.563C83.4629 112.416 86.8618 111.251 88.3724 107.96Z" fill="#1C4D87"/>
<path opacity="0.3" d="M88.3724 107.96C89.883 104.669 88.9332 100.499 86.2509 98.6462C83.5687 96.7929 80.1698 97.9582 78.6592 101.249C77.1486 104.54 78.0984 108.71 80.7807 110.563C83.4629 112.416 86.8618 111.251 88.3724 107.96Z" fill="black"/>
<path d="M84.4186 111.164C87.4096 110.271 89.244 106.572 88.516 102.903C87.788 99.2333 84.7731 96.9826 81.7821 97.8759C78.7911 98.7691 76.9567 102.468 77.6847 106.137C78.4127 109.807 81.4276 112.058 84.4186 111.164Z" fill="#1C4D87"/>
<path d="M83.1048 110.203C85.6624 110.203 87.7358 107.659 87.7358 104.521C87.7358 101.383 85.6624 98.8396 83.1048 98.8396C80.5472 98.8396 78.4739 101.383 78.4739 104.521C78.4739 107.659 80.5472 110.203 83.1048 110.203Z" fill="white"/>
<path d="M83.2635 109.384L83.2183 108.036C83.24 108.035 83.2617 108.034 83.2834 108.032L83.3554 109.378C83.325 109.381 83.2941 109.383 83.2635 109.384ZM81.4866 108.965C81.4584 108.95 81.4305 108.934 81.4025 108.917L81.8763 107.7C81.8959 107.712 81.9156 107.723 81.9353 107.733L81.4866 108.965ZM85.0871 108.737L84.5363 107.57L84.5953 107.527L85.1638 108.681C85.1383 108.7 85.1128 108.719 85.0871 108.737ZM79.9887 107.535C79.9699 107.505 79.9513 107.476 79.933 107.446L80.8119 106.635L80.8523 106.7L79.9887 107.535ZM86.4556 107.125L85.526 106.404L85.5611 106.335L86.5119 107.012L86.4974 107.042C86.4875 107.062 86.4717 107.093 86.4556 107.125ZM79.2053 105.415C79.1997 105.378 79.1944 105.342 79.1892 105.305L80.2742 105.086C80.2775 105.112 80.2816 105.139 80.2856 105.165L79.2053 105.415ZM85.9635 104.794C85.9653 104.769 85.9664 104.743 85.9675 104.718L87.0655 104.79C87.0637 104.829 87.0617 104.867 87.059 104.906L85.9635 104.794ZM80.3632 103.488L79.3131 103.088L79.3399 102.985L80.3842 103.407L80.3632 103.488ZM85.7399 103.136L85.7129 103.061L86.7149 102.505C86.7272 102.539 86.7395 102.573 86.7511 102.607L85.7399 103.136ZM81.0692 102.042L80.2883 101.093C80.3091 101.067 80.3303 101.041 80.3513 101.016L81.1181 101.983L81.0692 102.042ZM84.9141 101.792C84.8975 101.776 84.881 101.76 84.864 101.744L85.536 100.676C85.5606 100.699 85.585 100.723 85.6089 100.747L84.9141 101.792ZM82.2409 101.167L81.9096 99.8808C81.9395 99.8693 81.9695 99.8581 81.9999 99.8474L82.301 101.145C82.2809 101.152 82.2608 101.159 82.2409 101.167ZM83.6742 101.073L83.6098 101.058L83.8034 99.73C83.8334 99.7366 83.8635 99.7437 83.8933 99.7511L83.6742 101.073Z" fill="black"/>
<path d="M81.1453 103.669L83.1705 104.685L83.5786 101.665" stroke="black" stroke-miterlimit="10" stroke-linecap="round" stroke-linejoin="round"/>
<path d="M83.474 104.593C83.4577 104.827 83.2904 105 83.1002 104.98C82.9099 104.96 82.7688 104.755 82.7849 104.521C82.801 104.288 82.9685 104.115 83.1587 104.135C83.349 104.154 83.4901 104.36 83.474 104.593Z" fill="black"/>
<path d="M91.4911 114.909H79.0369V116.636H91.4911V114.909Z" fill="#1C4D87"/>
<path d="M90.9925 111.415H78.5383V113.143H90.9925V111.415Z" fill="#1C4D87"/>
<path d="M92.1818 113.167H79.7275V114.909H92.1818V113.167Z" fill="#1C4D87"/>
<path opacity="0.2" d="M92.1818 113.167H79.7275V114.909H92.1818V113.167Z" fill="black"/>
<path d="M56.7443 116.645L55.8114 101.923L47.928 110.4L50.4485 116.645H56.7443Z" fill="#ED8936"/>
<path opacity="0.2" d="M56.7443 116.645L55.8114 101.923L47.928 110.4L50.4485 116.645H56.7443Z" fill="black"/>
<path d="M16.2836 65.8782C16.2836 65.8782 12.3763 57.6477 13.6062 56.564C14.8362 55.4803 18.5398 55.0988 22.9618 58.8124C21.6778 62.2456 19.2405 64.8244 16.2836 65.8782Z" fill="#ED8936"/>
<path opacity="0.2" d="M16.6605 65.372C16.6605 65.372 14.4509 59.5856 15.1389 59.0826C15.8268 58.5795 18.3665 59.5417 20.8568 62.543C19.6462 65.8986 16.6605 65.372 16.6605 65.372Z" fill="black"/>
<path d="M61.7623 83.8467C63.1511 85.4417 65.2922 85.8438 66.9759 84.7165C67.7619 84.1904 68.432 83.3347 68.8306 82.3511C69.252 81.3115 69.4926 79.9867 69.1536 78.863C68.772 77.5977 67.6976 76.8305 66.6394 77.3862C65.7337 77.8621 65.137 79.0385 64.856 80.1546C64.2611 82.5173 65.1592 85.0725 67.0443 86.0133C69.079 87.029 71.4193 85.2601 71.5688 82.5661C71.5934 82.1223 71.2429 81.7432 70.8981 81.7432C70.5145 81.7432 70.2522 82.1209 70.2274 82.5661C70.153 83.9085 68.9294 84.9241 67.8646 84.6142C66.6276 84.2538 65.8788 82.796 66.0275 81.2506C66.0966 80.5315 66.3765 79.7297 66.8183 79.1979C67.212 78.7239 67.645 78.6907 67.8733 79.3411C68.1047 80.0002 67.9144 80.9067 67.69 81.4766C67.4324 82.1311 67.0481 82.7057 66.5732 83.0922C65.3937 84.0527 63.7679 83.8978 62.7102 82.6832C62.0809 81.9597 61.1303 83.121 61.7623 83.8467Z" fill="#ED8936"/>
<path d="M36.3765 53.2893C51.2244 53.2893 63.2603 66.8741 63.2603 83.6355C63.2603 100.397 51.2246 113.982 36.3765 113.982C21.5285 113.982 11.2427 100.397 11.2427 83.6355C11.2427 66.8741 21.5283 53.2893 36.3765 53.2893Z" fill="#ED8936"/>
<path opacity="0.2" d="M59.4218 68.0017C59.4218 68.0017 57.695 74.5495 58.0187 78.0099C58.4922 83.0702 60.8231 96.2751 60.8231 96.2751C60.8231 96.2751 62.8075 92.8136 63.0337 88.2245C63.26 83.6357 60.5222 69.917 60.5222 69.917L59.4218 68.0017Z" fill="black"/>
<path opacity="0.1" d="M38.6658 113.867C39.4675 113.797 40.2571 113.685 41.0349 113.529L39.9589 110.768L38.6658 113.867Z" fill="black"/>
<path d="M49.6533 117.223L48.3875 105.964L38.4954 110.4L41.5882 117.223H49.6533Z" fill="#ED8936"/>
<path d="M19.8169 117.223L20.4415 105.964L29.8604 110.4L27.1803 117.223H19.8169Z" fill="#ED8936"/>
<path d="M52.4268 64.6024C52.4268 64.6024 56.2764 55.0586 54.7959 54.1741C53.3155 53.2895 49.0257 53.6677 44.2351 58.5358C47.1712 64.2242 52.4268 64.6024 52.4268 64.6024Z" fill="#ED8936"/>
<path opacity="0.2" d="M51.9565 64.1395C51.9565 64.1395 54.0561 57.5498 53.2277 57.165C52.3994 56.7801 49.5597 58.3263 46.9319 62.0398C48.572 65.3346 51.9565 64.1395 51.9565 64.1395Z" fill="black"/>
<path opacity="0.4" d="M41.1296 54.6465C39.4621 54.2537 37.2514 53.7967 34.3815 54.3796C31.3931 54.7408 30.5127 55.929 30.5127 55.929H34.5604C36.1097 54.6262 41.1296 54.6465 41.1296 54.6465Z" fill="black"/>
<path d="M19.0674 78.1092C18.9556 79.8466 19.5941 81.388 20.4937 81.5529C21.3932 81.7177 22.2127 80.4434 22.3245 78.7063C22.4365 76.9696 21.798 75.4275 20.8986 75.2627C19.9994 75.0976 19.1798 76.3719 19.0674 78.1092Z" fill="#263238"/>
<path d="M18.6821 74.6637C18.7871 74.6779 18.8936 74.6406 18.9752 74.5485C20.2443 73.1068 21.6734 73.6131 21.6899 73.6189C21.9016 73.6946 22.116 73.5476 22.1646 73.2824C22.2124 73.0177 22.078 72.7393 21.8634 72.6597C21.7887 72.6326 19.9953 71.9951 18.4203 73.7851C18.2635 73.9634 18.2602 74.2794 18.4131 74.4903C18.4871 74.5912 18.5839 74.6502 18.6821 74.6637Z" fill="#263238"/>
<path d="M39.4542 78.6761C39.566 80.4134 38.9275 81.9549 38.0279 82.1198C37.1285 82.2846 36.3089 81.0103 36.1971 79.2729C36.0851 77.5362 36.7236 75.9941 37.623 75.8293C38.5224 75.6644 39.342 76.939 39.4542 78.6761Z" fill="#263238"/>
<path d="M39.8396 75.2306C39.7345 75.2448 39.6281 75.2075 39.5465 75.1151C38.2773 73.6735 36.8483 74.1798 36.8317 74.1856C36.62 74.2613 36.4056 74.1142 36.3571 73.849C36.3092 73.5843 36.4436 73.3059 36.6582 73.2264C36.7329 73.1992 38.5263 72.5618 40.1014 74.3518C40.2583 74.5301 40.2614 74.846 40.1085 75.057C40.0345 75.1584 39.9379 75.2171 39.8396 75.2306Z" fill="#263238"/>
<path opacity="0.2" d="M29.3318 79.8799C33.6554 79.8799 37.1615 83.8365 37.1615 88.7193C37.1615 93.6021 33.6583 97.5587 29.3318 97.5587C25.0053 97.5587 21.4873 93.6021 21.4873 88.7193C21.4873 83.8365 25.0083 79.8799 29.3318 79.8799Z" fill="black"/>
<path d="M28.0061 79.8799C32.3297 79.8799 35.8359 83.8365 35.8359 88.7193C35.8359 93.6021 32.3326 97.5587 28.0061 97.5587C23.6797 97.5587 20.1616 93.6021 20.1616 88.7193C20.1616 83.8365 23.6826 79.8799 28.0061 79.8799Z" fill="#ED8936"/>
<path opacity="0.2" d="M30.1126 90.799C30.735 90.799 31.2396 89.6465 31.2396 88.2248C31.2396 86.8031 30.735 85.6506 30.1126 85.6506C29.4902 85.6506 28.9856 86.8031 28.9856 88.2248C28.9856 89.6465 29.4902 90.799 30.1126 90.799Z" fill="black"/>
<path opacity="0.2" d="M26.3702 88.2248C26.3702 89.6464 25.8656 90.799 25.2432 90.799C24.6208 90.799 24.1165 89.6464 24.1165 88.2248C24.1165 86.8032 24.621 85.6506 25.2432 85.6506C25.8654 85.6506 26.3702 86.8032 26.3702 88.2248Z" fill="black"/>
<path d="M28.0064 97.5586C23.9596 97.7295 20.0356 93.8695 20.0503 88.7195C20.0342 83.5711 23.9614 79.7078 28.0064 79.8798C25.0643 79.9456 22.159 81.9641 20.9003 85.2643C18.6061 91.3888 22.8478 97.4963 28.0064 97.5586Z" fill="#263238"/>
<path opacity="0.2" d="M20.3608 107.423C20.3608 107.423 23.3257 111.08 28.9323 112.763L28.1919 114.648L20.1719 110.826L20.3608 107.423Z" fill="black"/>
<path d="M40.119 91.9084C41.941 90.9002 42.91 88.0824 42.2413 85.7751C42.0978 85.2798 41.4494 85.4932 41.5945 85.9937C42.172 87.9859 41.3488 90.3299 39.7803 91.1978C39.6139 91.2899 39.5773 91.5823 39.66 91.7606C39.7575 91.9707 39.9549 91.9995 40.119 91.9084Z" fill="#263238"/>
<path d="M14.8235 65.6114L14.6006 65.4021C13.6755 66.8909 12.8622 68.4796 12.1709 70.1486L12.4213 70.3039C13.1061 68.6546 13.91 67.084 14.8235 65.6114Z" fill="#ED8936"/>
<path d="M11.7995 71.9107L11.5409 71.7722C11.2822 72.5015 11.0457 73.2542 10.8364 74.0071L11.1116 74.1185C11.318 73.3691 11.5521 72.6266 11.7995 71.9107Z" fill="#ED8936"/>
<path d="M67.0408 93.0012L67.1988 99.3723L65.4841 99.5254L64.0747 93.4192L67.0408 93.0012Z" fill="#E9B376"/>
<path d="M67.4583 102.484L65.9749 102.47C65.9749 102.47 65.6762 102.272 65.4999 102.296C65.3241 102.321 64.7125 102.459 64.7125 102.459L60.7734 102.422C60.8061 102.22 60.8461 102.04 60.8915 101.88C60.9467 101.686 61.0104 101.521 61.0808 101.382C61.3279 100.896 61.6619 100.725 62.0243 100.7C62.5761 100.663 64.3205 99.2576 64.3205 99.2576L65.0619 98.6997C65.0397 98.3923 65.0002 97.988 65.2664 97.8665C65.6076 97.7107 65.9027 97.6292 66.0563 98.0878L66.2226 98.638L66.6123 98.5673C66.6123 98.5673 67.3771 97.943 67.3329 98.4504C67.3076 98.7401 67.6857 100.058 67.5902 101.081C67.5678 101.319 67.5468 101.545 67.5285 101.743L67.528 101.743C67.4869 102.182 67.4583 102.484 67.4583 102.484Z" fill="#263238"/>
<g opacity="0.2">
<path d="M60.7734 102.422L64.7125 102.458C64.7125 102.458 65.3241 102.321 65.4999 102.296C65.6763 102.272 65.9749 102.47 65.9749 102.47L67.4583 102.484C67.4583 102.484 67.4867 102.182 67.5276 101.743L60.8915 101.88C60.8461 102.04 60.8061 102.22 60.7734 102.422Z" fill="white"/>
</g>
<path d="M63.4529 99.7771C63.4712 99.7554 63.4994 99.7532 63.5207 99.7708C63.6179 99.8511 63.6991 99.9644 63.7541 100.106C63.7829 100.18 63.6941 100.251 63.6651 100.176C63.6163 100.05 63.5452 99.9504 63.4603 99.8797C63.4319 99.8561 63.4274 99.8072 63.4522 99.7782C63.4525 99.7776 63.4529 99.7771 63.4529 99.7771Z" fill="#1C4D87"/>
<path d="M63.7676 99.5534C63.7859 99.5318 63.8141 99.5296 63.8353 99.5471C63.9326 99.6275 64.0138 99.7408 64.0688 99.882C64.0976 99.9566 64.0088 100.027 63.9798 99.9523C63.931 99.8266 63.8599 99.7265 63.775 99.656C63.7466 99.6324 63.7421 99.5836 63.7669 99.5545C63.7672 99.554 63.7676 99.5534 63.7676 99.5534Z" fill="#1C4D87"/>
<path d="M64.0926 99.3452C64.1109 99.3235 64.1391 99.3213 64.1603 99.3389C64.2575 99.4192 64.3387 99.5325 64.3937 99.6738C64.4228 99.7484 64.3338 99.8191 64.3047 99.744C64.256 99.6184 64.1849 99.5185 64.0999 99.448C64.0715 99.4244 64.0671 99.3756 64.0919 99.3466C64.0919 99.3457 64.0921 99.3455 64.0926 99.3452Z" fill="#1C4D87"/>
<path d="M72.3013 93.0461L73.0238 99.5503L74.7516 99.6575L75.3111 93.3871L72.3013 93.0461Z" fill="#E9B376"/>
<path d="M76.2227 102.57H72.3581C72.3581 102.57 72.2738 102.371 72.3702 101.841C72.3849 101.758 72.4039 101.667 72.429 101.568C72.4303 101.563 72.4312 101.559 72.4325 101.554C72.4688 101.407 72.5101 101.226 72.5542 101.032C72.7312 100.238 72.9394 99.2005 72.9394 99.2005C72.9394 99.2005 73.5824 97.5117 74.3347 97.9333C74.9946 98.3033 74.8381 99.3618 74.8381 99.3618C74.8381 99.3618 74.9027 99.9833 75.4031 100.531C75.7125 100.87 76.0201 101.132 76.1683 101.553C76.1961 101.632 76.2177 101.716 76.2334 101.806C76.2352 101.817 76.237 101.829 76.2383 101.841C76.2692 102.044 76.2674 102.282 76.2227 102.57Z" fill="#263238"/>
<g opacity="0.2">
<path d="M72.3702 101.841C72.2738 102.371 72.3581 102.57 72.3581 102.57H76.2227C76.2672 102.282 76.2692 102.044 76.2383 101.841H72.3702Z" fill="white"/>
</g>
<path d="M74.6822 99.6278C74.4649 99.4202 74.1796 99.447 73.984 99.681C73.9315 99.7438 73.8508 99.6451 73.9033 99.582C74.1472 99.2899 74.4957 99.2737 74.7627 99.5288C74.8208 99.5842 74.7394 99.6827 74.6822 99.6278Z" fill="#1C4D87"/>
<path d="M74.7918 100.071C74.5745 99.863 74.2892 99.8902 74.0936 100.124C74.0411 100.187 73.9604 100.088 74.0129 100.025C74.2568 99.733 74.6054 99.7168 74.8723 99.9719C74.9302 100.027 74.8491 100.125 74.7918 100.071Z" fill="#1C4D87"/>
<path d="M74.901 100.478C74.6837 100.27 74.3984 100.297 74.2028 100.531C74.1502 100.594 74.0695 100.495 74.1221 100.432C74.3662 100.14 74.7145 100.123 74.9814 100.379C75.0396 100.434 74.9584 100.532 74.901 100.478Z" fill="#1C4D87"/>
<path d="M76.0434 51.7918L67.9521 51.876L62.8743 51.687C62.8743 51.687 60.6223 71.0862 60.3198 74.6382C60.0173 78.1902 63.9588 97.5707 63.9588 97.5707H68.2135C68.2135 97.5707 65.8546 77.9592 66.1783 76.0376C66.4605 74.3625 68.2651 63.0866 69.0617 60.3564C69.1417 60.9156 69.224 61.4771 69.3078 62.0342C69.5095 64.5516 70.1556 72.578 70.4368 75.565C70.4368 75.565 71.0481 92.6269 71.7574 97.5816L75.4733 97.5893C75.9638 90.5555 76.2786 65.8492 76.2786 65.8492L76.278 65.8487C76.5532 60.4825 76.0434 51.7918 76.0434 51.7918Z" fill="#263238"/>
<g opacity="0.5">
<path d="M65.5429 54.5072C65.0709 56.41 63.8094 57.9383 62.2529 58.494C62.1691 58.5239 62.2046 58.6852 62.2891 58.655C63.8914 58.0828 65.1883 56.5101 65.6741 54.5514C65.6998 54.4485 65.5684 54.4044 65.5429 54.5072Z" fill="black"/>
<path d="M69.194 54.5069C69.1022 56.1715 69.0123 57.8389 68.9204 59.5036C68.9159 59.6108 68.7804 59.6108 68.7847 59.5036C68.8328 58.6497 68.8788 57.7931 68.9246 56.9368C68.5897 57.2536 68.1981 56.8696 68.0887 56.4456C67.9092 55.7582 67.9772 54.9419 68.1171 54.2546C68.139 54.1498 68.2703 54.1956 68.2484 54.2976C68.15 54.7809 68.1084 55.2749 68.1368 55.7716C68.15 56.024 68.1697 56.3139 68.2658 56.5449C68.3731 56.8027 68.6443 57.0199 68.8611 56.7865C68.8853 56.7624 68.9115 56.7596 68.9334 56.7731C68.9749 56.0185 69.0165 55.2615 69.0581 54.5069C69.0628 54.3994 69.1985 54.3994 69.194 54.5069Z" fill="black"/>
<path d="M73.184 54.7906C73.1648 56.9972 74.5496 58.8454 76.3399 59.0187C76.4257 59.0269 76.4253 58.8629 76.3399 58.8547C74.6218 58.6882 73.2994 56.9023 73.3177 54.7906C73.3188 54.6847 73.1849 54.6847 73.184 54.7906Z" fill="black"/>
</g>
<path d="M67.4089 25.4297C67.4089 25.4297 66.9372 23.83 67.2308 20.7687C67.2301 20.7657 67.0957 20.7229 67.0951 20.7199C67.1346 20.292 67.1847 19.894 67.2357 19.5473C67.2366 19.5375 67.2361 19.5342 67.2361 19.5342L64.3157 22.6687C64.5189 23.587 64.491 25.4472 64.4315 26.2427C64.4315 26.2427 64.2079 27.7068 65.7123 27.4613C66.8118 27.2817 67.4089 25.4297 67.4089 25.4297Z" fill="#E9B376"/>
<path opacity="0.2" d="M64.438 23.9933L66.2415 23.092C66.1686 23.8417 65.768 24.7945 64.4733 25.1305C64.4733 25.1305 64.4946 24.3036 64.438 23.9933Z" fill="black"/>
<path d="M66.998 17.5887C67.1225 20.1659 67.235 21.6166 66.3083 23.0745C64.9142 25.2677 62.2835 24.4988 61.532 22.0119C60.8555 19.7732 60.7657 15.9345 62.7127 14.6366C64.6307 13.3579 66.8735 15.0116 66.998 17.5887Z" fill="#E9B376"/>
<path d="M66.4002 13.9272C65.5151 12.4603 63.6514 13.5188 62.9181 14.3586C62.8086 14.4843 64.6181 15.2819 64.5101 15.2512L65.0594 15.8944C65.1368 15.8609 65.2425 16.7521 65.3308 17.5239C65.412 18.2326 65.6472 18.8992 66.0143 19.4551C66.3219 19.9212 66.7377 20.4834 67.2139 20.9514C67.8989 20.4077 67.7881 18.8468 67.9262 17.8868C68.1321 16.4566 68.2582 13.7574 66.4002 13.9272Z" fill="#263238"/>
<path d="M68.0316 19.599C67.9298 20.2825 67.5791 20.8418 67.1903 21.1553C66.6054 21.6271 66.2911 20.8267 66.2705 20.0121C66.252 19.2786 66.3374 18.3694 67.0123 18.2248C67.6774 18.0825 68.1478 18.8176 68.0316 19.599Z" fill="#E9B376"/>
<path d="M64.0859 18.771C64.1119 19.0327 64.0193 19.2606 63.8796 19.2795C63.7399 19.2987 63.6053 19.1018 63.5796 18.8401C63.5536 18.5785 63.6462 18.3505 63.7859 18.3316C63.9256 18.3124 64.06 18.5091 64.0859 18.771Z" fill="#263238"/>
<path d="M61.9983 19.1331C62.0242 19.3948 61.9319 19.6224 61.7919 19.6416C61.652 19.6605 61.5176 19.4639 61.4919 19.2022C61.466 18.9405 61.5585 18.7126 61.6983 18.6937C61.838 18.6745 61.9724 18.8711 61.9983 19.1331Z" fill="#263238"/>
<path d="M62.665 18.8867C62.665 18.8867 62.1179 20.2878 61.9536 20.8498C62.2832 21.1348 62.7797 20.9071 62.7797 20.9071L62.665 18.8867Z" fill="#D58745"/>
<path d="M64.486 17.4597C64.4553 17.4806 64.4164 17.4814 64.384 17.4573C63.9979 17.1723 63.6614 17.3626 63.6581 17.3646C63.608 17.3939 63.5474 17.3678 63.5231 17.3067C63.4987 17.2455 63.5199 17.172 63.5698 17.1429C63.5874 17.1325 64.0091 16.8936 64.488 17.2474C64.5358 17.2828 64.5512 17.3582 64.5226 17.4164C64.5132 17.435 64.5005 17.4496 64.486 17.4597Z" fill="#263238"/>
<path d="M63.561 21.6373C63.9073 21.589 64.1551 21.3375 64.3918 20.9812" stroke="#263238" stroke-width="0.75" stroke-miterlimit="10" stroke-linecap="round" stroke-linejoin="round"/>
<path opacity="0.2" d="M67.4858 18.9625C67.3867 18.8224 67.2099 18.7916 67.0684 18.8572C66.9269 18.923 66.8184 19.0687 66.744 19.2305C66.6548 19.4244 66.6078 19.6474 66.6092 19.8704" stroke="black" stroke-width="0.5" stroke-miterlimit="10" stroke-linecap="round" stroke-linejoin="round"/>
<path d="M60.9663 18.1652C60.9472 18.163 60.9285 18.1543 60.9124 18.1384C60.869 18.0953 60.8614 18.0177 60.8961 17.9645C61.2417 17.4318 61.702 17.4878 61.7228 17.4869C61.778 17.4941 61.8187 17.5547 61.8136 17.6224C61.8084 17.6902 61.7599 17.7393 61.7051 17.733C61.6861 17.7297 61.3311 17.6924 61.0537 18.1197C61.0318 18.1532 60.9984 18.1688 60.9663 18.1652Z" fill="#263238"/>
<path d="M66.4009 13.9271C66.4009 13.9271 65.2298 11.8743 62.9765 12.3255C61.1641 12.6884 60.143 14.2091 60.0214 15.7374C59.9691 16.394 60.0603 16.8938 60.1813 17.2501C60.2727 17.5191 60.5797 17.5063 60.6637 17.2336C60.6876 17.1563 60.7154 17.0803 60.7467 17.0065C60.7529 17.0243 60.7596 17.0422 60.7668 17.0592C60.8815 17.3373 61.2325 17.2687 61.2555 16.9582C61.2629 16.8603 61.2774 16.7627 61.2995 16.6672C61.3007 16.6697 61.3016 16.6719 61.3027 16.6743C61.4082 16.9187 61.71 16.8732 61.7728 16.6077C62.0503 15.4357 63.2833 14.643 64.3211 15.2664L65.0597 15.894C65.9795 15.3364 66.4009 13.9271 66.4009 13.9271Z" fill="#263238"/>
<path d="M49.1802 42.7575C49.2542 42.8318 58.3714 42.3156 58.3714 42.3156L59.225 34.3306C59.225 34.3306 63.0827 36.1052 63.0089 36.2031C62.9351 36.301 63.0201 42.4044 62.0775 45.5771C61.2879 48.2347 54.0293 47.1891 49.9108 45.9617L49.1802 42.7575Z" fill="#D58745"/>
<path d="M60.5012 27.4197C62.2698 27.4392 63.1882 31.0745 63.2674 40.5193L58.3413 39.9016C58.3413 39.9016 58.249 35.7286 58.2351 32.8618C58.5175 27.9351 60.5012 27.4197 60.5012 27.4197Z" fill="#263238"/>
<path opacity="0.5" d="M60.5012 27.4197C62.2698 27.4392 63.1882 31.0745 63.2674 40.5193L58.3413 39.9016C58.3413 39.9016 58.249 35.7286 58.2351 32.8618C58.5175 27.9351 60.5012 27.4197 60.5012 27.4197Z" fill="white"/>
<path d="M61.2288 27.0461C62.3247 26.6731 66.6543 25.0688 71.3805 25.0073L75.0718 44.8599C75.0718 44.8599 75.8375 48.7778 76.1994 51.8484C71.8459 55.3283 65.6353 56.2449 62.2167 54.7204C62.2648 54.8036 62.0573 52.4236 61.7638 48.9358C61.2464 42.7893 60.4619 33.2013 60.3374 27.5848C60.3361 27.4457 61.1197 27.0834 61.2288 27.0461Z" fill="#263238"/>
<path opacity="0.2" d="M60.9906 39.2634L60.5334 32.3042L60.116 40.1241L61.0744 40.2442L60.9906 39.2634Z" fill="black"/>
<path opacity="0.5" d="M61.2288 27.0461C62.3247 26.6731 66.6543 25.0688 71.3805 25.0073L75.0718 44.8599C75.0718 44.8599 75.8375 48.7778 76.1994 51.8484C71.8459 55.3283 65.6353 56.2449 62.2167 54.7204C62.2648 54.8036 62.0573 52.4236 61.7638 48.9358C61.2464 42.7893 60.4619 33.2013 60.3374 27.5848C60.3361 27.4457 61.1197 27.0834 61.2288 27.0461Z" fill="white"/>
<path d="M67.1625 23.5115L65.2349 25.8808L64.3786 24.9619L63.521 26.2225L65.2349 28.4563L68.2047 25.2625L67.1625 23.5115Z" fill="#263238"/>
<path opacity="0.7" d="M67.1625 23.5115L65.2349 25.8808L64.3786 24.9619L63.521 26.2225L65.2349 28.4563L68.2047 25.2625L67.1625 23.5115Z" fill="white"/>
<path d="M59.2226 46.6172C61.5064 43.7062 61.4343 39.075 59.0616 36.2731C56.6889 33.4712 52.9141 33.5597 50.6303 36.4707C48.3465 39.3816 48.4186 44.0128 50.7913 46.8147C53.164 49.6166 56.9388 49.5282 59.2226 46.6172Z" fill="#1C4D87"/>
<path opacity="0.3" d="M59.2226 46.6172C61.5064 43.7062 61.4343 39.075 59.0616 36.2731C56.6889 33.4712 52.9141 33.5597 50.6303 36.4707C48.3465 39.3816 48.4186 44.0128 50.7913 46.8147C53.164 49.6166 56.9388 49.5282 59.2226 46.6172Z" fill="black"/>
<path d="M60.4655 41.3978C60.4839 37.3576 57.8292 34.064 54.5361 34.0414C51.243 34.0187 48.5584 37.2756 48.54 41.3159C48.5215 45.3561 51.1762 48.6497 54.4693 48.6723C57.7625 48.6949 60.447 45.438 60.4655 41.3978Z" fill="#1C4D87"/>
<path d="M56.4623 46.9353C58.9736 45.6037 60.1295 42.0266 59.0442 38.9456C57.9589 35.8646 55.0432 34.4464 52.5319 35.778C50.0207 37.1095 48.8647 40.6866 49.95 43.7676C51.0354 46.8486 53.951 48.2668 56.4623 46.9353Z" fill="white"/>
<path d="M53.9141 46.5135L54.0755 45.0842C54.0985 45.088 54.1215 45.0916 54.1448 45.0949L54.0118 46.5286C53.9791 46.5239 53.9465 46.519 53.9141 46.5135ZM52.1083 45.6572C52.081 45.6344 52.0542 45.6111 52.0272 45.5875L52.7146 44.4169C52.7334 44.4336 52.7524 44.4498 52.7714 44.4657L52.1083 45.6572ZM55.934 46.2576L55.5349 44.9001L55.6038 44.8689L56.0232 46.217C55.9935 46.231 55.9637 46.2444 55.934 46.2576ZM50.7535 43.8022C50.7381 43.7668 50.7233 43.7314 50.7086 43.6958L51.7593 43.0473L51.7917 43.1247L50.7535 43.8022ZM57.6246 44.8799L56.7578 43.9045L56.8057 43.8395L57.7015 44.7743L57.6816 44.8022C57.668 44.8212 57.6463 44.8508 57.6246 44.8799ZM50.2574 41.3885C50.2572 41.3481 50.2574 41.3081 50.2579 41.2681L51.434 41.2911C51.4336 41.3196 51.4336 41.3484 51.4338 41.3769L50.2574 41.3885ZM57.4679 42.3112C57.4737 42.2848 57.4788 42.2585 57.484 42.2319L58.6286 42.5643C58.6208 42.6047 58.6125 42.6447 58.6038 42.6847L57.4679 42.3112ZM51.775 39.6295L50.7316 38.9638L50.7759 38.8617L51.8096 39.5494L51.775 39.6295ZM57.4898 40.5138L57.473 40.4282L58.6139 40.0774C58.6217 40.1158 58.6293 40.1542 58.6362 40.1926L57.4898 40.5138ZM52.7426 38.2723L52.0679 37.0904C52.0938 37.0682 52.1199 37.0462 52.1461 37.0246L52.8034 38.221L52.7426 38.2723ZM56.8287 38.9067C56.8139 38.8853 56.7987 38.8645 56.7835 38.8436L57.6566 37.8768C57.6789 37.9072 57.7008 37.9377 57.7223 37.9687L56.8287 38.9067ZM54.1115 37.6244L53.9621 36.1932C53.9954 36.188 54.0288 36.1833 54.0625 36.179L54.1783 37.6151C54.156 37.6179 54.1336 37.6209 54.1115 37.6244ZM55.6351 37.8598L55.5696 37.8288L55.9794 36.4763C56.01 36.4903 56.0404 36.5045 56.0706 36.5193L55.6351 37.8598Z" fill="black"/>
<path d="M52.5703 40.0025L54.5274 41.604L55.4253 38.5205" stroke="black" stroke-miterlimit="10" stroke-linecap="round" stroke-linejoin="round"/>
<path d="M54.878 41.5191C54.8248 41.761 54.6216 41.9042 54.4244 41.8389C54.2272 41.7736 54.1105 41.5246 54.1637 41.2824C54.217 41.0405 54.4202 40.8973 54.6174 40.9626C54.8145 41.0281 54.9312 41.2772 54.878 41.5191Z" fill="black"/>
<path opacity="0.3" d="M50.1276 39.6312C51.0507 36.4714 53.8869 34.8281 56.4623 35.9607C57.0953 36.2391 57.6522 36.6601 58.1205 37.1823C57.5976 36.49 56.9376 35.9343 56.1632 35.5937C53.5877 34.4611 50.7516 36.1044 49.8285 39.2642C49.1323 41.6474 49.7243 44.2115 51.1618 45.8144C49.9458 44.204 49.4822 41.8408 50.1276 39.6312Z" fill="black"/>
<path d="M48.6319 42.6521C48.6319 42.6521 51.0774 42.7426 51.3913 43.2426C51.7052 43.7429 50.9818 43.8968 50.9818 43.8968C50.9818 43.8968 51.7864 43.7874 51.8704 44.2002C51.9715 44.6955 51.2127 44.853 51.2127 44.853C51.2127 44.853 51.8727 44.7965 51.9274 45.1698C51.9842 45.5571 51.1383 45.8094 51.1383 45.8094C51.1383 45.8094 51.6091 45.8774 51.5275 46.1635C51.4457 46.4496 49.6587 47.0272 49.0524 46.7595C48.4461 46.4918 47.9247 43.6513 47.9149 43.0026C47.905 42.3542 47.9775 41.9118 48.5243 41.6348L48.6319 42.6521Z" fill="#E9B376"/>
<path opacity="0.2" d="M50.9882 43.9441C50.9871 43.9443 50.986 43.9446 50.9848 43.9446L49.5746 44.0532C49.5556 44.0546 49.5388 44.0346 49.537 44.0082C49.5352 43.9819 49.5498 43.9589 49.5681 43.958L50.9781 43.8494C50.9971 43.8481 51.0139 43.8681 51.0157 43.8944C51.0175 43.9191 51.0054 43.9405 50.9882 43.9441Z" fill="black"/>
<path opacity="0.2" d="M51.1797 44.9087C51.1797 44.9087 51.1792 44.9087 51.1788 44.9089L49.8311 45.1454C49.8123 45.1487 49.7947 45.1303 49.7913 45.1042C49.7882 45.0779 49.7987 45.059 49.8195 45.051L51.1671 44.8146C51.1859 44.8113 51.2036 44.8297 51.2069 44.8557C51.2103 44.8812 51.198 44.9048 51.1797 44.9087Z" fill="black"/>
<path opacity="0.2" d="M51.0987 45.8661L50.1014 46.077C50.0826 46.0809 50.0645 46.0631 50.0609 46.037C50.0574 46.0112 50.0694 45.9868 50.088 45.9827L51.0853 45.7718C51.1041 45.7679 51.1222 45.7857 51.1258 45.8118C51.1296 45.8379 51.1175 45.8623 51.0987 45.8661Z" fill="black"/>
<path d="M61.29 42.1081C61.29 42.1081 60.5791 41.3889 59.8214 41.4891C59.0638 41.5894 58.4371 41.4221 57.8782 41.5445C57.3193 41.6668 57.9781 42.1471 58.3707 42.3155C58.7633 42.4839 59.2071 42.6797 59.0562 43.0209C58.9055 43.3624 56.5898 45.1179 56.4246 45.6203C56.2593 46.1228 56.7063 45.9827 56.7063 45.9827C56.7063 45.9827 56.1532 46.4276 56.2372 46.7444C56.2591 46.8267 56.4185 46.9745 56.6964 46.8203C57.3217 46.4731 58.6032 45.6618 58.6032 45.6618C58.529 45.7065 57.0054 46.8467 56.7952 47.054C56.5207 47.325 56.5039 47.6246 56.6372 47.8146C56.8268 48.0854 58.7552 46.7507 58.8686 46.7641C58.8686 46.7641 57.7376 47.4871 57.7297 47.9474C57.7221 48.4076 58.4543 48.0003 59.0443 47.4907C59.5851 47.0236 60.7461 46.2806 61.2583 45.7402C61.8896 45.0742 62.1914 44.4533 61.973 43.5336C61.755 42.6139 61.29 42.1081 61.29 42.1081Z" fill="#E9B376"/>
<path opacity="0.3" d="M56.7695 45.9071C57.22 45.5643 57.6832 45.2464 58.1574 44.9551" stroke="black" stroke-width="0.25" stroke-miterlimit="10" stroke-linecap="round" stroke-linejoin="round"/>
<path d="M69.6987 35.5929L69.4899 40.2294L61.2298 42.0175L61.6407 45.5182C58.6013 45.7903 70.9871 45.3533 72.5273 44.6791C73.8702 44.0913 73.5221 35.45 73.5221 35.45L69.6987 35.5929Z" fill="#E9B376"/>
<path d="M71.3802 25.0073C71.3802 25.0073 73.7084 25.2457 73.8347 28.0977C73.951 30.724 73.9798 37.119 73.9798 37.119L69.3743 37.0808L69.2026 30.2725L71.3802 25.0073Z" fill="#263238"/>
<path opacity="0.5" d="M71.3802 25.0073C71.3802 25.0073 73.7084 25.2457 73.8347 28.0977C73.951 30.724 73.9798 37.119 73.9798 37.119L69.3743 37.0808L69.2026 30.2725L71.3802 25.0073Z" fill="white"/>
<path d="M60.9332 104.03H59.4243V116.645H60.9332V104.03Z" fill="#263238"/>
<path d="M70.3206 104.03H68.8118V116.645H70.3206V104.03Z" fill="#263238"/>
<path d="M77.1265 104.03H75.6177V116.645H77.1265V104.03Z" fill="#263238"/>
<path d="M67.4034 104.03H65.8945V116.645H67.4034V104.03Z" fill="#263238"/>
<path d="M77.5291 101.973H58.6199V104.576H77.5291V101.973Z" fill="#263238"/>
</svg>
