<svg width="98" height="170" viewBox="0 0 98 170" fill="none" xmlns="http://www.w3.org/2000/svg">
<path d="M63.3634 13.1228C63.3634 13.5316 63.2401 13.9046 63.0397 14.1743C62.8416 14.4458 62.5659 14.6123 62.2638 14.6123H38.7297C38.1252 14.6123 37.6301 13.9422 37.6301 13.1228C37.6301 12.7137 37.7532 12.341 37.9538 12.0713C38.1519 11.7998 38.4275 11.633 38.7297 11.633H39.842C40.2813 10.2516 41.2958 9.28597 42.4768 9.28597C43.2716 9.28597 43.9902 9.72398 44.5109 10.4303C45.2043 8.83928 46.4829 7.77071 47.9469 7.77071C48.3495 7.77071 48.7369 7.85311 49.1024 8.00259C49.868 6.05424 51.3817 4.72778 53.1265 4.72778C55.2217 4.72778 56.9841 6.64172 57.5161 9.24665C57.902 8.98558 58.3376 8.8361 58.7998 8.8361C60.1064 8.8361 61.2087 10.0166 61.5553 11.6333H62.2638C62.8681 11.633 63.3634 12.3032 63.3634 13.1228Z" fill="#CAE6FE"/>
<path d="M30.5783 7.48162C30.5783 7.7823 30.4877 8.05667 30.3402 8.255C30.1945 8.45478 29.992 8.57736 29.7697 8.57736H12.4625C12.0181 8.57736 11.6538 8.08442 11.6538 7.48191C11.6538 7.18123 11.7444 6.90686 11.892 6.70853C12.0378 6.50875 12.2403 6.38616 12.4625 6.38616H13.2805C13.6035 5.37021 14.3497 4.66015 15.2182 4.66015C15.8028 4.66015 16.3312 4.98222 16.7141 5.50147C17.2239 4.33142 18.1643 3.54561 19.241 3.54561C19.5369 3.54561 19.8217 3.60632 20.0907 3.71619C20.6538 2.28334 21.767 1.30786 23.0501 1.30786C24.5908 1.30786 25.8869 2.71556 26.2782 4.63095C26.5621 4.43898 26.8822 4.32911 27.2222 4.32911C28.183 4.32911 28.9937 5.19703 29.2486 6.38616H29.7697C30.2142 6.38587 30.5783 6.87881 30.5783 7.48162Z" fill="#CAE6FE"/>
<path d="M89.1754 6.17405C89.1754 6.47473 89.0848 6.74909 88.9374 6.94743C88.7917 7.14692 88.5891 7.2695 88.3669 7.2695H71.0597C70.6151 7.2695 70.251 6.77656 70.251 6.17405C70.251 5.87337 70.3416 5.59929 70.4892 5.40066C70.6349 5.20089 70.8375 5.0783 71.0597 5.0783H71.8776C72.2007 4.06235 72.9468 3.35229 73.8152 3.35229C74.3998 3.35229 74.9282 3.67436 75.3111 4.19361C75.8209 3.02356 76.7613 2.23775 77.8379 2.23775C78.1339 2.23775 78.4187 2.29846 78.6877 2.40833C79.2507 0.975473 80.3639 0 81.647 0C83.1878 0 84.4839 1.4077 84.8751 3.32309C85.1589 3.13111 85.4792 3.02096 85.8191 3.02096C86.78 3.02096 87.5906 3.88917 87.8456 5.07801H88.3667C88.8113 5.0783 89.1754 5.57124 89.1754 6.17405Z" fill="#CAE6FE"/>
<path d="M92.585 54.7797C92.294 54.8586 92.0103 54.9904 91.74 55.1766L90.8417 53.8276L89.7492 55.1596L90.6094 56.4507C90.4097 56.8049 90.2543 57.1906 90.1432 57.5953L88.6424 57.4898L88.5659 59.4769L89.9505 59.574C89.9883 60.1309 90.1022 60.679 90.2947 61.1905L89.2977 62.4065L90.2821 63.8847L91.2364 62.7211C91.5472 63.042 91.8919 63.2767 92.2532 63.4288L92.1882 65.1138L93.6568 65.217L93.7192 63.5893C94.1514 63.5043 94.5736 63.3016 94.96 62.9833L95.8198 64.2745L96.9123 62.9425L96.0136 61.5935C96.1785 61.2489 96.305 60.8808 96.393 60.4975L97.8114 60.5975L97.8879 58.6104L96.5116 58.5139C96.4488 57.929 96.299 57.3577 96.0638 56.835L97.018 55.6716L96.0336 54.1933L95.0367 55.4088C94.7309 55.1413 94.4001 54.9444 94.0557 54.8262L94.1273 52.9646L92.6587 52.8611L92.585 54.7797ZM94.2408 57.9411C94.7384 58.6882 94.6937 59.8435 94.1416 60.5168C93.5895 61.1902 92.7357 61.1301 92.238 60.3827C91.7404 59.6356 91.7848 58.4803 92.3372 57.807C92.8893 57.1339 93.7431 57.194 94.2408 57.9411Z" fill="#CAE6FE"/>
<path d="M10.4995 30.0553C10.2085 30.1342 9.92475 30.2661 9.65425 30.4522L8.75598 29.1032L7.66349 30.4352L8.52372 31.7264C8.32394 32.0805 8.16861 32.4662 8.0575 32.871L6.55669 32.7654L6.47998 34.7525L7.86456 34.8497C7.90238 35.4065 8.01626 35.9547 8.20878 36.4661L7.2118 37.6821L8.19617 39.1604L9.15042 37.9967C9.4613 38.3176 9.80595 38.5524 10.1673 38.7044L10.1025 40.3894L11.5711 40.4926L11.6335 38.8649C12.0657 38.7799 12.4879 38.5772 12.8742 38.2589L13.734 39.5501L14.8265 38.2182L13.9278 36.8691C14.0928 36.5245 14.2193 36.1565 14.3073 35.7731L15.7257 35.8731L15.8024 33.8861L14.4261 33.7895C14.3633 33.2046 14.2135 32.633 13.9783 32.1106L14.9325 30.9472L13.9481 29.469L12.9512 30.6844C12.6454 30.417 12.3146 30.2201 11.9702 30.1018L12.0418 28.2402L10.5732 28.1367L10.4995 30.0553ZM12.1552 33.217C12.6529 33.9641 12.6082 35.1194 12.0561 35.7928C11.504 36.4661 10.6502 36.406 10.1525 35.6586C9.65489 34.9115 9.69933 33.7562 10.2515 33.0829C10.8038 32.4095 11.6578 32.47 12.1552 33.217Z" fill="#CAE6FE"/>
<path d="M91.0033 46.1548C90.8444 46.1979 90.6892 46.2702 90.5414 46.3717L90.0504 45.6344L89.4534 46.3624L89.9235 47.0681C89.8143 47.2616 89.7294 47.4726 89.6685 47.6938L88.8483 47.636L88.8064 48.7219L89.563 48.7751C89.5837 49.0795 89.6459 49.379 89.751 49.6583L89.2062 50.323L89.7442 51.1308L90.2658 50.4947C90.4358 50.6699 90.6241 50.7983 90.8215 50.8816L90.786 51.8024L91.5886 51.8588L91.6228 50.9692C91.8591 50.9226 92.0898 50.8122 92.3009 50.6381L92.7708 51.3439L93.3678 50.6159L92.8766 49.8786C92.9667 49.6901 93.0358 49.4889 93.084 49.2796L93.8592 49.3342L93.9011 48.2483L93.149 48.1954C93.1146 47.8756 93.033 47.5634 92.9041 47.2777L93.4257 46.642L92.8877 45.8342L92.3428 46.4986C92.1757 46.3523 91.995 46.2447 91.8067 46.1803L91.8458 45.1629L91.0433 45.1062L91.0033 46.1548ZM91.9082 47.8826C92.1802 48.2908 92.1559 48.9222 91.8542 49.2903C91.5525 49.658 91.0858 49.6254 90.8138 49.2171C90.5418 48.8089 90.5662 48.1775 90.8679 47.8094C91.1698 47.4414 91.6364 47.4743 91.9082 47.8826Z" fill="#CAE6FE"/>
<path d="M5.07854 43.137C4.91957 43.1801 4.76444 43.2521 4.61659 43.3538L4.12557 42.6166L3.52858 43.3446L3.99865 44.0503C3.88947 44.2437 3.80464 44.4548 3.74375 44.676L2.92347 44.6181L2.88159 45.7041L3.63819 45.7572C3.65892 46.0617 3.7211 46.3612 3.82622 46.6405L3.28137 47.3052L3.81939 48.113L4.34095 47.4769C4.51103 47.6521 4.69927 47.7805 4.8967 47.8637L4.86124 48.7846L5.66378 48.8409L5.69796 47.9513C5.93428 47.9051 6.16504 47.7943 6.37615 47.6203L6.84601 48.326L7.443 47.598L6.95177 46.8608C7.04194 46.6723 7.11096 46.4714 7.15925 46.2618L7.93422 46.3164L7.9761 45.2305L7.22399 45.1776C7.18959 44.8578 7.10797 44.5456 6.97912 44.2599L7.50069 43.6242L6.96267 42.8164L6.41782 43.4808C6.25073 43.3345 6.06996 43.2269 5.88172 43.1624L5.92082 42.145L5.11828 42.0884L5.07854 43.137ZM5.98343 44.8648C6.25521 45.273 6.23107 45.9044 5.92937 46.2724C5.62767 46.6405 5.16101 46.6075 4.88901 46.1993C4.61701 45.7911 4.64137 45.1596 4.94307 44.7916C5.24499 44.4236 5.71143 44.4562 5.98343 44.8648Z" fill="#CAE6FE"/>
<path d="M46.953 114.352C72.8414 114.352 93.8282 112.247 93.8282 109.65C93.8282 107.054 72.8414 104.949 46.953 104.949C21.0646 104.949 0.0778809 107.054 0.0778809 109.65C0.0778809 112.247 21.0646 114.352 46.953 114.352Z" fill="#CAE6FE"/>
<path d="M78.2735 46.0109C78.2735 46.9545 77.706 47.7224 77.0086 47.7224C76.3112 47.7224 75.7437 46.9545 75.7437 46.0109C75.7437 45.0672 76.3112 44.2993 77.0086 44.2993C77.706 44.2993 78.2735 45.0672 78.2735 46.0109ZM77.8767 46.0109C77.8767 45.3633 77.4874 44.8362 77.0086 44.8362C76.53 44.8362 76.1404 45.363 76.1404 46.0109C76.1404 46.6585 76.53 47.1856 77.0086 47.1856C77.4872 47.1856 77.8767 46.6585 77.8767 46.0109Z" fill="#1C4D87"/>
<path d="M83.8455 41.0128C83.8455 41.9565 83.278 42.7244 82.5806 42.7244C81.8832 42.7244 81.3157 41.9565 81.3157 41.0128C81.3157 40.0692 81.8832 39.3013 82.5806 39.3013C83.278 39.3013 83.8455 40.0692 83.8455 41.0128ZM83.4487 41.0128C83.4487 40.3652 83.0594 39.8382 82.5806 39.8382C82.102 39.8382 81.7125 40.3649 81.7125 41.0128C81.7125 41.6604 82.1018 42.1875 82.5806 42.1875C83.0592 42.1875 83.4487 41.6604 83.4487 41.0128Z" fill="#61B3FF"/>
<path d="M83.1387 34.5542C83.0291 34.5542 82.9404 34.6745 82.9404 34.8228V36.0067C82.9404 36.155 83.0293 36.275 83.1387 36.275C83.2481 36.275 83.3372 36.1547 83.3372 36.0067V34.8228C83.3372 34.6745 83.2483 34.5542 83.1387 34.5542Z" fill="#1C4D87"/>
<path d="M83.1387 32.4824C83.0291 32.4824 82.9404 32.6027 82.9404 32.751V33.9349C82.9404 34.0833 83.0293 34.2035 83.1387 34.2035C83.2481 34.2035 83.3372 34.0833 83.3372 33.9349V32.751C83.3372 32.6027 83.2483 32.4824 83.1387 32.4824Z" fill="#1C4D87"/>
<path d="M84.3669 34.1106H83.5808C83.4712 34.1106 83.3823 34.2309 83.3823 34.3792C83.3823 34.5275 83.4712 34.6478 83.5808 34.6478H84.3669C84.4765 34.6478 84.5654 34.5275 84.5654 34.3792C84.5654 34.2306 84.4765 34.1106 84.3669 34.1106Z" fill="#1C4D87"/>
<path d="M82.6968 34.1106H81.9109C81.8013 34.1106 81.7126 34.2309 81.7126 34.3792C81.7126 34.5275 81.8015 34.6478 81.9109 34.6478H82.6968C82.8064 34.6478 82.8953 34.5275 82.8953 34.3792C82.8951 34.2306 82.8064 34.1106 82.6968 34.1106Z" fill="#1C4D87"/>
<path d="M76.2874 39.0237C76.1778 39.0237 76.0889 39.144 76.0889 39.2923V40.4762C76.0889 40.6245 76.1778 40.7445 76.2874 40.7445C76.397 40.7445 76.4859 40.6242 76.4859 40.4762V39.2923C76.4859 39.144 76.397 39.0237 76.2874 39.0237Z" fill="#61C2FF"/>
<path d="M76.2874 36.9519C76.1778 36.9519 76.0889 37.0722 76.0889 37.2205V38.4044C76.0889 38.5527 76.1778 38.673 76.2874 38.673C76.397 38.673 76.4859 38.5527 76.4859 38.4044V37.2205C76.4859 37.0722 76.397 36.9519 76.2874 36.9519Z" fill="#61C2FF"/>
<path d="M77.5153 38.5801H76.7293C76.6197 38.5801 76.5308 38.7003 76.5308 38.8484C76.5308 38.9967 76.6197 39.117 76.7293 39.117H77.5153C77.625 39.117 77.7136 38.9967 77.7136 38.8484C77.7138 38.7001 77.625 38.5801 77.5153 38.5801Z" fill="#61C2FF"/>
<path d="M75.8452 38.5801H75.0591C74.9495 38.5801 74.8608 38.7003 74.8608 38.8484C74.8608 38.9967 74.9497 39.117 75.0591 39.117H75.8452C75.9548 39.117 76.0437 38.9967 76.0437 38.8484C76.0435 38.7001 75.9546 38.5801 75.8452 38.5801Z" fill="#61C2FF"/>
<path d="M21.3399 16.3247C20.6425 16.3247 20.075 15.5568 20.075 14.6132C20.075 13.6695 20.6425 12.9016 21.3399 12.9016C22.0373 12.9016 22.6048 13.6695 22.6048 14.6132C22.6046 15.5568 22.0373 16.3247 21.3399 16.3247ZM21.3399 15.7878C21.8185 15.7878 22.208 15.2608 22.208 14.6132C22.208 13.9656 21.8185 13.4385 21.3399 13.4385C20.8613 13.4385 20.4717 13.9656 20.4717 14.6132C20.4717 15.2608 20.861 15.7878 21.3399 15.7878Z" fill="#1C4D87"/>
<path d="M24.9561 21.9781C24.2587 21.9781 23.6912 21.2102 23.6912 20.2665C23.6912 19.3228 24.2587 18.5549 24.9561 18.5549C25.6535 18.5549 26.221 19.3228 26.221 20.2665C26.2208 21.2102 25.6535 21.9781 24.9561 21.9781ZM24.9561 21.4412C25.4347 21.4412 25.8242 20.9144 25.8242 20.2668C25.8242 19.6192 25.4349 19.0921 24.9561 19.0921C24.4775 19.0921 24.0879 19.6189 24.0879 20.2668C24.0879 20.9141 24.4775 21.4412 24.9561 21.4412Z" fill="#61B3FF"/>
<path d="M28.176 13.3699C28.176 13.2216 28.0871 13.1013 27.9775 13.1013H27.1026C26.9929 13.1013 26.9041 13.2216 26.9041 13.3699C26.9041 13.5182 26.9929 13.6385 27.1026 13.6385H27.9775C28.0874 13.6382 28.176 13.5182 28.176 13.3699Z" fill="#1C4D87"/>
<path d="M29.7073 13.3699C29.7073 13.2216 29.6184 13.1013 29.5088 13.1013H28.6338C28.5242 13.1013 28.4353 13.2216 28.4353 13.3699C28.4353 13.5182 28.5242 13.6385 28.6338 13.6385H29.5088C29.6184 13.6382 29.7073 13.5182 29.7073 13.3699Z" fill="#1C4D87"/>
<path d="M28.5042 15.0312V13.9676C28.5042 13.8192 28.4153 13.699 28.3059 13.699C28.1963 13.699 28.1074 13.8192 28.1074 13.9676V15.0312C28.1074 15.1795 28.1963 15.2995 28.3059 15.2995C28.4153 15.2995 28.5042 15.1795 28.5042 15.0312Z" fill="#1C4D87"/>
<path d="M28.5042 12.7714V11.708C28.5042 11.5597 28.4153 11.4397 28.3059 11.4397C28.1963 11.4397 28.1074 11.56 28.1074 11.708V12.7714C28.1074 12.9197 28.1963 13.0399 28.3059 13.0399C28.4153 13.0399 28.5042 12.9197 28.5042 12.7714Z" fill="#1C4D87"/>
<path d="M18.2397 23.3716C18.2397 23.2233 18.1509 23.103 18.0412 23.103H17.1663C17.0567 23.103 16.9678 23.2233 16.9678 23.3716C16.9678 23.5199 17.0567 23.6402 17.1663 23.6402H18.0412C18.1509 23.6402 18.2397 23.5199 18.2397 23.3716Z" fill="#61C2FF"/>
<path d="M19.7708 23.3716C19.7708 23.2233 19.6819 23.103 19.5723 23.103H18.6973C18.5877 23.103 18.4988 23.2233 18.4988 23.3716C18.4988 23.5199 18.5877 23.6402 18.6973 23.6402H19.5723C19.6821 23.6402 19.7708 23.5199 19.7708 23.3716Z" fill="#61C2FF"/>
<path d="M18.5677 25.0331V23.9697C18.5677 23.8214 18.4788 23.7014 18.3694 23.7014C18.2598 23.7014 18.1709 23.8217 18.1709 23.9697V25.0331C18.1709 25.1814 18.2598 25.3017 18.3694 25.3017C18.4788 25.3017 18.5677 25.1814 18.5677 25.0331Z" fill="#61C2FF"/>
<path d="M18.5677 22.7732V21.7095C18.5677 21.5612 18.4788 21.4409 18.3694 21.4409C18.2598 21.4409 18.1709 21.5612 18.1709 21.7095V22.7732C18.1709 22.9215 18.2598 23.0417 18.3694 23.0417C18.4788 23.0417 18.5677 22.9215 18.5677 22.7732Z" fill="#61C2FF"/>
<path d="M65.4951 29.6145L66.0002 30.0195L66.2682 30.2343L67.0273 30.8426C67.0273 30.8426 81.3844 21.1234 79.5511 12.2465C78.9868 9.51375 76.0551 8.80108 73.0962 16.497C70.3533 23.6309 65.4951 29.6145 65.4951 29.6145Z" fill="#ABD3F2"/>
<path d="M66.0002 30.0194L66.2682 30.2342C69.2837 27.4737 71.843 23.9124 73.5156 21.3043C75.5017 18.2073 76.7023 15.7472 76.714 15.7227C76.757 15.6348 76.7388 15.5165 76.6737 15.4593C76.6087 15.4012 76.5213 15.4257 76.4788 15.5133C76.4668 15.5382 75.2748 17.9812 73.2998 21.0594C71.6189 23.68 69.0371 27.269 66.0002 30.0194Z" fill="#90C3EF"/>
<path d="M62.8669 31.9196L63.3447 32.8069L63.5983 33.2773L64.3165 34.6101C64.3165 34.6101 86.459 32.8789 87.7132 20.2582C88.0996 16.373 84.6659 13.3032 77.8058 20.8852C71.4466 27.9133 62.8669 31.9196 62.8669 31.9196Z" fill="#CAE6FE"/>
<path d="M63.3445 32.807L63.5981 33.2774C68.5388 32.0009 73.2239 29.3714 76.3988 27.2965C80.1688 24.8329 82.6852 22.5972 82.7097 22.5744C82.7997 22.4946 82.8245 22.3312 82.7649 22.2101C82.7059 22.0884 82.5852 22.0548 82.4958 22.1346C82.4706 22.1572 79.972 24.3776 76.2238 26.8258C73.0329 28.9106 68.3082 31.5589 63.3445 32.807Z" fill="#ABD3F2"/>
<path d="M36.0596 95.0918L35.5526 95.4928L35.2836 95.7053L34.5216 96.3072C34.5216 96.3072 20.2086 86.4704 22.0816 77.6087C22.6581 74.8806 25.593 74.1923 28.5175 81.9122C31.2284 89.0684 36.0596 95.0918 36.0596 95.0918Z" fill="#ABD3F2"/>
<path d="M35.5527 95.4926L35.2837 95.7051C32.2808 92.9198 29.7373 89.3376 28.0764 86.7159C26.1042 83.6028 24.9147 81.1328 24.9032 81.108C24.8607 81.0198 24.8793 80.9016 24.9447 80.8449C25.0098 80.7874 25.0972 80.8125 25.1393 80.9004C25.1513 80.9253 26.3324 83.3781 28.2935 86.4725C29.9627 89.1072 32.5284 92.7171 35.5527 95.4926Z" fill="#90C3EF"/>
<path d="M38.6777 97.4183L38.1961 98.3015L37.9406 98.7699L37.2165 100.097C37.2165 100.097 15.0821 98.1839 13.8844 85.553C13.5157 81.6647 16.963 78.6232 23.7889 86.2616C30.116 93.3418 38.6777 97.4183 38.6777 97.4183Z" fill="#CAE6FE"/>
<path d="M38.1961 98.3014L37.9406 98.7698C33.0057 97.4528 28.3325 94.7849 25.1668 92.6839C21.4079 90.1894 18.9016 87.9331 18.877 87.9103C18.7875 87.8296 18.7636 87.6663 18.8236 87.5457C18.883 87.4246 19.004 87.3922 19.0931 87.4726C19.1183 87.4954 21.6067 89.7361 25.3442 92.2152C28.5255 94.3258 33.2382 97.0125 38.1961 98.3014Z" fill="#ABD3F2"/>
<path d="M65.7475 82.7797C68.5457 77.9066 71.2563 72.5921 72.7451 68.7871C74.6904 63.8161 75.4698 59.8312 75.0624 56.9432C75.0352 56.7518 74.8987 56.6264 74.7573 56.6628C74.6158 56.6992 74.5231 56.8842 74.55 57.0756C75.2626 62.1239 72.0142 70.967 65.1528 82.6695L65.7475 82.7797Z" fill="#ABD3F2"/>
<path d="M74.2061 64.1594C74.2061 64.1594 76.0152 65.8056 78.0297 61.3885C78.0297 61.3885 74.7323 59.9317 74.2061 64.1594Z" fill="#CAE6FE"/>
<path d="M73.2547 66.5099C73.2547 66.5099 74.57 64.1574 71.4227 61.1899C71.4227 61.1899 70.1642 65.5637 73.2547 66.5099Z" fill="#CAE6FE"/>
<path d="M74.8799 59.2173C74.8799 59.2173 76.6995 57.5928 74.4637 53.3755C74.4637 53.3755 72.1992 56.9313 74.8799 59.2173Z" fill="#CAE6FE"/>
<path d="M71.448 71.3173C71.448 71.3173 72.739 73.6944 75.7391 70.4598C75.7391 70.4598 73.0003 67.5796 71.448 71.3173Z" fill="#CAE6FE"/>
<path d="M70.2111 73.5126C70.2111 73.5126 71.8072 71.5033 69.0868 67.8442C69.0868 67.8442 67.2881 71.8574 70.2111 73.5126Z" fill="#CAE6FE"/>
<path d="M68.7375 76.7457C68.7375 76.7457 69.995 79.1555 73.0398 75.9983C73.0398 75.9983 70.342 73.0485 68.7375 76.7457Z" fill="#CAE6FE"/>
<path d="M34.6608 52.4183C30.9584 48.8148 27.2476 44.7548 25.0241 41.6748C22.1193 37.6512 20.5386 34.1272 20.326 31.2014C20.3119 31.0074 20.4166 30.8348 20.5599 30.8157C20.7033 30.7966 20.8309 30.9386 20.845 31.1323C21.2168 36.2473 26.1807 43.4861 35.208 52.0853L34.6608 52.4183Z" fill="#ABD3F2"/>
<path d="M22.6556 37.7957C22.6556 37.7957 21.2644 40.067 18.4089 36.6011C18.4089 36.6011 21.2672 33.9418 22.6556 37.7957Z" fill="#CAE6FE"/>
<path d="M24.0597 39.6858C24.0597 39.6858 22.3064 37.9326 24.7048 33.8818C24.7048 33.8818 26.8263 37.5955 24.0597 39.6858Z" fill="#CAE6FE"/>
<path d="M20.9767 33.3132C20.9767 33.3132 18.8917 32.4514 20.1549 27.5503C20.1549 27.5503 23.0698 30.0942 20.9767 33.3132Z" fill="#CAE6FE"/>
<path d="M26.7974 43.6054C26.7974 43.6054 26.0559 46.3794 22.5022 44.425C22.5022 44.425 24.5271 40.6145 26.7974 43.6054Z" fill="#CAE6FE"/>
<path d="M28.4427 45.2377C28.4427 45.2377 26.4917 43.921 28.3363 39.3704C28.3363 39.3704 30.9004 42.5315 28.4427 45.2377Z" fill="#CAE6FE"/>
<path d="M30.5318 47.7752C30.5318 47.7752 29.8293 50.5678 26.249 48.7047C26.249 48.7047 28.2203 44.8427 30.5318 47.7752Z" fill="#CAE6FE"/>
<path d="M70.0118 22.1899V104.684C70.0118 107.27 68.4631 109.366 66.5519 109.366H36.1916C35.2314 109.366 34.3633 108.837 33.7361 107.983C33.1154 107.136 32.7317 105.971 32.7317 104.684V22.1899C32.7317 19.6038 34.2804 17.5083 36.1916 17.5083H66.5519C67.1168 17.5083 67.6501 17.6913 68.1213 18.0166C69.2439 18.7905 70.0118 20.3682 70.0118 22.1899Z" fill="#3B3E7D"/>
<path d="M68.723 22.1899V104.684C68.723 107.27 67.1743 109.366 65.2631 109.366H34.9028C33.9426 109.366 33.0744 108.837 32.4473 107.983C31.8266 107.136 31.4429 105.971 31.4429 104.684V22.1899C31.4429 19.6038 32.9915 17.5083 34.9028 17.5083H65.2631C65.828 17.5083 66.3613 17.6913 66.8325 18.0166C67.9549 18.7905 68.723 20.3682 68.723 22.1899Z" fill="#18285D"/>
<path d="M69.3787 37.7969H69.8575C70.3041 37.7969 70.666 37.3071 70.666 36.7029V31.4407C70.666 30.8364 70.3041 30.3467 69.8575 30.3467H69.3787V37.7969Z" fill="#18285D"/>
<path d="M31.4428 37.7969H31.0676C30.7176 37.7969 30.4341 37.4129 30.4341 36.9397V31.2039C30.4341 30.7306 30.7176 30.3467 31.0676 30.3467H31.4428V37.7969Z" fill="#18285D"/>
<path d="M31.4428 47.5708H31.0676C30.7176 47.5708 30.4341 47.1869 30.4341 46.7136V40.9778C30.4341 40.5043 30.7176 40.1206 31.0676 40.1206H31.4428V47.5708Z" fill="#18285D"/>
<path d="M66.9964 21.906V104.966C66.9964 106.108 66.3133 107.029 65.4721 107.029H34.6933C34.0632 107.029 33.523 106.513 33.2899 105.774C33.2121 105.525 33.1689 105.253 33.1689 104.966V21.906C33.1689 20.7678 33.8516 19.8435 34.6933 19.8435H65.4721C65.5723 19.8435 65.6699 19.8562 65.7642 19.8811C65.8708 19.9086 65.9733 19.9516 66.071 20.008C66.5408 20.283 66.8898 20.8658 66.9757 21.5675C66.9896 21.6774 66.9964 21.7907 66.9964 21.906Z" fill="white"/>
<path d="M59.3663 91.7499V99.2027C59.3663 99.7078 59.039 100.117 58.6354 100.117H42.335C41.9313 100.117 41.604 99.7078 41.604 99.2027V91.7499C41.604 91.2448 41.9313 90.8354 42.335 90.8354H58.6354C59.0392 90.8357 59.3663 91.2448 59.3663 91.7499Z" fill="#1C4D87"/>
<path d="M46.5229 113.088V96.8297H54.3503C55.8678 96.8297 57.1762 97.0774 58.2756 97.5729C59.3905 98.0684 60.2499 98.7807 60.8538 99.7098C61.4577 100.623 61.7596 101.707 61.7596 102.962C61.7596 104.216 61.4577 105.3 60.8538 106.213C60.2499 107.127 59.3905 107.839 58.2756 108.35C57.1762 108.846 55.8678 109.093 54.3503 109.093H49.5656L52.0044 106.747V113.088H46.5229ZM52.0044 107.351L49.5656 104.866H54.0019C54.7606 104.866 55.3181 104.696 55.6742 104.355C56.0458 104.014 56.2317 103.55 56.2317 102.962C56.2317 102.373 56.0458 101.909 55.6742 101.568C55.3181 101.227 54.7606 101.057 54.0019 101.057H49.5656L52.0044 98.5717V107.351ZM44.7577 141.088L51.865 124.83H57.2536L64.361 141.088H58.6937L53.4445 127.431H55.5813L50.3321 141.088H44.7577ZM48.9849 138.255L50.3785 134.306H57.8575L59.2511 138.255H48.9849ZM50.7037 169.088V161.958L51.9579 165.233L44.5719 152.83H50.3553L55.349 161.307H51.9812L57.0214 152.83H62.3171L54.9774 165.233L56.1852 161.958V169.088H50.7037Z" fill="#2B72C5"/>
<path d="M46.1972 113.088V96.8297H54.0246C55.5421 96.8297 56.8505 97.0774 57.9499 97.5729C59.0648 98.0684 59.9242 98.7807 60.5281 99.7098C61.132 100.623 61.4339 101.707 61.4339 102.962C61.4339 104.216 61.132 105.3 60.5281 106.213C59.9242 107.127 59.0648 107.839 57.9499 108.35C56.8505 108.846 55.5421 109.093 54.0246 109.093H49.2399L51.6787 106.747V113.088H46.1972ZM51.6787 107.351L49.2399 104.866H53.6762C54.4349 104.866 54.9924 104.696 55.3485 104.355C55.7202 104.014 55.906 103.55 55.906 102.962C55.906 102.373 55.7202 101.909 55.3485 101.568C54.9924 101.227 54.4349 101.057 53.6762 101.057H49.2399L51.6787 98.5717V107.351ZM44.432 141.088L51.5394 124.83H56.9279L64.0353 141.088H58.368L53.1188 127.431H55.2556L50.0064 141.088H44.432ZM48.6592 138.255L50.0528 134.306H57.5318L58.9254 138.255H48.6592ZM50.378 169.088V161.958L51.6323 165.233L44.2462 152.83H50.0296L55.0234 161.307H51.6555L56.6957 152.83H61.9914L54.6517 165.233L55.8595 161.958V169.088H50.378Z" fill="white"/>
<path d="M48.6661 45.4641H33.2661V82.3346H48.6661V45.4641Z" fill="#E9E2E8"/>
<path d="M53.4662 42.5929V80.9058C53.4662 82.6749 52.6111 84.1855 51.4321 84.7183C51.1374 84.8516 50.8227 84.9242 50.4964 84.9242C48.8627 84.9242 47.5266 83.1164 47.5266 80.9058V42.5929C47.5266 40.3823 48.8627 38.5745 50.4964 38.5745C50.8227 38.5745 51.1376 38.647 51.4321 38.7803C51.8739 38.9795 52.2709 39.3175 52.594 39.7546C53.1326 40.4835 53.4662 41.4876 53.4662 42.5929Z" fill="#18285D"/>
<path d="M53.4662 42.5931V80.906C53.4662 82.6751 52.6111 84.1857 51.4321 84.7185C50.2531 84.1857 49.3979 82.6751 49.3979 80.906V42.5931C49.3979 40.824 50.2531 39.3134 51.4321 38.7805C51.8739 38.9797 52.2709 39.3177 52.594 39.7548C53.1327 40.4837 53.4662 41.4878 53.4662 42.5931Z" fill="#3B3E7D"/>
<path d="M66.9964 21.906V30.4479H33.1689V21.906C33.1689 20.7678 33.8516 19.8435 34.6933 19.8435H65.4721C65.5723 19.8435 65.6699 19.8562 65.7642 19.8811C65.8708 19.9086 65.9733 19.9516 66.071 20.008C66.5408 20.283 66.8898 20.8658 66.9757 21.5675C66.9896 21.6774 66.9964 21.7907 66.9964 21.906Z" fill="#E9E2E8"/>
<path d="M32.3046 30.7328L32.2941 30.7478L32.296 33.6037C32.296 34.7893 31.9409 35.8622 31.3666 36.6388C30.7927 37.4159 29.9997 37.8965 29.1235 37.8965C27.4913 37.8965 26.1466 36.2283 25.971 34.0836C25.9573 33.926 25.9509 33.7662 25.9509 33.6037V30.8042L33.6962 20.3241C33.9238 20.0162 34.2321 19.8433 34.5539 19.8433H40.221L32.3046 30.7328Z" fill="#1C4D87"/>
<path d="M32.2941 30.7477L32.296 33.6036C32.296 34.7892 31.9409 35.8621 31.3666 36.6387C30.7927 37.4158 29.9997 37.8964 29.1235 37.8964C27.4913 37.8964 26.1466 36.2282 25.971 34.0835L25.9509 30.8041L32.3044 30.7327L32.2941 30.7477Z" fill="#2B72C5"/>
<path d="M52.9109 19.8433L44.986 30.5665V33.6037C44.986 34.7893 44.6308 35.8622 44.0565 36.6388C43.4826 37.4159 42.6897 37.8965 41.8134 37.8965C40.0613 37.8965 38.6408 35.9744 38.6408 33.6037L38.6389 30.6622L46.5639 19.8433H52.9109Z" fill="#1C4D87"/>
<path d="M44.986 30.5913V33.6033C44.986 34.789 44.6308 35.8619 44.0565 36.6384C43.4826 37.4156 42.6897 37.8961 41.8134 37.8961C40.0613 37.8961 38.6408 35.974 38.6408 33.6033L38.6389 30.6619L44.986 30.5913Z" fill="#2B72C5"/>
<path d="M57.8652 30.4477L57.8672 33.6037C57.8672 34.7893 57.512 35.8622 56.9377 36.6388C56.364 37.4159 55.5704 37.8965 54.6946 37.8965C52.9425 37.8965 51.3291 35.9744 51.3291 33.6037L51.3426 30.5665L51.3767 30.5203L59.2541 19.8433H65.7921L57.8652 30.4477Z" fill="#1C4D87"/>
<path d="M57.8674 33.6035C57.8674 34.7891 57.5123 35.8621 56.9379 36.6386C56.3642 37.4158 55.5707 37.8963 54.6948 37.8963C52.9428 37.8963 51.3293 35.9742 51.3293 33.6035L51.3428 30.5663L51.377 30.5201L57.8655 30.4475L57.8674 33.6035Z" fill="#2B72C5"/>
<path d="M64.2097 30.3766V30.3772L64.2104 33.6034C64.2104 34.7894 63.8554 35.8626 63.2809 36.6385C62.7074 37.416 61.9138 37.8962 61.0378 37.8962C59.2859 37.8962 57.8652 35.9744 57.8652 33.6034V30.4477L65.7644 19.8809C65.871 19.9083 65.9735 19.9514 66.0712 20.0078C66.5411 20.2827 66.89 20.8656 66.9759 21.5673C66.9898 21.6771 66.9968 21.7908 66.9968 21.9058V26.6727L64.2097 30.3766Z" fill="white"/>
<path d="M64.2104 33.6035C64.2104 34.7891 63.8552 35.862 63.2809 36.6386C62.707 37.4157 61.9136 37.8963 61.0378 37.8963C59.2857 37.8963 57.8652 35.9742 57.8652 33.6035V30.4475L64.2097 30.377L64.2104 33.6035Z" fill="#E9E2E8"/>
<path d="M46.5643 19.8433L38.6393 30.6622V33.6037C38.6393 34.7893 38.2842 35.8622 37.7098 36.6388C37.1359 37.4159 36.343 37.8965 35.4667 37.8965C33.7147 37.8965 32.2942 35.9744 32.2942 33.6037V30.7478L32.3047 30.7328L40.2211 19.8433H46.5643Z" fill="white"/>
<path d="M38.6393 30.6619V33.6033C38.6393 34.789 38.2842 35.8619 37.7098 36.6384C37.1359 37.4156 36.343 37.8961 35.4667 37.8961C33.7147 37.8961 32.2942 35.9741 32.2942 33.6033V30.7474L32.3047 30.7324L38.6393 30.6619Z" fill="#E9E2E8"/>
<path d="M59.2542 19.8433L51.3292 30.5665V33.6037C51.3292 34.7893 50.9741 35.8622 50.3998 36.6388C49.8259 37.4159 49.0329 37.8965 48.1567 37.8965C46.4046 37.8965 44.9841 35.9744 44.9841 33.6037V30.5665L52.911 19.8433H59.2542Z" fill="white"/>
<path d="M51.3632 30.5203L51.329 30.5665V33.6037C51.329 34.7893 50.9739 35.8622 50.3995 36.6388C49.8256 37.4159 49.0327 37.8965 48.1564 37.8965C46.4044 37.8965 44.9839 35.9744 44.9839 33.6037V30.5917L51.3632 30.5203Z" fill="#E9E2E8"/>
<path d="M52.2234 45.9238V77.6322C52.2234 79.0578 51.3683 80.214 50.3145 80.214H10.5182C10.0438 80.214 9.60858 79.9784 9.27483 79.591C8.86801 79.1177 8.61011 78.4151 8.61011 77.6325V45.9238C8.61011 44.4982 9.46436 43.342 10.5182 43.342H50.3145C51.3681 43.342 52.2234 44.4982 52.2234 45.9238Z" fill="#ED8936"/>
<path d="M52.2229 49.8618H8.61011V56.8896H52.2229V49.8618Z" fill="#3B3E7D"/>
<path d="M48.1663 75.45H39.7206C39.22 75.45 38.8142 74.901 38.8142 74.2236V71.8138C38.8142 71.1364 39.22 70.5874 39.7206 70.5874H48.1663C48.6669 70.5874 49.0727 71.1364 49.0727 71.8138V74.2236C49.0727 74.901 48.6669 75.45 48.1663 75.45Z" fill="#BBCADB"/>
<path d="M14.2449 65.2256H11.37C11.2437 65.2256 11.1414 65.0871 11.1414 64.9162V62.8826C11.1414 62.7117 11.2437 62.5732 11.37 62.5732H14.2449C14.3712 62.5732 14.4735 62.7117 14.4735 62.8826V64.9162C14.4737 65.0871 14.3712 65.2256 14.2449 65.2256Z" fill="#BBCADB"/>
<path d="M20.1148 65.2256H17.2399C17.1136 65.2256 17.0112 65.0871 17.0112 64.9162V62.8826C17.0112 62.7117 17.1136 62.5732 17.2399 62.5732H20.1148C20.2411 62.5732 20.3434 62.7117 20.3434 62.8826V64.9162C20.3434 65.0871 20.2411 65.2256 20.1148 65.2256Z" fill="#BBCADB"/>
<path d="M25.9844 65.2256H23.1095C22.9832 65.2256 22.8809 65.0871 22.8809 64.9162V62.8826C22.8809 62.7117 22.9832 62.5732 23.1095 62.5732H25.9844C26.1107 62.5732 26.213 62.7117 26.213 62.8826V64.9162C26.213 65.0871 26.1107 65.2256 25.9844 65.2256Z" fill="#BBCADB"/>
<path d="M31.854 65.2256H28.9791C28.8528 65.2256 28.7505 65.0871 28.7505 64.9162V62.8826C28.7505 62.7117 28.8528 62.5732 28.9791 62.5732H31.854C31.9803 62.5732 32.0827 62.7117 32.0827 62.8826V64.9162C32.0827 65.0871 31.9803 65.2256 31.854 65.2256Z" fill="#BBCADB"/>
<path d="M37.7239 65.2256H34.849C34.7227 65.2256 34.6204 65.0871 34.6204 64.9162V62.8826C34.6204 62.7117 34.7227 62.5732 34.849 62.5732H37.7239C37.8502 62.5732 37.9525 62.7117 37.9525 62.8826V64.9162C37.9527 65.0871 37.8502 65.2256 37.7239 65.2256Z" fill="#BBCADB"/>
<path d="M43.5938 65.2256H40.7189C40.5926 65.2256 40.4902 65.0871 40.4902 64.9162V62.8826C40.4902 62.7117 40.5926 62.5732 40.7189 62.5732H43.5938C43.7201 62.5732 43.8224 62.7117 43.8224 62.8826V64.9162C43.8224 65.0871 43.7201 65.2256 43.5938 65.2256Z" fill="#BBCADB"/>
<path d="M49.4636 65.2256H46.5887C46.4625 65.2256 46.3601 65.0871 46.3601 64.9162V62.8826C46.3601 62.7117 46.4625 62.5732 46.5887 62.5732H49.4636C49.5899 62.5732 49.6923 62.7117 49.6923 62.8826V64.9162C49.6923 65.0871 49.5899 65.2256 49.4636 65.2256Z" fill="#BBCADB"/>
<path d="M52.2229 46.1379H8.61011V47.4852H52.2229V46.1379Z" fill="#BBCADB"/>
<path d="M15.5305 76.1428H12.6216C11.8039 76.1428 11.1411 75.2459 11.1411 74.1395V70.2035C11.1411 69.097 11.8039 68.2002 12.6216 68.2002H15.5305C16.3482 68.2002 17.011 69.097 17.011 70.2035V74.1395C17.011 75.2459 16.3482 76.1428 15.5305 76.1428Z" fill="#BBCADB"/>
<path d="M36.9057 74.1126H18.919C18.6385 74.1126 18.4111 73.805 18.4111 73.4254V72.6115C18.4111 72.2319 18.6385 71.9243 18.919 71.9243H36.9057C37.1862 71.9243 37.4136 72.2319 37.4136 72.6115V73.4254C37.4136 73.805 37.1862 74.1126 36.9057 74.1126Z" fill="#BBCADB"/>
<path opacity="0.2" d="M36.0642 43.342L9.27483 79.5907C8.86801 79.1174 8.61011 78.4148 8.61011 77.6322V66.5082L25.731 43.342H36.0642Z" fill="white"/>
<path opacity="0.2" d="M50.2329 43.342L22.9831 80.214H17.927L45.1771 43.342H50.2329Z" fill="white"/>
<path d="M84.7311 110.136H80.8639C80.3381 110.136 79.8719 109.33 79.7095 108.139L78.0696 96.1203C78.0025 95.6285 78.1465 95.1176 78.3629 95.0778C81.349 94.5267 84.3057 94.5261 87.2332 95.0763C87.4494 95.1171 87.5932 95.6276 87.5261 96.1188L85.886 108.139C85.7232 109.33 85.257 110.136 84.7311 110.136Z" fill="#61B3FF"/>
<path d="M82.8225 96.322C85.1653 96.322 87.0645 96.0346 87.0645 95.6802C87.0645 95.3257 85.1653 95.0383 82.8225 95.0383C80.4798 95.0383 78.5806 95.3257 78.5806 95.6802C78.5806 96.0346 80.4798 96.322 82.8225 96.322Z" fill="#18285D"/>
<path d="M90.1471 79.7066C87.8243 78.8786 84.2751 85.4027 83.1971 91.7633V82.496C83.739 81.1958 84.7719 79.2397 86.6477 77.1728C89.5645 73.9584 92.2494 69.8333 89.9224 69.0038C87.7414 68.2267 84.48 73.9295 83.1971 79.8934V67.9922C83.573 67.2027 84.1885 66.167 85.1727 65.0826C87.0109 63.0568 88.7032 60.457 87.2365 59.9343C85.9637 59.4807 84.1067 62.5291 83.1971 65.9673V62.1099C83.3475 60.9167 83.5601 59.2127 84.1437 57.4702C85.4958 53.4333 86.2261 49.2738 84.4435 49.5834C82.6591 49.8931 81.5023 57.0831 82.4779 62.6026V64.5876C81.819 60.5484 79.5575 56.3649 78.0817 56.8908C76.6153 57.4135 78.3073 60.0132 80.1455 62.0391C81.5448 63.5812 82.1997 65.0245 82.4779 65.8007V75.1759C81.4209 68.7833 77.8464 62.1851 75.5112 63.0174C73.1842 63.8469 75.8691 67.972 78.7859 71.1864C80.9901 73.6152 82.0309 75.8914 82.4779 77.1297V88.3719C81.3482 82.0964 77.865 75.7628 75.5743 76.5792C73.2472 77.4087 75.2429 80.4233 78.521 84.0693C80.7487 86.5473 81.9418 89.1624 82.4779 90.584V95.8794C82.7379 95.9777 82.9813 95.9774 83.1971 95.8794V93.772C83.6531 92.5242 84.6952 90.274 86.8724 87.8747C89.7892 84.6612 92.4742 80.5361 90.1471 79.7066Z" fill="#1C4D87"/>
<path d="M21.3058 108.124C21.3061 108.135 21.3061 108.145 21.3061 108.156C21.3061 108.551 21.1503 108.931 20.8631 109.286C20.793 109.372 20.715 109.457 20.6296 109.541C20.3907 109.774 20.0933 109.994 19.745 110.198C19.6696 110.243 19.5916 110.286 19.5114 110.328C19.2416 110.472 18.9459 110.607 18.6271 110.731C18.5506 110.761 18.4728 110.79 18.3935 110.819C18.1143 110.92 17.8188 111.014 17.5087 111.099C17.4318 111.12 17.354 111.141 17.2752 111.161C16.9912 111.234 16.6959 111.3 16.3906 111.358C16.3135 111.373 16.2357 111.387 16.1571 111.401C15.8699 111.452 15.5748 111.496 15.2725 111.533C15.1949 111.543 15.1171 111.552 15.0389 111.561C14.7498 111.593 14.4548 111.618 14.1546 111.638C14.077 111.642 13.9992 111.647 13.921 111.651C13.6304 111.666 13.3356 111.675 13.0364 111.677C12.9845 111.677 12.9324 111.677 12.8802 111.677C12.8546 111.677 12.8287 111.677 12.8031 111.677C12.5042 111.676 12.2091 111.669 11.9183 111.655C11.8401 111.651 11.7623 111.647 11.6848 111.642C11.4636 111.629 11.245 111.612 11.0296 111.592C10.9527 111.585 10.8762 111.578 10.8004 111.57C10.7222 111.561 10.6444 111.553 10.5668 111.543C10.2647 111.507 9.96942 111.464 9.68246 111.415C9.60383 111.402 9.52627 111.388 9.44892 111.373C9.26602 111.339 9.08675 111.302 8.91069 111.263C8.7936 111.237 8.67822 111.21 8.56433 111.181C8.4857 111.161 8.40771 111.141 8.33079 111.12C8.0214 111.037 7.72589 110.946 7.44599 110.847C7.39086 110.828 7.33616 110.808 7.28189 110.788C7.2586 110.779 7.23552 110.77 7.21245 110.761C7.08595 110.714 6.96267 110.664 6.84365 110.613C6.6631 110.535 6.4911 110.454 6.32807 110.37C6.24794 110.328 6.17017 110.286 6.09453 110.244C5.79603 110.075 5.53301 109.894 5.30994 109.703C5.27575 109.674 5.2422 109.645 5.20994 109.615C5.16934 109.578 5.13046 109.541 5.09328 109.503C5.05247 109.462 5.01379 109.42 4.97661 109.378C4.63923 108.998 4.45483 108.586 4.45483 108.156C4.45483 108.126 4.4559 108.096 4.45804 108.065L4.45889 105.632L4.97661 105.631L5.21015 105.631L6.09474 105.629L6.32828 105.628L7.01865 105.627L7.21287 105.627L7.44641 105.626L8.33122 105.624L8.56476 105.624L9.44935 105.622L9.68289 105.622L10.5673 105.62L10.8008 105.619L11.6852 105.618L11.9187 105.617L12.8035 105.615L13.0371 105.615L13.9217 105.613L14.1552 105.613L15.0396 105.611L15.2731 105.61L16.1577 105.608L16.3912 105.608L17.2758 105.606L17.5094 105.606L18.3942 105.604L18.6277 105.603H18.6852L19.5121 105.602L19.7456 105.601L20.6302 105.599L20.8638 105.599L21.3035 105.598L21.3067 108.124H21.3058V108.124Z" fill="#BBCADB"/>
<path d="M5.21062 105.63V109.615C5.17002 109.578 5.13114 109.54 5.09396 109.502C5.05315 109.461 5.01447 109.42 4.97729 109.378V105.631L5.21062 105.63Z" fill="#1C4D87"/>
<path d="M6.32851 105.628V110.37C6.24838 110.328 6.17061 110.286 6.09497 110.243V105.629L6.32851 105.628Z" fill="#1C4D87"/>
<path d="M7.44643 105.625V110.847C7.3913 110.827 7.33661 110.807 7.28233 110.787C7.25904 110.779 7.23597 110.77 7.21289 110.761V105.626L7.44643 105.625Z" fill="#1C4D87"/>
<path d="M8.56484 105.624V111.181C8.48621 111.161 8.40822 111.141 8.3313 111.12V105.624H8.56484Z" fill="#1C4D87"/>
<path d="M9.683 105.621V111.415C9.60437 111.401 9.52681 111.387 9.44946 111.373V105.622L9.683 105.621Z" fill="#1C4D87"/>
<path d="M10.8007 105.619V111.569C10.7225 111.561 10.6447 111.552 10.5671 111.543V105.619L10.8007 105.619Z" fill="#1C4D87"/>
<path d="M11.9188 105.617V111.655C11.8406 111.651 11.7629 111.647 11.6853 111.642V105.618L11.9188 105.617Z" fill="#1C4D87"/>
<path d="M13.037 105.615V111.677C12.9851 111.677 12.933 111.677 12.8808 111.677C12.8552 111.677 12.8294 111.677 12.8037 111.677V105.615L13.037 105.615Z" fill="#1C4D87"/>
<path d="M14.1549 105.613V111.637C14.0774 111.642 13.9996 111.647 13.9214 111.651V105.613L14.1549 105.613Z" fill="#1C4D87"/>
<path d="M15.2731 105.61V111.533C15.1955 111.543 15.1178 111.552 15.0396 111.561V105.611L15.2731 105.61Z" fill="#1C4D87"/>
<path d="M16.3913 105.608V111.358C16.3141 111.373 16.2363 111.387 16.1577 111.401V105.608L16.3913 105.608Z" fill="#1C4D87"/>
<path d="M17.5089 105.606V111.099C17.432 111.121 17.3542 111.141 17.2754 111.161V105.607L17.5089 105.606Z" fill="#1C4D87"/>
<path d="M18.6273 105.604V110.731C18.5508 110.761 18.4731 110.791 18.3938 110.819V105.604L18.6273 105.604Z" fill="#1C4D87"/>
<path d="M19.7453 105.601V110.198C19.6698 110.242 19.5918 110.286 19.5117 110.328V105.602L19.7453 105.601Z" fill="#1C4D87"/>
<path d="M20.8634 105.599V109.285C20.7933 109.372 20.7154 109.457 20.6299 109.54V105.599H20.8634Z" fill="#1C4D87"/>
<path d="M21.3046 105.629C21.3046 107.416 17.5342 108.866 12.8816 108.866C12.2459 108.866 11.6267 108.838 11.0314 108.787C10.2827 108.723 9.57163 108.62 8.9131 108.485C8.32508 108.364 7.77894 108.217 7.28494 108.048C7.13388 107.996 6.98773 107.943 6.84692 107.887C6.22749 107.642 5.70806 107.361 5.31363 107.051C5.2365 106.991 5.16406 106.929 5.09697 106.867C4.68566 106.485 4.45874 106.067 4.45874 105.629C4.45874 105.589 4.46088 105.549 4.46558 105.509C4.62882 103.777 8.3347 102.392 12.8818 102.392C14.0008 102.392 15.0687 102.476 16.0454 102.628C16.234 102.658 16.4193 102.69 16.6009 102.724C17.3943 102.874 18.1169 103.071 18.7449 103.305C18.8833 103.357 19.0171 103.41 19.1459 103.465C19.6047 103.661 20.0019 103.878 20.3262 104.113C20.6604 104.355 20.917 104.616 21.0835 104.889C21.2048 105.089 21.2781 105.296 21.298 105.508C21.3027 105.549 21.3046 105.589 21.3046 105.629Z" fill="#61C2FF"/>
<path opacity="0.3" d="M21.0832 104.89L11.0312 108.787C10.2825 108.723 9.57137 108.62 8.91284 108.485L20.326 104.114C20.6599 104.356 20.9168 104.616 21.0832 104.89Z" fill="white"/>
<path opacity="0.3" d="M16.6004 102.724L5.3131 107.051C5.23596 106.991 5.16353 106.93 5.09644 106.867L16.0446 102.628C16.2335 102.658 16.4188 102.69 16.6004 102.724Z" fill="white"/>
<path opacity="0.3" d="M19.1457 103.465L7.2847 108.048C7.13364 107.996 6.98749 107.942 6.84668 107.887L18.7446 103.305C18.8829 103.357 19.0166 103.41 19.1457 103.465Z" fill="white"/>
<path d="M19.6137 105.629C19.6137 105.669 19.611 105.709 19.6071 105.748C19.4447 107.12 16.4903 108.216 12.8815 108.216C9.27258 108.216 6.3184 107.12 6.15579 105.748C6.15195 105.709 6.14917 105.669 6.14917 105.629C6.14917 104.203 9.16917 103.042 12.8812 103.042C16.5937 103.042 19.6137 104.203 19.6137 105.629Z" fill="#1C4D87"/>
<path d="M19.6069 105.748C19.4445 107.12 16.4901 108.216 12.8812 108.216C12.8005 108.216 12.7206 108.216 12.6409 108.215C11.8358 108.204 11.0665 108.138 10.3565 108.027C9.64629 107.917 8.99631 107.761 8.43094 107.569C8.28714 107.52 8.14911 107.469 8.01578 107.415C7.41281 107.173 6.92992 106.885 6.6077 106.567C6.52971 106.491 6.46113 106.412 6.40301 106.333C6.26391 106.146 6.18036 105.95 6.15601 105.748C6.31861 104.376 9.2728 103.279 12.8817 103.279C13.3383 103.279 13.7844 103.297 14.2165 103.33C14.4363 103.347 14.6532 103.368 14.8656 103.394C15.7327 103.497 16.5254 103.665 17.2044 103.884C17.351 103.932 17.4929 103.982 17.629 104.034C18.1578 104.236 18.6003 104.472 18.9317 104.732C19.2548 104.986 19.4727 105.262 19.5648 105.554C19.5853 105.618 19.5994 105.682 19.6069 105.748Z" fill="#BBCADB"/>
<path opacity="0.2" d="M19.565 105.554L12.641 108.215C11.8359 108.204 11.0667 108.139 10.3567 108.028L18.9319 104.732C19.2549 104.986 19.4729 105.263 19.565 105.554Z" fill="white"/>
<path opacity="0.2" d="M14.8654 103.394L6.60777 106.567C6.52978 106.491 6.46119 106.413 6.40308 106.333L14.2165 103.331C14.4362 103.348 14.6533 103.369 14.8654 103.394Z" fill="white"/>
<path opacity="0.2" d="M17.6291 104.034L8.43103 107.569C8.28723 107.52 8.1492 107.469 8.01587 107.416L17.2043 103.885C17.3511 103.932 17.4927 103.982 17.6291 104.034Z" fill="white"/>
<path d="M13.8179 107.097V107.527H12.397V107.116C11.3894 107.093 10.4121 106.989 9.80737 106.845L10.5732 106.179C11.2383 106.33 12.125 106.427 12.9009 106.427C13.5761 106.427 13.8179 106.373 13.8179 106.28C13.8179 105.939 9.91827 106.214 9.91827 105.204C9.91827 104.766 10.7445 104.398 12.397 104.309V103.887H13.8179V104.301C14.5636 104.328 15.2891 104.402 15.8634 104.526L15.148 105.188C14.4528 105.052 13.7979 104.987 13.1831 104.987C12.4879 104.987 12.2661 105.064 12.2661 105.157C12.2661 105.482 16.1657 105.211 16.1657 106.21C16.1657 106.629 15.3799 106.993 13.8179 107.097Z" fill="#1C4D87"/>
<path d="M13.7764 106.954V107.384H12.3555V106.974C11.3479 106.95 10.3706 106.846 9.76587 106.702L10.5317 106.036C11.1968 106.187 12.0835 106.284 12.8594 106.284C13.5346 106.284 13.7764 106.23 13.7764 106.137C13.7764 105.796 9.87676 106.071 9.87676 105.061C9.87676 104.623 10.703 104.255 12.3555 104.166V103.744H13.7764V104.158C14.5221 104.185 15.2475 104.259 15.8221 104.383L15.1067 105.045C14.4115 104.909 13.7566 104.843 13.1418 104.843C12.4466 104.843 12.2248 104.921 12.2248 105.014C12.2248 105.339 16.1244 105.068 16.1244 106.067C16.1244 106.486 15.3384 106.85 13.7764 106.954Z" fill="#61C2FF"/>
<path d="M21.8353 104.131C21.8355 104.142 21.8355 104.152 21.8355 104.163C21.8355 104.558 21.6798 104.938 21.3926 105.292C21.3225 105.379 21.2443 105.464 21.1591 105.547C20.92 105.781 20.6228 106.001 20.2745 106.205C20.199 106.249 20.1211 106.293 20.0409 106.335C19.7711 106.479 19.4751 106.614 19.1563 106.738C19.0798 106.768 19.0021 106.797 18.9228 106.826C18.6435 106.927 18.348 107.021 18.038 107.106C17.9611 107.127 17.8833 107.148 17.8045 107.168C17.5205 107.241 17.2252 107.307 16.9199 107.365C16.8427 107.38 16.765 107.394 16.6863 107.408C16.3992 107.459 16.1041 107.503 15.8017 107.541C15.7242 107.55 15.6464 107.559 15.5682 107.568C15.2791 107.6 14.984 107.625 14.6836 107.645C14.6063 107.65 14.5283 107.654 14.4501 107.658C14.1595 107.673 13.8644 107.682 13.5655 107.684C13.5136 107.684 13.4612 107.684 13.4093 107.684C13.3836 107.684 13.3578 107.684 13.3322 107.684C13.0332 107.683 12.7382 107.676 12.4473 107.662C12.3691 107.658 12.2914 107.654 12.2138 107.65C11.9927 107.636 11.7741 107.619 11.5587 107.599C11.4818 107.592 11.4053 107.584 11.3294 107.576C11.2512 107.568 11.1735 107.559 11.0959 107.55C10.7938 107.514 10.4985 107.471 10.2113 107.422C10.1327 107.408 10.0549 107.395 9.97776 107.38C9.79486 107.346 9.61538 107.309 9.43953 107.27C9.32244 107.244 9.20706 107.216 9.09317 107.188C9.01454 107.168 8.93655 107.148 8.85963 107.127C8.55024 107.044 8.25473 106.953 7.97483 106.854C7.9197 106.834 7.86479 106.815 7.81073 106.795C7.78744 106.786 7.76436 106.777 7.7415 106.768C7.61501 106.72 7.49172 106.671 7.37271 106.619C7.19216 106.542 7.02015 106.461 6.85712 106.377C6.777 106.335 6.69922 106.293 6.62358 106.25C6.32509 106.081 6.06206 105.901 5.83899 105.71C5.80459 105.681 5.77104 105.651 5.73899 105.622C5.6984 105.585 5.65951 105.547 5.62233 105.509C5.58152 105.468 5.54263 105.427 5.50567 105.385C5.16828 105.004 4.98389 104.592 4.98389 104.163C4.98389 104.133 4.98495 104.102 4.98709 104.072L4.98795 101.639L5.50567 101.638L5.73921 101.637L6.6238 101.636L6.85734 101.635L7.5477 101.634L7.74193 101.633L7.97547 101.633L8.86027 101.631L9.09381 101.631L9.97819 101.629L10.2117 101.628L11.0963 101.626L11.3299 101.626L12.2142 101.624L12.4478 101.624L13.3326 101.622L13.5661 101.621L14.4507 101.62L14.6842 101.619L15.5688 101.617L15.8024 101.617L16.687 101.615L16.9205 101.615L17.8051 101.613L18.0386 101.612L18.9234 101.611L19.157 101.61H19.2147L20.0416 101.608L20.2751 101.608L21.1597 101.606L21.3932 101.606L21.833 101.605L21.8353 104.131Z" fill="#BBCADB"/>
<path d="M5.73992 101.637V105.622C5.69932 105.585 5.66043 105.547 5.62326 105.51C5.58244 105.469 5.54356 105.427 5.50659 105.385V101.638L5.73992 101.637Z" fill="#1C4D87"/>
<path d="M6.85781 101.635V106.377C6.77768 106.335 6.69991 106.293 6.62427 106.25V101.636L6.85781 101.635Z" fill="#1C4D87"/>
<path d="M7.97625 101.633V106.854C7.92112 106.834 7.86621 106.814 7.81215 106.794C7.78886 106.786 7.76578 106.777 7.74292 106.768V101.633L7.97625 101.633Z" fill="#1C4D87"/>
<path d="M9.09438 101.631V107.188C9.01575 107.168 8.93776 107.148 8.86084 107.127V101.631L9.09438 101.631Z" fill="#1C4D87"/>
<path d="M10.2123 101.628V107.422C10.1337 107.408 10.0559 107.395 9.97876 107.38V101.629L10.2123 101.628Z" fill="#1C4D87"/>
<path d="M11.3302 101.626V107.576C11.252 107.568 11.1742 107.559 11.0967 107.549V101.626L11.3302 101.626Z" fill="#1C4D87"/>
<path d="M12.4484 101.624V107.662C12.3702 107.658 12.2924 107.654 12.2148 107.649V101.625L12.4484 101.624Z" fill="#1C4D87"/>
<path d="M13.5666 101.621V107.684C13.5147 107.684 13.4623 107.684 13.4104 107.684C13.3847 107.684 13.3589 107.684 13.3333 107.684V101.622L13.5666 101.621Z" fill="#1C4D87"/>
<path d="M14.6847 101.619V107.644C14.6074 107.649 14.5294 107.654 14.4512 107.658V101.62L14.6847 101.619Z" fill="#1C4D87"/>
<path d="M15.8024 101.617V107.54C15.7248 107.55 15.6471 107.559 15.5688 107.567V101.617L15.8024 101.617Z" fill="#1C4D87"/>
<path d="M16.9208 101.615V107.365C16.8437 107.38 16.7659 107.394 16.6873 107.408V101.615L16.9208 101.615Z" fill="#1C4D87"/>
<path d="M18.0387 101.613V107.106C17.9618 107.128 17.884 107.148 17.8052 107.168V101.614L18.0387 101.613Z" fill="#1C4D87"/>
<path d="M19.1566 101.611V106.738C19.0801 106.768 19.0024 106.798 18.9231 106.826V101.611L19.1566 101.611Z" fill="#1C4D87"/>
<path d="M20.2748 101.608V106.205C20.1994 106.25 20.1214 106.293 20.0413 106.335V101.609L20.2748 101.608Z" fill="#1C4D87"/>
<path d="M21.393 101.606V105.292C21.3229 105.379 21.2447 105.464 21.1594 105.547V101.606H21.393Z" fill="#1C4D87"/>
<path d="M21.8337 101.636C21.8337 103.423 18.0633 104.873 13.4106 104.873C12.775 104.873 12.1557 104.846 11.5605 104.794C10.8118 104.73 10.1009 104.627 9.44215 104.492C8.85413 104.371 8.308 104.224 7.81399 104.055C7.66293 104.003 7.51678 103.95 7.37597 103.894C6.75654 103.649 6.23712 103.368 5.84268 103.058C5.76555 102.998 5.6929 102.936 5.62602 102.874C5.21471 102.493 4.98779 102.075 4.98779 101.636C4.98779 101.596 4.98993 101.556 4.99463 101.516C5.15787 99.7843 8.86375 98.3994 13.4108 98.3994C14.5298 98.3994 15.5977 98.4833 16.5744 98.6353C16.7631 98.6648 16.9483 98.6966 17.13 98.731C17.9235 98.8814 18.6459 99.078 19.2739 99.3121C19.4124 99.3636 19.5461 99.4171 19.6752 99.472C20.1339 99.668 20.5311 99.8855 20.8555 100.12C21.1897 100.362 21.4463 100.623 21.6127 100.896C21.7341 101.096 21.8074 101.303 21.8273 101.516C21.8318 101.556 21.8337 101.596 21.8337 101.636Z" fill="#61C2FF"/>
<path opacity="0.3" d="M21.6123 100.897L11.5602 104.794C10.8115 104.73 10.1006 104.627 9.44189 104.492L20.855 100.121C21.1892 100.363 21.4458 100.623 21.6123 100.897Z" fill="white"/>
<path opacity="0.3" d="M17.1294 98.7312L5.84215 103.058C5.76501 102.998 5.69237 102.936 5.62549 102.874L16.5739 98.6355C16.7626 98.6647 16.9478 98.6965 17.1294 98.7312Z" fill="white"/>
<path opacity="0.3" d="M19.6747 99.4722L7.81375 104.055C7.66269 104.003 7.51654 103.949 7.37573 103.894L19.2737 99.312C19.4119 99.3638 19.5457 99.4173 19.6747 99.4722Z" fill="white"/>
<path d="M20.1428 101.636C20.1428 101.676 20.14 101.716 20.1362 101.755C19.9738 103.127 17.0196 104.223 13.4105 104.223C9.80167 104.223 6.84748 103.127 6.68488 101.755C6.68125 101.716 6.67847 101.676 6.67847 101.636C6.67847 100.21 9.69847 99.0493 13.4105 99.0493C17.123 99.0493 20.1428 100.21 20.1428 101.636Z" fill="#1C4D87"/>
<path d="M20.1364 101.755C19.974 103.126 17.0198 104.223 13.4107 104.223C13.33 104.223 13.2501 104.222 13.1702 104.221C12.3653 104.21 11.5958 104.145 10.8858 104.034C10.1756 103.924 9.52561 103.767 8.96024 103.575C8.81644 103.527 8.67841 103.476 8.54508 103.422C7.9421 103.179 7.45921 102.892 7.137 102.574C7.05901 102.498 6.99042 102.419 6.9323 102.34C6.79321 102.152 6.70966 101.956 6.6853 101.755C6.8479 100.383 9.80209 99.2859 13.411 99.2859C13.8676 99.2859 14.3137 99.3035 14.7458 99.3371C14.9656 99.3541 15.1825 99.3752 15.3949 99.4007C16.262 99.5036 17.0547 99.6721 17.7337 99.8913C17.8803 99.9384 18.0222 99.9884 18.1583 100.041C18.6871 100.243 19.1296 100.478 19.4612 100.739C19.7843 100.993 20.0022 101.269 20.0943 101.561C20.1148 101.625 20.1289 101.69 20.1364 101.755Z" fill="#BBCADB"/>
<path opacity="0.2" d="M20.094 101.561L13.1701 104.222C12.3652 104.211 11.5958 104.146 10.8857 104.035L19.4609 100.739C19.784 100.993 20.0019 101.269 20.094 101.561Z" fill="white"/>
<path opacity="0.2" d="M15.3947 99.4013L7.13707 102.574C7.05908 102.498 6.99049 102.42 6.93237 102.34L14.7456 99.3376C14.9655 99.3547 15.1823 99.3758 15.3947 99.4013Z" fill="white"/>
<path opacity="0.2" d="M18.1581 100.041L8.96033 103.576C8.81653 103.527 8.6785 103.476 8.54517 103.422L17.7336 99.8914C17.8802 99.9388 18.022 99.9885 18.1581 100.041Z" fill="white"/>
<path d="M14.347 103.104V103.534H12.9261V103.124C11.9184 103.101 10.9409 102.996 10.3364 102.853L11.1022 102.186C11.7674 102.337 12.6541 102.434 13.4299 102.434C14.1051 102.434 14.347 102.38 14.347 102.287C14.347 101.946 10.4473 102.221 10.4473 101.211C10.4473 100.773 11.2736 100.405 12.9261 100.316V99.894H14.347V100.308C15.0927 100.336 15.8181 100.409 16.3927 100.533L15.6773 101.195C14.982 101.059 14.3269 100.994 13.7124 100.994C13.0171 100.994 12.7955 101.071 12.7955 101.164C12.7955 101.489 16.6952 101.218 16.6952 102.217C16.695 102.636 15.9089 103 14.347 103.104Z" fill="#1C4D87"/>
<path d="M14.3058 102.961V103.391H12.8851V102.98C11.8774 102.957 10.8999 102.852 10.2954 102.709L11.0612 102.043C11.7264 102.194 12.6131 102.291 13.3889 102.291C14.0641 102.291 14.306 102.237 14.306 102.143C14.306 101.803 10.4063 102.078 10.4063 101.067C10.4063 100.629 11.2326 100.262 12.8851 100.173V99.7505H14.3058V100.165C15.0515 100.192 15.7771 100.265 16.3514 100.389L15.6361 101.052C14.9408 100.916 14.2859 100.85 13.6712 100.85C12.9759 100.85 12.7543 100.927 12.7543 101.02C12.7543 101.346 16.654 101.075 16.654 102.074C16.6536 102.492 15.8677 102.856 14.3058 102.961Z" fill="#61C2FF"/>
<path d="M21.7579 100.138C21.7581 100.149 21.7581 100.16 21.7581 100.171C21.7581 100.566 21.6024 100.946 21.3152 101.3C21.2451 101.387 21.1669 101.472 21.0816 101.555C20.8428 101.789 20.5453 102.009 20.1971 102.213C20.1216 102.257 20.0436 102.3 19.9635 102.343C19.6936 102.487 19.3979 102.621 19.0789 102.746C19.0024 102.775 18.9249 102.805 18.8454 102.834C18.5661 102.935 18.2706 103.028 17.9606 103.114C17.8837 103.135 17.8059 103.156 17.727 103.176C17.4431 103.248 17.1478 103.314 16.8424 103.373C16.7651 103.388 16.6875 103.402 16.6089 103.416C16.3217 103.466 16.0267 103.511 15.7243 103.548C15.6468 103.558 15.569 103.567 15.4908 103.575C15.2017 103.608 14.9064 103.633 14.6062 103.652C14.5286 103.657 14.4508 103.662 14.3726 103.665C14.0821 103.68 13.787 103.689 13.4881 103.691C13.4361 103.692 13.3838 103.692 13.3319 103.692C13.3062 103.692 13.2804 103.692 13.2547 103.692C12.9558 103.691 12.6607 103.683 12.3699 103.669C12.2917 103.666 12.2139 103.662 12.1364 103.657C11.9152 103.644 11.6967 103.627 11.4811 103.607C11.4041 103.6 11.3276 103.592 11.2518 103.584C11.1736 103.576 11.0958 103.567 11.0183 103.557C10.7161 103.521 10.4208 103.479 10.1339 103.429C10.0552 103.416 9.97768 103.402 9.90034 103.388C9.71744 103.353 9.53795 103.317 9.3621 103.277C9.24501 103.251 9.12963 103.224 9.01575 103.196C8.93712 103.176 8.85913 103.155 8.78221 103.135C8.47281 103.052 8.17731 102.961 7.8974 102.862C7.84228 102.842 7.78758 102.822 7.73331 102.802C7.71002 102.794 7.68694 102.785 7.66386 102.776C7.53737 102.728 7.41408 102.678 7.29507 102.627C7.11452 102.549 6.94252 102.468 6.77949 102.385C6.69936 102.343 6.62159 102.301 6.54595 102.258C6.24745 102.089 5.98442 101.908 5.76135 101.718C5.72717 101.689 5.69362 101.659 5.66136 101.629C5.62076 101.592 5.58187 101.555 5.54469 101.517C5.50388 101.476 5.46499 101.435 5.42803 101.393C5.09065 101.012 4.90625 100.6 4.90625 100.171C4.90625 100.14 4.90732 100.11 4.90945 100.08L4.91031 97.6466L5.42803 97.6457L5.66157 97.6451L6.54616 97.6434L6.7797 97.6428L7.47007 97.6417L7.66429 97.6414L7.89783 97.6408L8.78263 97.6391L9.01617 97.6388L9.90055 97.6367L10.1341 97.6365L11.0185 97.6344L11.252 97.6341L12.1366 97.6324L12.3701 97.6318L13.2549 97.6301L13.4885 97.6295L14.3731 97.6278L14.6066 97.6275L15.4912 97.6255L15.7247 97.6252L16.6093 97.6232L16.8429 97.6229L17.7275 97.6211L17.961 97.6206L18.8458 97.6188L19.0793 97.6182H19.137L19.9639 97.6165L20.1975 97.6162L21.0821 97.6142L21.3156 97.6139L21.7553 97.613L21.7585 100.139L21.7579 100.138Z" fill="#BBCADB"/>
<path d="M5.66228 97.6448V101.629C5.62169 101.592 5.5828 101.554 5.54562 101.517C5.50481 101.476 5.46592 101.434 5.42896 101.392V97.6453L5.66228 97.6448Z" fill="#1C4D87"/>
<path d="M6.78017 97.6428V102.385C6.70004 102.343 6.62227 102.301 6.54663 102.258V97.6434L6.78017 97.6428Z" fill="#1C4D87"/>
<path d="M7.89833 97.6404V102.862C7.84321 102.842 7.78851 102.822 7.73424 102.802C7.71095 102.794 7.68787 102.785 7.66479 102.776V97.641L7.89833 97.6404Z" fill="#1C4D87"/>
<path d="M9.0165 97.6387V103.195C8.93787 103.176 8.85988 103.155 8.78296 103.135V97.639L9.0165 97.6387Z" fill="#1C4D87"/>
<path d="M10.1347 97.6362V103.43C10.056 103.416 9.97847 103.402 9.90112 103.388V97.6365L10.1347 97.6362Z" fill="#1C4D87"/>
<path d="M11.2526 97.6338V103.584C11.1744 103.576 11.0966 103.567 11.019 103.557V97.6341L11.2526 97.6338Z" fill="#1C4D87"/>
<path d="M12.3705 97.6316V103.669C12.2923 103.666 12.2145 103.662 12.137 103.657V97.6322L12.3705 97.6316Z" fill="#1C4D87"/>
<path d="M13.4889 97.6292V103.691C13.437 103.692 13.3847 103.692 13.3327 103.692C13.3071 103.692 13.2813 103.692 13.2556 103.692V97.6297L13.4889 97.6292Z" fill="#1C4D87"/>
<path d="M14.6066 97.6272V103.652C14.529 103.657 14.4512 103.662 14.373 103.665V97.6275L14.6066 97.6272Z" fill="#1C4D87"/>
<path d="M15.7248 97.6248V103.548C15.6472 103.557 15.5694 103.567 15.4912 103.575V97.625L15.7248 97.6248Z" fill="#1C4D87"/>
<path d="M16.8429 97.6223V103.372C16.7656 103.387 16.688 103.401 16.6094 103.416V97.6226L16.8429 97.6223Z" fill="#1C4D87"/>
<path d="M17.9606 97.6204V103.114C17.8837 103.135 17.8059 103.156 17.7271 103.176V97.6212L17.9606 97.6204Z" fill="#1C4D87"/>
<path d="M19.079 97.6179V102.746C19.0025 102.775 18.9249 102.805 18.8455 102.834V97.6185L19.079 97.6179Z" fill="#1C4D87"/>
<path d="M20.1969 97.6162V102.213C20.1215 102.257 20.0435 102.301 19.9634 102.343V97.6165L20.1969 97.6162Z" fill="#1C4D87"/>
<path d="M21.3151 97.6138V101.3C21.245 101.387 21.1668 101.472 21.0815 101.555V97.6138H21.3151Z" fill="#1C4D87"/>
<path d="M21.7565 97.6436C21.7565 99.4312 17.9861 100.88 13.3335 100.88C12.6978 100.88 12.0786 100.853 11.4833 100.802C10.7346 100.737 10.0235 100.635 9.365 100.499C8.77699 100.378 8.23085 100.231 7.73684 100.062C7.58578 100.011 7.43963 99.9571 7.29882 99.9013C6.6794 99.657 6.15997 99.3751 5.76553 99.0658C5.6884 99.0053 5.61597 98.9441 5.54887 98.8813C5.13756 98.5 4.91064 98.0819 4.91064 97.6436C4.91064 97.6037 4.91278 97.5635 4.91748 97.5236C5.08072 95.7918 8.7866 94.407 13.3337 94.407C14.4527 94.407 15.5206 94.4908 16.4973 94.6429C16.6859 94.6724 16.8712 94.7042 17.0528 94.7389C17.8462 94.8892 18.5688 95.0858 19.1968 95.32C19.3352 95.3715 19.469 95.425 19.598 95.4799C20.0568 95.6759 20.454 95.8933 20.7783 96.1281C21.1125 96.3701 21.3694 96.6306 21.5356 96.9044C21.657 97.1041 21.7302 97.3111 21.7501 97.5236C21.7546 97.5635 21.7565 97.6034 21.7565 97.6436Z" fill="#61C2FF"/>
<path opacity="0.3" d="M21.5354 96.9044L11.4833 100.802C10.7346 100.738 10.0235 100.635 9.36499 100.499L20.7781 96.1282C21.1121 96.3702 21.3689 96.6307 21.5354 96.9044Z" fill="white"/>
<path opacity="0.3" d="M17.0525 94.7386L5.76524 99.0655C5.68811 99.005 5.61568 98.9437 5.54858 98.881L16.497 94.6426C16.6857 94.6724 16.8709 94.7042 17.0525 94.7386Z" fill="white"/>
<path opacity="0.3" d="M19.5978 95.4798L7.73685 100.062C7.58579 100.011 7.43964 99.957 7.29883 99.9012L19.1968 95.3196C19.335 95.3713 19.4688 95.4245 19.5978 95.4798Z" fill="white"/>
<path d="M20.0659 97.6436C20.0659 97.6833 20.0631 97.7231 20.0593 97.7625C19.8969 99.134 16.9427 100.231 13.3336 100.231C9.72473 100.231 6.77054 99.134 6.60794 97.7625C6.6041 97.7231 6.60132 97.6833 6.60132 97.6436C6.60132 96.2172 9.62132 95.0566 13.3334 95.0566C17.0455 95.0566 20.0659 96.2172 20.0659 97.6436Z" fill="#1C4D87"/>
<path d="M20.059 97.7625C19.8967 99.134 16.9425 100.231 13.3334 100.231C13.2526 100.231 13.1727 100.23 13.093 100.229C12.2881 100.218 11.5187 100.153 10.8087 100.042C10.0984 99.9311 9.44846 99.775 8.88309 99.583C8.73929 99.5344 8.60126 99.4836 8.46793 99.4301C7.86496 99.1872 7.38206 98.8998 7.05985 98.5815C6.98186 98.5052 6.91327 98.4268 6.85516 98.3476C6.71606 98.1603 6.63251 97.9643 6.60815 97.7625C6.77076 96.3909 9.72494 95.2937 13.3338 95.2937C13.7904 95.2937 14.2366 95.3113 14.6686 95.3449C14.8885 95.3619 15.1053 95.383 15.3177 95.4085C16.1848 95.5114 16.9775 95.68 17.6568 95.8991C17.8033 95.9462 17.9452 95.9962 18.0813 96.0486C18.6102 96.2507 19.0525 96.4863 19.3841 96.7468C19.7071 97.0006 19.9251 97.277 20.0172 97.5685C20.0375 97.6321 20.0516 97.6971 20.059 97.7625Z" fill="#BBCADB"/>
<path opacity="0.2" d="M20.0171 97.5682L13.0932 100.229C12.2883 100.218 11.5189 100.153 10.8088 100.042L19.384 96.7466C19.7071 97.0004 19.925 97.2771 20.0171 97.5682Z" fill="white"/>
<path opacity="0.2" d="M15.3176 95.4086L7.05992 98.5813C6.98193 98.505 6.91334 98.4266 6.85522 98.3474L14.6685 95.345C14.8883 95.3623 15.1054 95.3834 15.3176 95.4086Z" fill="white"/>
<path opacity="0.2" d="M18.081 96.0484L8.88293 99.5828C8.73913 99.5343 8.6011 99.4834 8.46777 99.4299L17.6564 95.8989C17.803 95.9463 17.9449 95.9961 18.081 96.0484Z" fill="white"/>
<path d="M14.2698 99.1117V99.5416H12.8489V99.1311C11.8413 99.1079 10.864 99.0033 10.2593 98.8599L11.0251 98.1938C11.6902 98.3447 12.5767 98.4415 13.3528 98.4415C14.028 98.4415 14.2698 98.3872 14.2698 98.2944C14.2698 97.9538 10.3702 98.2287 10.3702 97.218C10.3702 96.7803 11.1964 96.4125 12.8489 96.3235V95.9014H14.2698V96.3157C15.0156 96.3428 15.7412 96.4163 16.3155 96.5403L15.5999 97.2024C14.9047 97.0668 14.2498 97.0009 13.635 97.0009C12.9398 97.0009 12.718 97.0784 12.718 97.1712C12.718 97.4964 16.6176 97.2255 16.6176 98.2244C16.6176 98.643 15.8318 99.007 14.2698 99.1117Z" fill="#1C4D87"/>
<path d="M14.2284 98.9686V99.3985H12.8077V98.988C11.8 98.9649 10.8225 98.8602 10.218 98.7168L10.9838 98.0507C11.649 98.2019 12.5357 98.2985 13.3115 98.2985C13.9867 98.2985 14.2284 98.2441 14.2284 98.1513C14.2284 97.8104 10.3287 98.0854 10.3287 97.0749C10.3287 96.6375 11.155 96.2695 12.8075 96.1804V95.7583H14.2282V96.1726C14.9739 96.1998 15.6993 96.2732 16.2738 96.3972L15.5585 97.0593C14.8632 96.9237 14.2081 96.8581 13.5933 96.8581C12.8981 96.8581 12.6763 96.9356 12.6763 97.0284C12.6763 97.3536 16.576 97.0827 16.576 98.0816C16.5764 98.5003 15.7903 98.8643 14.2284 98.9686Z" fill="#61C2FF"/>
<path d="M21.3387 96.5673C21.3389 96.578 21.3389 96.5886 21.3389 96.5993C21.3389 96.9946 21.1832 97.3745 20.896 97.7289C20.8259 97.8159 20.7479 97.9007 20.6625 97.9839C20.4236 98.2172 20.1261 98.4373 19.7779 98.6417C19.7024 98.6859 19.6244 98.7293 19.5443 98.7718C19.2745 98.9157 18.9787 99.0502 18.6597 99.1745C18.5832 99.2043 18.5055 99.2338 18.4262 99.2624C18.1469 99.3636 17.8514 99.4573 17.5414 99.5423C17.4645 99.5636 17.3867 99.5842 17.3078 99.6044C17.0239 99.6773 16.7286 99.7432 16.4233 99.8016C16.3461 99.8166 16.2683 99.8308 16.1897 99.845C15.9025 99.8955 15.6075 99.9398 15.3051 99.9771C15.2276 99.9866 15.15 99.9959 15.0716 100.004C14.7827 100.036 14.4874 100.062 14.187 100.081C14.1094 100.086 14.0319 100.09 13.9535 100.094C13.6629 100.109 13.3678 100.118 13.0689 100.12C13.0169 100.12 12.9648 100.121 12.9127 100.121C12.887 100.121 12.8612 100.121 12.8355 100.12C12.5366 100.12 12.2415 100.112 11.9507 100.098C11.8725 100.094 11.7948 100.09 11.7172 100.086C11.496 100.073 11.2775 100.056 11.0621 100.035C10.9852 100.028 10.9087 100.021 10.8328 100.013C10.7546 100.004 10.6768 99.9956 10.5993 99.986C10.2972 99.9502 10.0019 99.9074 9.71469 99.8582C9.63606 99.8447 9.5585 99.8311 9.48115 99.8163C9.29825 99.7822 9.11876 99.7455 8.94291 99.7062C8.82582 99.6799 8.71044 99.6527 8.59656 99.6241C8.51793 99.6044 8.44015 99.5842 8.36302 99.5634C8.05362 99.4804 7.75812 99.389 7.47821 99.2901C7.42309 99.2708 7.36817 99.2508 7.31412 99.2309C7.29083 99.2225 7.26775 99.2135 7.24467 99.2046C7.1184 99.1569 6.99511 99.1068 6.87588 99.0557C6.69533 98.9779 6.52333 98.8969 6.3603 98.8131C6.28017 98.7715 6.2024 98.7295 6.12676 98.6868C5.82826 98.5176 5.56524 98.3369 5.34216 98.1464C5.30798 98.1172 5.27443 98.0877 5.24217 98.0579C5.20157 98.0209 5.16268 97.9836 5.1255 97.9458C5.08469 97.9047 5.04581 97.8631 5.00884 97.8211C4.67146 97.4407 4.48706 97.0287 4.48706 96.5991C4.48706 96.569 4.48813 96.5386 4.49027 96.5086L4.49112 94.0751L5.00884 94.0739L5.24238 94.0733L6.12697 94.0716L6.36051 94.071L7.05088 94.0699L7.2451 94.0696L7.47864 94.069L8.36345 94.0673L8.59698 94.067L9.48158 94.065L9.71512 94.0647L10.5997 94.0627L10.8332 94.0624L11.7178 94.0606L11.9514 94.0601L12.8362 94.0583L13.0697 94.0577L13.9543 94.056L14.1878 94.0557L15.0724 94.0537L15.306 94.0534L16.1906 94.0514L16.4241 94.0511L17.3087 94.0494L17.5422 94.0488L18.427 94.047L18.6606 94.0465H18.7181L19.545 94.0447L19.7785 94.0444L20.6631 94.0424L20.8966 94.0421L21.3364 94.0413L21.3396 96.567H21.3387V96.5673Z" fill="#BBCADB"/>
<path d="M5.24309 94.074V98.0583C5.20249 98.0213 5.16361 97.984 5.12643 97.9461C5.08562 97.905 5.04673 97.8634 5.00977 97.8215V94.0746L5.24309 94.074Z" fill="#1C4D87"/>
<path d="M6.36123 94.0718V98.8135C6.2811 98.7719 6.20332 98.73 6.12769 98.6872V94.0724L6.36123 94.0718Z" fill="#1C4D87"/>
<path d="M7.47915 94.0693V99.2905C7.42402 99.2711 7.36911 99.2511 7.31505 99.2312C7.29176 99.2228 7.26868 99.2138 7.24561 99.2049V94.0699L7.47915 94.0693Z" fill="#1C4D87"/>
<path d="M8.59755 94.0676V99.6244C8.51892 99.6048 8.44115 99.5845 8.36401 99.5637V94.0676H8.59755Z" fill="#1C4D87"/>
<path d="M9.71547 94.0652V99.8585C9.63684 99.8449 9.55928 99.8313 9.48193 99.8165V94.0655L9.71547 94.0652Z" fill="#1C4D87"/>
<path d="M10.8334 94.0627V100.013C10.7552 100.004 10.6774 99.9957 10.5999 99.9861V94.063L10.8334 94.0627Z" fill="#1C4D87"/>
<path d="M11.9516 94.0605V100.098C11.8734 100.095 11.7956 100.091 11.718 100.086V94.0611L11.9516 94.0605Z" fill="#1C4D87"/>
<path d="M13.0698 94.0581V100.12C13.0178 100.121 12.9657 100.121 12.9136 100.121C12.8879 100.121 12.8621 100.121 12.8364 100.121V94.059L13.0698 94.0581Z" fill="#1C4D87"/>
<path d="M14.1876 94.0562V100.081C14.1101 100.086 14.0325 100.091 13.9541 100.094V94.0564L14.1876 94.0562Z" fill="#1C4D87"/>
<path d="M15.3056 94.054V99.977C15.228 99.9866 15.1504 99.9958 15.072 100.004V94.0542L15.3056 94.054Z" fill="#1C4D87"/>
<path d="M16.424 94.0518V99.8017C16.3468 99.8167 16.2691 99.8309 16.1904 99.845V94.052L16.424 94.0518Z" fill="#1C4D87"/>
<path d="M17.5416 94.0496V99.5427C17.4647 99.5641 17.3869 99.5847 17.3081 99.6049V94.0504L17.5416 94.0496Z" fill="#1C4D87"/>
<path d="M18.6601 94.0474V99.1751C18.5836 99.2049 18.5058 99.2344 18.4265 99.263V94.0479L18.6601 94.0474Z" fill="#1C4D87"/>
<path d="M19.778 94.0452V98.6421C19.7025 98.6863 19.6246 98.7297 19.5444 98.7722V94.0455L19.778 94.0452Z" fill="#1C4D87"/>
<path d="M20.8959 94.043V97.7292C20.8258 97.8162 20.7478 97.9009 20.6624 97.9842V94.043H20.8959Z" fill="#1C4D87"/>
<path d="M21.3371 94.0723C21.3371 95.8599 17.5667 97.3093 12.914 97.3093C12.2784 97.3093 11.6592 97.2821 11.0639 97.2309C10.3152 97.1664 9.60431 97.0638 8.94557 96.9282C8.35755 96.8074 7.81141 96.6605 7.31741 96.4914C7.16635 96.4399 7.0202 96.3861 6.87939 96.3303C6.25996 96.086 5.74053 95.8041 5.3461 95.4948C5.26897 95.4344 5.19632 95.3728 5.12944 95.3103C4.71813 94.929 4.49121 94.5109 4.49121 94.0726C4.49121 94.0327 4.49335 93.9925 4.49805 93.9524C4.66129 92.2206 8.36717 90.8357 12.9143 90.8357C14.0332 90.8357 15.1012 90.9195 16.0778 91.0716C16.2665 91.1011 16.4518 91.1329 16.6334 91.1673C17.4267 91.3176 18.1494 91.5142 18.7773 91.7484C18.9158 91.7999 19.0496 91.8534 19.1784 91.9083C19.6371 92.1043 20.0344 92.3218 20.3587 92.5565C20.6929 92.7985 20.9495 93.059 21.1159 93.3328C21.2373 93.5326 21.3106 93.7396 21.3305 93.9518C21.3354 93.9923 21.3371 94.0324 21.3371 94.0723Z" fill="#61C2FF"/>
<path opacity="0.3" d="M21.1159 93.3332L11.0639 97.2307C10.3152 97.1662 9.6043 97.0636 8.94556 96.928L20.3587 92.5569C20.6929 92.7992 20.9497 93.0594 21.1159 93.3332Z" fill="white"/>
<path opacity="0.3" d="M16.6333 91.1675L5.34605 95.4947C5.26892 95.4342 5.19627 95.3727 5.12939 95.3102L16.0776 91.0718C16.2665 91.101 16.4517 91.1328 16.6333 91.1675Z" fill="white"/>
<path opacity="0.3" d="M19.1784 91.9085L7.31742 96.4909C7.16635 96.4395 7.0202 96.3857 6.87939 96.3299L18.7773 91.7483C18.9158 91.8 19.0496 91.8532 19.1784 91.9085Z" fill="white"/>
<path d="M19.6465 94.0724C19.6465 94.112 19.6437 94.1519 19.6398 94.1912C19.4772 95.5627 16.5233 96.6593 12.9142 96.6593C9.3053 96.6593 6.35111 95.5627 6.18851 94.1912C6.18466 94.1519 6.18188 94.1122 6.18188 94.0724C6.18188 92.6459 9.20188 91.4854 12.914 91.4854C16.6265 91.4854 19.6465 92.6459 19.6465 94.0724Z" fill="#1C4D87"/>
<path d="M19.6399 94.1912C19.4773 95.5627 16.5233 96.6593 12.9142 96.6593C12.8334 96.6593 12.7535 96.6585 12.6738 96.6576C11.8687 96.6466 11.0995 96.5816 10.3895 96.4705C9.67925 96.3598 9.02927 96.2037 8.4639 96.0117C8.3201 95.9629 8.18207 95.9123 8.04874 95.8588C7.44577 95.6159 6.96287 95.3285 6.64066 95.0102C6.56267 94.9339 6.49408 94.8558 6.43597 94.7763C6.29687 94.589 6.21332 94.393 6.18896 94.1912C6.35157 92.8196 9.30576 91.7224 12.9146 91.7224C13.3712 91.7224 13.8174 91.74 14.2494 91.7736C14.4693 91.7906 14.6862 91.8117 14.8985 91.8372C15.7656 91.9401 16.5583 92.1087 17.2374 92.3278C17.3839 92.3752 17.5258 92.425 17.6619 92.4773C18.1908 92.6794 18.6331 92.9153 18.9647 93.1755C19.2877 93.4293 19.5057 93.7057 19.5978 93.9972C19.6183 94.0611 19.6324 94.1258 19.6399 94.1912Z" fill="#BBCADB"/>
<path opacity="0.2" d="M19.5977 93.997L12.674 96.6577C11.8689 96.6467 11.0997 96.5816 10.3896 96.4706L18.9648 93.1753C19.2879 93.4294 19.5056 93.7058 19.5977 93.997Z" fill="white"/>
<path opacity="0.2" d="M14.8982 91.8375L6.64049 95.0103C6.5625 94.934 6.49391 94.8559 6.43579 94.7764L14.2492 91.7739C14.4689 91.791 14.6858 91.8121 14.8982 91.8375Z" fill="white"/>
<path opacity="0.2" d="M17.6618 92.4771L8.46374 96.0115C8.31994 95.9627 8.18191 95.9121 8.04858 95.8586L17.2372 92.3276C17.3836 92.3751 17.5254 92.4248 17.6618 92.4771Z" fill="white"/>
<path d="M13.8509 95.5404V95.9703H12.4302V95.5598C11.4226 95.5364 10.445 95.432 9.84058 95.2886L10.6064 94.6225C11.2715 94.7734 12.1582 94.8702 12.9341 94.8702C13.6093 94.8702 13.8511 94.8162 13.8511 94.7231C13.8511 94.3825 9.95147 94.6572 9.95147 93.6467C9.95147 93.2093 10.7777 92.8412 12.4302 92.7522V92.3301H13.8509V92.7444C14.5966 92.7716 15.322 92.845 15.8966 92.969L15.1812 93.6311C14.486 93.4955 13.8311 93.4299 13.2163 93.4299C12.5211 93.4299 12.2993 93.5074 12.2993 93.6002C12.2993 93.9254 16.1989 93.6545 16.1989 94.6534C16.1987 95.0718 15.4126 95.4358 13.8509 95.5404Z" fill="#1C4D87"/>
<path d="M13.8092 95.3973V95.827H12.3885V95.4164C11.3808 95.3933 10.4033 95.2886 9.79883 95.1455L10.5646 94.4794C11.2298 94.6303 12.1165 94.7272 12.8923 94.7272C13.5675 94.7272 13.8092 94.6728 13.8092 94.58C13.8092 94.2394 9.90951 94.5141 9.90951 93.5036C9.90951 93.0662 10.7358 92.6982 12.3883 92.6091V92.187H13.809V92.6013C14.5547 92.6285 15.2801 92.7019 15.8544 92.826L15.1391 93.488C14.4438 93.3524 13.7887 93.2865 13.1742 93.2865C12.4789 93.2865 12.2571 93.364 12.2571 93.4568C12.2571 93.7821 16.1568 93.5112 16.1568 94.5101C16.1572 94.9287 15.3711 95.2927 13.8092 95.3973Z" fill="#61C2FF"/>
<path d="M36.1957 108.124C36.196 108.134 36.196 108.145 36.196 108.156C36.196 108.551 36.0402 108.931 35.753 109.285C35.6829 109.372 35.6049 109.457 35.5195 109.54C35.2806 109.774 34.9832 109.994 34.6351 110.198C34.5597 110.242 34.4817 110.286 34.4016 110.328C34.1317 110.472 33.836 110.607 33.517 110.731C33.4405 110.761 33.3627 110.79 33.2834 110.819C33.0042 110.92 32.7087 111.014 32.3986 111.099C32.3217 111.12 32.2439 111.141 32.1651 111.161C31.8811 111.233 31.5858 111.299 31.2805 111.358C31.2034 111.373 31.1256 111.387 31.047 111.401C30.7598 111.451 30.4647 111.496 30.1626 111.533C30.085 111.543 30.0072 111.552 29.929 111.56C29.6399 111.592 29.3449 111.618 29.0444 111.637C28.9669 111.642 28.8891 111.647 28.8109 111.651C28.5203 111.665 28.2255 111.674 27.9263 111.677C27.8744 111.677 27.8223 111.677 27.7701 111.677C27.7445 111.677 27.7186 111.677 27.693 111.677C27.3941 111.676 27.099 111.668 26.8082 111.655C26.73 111.651 26.6522 111.647 26.5746 111.642C26.3535 111.629 26.1349 111.612 25.9195 111.592C25.8426 111.585 25.7661 111.577 25.6903 111.569C25.6121 111.561 25.5343 111.552 25.4567 111.543C25.1546 111.507 24.8593 111.464 24.5724 111.415C24.4937 111.401 24.4162 111.388 24.3388 111.373C24.1559 111.339 23.9766 111.302 23.8006 111.263C23.6835 111.237 23.5681 111.209 23.4542 111.181C23.3756 111.161 23.2976 111.141 23.2207 111.12C22.9113 111.037 22.6158 110.946 22.3359 110.847C22.2808 110.827 22.2261 110.808 22.1718 110.788C22.1485 110.779 22.1254 110.77 22.1023 110.761C21.9758 110.714 21.8526 110.664 21.7335 110.612C21.553 110.535 21.381 110.454 21.218 110.37C21.1378 110.328 21.0601 110.286 20.9844 110.243C20.6859 110.074 20.4229 109.894 20.1998 109.703C20.1656 109.674 20.1321 109.644 20.0998 109.615C20.0592 109.578 20.0203 109.54 19.9832 109.502C19.9424 109.461 19.9037 109.42 19.8665 109.378C19.5291 108.997 19.3447 108.585 19.3447 108.156C19.3447 108.126 19.3458 108.096 19.3479 108.065L19.3488 105.632L19.8665 105.631L20.1 105.63L20.9846 105.629L21.2182 105.628L21.9085 105.627L22.1028 105.626L22.3363 105.626L23.2211 105.624L23.4547 105.624L24.339 105.622L24.5726 105.621L25.4569 105.619L25.6905 105.619L26.5749 105.617L26.8084 105.617L27.6932 105.615L27.9267 105.614L28.8113 105.613L29.0449 105.612L29.9295 105.61L30.163 105.61L31.0474 105.608L31.2809 105.608L32.1655 105.606L32.3991 105.605L33.2839 105.604L33.5174 105.603H33.5751L34.402 105.601L34.6355 105.601L35.5199 105.599L35.7534 105.599L36.1932 105.598L36.1964 108.123H36.1957V108.124Z" fill="#BBCADB"/>
<path d="M20.1003 105.63V109.614C20.0597 109.577 20.0208 109.54 19.9836 109.502C19.9428 109.461 19.9041 109.42 19.8669 109.378V105.631L20.1003 105.63Z" fill="#1C4D87"/>
<path d="M21.2182 105.628V110.369C21.138 110.328 21.0603 110.286 20.9846 110.243V105.628L21.2182 105.628Z" fill="#1C4D87"/>
<path d="M22.3363 105.625V110.846C22.2812 110.827 22.2265 110.807 22.1722 110.787C22.1489 110.778 22.1259 110.77 22.1028 110.761V105.626L22.3363 105.625Z" fill="#1C4D87"/>
<path d="M23.4545 105.624V111.18C23.3759 111.161 23.2979 111.14 23.2209 111.12V105.624H23.4545Z" fill="#1C4D87"/>
<path d="M24.5727 105.621V111.414C24.494 111.401 24.4165 111.387 24.3391 111.372V105.621L24.5727 105.621Z" fill="#1C4D87"/>
<path d="M25.6906 105.619V111.569C25.6124 111.561 25.5346 111.552 25.457 111.542V105.619L25.6906 105.619Z" fill="#1C4D87"/>
<path d="M26.8087 105.616V111.654C26.7305 111.651 26.6528 111.647 26.5752 111.642V105.617L26.8087 105.616Z" fill="#1C4D87"/>
<path d="M27.9269 105.615V111.677C27.875 111.677 27.8229 111.677 27.7707 111.677C27.7451 111.677 27.7192 111.677 27.6936 111.677V105.615L27.9269 105.615Z" fill="#1C4D87"/>
<path d="M29.0448 105.612V111.637C28.9673 111.642 28.8895 111.647 28.8113 111.65V105.613L29.0448 105.612Z" fill="#1C4D87"/>
<path d="M30.1627 105.61V111.533C30.0852 111.543 30.0074 111.552 29.9292 111.56V105.61L30.1627 105.61Z" fill="#1C4D87"/>
<path d="M31.2809 105.608V111.358C31.2038 111.373 31.126 111.387 31.0474 111.401V105.608L31.2809 105.608Z" fill="#1C4D87"/>
<path d="M32.3988 105.606V111.099C32.3219 111.12 32.2441 111.141 32.1653 111.161V105.606L32.3988 105.606Z" fill="#1C4D87"/>
<path d="M33.517 105.603V110.731C33.4405 110.761 33.3627 110.79 33.2834 110.819V105.604L33.517 105.603Z" fill="#1C4D87"/>
<path d="M34.6352 105.601V110.198C34.5597 110.242 34.4817 110.286 34.4016 110.328V105.601L34.6352 105.601Z" fill="#1C4D87"/>
<path d="M35.7533 105.599V109.285C35.6832 109.372 35.6052 109.457 35.5198 109.54V105.599H35.7533Z" fill="#1C4D87"/>
<path d="M36.194 105.629C36.194 107.416 32.4236 108.865 27.771 108.865C27.1353 108.865 26.5161 108.838 25.9208 108.787C25.1721 108.723 24.461 108.62 23.8025 108.484C23.2145 108.364 22.6683 108.216 22.1743 108.048C22.0233 107.996 21.8771 107.942 21.7363 107.886C21.1169 107.642 20.5975 107.36 20.203 107.051C20.1259 106.991 20.0535 106.929 19.9864 106.866C19.5751 106.485 19.3481 106.067 19.3481 105.629C19.3481 105.589 19.3503 105.549 19.355 105.509C19.5182 103.777 23.2241 102.392 27.7712 102.392C28.8902 102.392 29.9581 102.476 30.9348 102.628C31.1234 102.658 31.3087 102.689 31.4903 102.724C32.2837 102.874 33.0063 103.071 33.6343 103.305C33.7727 103.356 33.9065 103.41 34.0353 103.465C34.4941 103.661 34.8913 103.878 35.2156 104.113C35.5498 104.355 35.8064 104.615 35.9729 104.889C36.0942 105.089 36.1675 105.296 36.1874 105.508C36.1921 105.549 36.194 105.589 36.194 105.629Z" fill="#61C2FF"/>
<path opacity="0.3" d="M35.9729 104.89L25.9208 108.787C25.1721 108.723 24.461 108.62 23.8025 108.484L35.2156 104.113C35.5496 104.356 35.8064 104.616 35.9729 104.89Z" fill="white"/>
<path opacity="0.3" d="M31.49 102.724L20.2027 107.051C20.1256 106.991 20.0532 106.929 19.9861 106.867L30.9343 102.628C31.1232 102.658 31.3084 102.69 31.49 102.724Z" fill="white"/>
<path opacity="0.3" d="M34.0353 103.465L22.1743 108.047C22.0233 107.996 21.8771 107.942 21.7363 107.886L33.6343 103.305C33.7725 103.356 33.9063 103.41 34.0353 103.465Z" fill="white"/>
<path d="M34.5034 105.629C34.5034 105.669 34.5006 105.709 34.4968 105.748C34.3344 107.12 31.38 108.216 27.7711 108.216C24.1622 108.216 21.208 107.12 21.0454 105.748C21.0416 105.709 21.0388 105.669 21.0388 105.629C21.0388 104.203 24.0588 103.042 27.7709 103.042C31.4834 103.042 34.5034 104.203 34.5034 105.629Z" fill="#1C4D87"/>
<path d="M34.4965 105.748C34.3342 107.119 31.3798 108.216 27.7709 108.216C27.6901 108.216 27.6102 108.215 27.5305 108.214C26.7256 108.204 25.9562 108.138 25.2462 108.027C24.5359 107.917 23.886 107.76 23.3206 107.568C23.1768 107.52 23.0388 107.469 22.9054 107.415C22.3025 107.172 21.8196 106.885 21.4974 106.567C21.4194 106.491 21.3508 106.412 21.2927 106.333C21.1536 106.145 21.07 105.949 21.0457 105.748C21.2083 104.376 24.1624 103.279 27.7713 103.279C28.2279 103.279 28.6741 103.296 29.1061 103.33C29.326 103.347 29.5428 103.368 29.7552 103.394C30.6223 103.497 31.415 103.665 32.0943 103.884C32.2408 103.932 32.3827 103.981 32.5188 104.034C33.0477 104.236 33.4902 104.471 33.8218 104.732C34.1448 104.986 34.3628 105.262 34.4549 105.554C34.475 105.617 34.4891 105.682 34.4965 105.748Z" fill="#BBCADB"/>
<path opacity="0.2" d="M34.4546 105.554L27.5307 108.215C26.7258 108.204 25.9564 108.139 25.2463 108.028L33.8215 104.732C34.1446 104.986 34.3625 105.262 34.4546 105.554Z" fill="white"/>
<path opacity="0.2" d="M29.7551 103.394L21.4974 106.567C21.4194 106.491 21.3508 106.412 21.2927 106.333L29.1062 103.33C29.3258 103.347 29.5429 103.368 29.7551 103.394Z" fill="white"/>
<path opacity="0.2" d="M32.5187 104.034L23.3207 107.569C23.1769 107.52 23.0388 107.469 22.9055 107.415L32.0941 103.885C32.2407 103.932 32.3824 103.982 32.5187 104.034Z" fill="white"/>
<path d="M28.7073 107.097V107.527H27.2864V107.116C26.2788 107.093 25.3015 106.988 24.6968 106.845L25.4626 106.179C26.1277 106.33 27.0144 106.427 27.7903 106.427C28.4655 106.427 28.7073 106.373 28.7073 106.28C28.7073 105.939 24.8077 106.214 24.8077 105.203C24.8077 104.766 25.6339 104.398 27.2864 104.309V103.887H28.7073V104.301C29.453 104.328 30.1785 104.402 30.7528 104.526L30.0374 105.188C29.3422 105.052 28.6873 104.987 28.0725 104.987C27.3773 104.987 27.1555 105.064 27.1555 105.157C27.1555 105.482 31.0551 105.211 31.0551 106.21C31.0551 106.628 30.2693 106.992 28.7073 107.097Z" fill="#1C4D87"/>
<path d="M28.6658 106.954V107.384H27.2449V106.973C26.2373 106.95 25.26 106.846 24.6553 106.702L25.4211 106.036C26.0862 106.187 26.9729 106.284 27.7488 106.284C28.424 106.284 28.6658 106.23 28.6658 106.137C28.6658 105.796 24.7662 106.071 24.7662 105.06C24.7662 104.623 25.5924 104.255 27.2449 104.166V103.744H28.6658V104.158C29.4115 104.185 30.137 104.259 30.7115 104.383L29.9961 105.045C29.3009 104.909 28.6458 104.843 28.0312 104.843C27.336 104.843 27.1144 104.921 27.1144 105.013C27.1144 105.339 31.0141 105.068 31.0141 106.067C31.0139 106.485 30.2278 106.849 28.6658 106.954Z" fill="#61C2FF"/>
<path d="M36.725 104.131C36.7252 104.142 36.7252 104.152 36.7252 104.163C36.7252 104.558 36.5694 104.938 36.2823 105.292C36.2122 105.379 36.134 105.464 36.0487 105.547C35.8096 105.781 35.5124 106.001 35.1641 106.205C35.0887 106.249 35.0107 106.293 34.9306 106.335C34.6607 106.479 34.3648 106.614 34.046 106.738C33.9695 106.768 33.8917 106.797 33.8125 106.826C33.5332 106.927 33.2377 107.021 32.9276 107.106C32.8507 107.127 32.773 107.148 32.6941 107.168C32.4101 107.241 32.1149 107.307 31.8095 107.365C31.7324 107.38 31.6546 107.394 31.576 107.408C31.2888 107.459 30.9937 107.503 30.6914 107.541C30.6138 107.55 30.536 107.559 30.4578 107.568C30.169 107.6 29.8737 107.625 29.5733 107.645C29.4957 107.65 29.4179 107.654 29.3397 107.658C29.0491 107.673 28.754 107.682 28.4551 107.684C28.4032 107.684 28.3509 107.684 28.2989 107.684C28.2733 107.684 28.2474 107.684 28.2218 107.684C27.9229 107.683 27.6278 107.676 27.337 107.662C27.2588 107.658 27.181 107.654 27.1035 107.65C26.8823 107.636 26.6637 107.619 26.4483 107.599C26.3714 107.592 26.2949 107.584 26.2191 107.576C26.1409 107.568 26.0631 107.559 25.9855 107.55C25.6834 107.514 25.3881 107.471 25.1012 107.422C25.0225 107.408 24.9448 107.395 24.8676 107.38C24.6847 107.346 24.5052 107.309 24.3294 107.27C24.2123 107.244 24.0969 107.216 23.983 107.188C23.9044 107.168 23.8264 107.148 23.7495 107.127C23.4401 107.044 23.1446 106.953 22.8647 106.854C22.8096 106.834 22.7549 106.815 22.7006 106.795C22.6773 106.786 22.6542 106.777 22.6314 106.768C22.5049 106.72 22.3816 106.671 22.2626 106.619C22.082 106.542 21.91 106.461 21.7468 106.377C21.6666 106.335 21.5889 106.293 21.5132 106.25C21.2147 106.081 20.9517 105.901 20.7286 105.71C20.6945 105.681 20.6609 105.651 20.6286 105.622C20.588 105.585 20.5492 105.547 20.512 105.509C20.4712 105.468 20.4323 105.427 20.3953 105.385C20.0579 105.004 19.8735 104.592 19.8735 104.163C19.8735 104.133 19.8746 104.102 19.8767 104.072L19.8776 101.639L20.3953 101.638L20.6289 101.637L21.5134 101.636L21.747 101.635L22.4374 101.634L22.6316 101.633L22.8649 101.633L23.7497 101.631L23.9832 101.631L24.8678 101.629L25.1014 101.628L25.9858 101.626L26.2193 101.626L27.1039 101.624L27.3374 101.624L28.2222 101.622L28.4558 101.621L29.3404 101.62L29.5739 101.619L30.4585 101.617L30.692 101.617L31.5766 101.615L31.8102 101.615L32.6947 101.613L32.9283 101.612L33.8131 101.611L34.0466 101.61H34.1043L34.9312 101.608L35.1648 101.608L36.0494 101.606L36.2829 101.606L36.7226 101.605L36.7258 104.131H36.725Z" fill="#BBCADB"/>
<path d="M20.6296 101.637V105.622C20.589 105.585 20.5501 105.547 20.5129 105.51C20.4721 105.469 20.4332 105.427 20.3962 105.385V101.638L20.6296 101.637Z" fill="#1C4D87"/>
<path d="M21.7475 101.635V106.377C21.6673 106.335 21.5896 106.293 21.5139 106.25V101.636L21.7475 101.635Z" fill="#1C4D87"/>
<path d="M22.8656 101.633V106.854C22.8105 106.834 22.7558 106.814 22.7016 106.794C22.6783 106.786 22.6552 106.777 22.6323 106.768V101.633L22.8656 101.633Z" fill="#1C4D87"/>
<path d="M23.984 101.631V107.188C23.9054 107.168 23.8274 107.148 23.7505 107.127V101.631L23.984 101.631Z" fill="#1C4D87"/>
<path d="M25.1019 101.628V107.422C25.0233 107.408 24.9455 107.395 24.8684 107.38V101.629L25.1019 101.628Z" fill="#1C4D87"/>
<path d="M26.2199 101.626V107.576C26.1417 107.568 26.0639 107.559 25.9863 107.549V101.626L26.2199 101.626Z" fill="#1C4D87"/>
<path d="M27.338 101.624V107.662C27.2598 107.658 27.1821 107.654 27.1045 107.649V101.625L27.338 101.624Z" fill="#1C4D87"/>
<path d="M28.4562 101.621V107.684C28.4043 107.684 28.352 107.684 28.3 107.684C28.2744 107.684 28.2485 107.684 28.2229 107.684V101.622L28.4562 101.621Z" fill="#1C4D87"/>
<path d="M29.5741 101.619V107.644C29.4966 107.649 29.4188 107.654 29.3406 107.658V101.62L29.5741 101.619Z" fill="#1C4D87"/>
<path d="M30.692 101.617V107.54C30.6145 107.55 30.5367 107.559 30.4585 107.567V101.617L30.692 101.617Z" fill="#1C4D87"/>
<path d="M31.8104 101.615V107.365C31.7333 107.38 31.6555 107.394 31.5769 107.408V101.615L31.8104 101.615Z" fill="#1C4D87"/>
<path d="M32.9281 101.613V107.106C32.8512 107.128 32.7734 107.148 32.6946 107.168V101.614L32.9281 101.613Z" fill="#1C4D87"/>
<path d="M34.0465 101.611V106.738C33.97 106.768 33.8923 106.798 33.813 106.826V101.611L34.0465 101.611Z" fill="#1C4D87"/>
<path d="M35.1644 101.608V106.205C35.089 106.25 35.011 106.293 34.9309 106.335V101.609L35.1644 101.608Z" fill="#1C4D87"/>
<path d="M36.2824 101.606V105.292C36.2123 105.379 36.1341 105.464 36.0488 105.547V101.606H36.2824Z" fill="#1C4D87"/>
<path d="M36.7233 101.636C36.7233 103.423 32.9529 104.873 28.3003 104.873C27.6646 104.873 27.0454 104.846 26.4501 104.794C25.7014 104.73 24.9905 104.627 24.3318 104.492C23.7438 104.371 23.1976 104.224 22.7036 104.055C22.5528 104.003 22.4064 103.95 22.2656 103.894C21.6462 103.649 21.1268 103.368 20.7323 103.058C20.6552 102.998 20.5825 102.936 20.5157 102.874C20.1044 102.493 19.8774 102.075 19.8774 101.636C19.8774 101.596 19.8796 101.556 19.8843 101.516C20.0475 99.7843 23.7534 98.3994 28.3005 98.3994C29.4195 98.3994 30.4874 98.4833 31.4641 98.6353C31.6527 98.6648 31.838 98.6966 32.0196 98.731C32.8132 98.8814 33.5356 99.078 34.1636 99.3121C34.302 99.3636 34.4358 99.4171 34.5648 99.472C35.0236 99.668 35.4208 99.8855 35.7451 100.12C36.0793 100.362 36.3362 100.623 36.5024 100.896C36.6238 101.096 36.697 101.303 36.7169 101.516C36.7216 101.556 36.7233 101.596 36.7233 101.636Z" fill="#61C2FF"/>
<path opacity="0.3" d="M36.5019 100.897L26.4499 104.794C25.7012 104.73 24.9903 104.627 24.3315 104.492L35.7447 100.121C36.0789 100.363 36.3355 100.623 36.5019 100.897Z" fill="white"/>
<path opacity="0.3" d="M32.0191 98.7312L20.7318 103.058C20.6547 102.998 20.582 102.936 20.5151 102.874L31.4635 98.6355C31.6522 98.6647 31.8375 98.6965 32.0191 98.7312Z" fill="white"/>
<path opacity="0.3" d="M34.5644 99.4722L22.7034 104.055C22.5526 104.003 22.4062 103.949 22.2654 103.894L34.1633 99.312C34.3018 99.3638 34.4353 99.4173 34.5644 99.4722Z" fill="white"/>
<path d="M35.0327 101.636C35.0327 101.676 35.0299 101.716 35.0261 101.755C34.8637 103.127 31.9095 104.223 28.3004 104.223C24.6916 104.223 21.7374 103.127 21.5748 101.755C21.5711 101.716 21.5684 101.676 21.5684 101.636C21.5684 100.21 24.5884 99.0493 28.3004 99.0493C32.0127 99.0493 35.0327 100.21 35.0327 101.636Z" fill="#1C4D87"/>
<path d="M35.0258 101.755C34.8634 103.126 31.9092 104.223 28.3002 104.223C28.2194 104.223 28.1395 104.222 28.0596 104.221C27.2547 104.21 26.4853 104.145 25.7752 104.034C25.065 103.924 24.415 103.767 23.8496 103.575C23.7058 103.527 23.5678 103.476 23.4345 103.422C22.8313 103.179 22.3486 102.892 22.0264 102.574C21.9484 102.498 21.8798 102.419 21.8217 102.34C21.6826 102.152 21.5991 101.956 21.5747 101.755C21.7373 100.383 24.6915 99.2859 28.3004 99.2859C28.757 99.2859 29.2031 99.3035 29.6352 99.3371C29.855 99.3541 30.0719 99.3752 30.2843 99.4007C31.1514 99.5036 31.9441 99.6721 32.6231 99.8913C32.7697 99.9384 32.9116 99.9884 33.0477 100.041C33.5765 100.243 34.019 100.478 34.3506 100.739C34.6737 100.993 34.8916 101.269 34.9837 101.561C35.0042 101.625 35.0183 101.69 35.0258 101.755Z" fill="#BBCADB"/>
<path opacity="0.2" d="M34.9837 101.561L28.0597 104.222C27.2548 104.211 26.4854 104.146 25.7754 104.035L34.3506 100.739C34.6736 100.993 34.8916 101.269 34.9837 101.561Z" fill="white"/>
<path opacity="0.2" d="M30.2844 99.4013L22.0267 102.574C21.9487 102.498 21.8801 102.42 21.822 102.34L29.6355 99.3376C29.8551 99.3547 30.072 99.3758 30.2844 99.4013Z" fill="white"/>
<path opacity="0.2" d="M33.0478 100.041L23.8497 103.576C23.7059 103.527 23.5679 103.476 23.4346 103.422L32.623 99.8914C32.7698 99.9388 32.9116 99.9885 33.0478 100.041Z" fill="white"/>
<path d="M29.2362 103.104V103.534H27.8153V103.124C26.8076 103.101 25.8301 102.996 25.2256 102.853L25.9914 102.186C26.6565 102.337 27.5433 102.434 28.3191 102.434C28.9943 102.434 29.2362 102.38 29.2362 102.287C29.2362 101.946 25.3365 102.221 25.3365 101.211C25.3365 100.773 26.1627 100.405 27.8153 100.316V99.894H29.2362V100.308C29.9819 100.336 30.7073 100.409 31.2816 100.533L30.5662 101.195C29.871 101.059 29.2161 100.994 28.6013 100.994C27.9061 100.994 27.6845 101.071 27.6845 101.164C27.6845 101.489 31.5842 101.218 31.5842 102.217C31.5842 102.636 30.7981 103 29.2362 103.104Z" fill="#1C4D87"/>
<path d="M29.1952 102.961V103.391H27.7745V102.98C26.7668 102.957 25.7893 102.852 25.1848 102.709L25.9506 102.043C26.6158 102.194 27.5025 102.291 28.2783 102.291C28.9535 102.291 29.1954 102.237 29.1954 102.143C29.1954 101.803 25.2957 102.078 25.2957 101.067C25.2957 100.629 26.122 100.262 27.7745 100.173V99.7505H29.1952V100.165C29.9409 100.192 30.6663 100.265 31.2408 100.389L30.5255 101.052C29.8302 100.916 29.1753 100.85 28.5606 100.85C27.8653 100.85 27.6437 100.927 27.6437 101.02C27.6437 101.346 31.5434 101.075 31.5434 102.074C31.543 102.492 30.7571 102.856 29.1952 102.961Z" fill="#61C2FF"/>
<path d="M72.4733 47.2695V55.8496C72.4733 56.3955 72.1451 56.8395 71.7417 56.8395H65.4006C65.0374 56.8395 64.4686 56.4938 64.2131 55.7004C64.2005 55.6666 64.1881 55.6328 64.1806 55.5987C64.168 55.5478 64.1556 55.4969 64.143 55.4428C64.143 55.4362 64.1404 55.4327 64.1404 55.4258C64.1379 55.4223 64.1378 55.4223 64.1378 55.4191V55.4021L64.1252 48.6321V46.6491C64.1252 46.1339 64.4133 45.7167 64.7791 45.6626C64.8041 45.6626 64.8316 45.6592 64.8568 45.6592L71.3257 45.693C71.3558 45.693 71.3857 45.6965 71.4133 45.7031C71.4133 45.7031 71.4133 45.7031 71.4158 45.7031C72.0673 45.8017 72.4733 46.7477 72.4733 47.2695Z" fill="#2B72C5"/>
<path d="M71.9295 46.6494V55.2262C71.9295 55.7753 71.6013 56.2162 71.1979 56.2162H64.8568C64.5788 56.2162 64.3382 56.0094 64.2128 55.701C64.2002 55.6671 64.1878 55.6333 64.1803 55.5992C64.1677 55.5483 64.1553 55.4974 64.1427 55.4434C64.1427 55.4367 64.1402 55.4332 64.1402 55.4263C64.1402 55.4197 64.1376 55.4092 64.1376 55.4026C64.1301 55.3451 64.125 55.2872 64.125 55.2262V46.6494C64.125 46.1341 64.413 45.717 64.7788 45.6629C64.8038 45.6629 64.8314 45.6594 64.8566 45.6594H71.1977C71.2729 45.6594 71.3455 45.673 71.413 45.7034C71.413 45.7034 71.413 45.7034 71.4156 45.7034C71.7141 45.8288 71.9295 46.2018 71.9295 46.6494Z" fill="#1C4D87"/>
<path d="M68.4904 53.8476L68.4853 54.7028L67.6824 54.6938L67.6873 53.8771C67.118 53.8245 66.567 53.6105 66.2271 53.3217L66.6678 52.001C67.0418 52.3057 67.542 52.5038 67.9804 52.5087C68.362 52.513 68.4992 52.4064 68.5005 52.2216C68.5045 51.5436 66.2973 52.0664 66.3095 50.0553C66.3149 49.1845 66.7862 48.4576 67.721 48.2908L67.7262 47.4509L68.5291 47.4599L68.5242 48.2844C68.9453 48.3431 69.3545 48.4941 69.6776 48.7441L69.2654 50.0573C68.874 49.7832 68.5048 49.6482 68.1573 49.6444C67.7644 49.6401 67.6381 49.7928 67.6371 49.9778C67.6332 50.6251 69.8402 50.1099 69.8282 52.0979C69.8229 52.9299 69.3742 53.6493 68.4904 53.8476Z" fill="white"/>
<path d="M76.2311 89.2906L62.7183 89.2446V111.954L76.2311 112.014V89.2906Z" fill="#2B72C5"/>
<path d="M66.1844 92.1026C66.3203 92.1104 66.4367 91.9734 66.4498 91.7901C66.5301 90.6475 66.8985 86.8262 68.2867 85.4457C68.667 85.0673 69.0835 84.9132 69.5604 84.9733C71.9977 85.2829 72.3682 90.4546 72.4235 91.8207C72.431 92.0049 72.544 92.1483 72.6804 92.1474C72.8265 92.1465 72.9423 91.9812 72.9351 91.784C72.8797 90.2849 72.481 84.7464 69.6151 84.3824C68.9995 84.3034 68.4407 84.5099 67.9542 84.9938C66.4102 86.5299 66.0246 90.494 65.9406 91.7244C65.9269 91.9219 66.038 92.0942 66.1844 92.1026Z" fill="#BBCADB"/>
<path d="M75.0558 89.2908L61.543 89.2449V111.955L75.0558 112.014V89.2908Z" fill="#1C4D87"/>
<path d="M65.5673 91.9883C65.5673 92.3505 65.3502 92.6443 65.0825 92.6443C64.8147 92.6443 64.5977 92.3505 64.5977 91.9883C64.5977 91.626 64.8147 91.3323 65.0825 91.3323C65.3502 91.3323 65.5673 91.626 65.5673 91.9883Z" fill="#2B72C5"/>
<path d="M72.0761 91.9883C72.0761 92.3505 71.859 92.6443 71.5913 92.6443C71.3235 92.6443 71.1064 92.3505 71.1064 91.9883C71.1064 91.626 71.3235 91.3323 71.5913 91.3323C71.859 91.3323 72.0761 91.626 72.0761 91.9883Z" fill="#2B72C5"/>
<path d="M65.1018 92.1549C65.2377 92.1628 65.3542 92.0257 65.3672 91.8424C65.4476 90.6998 65.8159 86.8786 67.2041 85.4981C67.5845 85.1199 68.0007 84.9655 68.4778 85.0257C70.9153 85.3353 71.2858 90.5082 71.341 91.8736C71.3484 92.0575 71.4613 92.2006 71.5976 92.1998H71.5982C71.7439 92.1989 71.8598 92.0338 71.8525 91.8369C71.7974 90.3387 71.3989 84.7987 68.5325 84.435C67.9169 84.3564 67.3582 84.5625 66.8717 85.0465C65.3277 86.5825 64.942 90.5466 64.858 91.7771C64.8446 91.9745 64.9555 92.1469 65.1018 92.1549Z" fill="#61B3FF"/>
</svg>
