<svg width="134" height="121" viewBox="0 0 134 121" fill="none" xmlns="http://www.w3.org/2000/svg">
<path d="M68.1125 81.992H14.434C13.0496 81.992 11.927 80.8694 11.927 79.485V9.68378C11.927 8.29931 13.0496 7.17676 14.434 7.17676H68.1128C69.4972 7.17676 70.6198 8.29931 70.6198 9.68378V79.485C70.6195 80.8697 69.4972 81.992 68.1125 81.992Z" fill="#1C4D87" stroke="#1C4D87" stroke-width="0.5" stroke-miterlimit="10" stroke-linecap="round" stroke-linejoin="round"/>
<path d="M67.7399 8.41553H14.8069V79.9867H67.7399V8.41553Z" fill="white" stroke="#1C4D87" stroke-width="0.5" stroke-miterlimit="10" stroke-linecap="round" stroke-linejoin="round"/>
<path d="M51.857 4.13554H42.2612V3.74876H45.7082V2.07357C45.7082 1.48059 45.2276 1 44.6347 1H37.9118C37.3188 1 36.8382 1.48059 36.8382 2.07357V3.74876H40.2853V4.13554H30.6895C29.224 4.13554 28.0361 5.32373 28.0361 6.78888V9.98782H54.5103V6.78888C54.5107 5.32373 53.3225 4.13554 51.857 4.13554Z" fill="white" stroke="#1C4D87" stroke-width="0.5" stroke-miterlimit="10" stroke-linecap="round" stroke-linejoin="round"/>
<path d="M28.8953 8.06543H53.4442" stroke="#1C4D87" stroke-width="0.5" stroke-miterlimit="10" stroke-linecap="round" stroke-linejoin="round"/>
<path d="M51.6597 30.541H60.6952" stroke="#1C4D87" stroke-width="0.5" stroke-miterlimit="10" stroke-linecap="round" stroke-linejoin="round"/>
<path d="M21.0925 30.541H49.4635" stroke="#1C4D87" stroke-width="0.5" stroke-miterlimit="10" stroke-linecap="round" stroke-linejoin="round"/>
<path d="M35.0503 34.7383H60.6952" stroke="#1C4D87" stroke-width="0.5" stroke-miterlimit="10" stroke-linecap="round" stroke-linejoin="round"/>
<path d="M21.0925 34.7383H33.6773" stroke="#1C4D87" stroke-width="0.5" stroke-miterlimit="10" stroke-linecap="round" stroke-linejoin="round"/>
<path d="M45.208 38.9351H60.6952" stroke="#1C4D87" stroke-width="0.5" stroke-miterlimit="10" stroke-linecap="round" stroke-linejoin="round"/>
<path d="M21.0925 38.9351H43.698" stroke="#1C4D87" stroke-width="0.5" stroke-miterlimit="10" stroke-linecap="round" stroke-linejoin="round"/>
<path d="M57.2878 43.1323H60.6952" stroke="#1C4D87" stroke-width="0.5" stroke-miterlimit="10" stroke-linecap="round" stroke-linejoin="round"/>
<path d="M28.5986 43.1323H55.3661" stroke="#1C4D87" stroke-width="0.5" stroke-miterlimit="10" stroke-linecap="round" stroke-linejoin="round"/>
<path d="M21.0925 43.1323H26.9512" stroke="#1C4D87" stroke-width="0.5" stroke-miterlimit="10" stroke-linecap="round" stroke-linejoin="round"/>
<path d="M38.0703 47.3291H60.6953" stroke="#1C4D87" stroke-width="0.5" stroke-miterlimit="10" stroke-linecap="round" stroke-linejoin="round"/>
<path d="M21.0925 47.3291H36.1481" stroke="#1C4D87" stroke-width="0.5" stroke-miterlimit="10" stroke-linecap="round" stroke-linejoin="round"/>
<path d="M34.6384 51.5269H60.6951" stroke="#1C4D87" stroke-width="0.5" stroke-miterlimit="10" stroke-linecap="round" stroke-linejoin="round"/>
<path d="M21.0925 51.5269H33.2655" stroke="#1C4D87" stroke-width="0.5" stroke-miterlimit="10" stroke-linecap="round" stroke-linejoin="round"/>
<path d="M55.9153 55.7236H60.6953" stroke="#1C4D87" stroke-width="0.5" stroke-miterlimit="10" stroke-linecap="round" stroke-linejoin="round"/>
<path d="M21.0925 55.7236H54.2678" stroke="#1C4D87" stroke-width="0.5" stroke-miterlimit="10" stroke-linecap="round" stroke-linejoin="round"/>
<path d="M36.0277 68.6871L35.1245 64.6758L35.843 64.356L38.2197 67.7115L37.5966 67.9887L37.0725 67.203L36.4315 67.4886L36.6601 68.4059L36.0277 68.6871ZM36.3089 67.0304L36.8093 66.8076L35.8709 65.3729L36.3089 67.0304Z" fill="#FF8D1D"/>
<path d="M38.5694 67.5551L36.9294 63.8717L38.0117 63.3899C38.2329 63.2912 38.4308 63.2519 38.605 63.2724C38.7795 63.2932 38.9341 63.3665 39.0689 63.4939C39.2037 63.621 39.3202 63.7952 39.4185 64.0168C39.5252 64.2563 39.5703 64.4676 39.554 64.6514C39.5376 64.8348 39.4707 64.9927 39.3532 65.1249C39.236 65.2568 39.0772 65.3676 38.8771 65.4566L38.5134 65.6186L39.2424 67.2557L38.5694 67.5551ZM38.303 65.1454L38.5579 65.0321C38.6789 64.978 38.766 64.9184 38.8188 64.8534C38.8713 64.7884 38.8934 64.7112 38.8848 64.6222C38.8765 64.5339 38.8428 64.424 38.7849 64.2937C38.7253 64.1602 38.6674 64.0562 38.6107 63.9816C38.5537 63.9073 38.4842 63.8647 38.4013 63.8541C38.3187 63.8439 38.2076 63.8698 38.0683 63.9319L37.8135 64.0453L38.303 65.1454Z" fill="#FF8D1D"/>
<path d="M40.9476 66.4964L39.3076 62.813L40.3898 62.3312C40.6111 62.2325 40.8089 62.1935 40.9831 62.2136C41.1576 62.2345 41.3123 62.3078 41.4471 62.4352C41.5819 62.5623 41.6984 62.7365 41.7967 62.9581C41.9033 63.1976 41.9485 63.4089 41.9321 63.5927C41.9158 63.7761 41.8489 63.934 41.7314 64.0662C41.6142 64.1981 41.4554 64.3089 41.2553 64.3979L40.8916 64.5599L41.6206 66.197L40.9476 66.4964ZM40.6812 64.0867L40.9361 63.9734C41.0574 63.9196 41.1442 63.8597 41.197 63.7947C41.2495 63.7297 41.2716 63.6525 41.263 63.5635C41.2546 63.4752 41.221 63.3653 41.1631 63.235C41.1035 63.1015 41.0456 62.9974 40.9889 62.9228C40.9319 62.8486 40.8624 62.806 40.7795 62.7951C40.6969 62.7849 40.5858 62.8108 40.4465 62.8729L40.1916 62.9862L40.6812 64.0867Z" fill="#FF8D1D"/>
<path d="M43.326 65.4375L41.686 61.7541L42.5681 61.3612C42.8166 61.2508 43.0398 61.1867 43.2373 61.1691C43.4349 61.1522 43.6103 61.1951 43.7631 61.2975C43.9161 61.4006 44.0471 61.5745 44.1562 61.8201C44.2225 61.9689 44.268 62.1082 44.2936 62.2389C44.3189 62.3689 44.3176 62.4905 44.2894 62.6029C44.2613 62.7153 44.2001 62.8197 44.105 62.9164L45.4267 64.5019L44.7537 64.8016L43.5569 63.3128L43.2476 63.4504L43.9987 65.1375L43.326 65.4375ZM43.0596 63.0278L43.269 62.9346C43.3993 62.8767 43.4947 62.8113 43.5553 62.7393C43.6158 62.6666 43.6439 62.5818 43.6401 62.4835C43.6363 62.3855 43.6055 62.2709 43.5476 62.1406C43.4653 61.9555 43.3692 61.8322 43.26 61.7701C43.1505 61.708 43.0004 61.7195 42.8092 61.8044L42.5637 61.9136L43.0596 63.0278Z" fill="#FF8D1D"/>
<path d="M46.8815 63.9142C46.6209 64.0304 46.3916 64.0743 46.1938 64.0461C45.9959 64.0179 45.823 63.9277 45.6754 63.7752C45.5278 63.6232 45.3984 63.4227 45.288 63.1746L44.6745 61.7965C44.564 61.5481 44.5022 61.3201 44.4901 61.1132C44.4779 60.9064 44.5279 60.7214 44.6409 60.5584C44.7536 60.3954 44.9402 60.2561 45.2012 60.1399C45.4679 60.0211 45.6988 59.9747 45.8937 60.0006C46.0887 60.0266 46.2597 60.113 46.407 60.26C46.554 60.4069 46.6833 60.6048 46.7938 60.8533L47.4095 62.2358C47.5187 62.4811 47.5795 62.7097 47.5917 62.92C47.6038 63.131 47.5552 63.3199 47.446 63.4864C47.3362 63.6529 47.1482 63.7957 46.8815 63.9142ZM46.6609 63.4189C46.773 63.3689 46.8447 63.3078 46.8761 63.2357C46.9074 63.1637 46.9135 63.0811 46.894 62.9879C46.8745 62.8951 46.8421 62.7984 46.7976 62.6985L46.0426 61.0025C45.9965 60.8994 45.9463 60.8107 45.8918 60.737C45.8371 60.6634 45.7727 60.6147 45.6988 60.5914C45.6248 60.568 45.5316 60.5811 45.4196 60.6311C45.3133 60.6784 45.2435 60.7377 45.2098 60.8091C45.1762 60.8805 45.1685 60.9608 45.1868 61.0508C45.205 61.1408 45.2371 61.2375 45.2832 61.3406L46.0381 63.0366C46.0827 63.1365 46.1323 63.2252 46.1867 63.3027C46.2411 63.3805 46.3065 63.431 46.3827 63.4554C46.4589 63.4797 46.5517 63.4672 46.6609 63.4189Z" fill="#FF8D1D"/>
<path d="M48.9649 62.9267L46.5837 59.5734L47.1793 59.3083L48.826 61.6972L48.1206 58.8892L48.7302 58.6177L49.629 62.6308L48.9649 62.9267Z" fill="#FF8D1D"/>
<path d="M50.7474 62.1335L49.1074 58.4501L50.6536 57.7617L50.8643 58.2346L49.9911 58.6233L50.4628 59.6828L51.1495 59.377L51.358 59.8451L50.6712 60.1509L51.2139 61.3698L52.0963 60.977L52.3028 61.4406L50.7474 62.1335Z" fill="#FF8D1D"/>
<path d="M52.6934 61.2667L51.0535 57.5834L51.9221 57.1966C52.2221 57.0631 52.4747 56.9993 52.6793 57.0064C52.8843 57.0137 53.0597 57.0861 53.2067 57.2238C53.3533 57.3621 53.4849 57.5616 53.6008 57.8219L54.2002 59.1683C54.319 59.435 54.3821 59.6732 54.3901 59.8819C54.3974 60.091 54.3382 60.2754 54.2114 60.4355C54.0846 60.5953 53.8771 60.7394 53.5893 60.8678L52.6934 61.2667ZM53.1577 60.4986L53.3623 60.4074C53.5169 60.3385 53.6156 60.2623 53.6578 60.1778C53.7004 60.0936 53.7058 59.9959 53.6745 59.8845C53.6431 59.7731 53.5935 59.6415 53.5262 59.4904L52.8984 58.0803C52.8324 57.9317 52.768 57.8168 52.7066 57.7354C52.6448 57.6538 52.5711 57.6071 52.4856 57.5939C52.3998 57.5811 52.283 57.6077 52.1344 57.674L51.9388 57.7611L53.1577 60.4986Z" fill="#FF8D1D"/>
<path d="M58.9066 61.6027L34.4694 72.4831C33.3721 72.9717 32.0818 72.4764 31.5935 71.3791L29.3506 66.3414C28.862 65.2441 29.3574 63.9538 30.4546 63.4652L54.8918 52.5848C55.9894 52.0962 57.2798 52.5915 57.7684 53.6888L60.0112 58.7265C60.4995 59.8238 60.0039 61.1141 58.9066 61.6027ZM30.9605 64.6021C30.4898 64.8115 30.2776 65.3648 30.4873 65.8355L32.7302 70.8732C32.9396 71.3436 33.4925 71.5559 33.9632 71.3465L58.4004 60.466C58.8711 60.2566 59.0833 59.7034 58.8739 59.233L56.6311 54.1953C56.4214 53.7246 55.8684 53.5123 55.3977 53.7217L30.9605 64.6021Z" fill="#FF8D1D"/>
<path d="M40.6506 112.455L13.9327 116.389L4.58179 59.2122L31.2997 55.2778L40.6506 112.455Z" fill="#1C4D87" stroke="#1C4D87" stroke-width="0.5" stroke-miterlimit="10"/>
<path d="M43.4592 112.102L16.7413 116.036L7.39038 58.86L34.1083 54.9253L43.4592 112.102Z" fill="#FF8D1D" stroke="#1C4D87" stroke-width="0.5" stroke-miterlimit="10"/>
<path d="M32.49 61.9201C30.7098 62.1823 29.0542 60.9516 28.7919 59.1714C28.7721 59.0359 28.7634 58.9021 28.7602 58.7686L13.4194 61.0278C13.4549 61.1565 13.4853 61.2871 13.5052 61.4225C13.7674 63.2027 12.5366 64.8584 10.7564 65.1206C10.6892 65.1306 10.6226 65.1341 10.5557 65.1399L17.9618 109.111C18.0274 109.097 18.0924 109.081 18.1597 109.071C19.9399 108.809 21.5955 110.04 21.8578 111.82C21.8776 111.956 21.8862 112.089 21.8891 112.223L37.23 109.964C37.1944 109.835 37.164 109.704 37.1442 109.569C36.882 107.789 38.1127 106.133 39.8929 105.871C40.0284 105.851 40.1622 105.842 40.2957 105.839L32.8848 61.8343C32.7561 61.8698 32.6255 61.9003 32.49 61.9201ZM25.7646 89.8963C22.8465 90.326 20.1326 88.3088 19.7026 85.3907C19.2729 82.4726 21.2901 79.7587 24.2082 79.329C27.1263 78.8993 29.8405 80.9165 30.2702 83.8346C30.7002 86.7524 28.6827 89.4666 25.7646 89.8963Z" fill="white" stroke="#1C4D87" stroke-width="0.5" stroke-miterlimit="10"/>
<path d="M8.43652 83.1036L35.3664 79.2617L36.5027 86.2161L9.55876 90.1175L8.43652 83.1036Z" fill="#B0B0B0" stroke="#1C4D87" stroke-width="0.5" stroke-miterlimit="10" stroke-linecap="round" stroke-linejoin="round"/>
<path d="M11.5166 82.7312L38.1893 78.9419L39.3253 85.8962L12.6392 89.7451L11.5166 82.7312Z" fill="white" stroke="#1C4D87" stroke-width="0.5" stroke-miterlimit="10" stroke-linecap="round" stroke-linejoin="round"/>
<path d="M40.7098 117.167L13.7041 117.054L13.0256 59.1221L40.0313 59.2351L40.7098 117.167Z" fill="#1C4D87" stroke="#1C4D87" stroke-width="0.5" stroke-miterlimit="10"/>
<path d="M43.5393 117.24L16.5336 117.127L15.8555 59.1943L42.8612 59.3074L43.5393 117.24Z" fill="#FF8D1D" stroke="#1C4D87" stroke-width="0.5" stroke-miterlimit="10"/>
<path d="M40.2129 65.9813C38.4135 65.9736 36.9608 64.5087 36.9685 62.7093C36.9692 62.5726 36.9807 62.4388 36.9977 62.3062L21.4916 62.2412C21.5073 62.3734 21.5178 62.5076 21.5175 62.6443C21.5098 64.4437 20.045 65.8964 18.2456 65.889C18.1774 65.8887 18.1111 65.8823 18.0442 65.8778L18.7784 110.462C18.8453 110.458 18.9119 110.452 18.9801 110.453C20.7795 110.46 22.2322 111.925 22.2245 113.724C22.2238 113.861 22.2123 113.995 22.1953 114.127L37.7014 114.192C37.6857 114.06 37.6748 113.926 37.6755 113.789C37.6828 111.99 39.148 110.537 40.9474 110.545C41.0841 110.545 41.218 110.557 41.3502 110.574L40.616 65.9553C40.4838 65.971 40.35 65.9816 40.2129 65.9813ZM29.3719 92.6338C26.4224 92.6213 24.0412 90.2203 24.0537 87.2708C24.0662 84.3213 26.4672 81.9401 29.4167 81.9526C32.3662 81.965 34.7474 84.3661 34.7349 87.3156C34.7228 90.2651 32.3214 92.646 29.3719 92.6338Z" fill="white" stroke="#1C4D87" stroke-width="0.5" stroke-miterlimit="10"/>
<path d="M13.2568 83.3213L40.4585 83.5579L40.5401 90.6038L13.3157 90.4242L13.2568 83.3213Z" fill="#B0B0B0" stroke="#1C4D87" stroke-width="0.5" stroke-miterlimit="10" stroke-linecap="round" stroke-linejoin="round"/>
<path d="M16.3582 83.4146L43.2976 83.6643L43.3789 90.7105L16.4171 90.5171L16.3582 83.4146Z" fill="white" stroke="#1C4D87" stroke-width="0.5" stroke-miterlimit="10" stroke-linecap="round" stroke-linejoin="round"/>
<path d="M51.9358 114.127L51.8987 116.403C51.8942 116.682 55.9666 116.975 60.995 117.057C66.0232 117.14 70.1033 116.979 70.1077 116.7L70.1449 114.424L51.9358 114.127Z" fill="white" stroke="#1C4D87" stroke-width="0.5" stroke-miterlimit="10" stroke-linecap="round" stroke-linejoin="round"/>
<path d="M70.1451 114.424C70.1406 114.703 66.0605 114.863 61.0324 114.781C56.0039 114.699 51.9316 114.406 51.936 114.127C51.9405 113.847 56.0206 113.687 61.0487 113.77C66.0769 113.852 70.1496 114.145 70.1451 114.424Z" fill="white" stroke="#1C4D87" stroke-width="0.5" stroke-miterlimit="10" stroke-linecap="round" stroke-linejoin="round"/>
<path d="M68.0346 114.326C68.0317 114.505 64.8984 114.599 61.0361 114.536C57.1737 114.473 54.0452 114.276 54.0481 114.097C54.051 113.918 57.1843 113.824 61.0466 113.887C64.9093 113.95 68.0378 114.146 68.0346 114.326Z" fill="white" stroke="#1C4D87" stroke-width="0.5" stroke-miterlimit="10" stroke-linecap="round" stroke-linejoin="round"/>
<path d="M69.2334 114.669L69.2046 116.434" stroke="#1C4D87" stroke-width="0.5" stroke-miterlimit="10" stroke-linecap="round" stroke-linejoin="round"/>
<path d="M67.9298 114.833L67.8994 116.691" stroke="#1C4D87" stroke-width="0.5" stroke-miterlimit="10" stroke-linecap="round" stroke-linejoin="round"/>
<path d="M65.9783 114.848L65.9546 116.288" stroke="#1C4D87" stroke-width="0.5" stroke-miterlimit="10" stroke-linecap="round" stroke-linejoin="round"/>
<path d="M63.4086 115.735L63.3884 116.989" stroke="#1C4D87" stroke-width="0.5" stroke-miterlimit="10" stroke-linecap="round" stroke-linejoin="round"/>
<path d="M60.6458 117.084L60.6717 115.504" stroke="#1C4D87" stroke-width="0.5" stroke-miterlimit="10" stroke-linecap="round" stroke-linejoin="round"/>
<path d="M52.5131 114.396L52.5002 115.185" stroke="#1C4D87" stroke-width="0.5" stroke-miterlimit="10" stroke-linecap="round" stroke-linejoin="round"/>
<path d="M53.5449 116.643L53.56 115.714" stroke="#1C4D87" stroke-width="0.5" stroke-miterlimit="10" stroke-linecap="round" stroke-linejoin="round"/>
<path d="M57.7698 116.804L57.788 115.69" stroke="#1C4D87" stroke-width="0.5" stroke-miterlimit="10" stroke-linecap="round" stroke-linejoin="round"/>
<path d="M51.7176 111.86L51.6804 114.136C51.6759 114.416 55.7483 114.709 60.7768 114.791C65.8052 114.873 69.885 114.713 69.8898 114.434L69.9269 112.158L51.7176 111.86Z" fill="white" stroke="#1C4D87" stroke-width="0.5" stroke-miterlimit="10" stroke-linecap="round" stroke-linejoin="round"/>
<path d="M69.9266 112.158C69.9221 112.437 65.842 112.597 60.8139 112.515C55.7858 112.433 51.7131 112.14 51.7175 111.861C51.722 111.581 55.8021 111.421 60.8305 111.504C65.8587 111.586 69.9314 111.878 69.9266 112.158Z" fill="white" stroke="#1C4D87" stroke-width="0.5" stroke-miterlimit="10" stroke-linecap="round" stroke-linejoin="round"/>
<path d="M67.8163 112.06C67.8134 112.239 64.6801 112.333 60.8178 112.27C56.9554 112.207 53.827 112.01 53.8298 111.831C53.8327 111.652 56.966 111.558 60.8284 111.621C64.6907 111.684 67.8192 111.88 67.8163 112.06Z" fill="white" stroke="#1C4D87" stroke-width="0.5" stroke-miterlimit="10" stroke-linecap="round" stroke-linejoin="round"/>
<path d="M69.0147 112.402L68.9858 114.167" stroke="#1C4D87" stroke-width="0.5" stroke-miterlimit="10" stroke-linecap="round" stroke-linejoin="round"/>
<path d="M67.7112 112.567L67.6812 114.425" stroke="#1C4D87" stroke-width="0.5" stroke-miterlimit="10" stroke-linecap="round" stroke-linejoin="round"/>
<path d="M65.76 112.582L65.7363 114.021" stroke="#1C4D87" stroke-width="0.5" stroke-miterlimit="10" stroke-linecap="round" stroke-linejoin="round"/>
<path d="M63.1904 113.469L63.1699 114.723" stroke="#1C4D87" stroke-width="0.5" stroke-miterlimit="10" stroke-linecap="round" stroke-linejoin="round"/>
<path d="M60.4275 114.817L60.4531 113.238" stroke="#1C4D87" stroke-width="0.5" stroke-miterlimit="10" stroke-linecap="round" stroke-linejoin="round"/>
<path d="M52.2948 112.129L52.282 112.919" stroke="#1C4D87" stroke-width="0.5" stroke-miterlimit="10" stroke-linecap="round" stroke-linejoin="round"/>
<path d="M53.3269 114.376L53.342 113.447" stroke="#1C4D87" stroke-width="0.5" stroke-miterlimit="10" stroke-linecap="round" stroke-linejoin="round"/>
<path d="M57.5515 114.538L57.5698 113.423" stroke="#1C4D87" stroke-width="0.5" stroke-miterlimit="10" stroke-linecap="round" stroke-linejoin="round"/>
<path d="M51.7549 109.581L51.7178 111.856C51.7133 112.136 55.7857 112.429 60.8141 112.511C65.8426 112.593 69.9223 112.433 69.9268 112.154L69.964 109.878L51.7549 109.581Z" fill="white" stroke="#1C4D87" stroke-width="0.5" stroke-miterlimit="10" stroke-linecap="round" stroke-linejoin="round"/>
<path d="M69.9639 109.878C69.9594 110.158 65.8794 110.317 60.8512 110.235C55.8231 110.153 51.7504 109.86 51.7549 109.581C51.7594 109.302 55.8394 109.141 60.8676 109.224C65.8957 109.306 69.9684 109.599 69.9639 109.878Z" fill="white" stroke="#1C4D87" stroke-width="0.5" stroke-miterlimit="10" stroke-linecap="round" stroke-linejoin="round"/>
<path d="M67.8537 109.78C67.8508 109.959 64.7175 110.053 60.8552 109.99C56.9928 109.927 53.8643 109.731 53.8672 109.551C53.8701 109.372 57.0034 109.278 60.8657 109.341C64.7277 109.404 67.8566 109.601 67.8537 109.78Z" fill="white" stroke="#1C4D87" stroke-width="0.5" stroke-miterlimit="10" stroke-linecap="round" stroke-linejoin="round"/>
<path d="M69.052 110.123L69.0232 111.887" stroke="#1C4D87" stroke-width="0.5" stroke-miterlimit="10" stroke-linecap="round" stroke-linejoin="round"/>
<path d="M67.7487 110.287L67.7183 112.145" stroke="#1C4D87" stroke-width="0.5" stroke-miterlimit="10" stroke-linecap="round" stroke-linejoin="round"/>
<path d="M65.7971 110.302L65.7737 111.742" stroke="#1C4D87" stroke-width="0.5" stroke-miterlimit="10" stroke-linecap="round" stroke-linejoin="round"/>
<path d="M63.2278 111.189L63.2073 112.443" stroke="#1C4D87" stroke-width="0.5" stroke-miterlimit="10" stroke-linecap="round" stroke-linejoin="round"/>
<path d="M60.4644 112.538L60.4903 110.958" stroke="#1C4D87" stroke-width="0.5" stroke-miterlimit="10" stroke-linecap="round" stroke-linejoin="round"/>
<path d="M52.3322 109.85L52.3191 110.639" stroke="#1C4D87" stroke-width="0.5" stroke-miterlimit="10" stroke-linecap="round" stroke-linejoin="round"/>
<path d="M53.3638 112.096L53.3791 111.167" stroke="#1C4D87" stroke-width="0.5" stroke-miterlimit="10" stroke-linecap="round" stroke-linejoin="round"/>
<path d="M57.5886 112.258L57.6069 111.144" stroke="#1C4D87" stroke-width="0.5" stroke-miterlimit="10" stroke-linecap="round" stroke-linejoin="round"/>
<path d="M52.2063 107.309L52.1692 109.584C52.1647 109.864 56.2371 110.157 61.2656 110.239C66.2937 110.321 70.3738 110.161 70.3782 109.882L70.4154 107.606L52.2063 107.309Z" fill="white" stroke="#1C4D87" stroke-width="0.5" stroke-miterlimit="10" stroke-linecap="round" stroke-linejoin="round"/>
<path d="M70.4153 107.606C70.4109 107.885 66.3308 108.045 61.3027 107.963C56.2745 107.88 52.2018 107.588 52.2063 107.308C52.2108 107.029 56.2909 106.869 61.319 106.951C66.3474 107.033 70.4198 107.326 70.4153 107.606Z" fill="white" stroke="#1C4D87" stroke-width="0.5" stroke-miterlimit="10" stroke-linecap="round" stroke-linejoin="round"/>
<path d="M68.3051 107.508C68.3022 107.687 65.1689 107.781 61.3066 107.718C57.4442 107.655 54.3157 107.459 54.3186 107.279C54.3215 107.1 57.4548 107.006 61.3171 107.069C65.1795 107.132 68.308 107.329 68.3051 107.508Z" fill="white" stroke="#1C4D87" stroke-width="0.5" stroke-miterlimit="10" stroke-linecap="round" stroke-linejoin="round"/>
<path d="M69.5034 107.851L69.4746 109.615" stroke="#1C4D87" stroke-width="0.5" stroke-miterlimit="10" stroke-linecap="round" stroke-linejoin="round"/>
<path d="M68.2001 108.015L68.1697 109.873" stroke="#1C4D87" stroke-width="0.5" stroke-miterlimit="10" stroke-linecap="round" stroke-linejoin="round"/>
<path d="M66.2485 108.03L66.2251 109.47" stroke="#1C4D87" stroke-width="0.5" stroke-miterlimit="10" stroke-linecap="round" stroke-linejoin="round"/>
<path d="M63.6792 108.917L63.6587 110.171" stroke="#1C4D87" stroke-width="0.5" stroke-miterlimit="10" stroke-linecap="round" stroke-linejoin="round"/>
<path d="M60.916 110.265L60.9419 108.686" stroke="#1C4D87" stroke-width="0.5" stroke-miterlimit="10" stroke-linecap="round" stroke-linejoin="round"/>
<path d="M52.7836 107.578L52.7708 108.367" stroke="#1C4D87" stroke-width="0.5" stroke-miterlimit="10" stroke-linecap="round" stroke-linejoin="round"/>
<path d="M53.8152 109.824L53.8306 108.896" stroke="#1C4D87" stroke-width="0.5" stroke-miterlimit="10" stroke-linecap="round" stroke-linejoin="round"/>
<path d="M58.0403 109.986L58.0585 108.871" stroke="#1C4D87" stroke-width="0.5" stroke-miterlimit="10" stroke-linecap="round" stroke-linejoin="round"/>
<path d="M52.3128 105.031L52.2756 107.307C52.2712 107.586 56.3435 107.88 61.372 107.962C66.4001 108.044 70.4802 107.884 70.4847 107.605L70.5218 105.329L52.3128 105.031Z" fill="white" stroke="#1C4D87" stroke-width="0.5" stroke-miterlimit="10" stroke-linecap="round" stroke-linejoin="round"/>
<path d="M70.5218 105.328C70.5173 105.608 66.4372 105.768 61.4091 105.685C56.3807 105.603 52.3083 105.31 52.3127 105.031C52.3172 104.751 56.3973 104.592 61.4254 104.674C66.4536 104.756 70.5263 105.049 70.5218 105.328Z" fill="white" stroke="#1C4D87" stroke-width="0.5" stroke-miterlimit="10" stroke-linecap="round" stroke-linejoin="round"/>
<path d="M68.4115 105.23C68.4087 105.409 65.2754 105.503 61.413 105.44C57.5507 105.377 54.4222 105.181 54.4251 105.001C54.4279 104.822 57.5612 104.728 61.4236 104.791C65.2859 104.854 68.4144 105.051 68.4115 105.23Z" fill="white" stroke="#1C4D87" stroke-width="0.5" stroke-miterlimit="10" stroke-linecap="round" stroke-linejoin="round"/>
<path d="M69.6099 105.573L69.5811 107.338" stroke="#1C4D87" stroke-width="0.5" stroke-miterlimit="10" stroke-linecap="round" stroke-linejoin="round"/>
<path d="M68.3065 105.737L68.2761 107.595" stroke="#1C4D87" stroke-width="0.5" stroke-miterlimit="10" stroke-linecap="round" stroke-linejoin="round"/>
<path d="M66.3549 105.752L66.3315 107.192" stroke="#1C4D87" stroke-width="0.5" stroke-miterlimit="10" stroke-linecap="round" stroke-linejoin="round"/>
<path d="M63.7856 106.64L63.7651 107.893" stroke="#1C4D87" stroke-width="0.5" stroke-miterlimit="10" stroke-linecap="round" stroke-linejoin="round"/>
<path d="M61.0225 107.988L61.0484 106.409" stroke="#1C4D87" stroke-width="0.5" stroke-miterlimit="10" stroke-linecap="round" stroke-linejoin="round"/>
<path d="M52.89 105.3L52.8772 106.089" stroke="#1C4D87" stroke-width="0.5" stroke-miterlimit="10" stroke-linecap="round" stroke-linejoin="round"/>
<path d="M53.9216 107.547L53.937 106.618" stroke="#1C4D87" stroke-width="0.5" stroke-miterlimit="10" stroke-linecap="round" stroke-linejoin="round"/>
<path d="M58.1467 107.708L58.165 106.594" stroke="#1C4D87" stroke-width="0.5" stroke-miterlimit="10" stroke-linecap="round" stroke-linejoin="round"/>
<path d="M52.2806 102.751L52.2434 105.027C52.2389 105.306 56.3113 105.599 61.3398 105.681C66.3682 105.764 70.448 105.603 70.4525 105.324L70.4896 103.048L52.2806 102.751Z" fill="white" stroke="#1C4D87" stroke-width="0.5" stroke-miterlimit="10" stroke-linecap="round" stroke-linejoin="round"/>
<path d="M70.4896 103.049C70.4851 103.328 66.405 103.488 61.3769 103.406C56.3487 103.323 52.276 103.03 52.2805 102.751C52.285 102.472 56.3651 102.312 61.3935 102.394C66.4217 102.476 70.4944 102.769 70.4896 103.049Z" fill="white" stroke="#1C4D87" stroke-width="0.5" stroke-miterlimit="10" stroke-linecap="round" stroke-linejoin="round"/>
<path d="M68.3793 102.95C68.3764 103.13 65.2431 103.224 61.3808 103.161C57.5184 103.098 54.3899 102.901 54.3928 102.722C54.3957 102.542 57.529 102.448 61.3914 102.511C65.2537 102.574 68.3825 102.771 68.3793 102.95Z" fill="white" stroke="#1C4D87" stroke-width="0.5" stroke-miterlimit="10" stroke-linecap="round" stroke-linejoin="round"/>
<path d="M69.5779 103.293L69.5491 105.058" stroke="#1C4D87" stroke-width="0.5" stroke-miterlimit="10" stroke-linecap="round" stroke-linejoin="round"/>
<path d="M68.2742 103.458L68.2441 105.316" stroke="#1C4D87" stroke-width="0.5" stroke-miterlimit="10" stroke-linecap="round" stroke-linejoin="round"/>
<path d="M66.323 103.473L66.2993 104.912" stroke="#1C4D87" stroke-width="0.5" stroke-miterlimit="10" stroke-linecap="round" stroke-linejoin="round"/>
<path d="M63.7532 104.359L63.7327 105.614" stroke="#1C4D87" stroke-width="0.5" stroke-miterlimit="10" stroke-linecap="round" stroke-linejoin="round"/>
<path d="M60.9905 105.708L61.0164 104.129" stroke="#1C4D87" stroke-width="0.5" stroke-miterlimit="10" stroke-linecap="round" stroke-linejoin="round"/>
<path d="M52.8581 103.02L52.845 103.81" stroke="#1C4D87" stroke-width="0.5" stroke-miterlimit="10" stroke-linecap="round" stroke-linejoin="round"/>
<path d="M53.8896 105.267L53.9047 104.338" stroke="#1C4D87" stroke-width="0.5" stroke-miterlimit="10" stroke-linecap="round" stroke-linejoin="round"/>
<path d="M58.1145 105.429L58.1328 104.314" stroke="#1C4D87" stroke-width="0.5" stroke-miterlimit="10" stroke-linecap="round" stroke-linejoin="round"/>
<path d="M52.4561 100.475L52.4189 102.75C52.4145 103.03 56.4869 103.323 61.5153 103.405C66.5438 103.487 70.6235 103.327 70.628 103.048L70.6651 100.772L52.4561 100.475Z" fill="white" stroke="#1C4D87" stroke-width="0.5" stroke-miterlimit="10" stroke-linecap="round" stroke-linejoin="round"/>
<path d="M70.6651 100.772C70.6606 101.051 66.5805 101.212 61.5524 101.129C56.5243 101.047 52.4516 100.754 52.4561 100.475C52.4605 100.196 56.5406 100.036 61.5687 100.118C66.5972 100.2 70.6696 100.493 70.6651 100.772Z" fill="white" stroke="#1C4D87" stroke-width="0.5" stroke-miterlimit="10" stroke-linecap="round" stroke-linejoin="round"/>
<path d="M68.5549 100.674C68.552 100.853 65.4187 100.947 61.5563 100.884C57.694 100.821 54.5655 100.625 54.5684 100.445C54.5712 100.266 57.7045 100.172 61.5669 100.235C65.4292 100.298 68.5577 100.495 68.5549 100.674Z" fill="white" stroke="#1C4D87" stroke-width="0.5" stroke-miterlimit="10" stroke-linecap="round" stroke-linejoin="round"/>
<path d="M69.7532 101.017L69.7244 102.781" stroke="#1C4D87" stroke-width="0.5" stroke-miterlimit="10" stroke-linecap="round" stroke-linejoin="round"/>
<path d="M68.4499 101.181L68.4194 103.039" stroke="#1C4D87" stroke-width="0.5" stroke-miterlimit="10" stroke-linecap="round" stroke-linejoin="round"/>
<path d="M66.4982 101.196L66.4749 102.636" stroke="#1C4D87" stroke-width="0.5" stroke-miterlimit="10" stroke-linecap="round" stroke-linejoin="round"/>
<path d="M63.9289 102.083L63.9084 103.337" stroke="#1C4D87" stroke-width="0.5" stroke-miterlimit="10" stroke-linecap="round" stroke-linejoin="round"/>
<path d="M61.166 103.432L61.1916 101.853" stroke="#1C4D87" stroke-width="0.5" stroke-miterlimit="10" stroke-linecap="round" stroke-linejoin="round"/>
<path d="M53.0333 100.744L53.0205 101.533" stroke="#1C4D87" stroke-width="0.5" stroke-miterlimit="10" stroke-linecap="round" stroke-linejoin="round"/>
<path d="M54.0654 102.99L54.0805 102.062" stroke="#1C4D87" stroke-width="0.5" stroke-miterlimit="10" stroke-linecap="round" stroke-linejoin="round"/>
<path d="M58.29 103.152L58.3083 102.038" stroke="#1C4D87" stroke-width="0.5" stroke-miterlimit="10" stroke-linecap="round" stroke-linejoin="round"/>
<path d="M51.1507 98.187L51.1135 100.463C51.109 100.742 55.1814 101.035 60.2099 101.117C65.2383 101.2 69.3181 101.04 69.3226 100.76L69.3597 98.4845L51.1507 98.187Z" fill="white" stroke="#1C4D87" stroke-width="0.5" stroke-miterlimit="10" stroke-linecap="round" stroke-linejoin="round"/>
<path d="M69.3597 98.4842C69.3552 98.7634 65.2751 98.9234 60.247 98.8412C55.2185 98.7592 51.1462 98.4659 51.1506 98.1867C51.1551 97.9075 55.2352 97.7474 60.2633 97.8297C65.2918 97.9117 69.3645 98.205 69.3597 98.4842Z" fill="white" stroke="#1C4D87" stroke-width="0.5" stroke-miterlimit="10" stroke-linecap="round" stroke-linejoin="round"/>
<path d="M67.2497 98.3858C67.2468 98.5651 64.1135 98.6593 60.2511 98.5962C56.3888 98.5331 53.2603 98.3365 53.2632 98.1572C53.2661 97.9779 56.3994 97.8838 60.2617 97.9469C64.1237 98.0099 67.2526 98.2065 67.2497 98.3858Z" fill="white" stroke="#1C4D87" stroke-width="0.5" stroke-miterlimit="10" stroke-linecap="round" stroke-linejoin="round"/>
<path d="M68.4482 98.729L68.4194 100.494" stroke="#1C4D87" stroke-width="0.5" stroke-miterlimit="10" stroke-linecap="round" stroke-linejoin="round"/>
<path d="M67.1447 98.8936L67.1143 100.751" stroke="#1C4D87" stroke-width="0.5" stroke-miterlimit="10" stroke-linecap="round" stroke-linejoin="round"/>
<path d="M65.1934 98.9082L65.1697 100.348" stroke="#1C4D87" stroke-width="0.5" stroke-miterlimit="10" stroke-linecap="round" stroke-linejoin="round"/>
<path d="M62.6238 99.7954L62.603 101.05" stroke="#1C4D87" stroke-width="0.5" stroke-miterlimit="10" stroke-linecap="round" stroke-linejoin="round"/>
<path d="M59.8606 101.144L59.8865 99.5645" stroke="#1C4D87" stroke-width="0.5" stroke-miterlimit="10" stroke-linecap="round" stroke-linejoin="round"/>
<path d="M51.7282 98.4561L51.7151 99.2456" stroke="#1C4D87" stroke-width="0.5" stroke-miterlimit="10" stroke-linecap="round" stroke-linejoin="round"/>
<path d="M52.76 100.703L52.7754 99.7739" stroke="#1C4D87" stroke-width="0.5" stroke-miterlimit="10" stroke-linecap="round" stroke-linejoin="round"/>
<path d="M56.9849 100.864L57.0031 99.7495" stroke="#1C4D87" stroke-width="0.5" stroke-miterlimit="10" stroke-linecap="round" stroke-linejoin="round"/>
<path d="M50.9119 95.9038L50.8748 98.1797C50.8703 98.4592 54.9427 98.7521 59.9711 98.8341C64.9996 98.9164 69.0793 98.7563 69.0841 98.4771L69.1213 96.2013L50.9119 95.9038Z" fill="white" stroke="#1C4D87" stroke-width="0.5" stroke-miterlimit="10" stroke-linecap="round" stroke-linejoin="round"/>
<path d="M69.121 96.2014C69.1165 96.4806 65.0364 96.6407 60.008 96.5584C54.9798 96.4762 50.9071 96.1832 50.9116 95.904C50.9161 95.6248 54.9962 95.4647 60.0243 95.547C65.0531 95.629 69.1255 95.9222 69.121 96.2014Z" fill="white" stroke="#1C4D87" stroke-width="0.5" stroke-miterlimit="10" stroke-linecap="round" stroke-linejoin="round"/>
<path d="M67.0107 96.1031C67.0078 96.2824 63.8745 96.3765 60.0121 96.3135C56.1498 96.2504 53.0213 96.0538 53.0242 95.8745C53.0271 95.6952 56.1604 95.6011 60.0227 95.6641C63.8851 95.7272 67.0135 95.9238 67.0107 96.1031Z" fill="white" stroke="#1C4D87" stroke-width="0.5" stroke-miterlimit="10" stroke-linecap="round" stroke-linejoin="round"/>
<path d="M68.209 96.4458L68.1802 98.2106" stroke="#1C4D87" stroke-width="0.5" stroke-miterlimit="10" stroke-linecap="round" stroke-linejoin="round"/>
<path d="M66.9057 96.6104L66.8752 98.468" stroke="#1C4D87" stroke-width="0.5" stroke-miterlimit="10" stroke-linecap="round" stroke-linejoin="round"/>
<path d="M64.9544 96.625L64.9307 98.0649" stroke="#1C4D87" stroke-width="0.5" stroke-miterlimit="10" stroke-linecap="round" stroke-linejoin="round"/>
<path d="M62.3847 97.5122L62.3643 98.7664" stroke="#1C4D87" stroke-width="0.5" stroke-miterlimit="10" stroke-linecap="round" stroke-linejoin="round"/>
<path d="M59.6218 98.8604L59.6474 97.2812" stroke="#1C4D87" stroke-width="0.5" stroke-miterlimit="10" stroke-linecap="round" stroke-linejoin="round"/>
<path d="M51.4891 96.1729L51.4763 96.9624" stroke="#1C4D87" stroke-width="0.5" stroke-miterlimit="10" stroke-linecap="round" stroke-linejoin="round"/>
<path d="M52.521 98.4196L52.536 97.4907" stroke="#1C4D87" stroke-width="0.5" stroke-miterlimit="10" stroke-linecap="round" stroke-linejoin="round"/>
<path d="M56.7458 98.5817L56.7641 97.4668" stroke="#1C4D87" stroke-width="0.5" stroke-miterlimit="10" stroke-linecap="round" stroke-linejoin="round"/>
<path d="M50.4659 93.6172L50.4287 95.893C50.4242 96.1722 54.4966 96.4655 59.5251 96.5475C64.5532 96.6298 68.6333 96.4697 68.6378 96.1905L68.6749 93.9146L50.4659 93.6172Z" fill="white" stroke="#1C4D87" stroke-width="0.5" stroke-miterlimit="10" stroke-linecap="round" stroke-linejoin="round"/>
<path d="M68.6749 93.9143C68.6704 94.1939 64.5903 94.3536 59.5622 94.2713C54.5337 94.189 50.4613 93.8961 50.4658 93.6169C50.4703 93.3377 54.5504 93.1776 59.5788 93.2599C64.607 93.3422 68.6793 93.6351 68.6749 93.9143Z" fill="white" stroke="#1C4D87" stroke-width="0.5" stroke-miterlimit="10" stroke-linecap="round" stroke-linejoin="round"/>
<path d="M66.5646 93.816C66.5617 93.9953 63.4284 94.0894 59.5661 94.0264C55.7037 93.9633 52.5752 93.7667 52.5781 93.5874C52.581 93.4081 55.7143 93.314 59.5767 93.377C63.439 93.4404 66.5675 93.6367 66.5646 93.816Z" fill="white" stroke="#1C4D87" stroke-width="0.5" stroke-miterlimit="10" stroke-linecap="round" stroke-linejoin="round"/>
<path d="M67.7629 94.1592L67.7341 95.924" stroke="#1C4D87" stroke-width="0.5" stroke-miterlimit="10" stroke-linecap="round" stroke-linejoin="round"/>
<path d="M66.4596 94.3237L66.4292 96.1817" stroke="#1C4D87" stroke-width="0.5" stroke-miterlimit="10" stroke-linecap="round" stroke-linejoin="round"/>
<path d="M64.508 94.3384L64.4846 95.7782" stroke="#1C4D87" stroke-width="0.5" stroke-miterlimit="10" stroke-linecap="round" stroke-linejoin="round"/>
<path d="M61.9387 95.2256L61.9182 96.4794" stroke="#1C4D87" stroke-width="0.5" stroke-miterlimit="10" stroke-linecap="round" stroke-linejoin="round"/>
<path d="M59.1753 96.5739L59.2012 94.9951" stroke="#1C4D87" stroke-width="0.5" stroke-miterlimit="10" stroke-linecap="round" stroke-linejoin="round"/>
<path d="M51.0431 93.8857L51.0303 94.6753" stroke="#1C4D87" stroke-width="0.5" stroke-miterlimit="10" stroke-linecap="round" stroke-linejoin="round"/>
<path d="M52.0747 96.1329L52.0901 95.2041" stroke="#1C4D87" stroke-width="0.5" stroke-miterlimit="10" stroke-linecap="round" stroke-linejoin="round"/>
<path d="M56.2998 96.2947L56.3181 95.1802" stroke="#1C4D87" stroke-width="0.5" stroke-miterlimit="10" stroke-linecap="round" stroke-linejoin="round"/>
<path d="M52.0528 91.3506L52.0156 93.6264C52.0111 93.9056 56.0835 94.1989 61.112 94.2809C66.1404 94.3632 70.2202 94.2031 70.2247 93.9239L70.2618 91.648L52.0528 91.3506Z" fill="white" stroke="#1C4D87" stroke-width="0.5" stroke-miterlimit="10" stroke-linecap="round" stroke-linejoin="round"/>
<path d="M70.2618 91.6482C70.2573 91.9274 66.1772 92.0875 61.1491 92.0052C56.1206 91.9229 52.0483 91.63 52.0527 91.3508C52.0572 91.0716 56.1373 90.9115 61.1654 90.9938C66.1939 91.0757 70.2663 91.369 70.2618 91.6482Z" fill="white" stroke="#1C4D87" stroke-width="0.5" stroke-miterlimit="10" stroke-linecap="round" stroke-linejoin="round"/>
<path d="M68.1515 91.5499C68.1487 91.7292 65.0154 91.8233 61.153 91.7602C57.2907 91.6972 54.1622 91.5006 54.165 91.3213C54.1679 91.142 57.3012 91.0478 61.1636 91.1109C65.0259 91.174 68.1544 91.3706 68.1515 91.5499Z" fill="white" stroke="#1C4D87" stroke-width="0.5" stroke-miterlimit="10" stroke-linecap="round" stroke-linejoin="round"/>
<path d="M69.3501 91.8926L69.3213 93.6574" stroke="#1C4D87" stroke-width="0.5" stroke-miterlimit="10" stroke-linecap="round" stroke-linejoin="round"/>
<path d="M68.0465 92.0576L68.0161 93.9153" stroke="#1C4D87" stroke-width="0.5" stroke-miterlimit="10" stroke-linecap="round" stroke-linejoin="round"/>
<path d="M66.0949 92.0723L66.0715 93.5118" stroke="#1C4D87" stroke-width="0.5" stroke-miterlimit="10" stroke-linecap="round" stroke-linejoin="round"/>
<path d="M63.5256 92.959L63.5051 94.2131" stroke="#1C4D87" stroke-width="0.5" stroke-miterlimit="10" stroke-linecap="round" stroke-linejoin="round"/>
<path d="M60.7625 94.3077L60.7884 92.7285" stroke="#1C4D87" stroke-width="0.5" stroke-miterlimit="10" stroke-linecap="round" stroke-linejoin="round"/>
<path d="M52.63 91.6196L52.6172 92.4092" stroke="#1C4D87" stroke-width="0.5" stroke-miterlimit="10" stroke-linecap="round" stroke-linejoin="round"/>
<path d="M53.6616 93.8663L53.677 92.9375" stroke="#1C4D87" stroke-width="0.5" stroke-miterlimit="10" stroke-linecap="round" stroke-linejoin="round"/>
<path d="M57.8867 94.0286L57.905 92.9141" stroke="#1C4D87" stroke-width="0.5" stroke-miterlimit="10" stroke-linecap="round" stroke-linejoin="round"/>
<path d="M51.4683 89.062L51.4312 91.3379C51.4267 91.6171 55.4991 91.9103 60.5275 91.9923C65.5556 92.0746 69.6357 91.9145 69.6405 91.6353L69.6777 89.3595L51.4683 89.062Z" fill="white" stroke="#1C4D87" stroke-width="0.5" stroke-miterlimit="10" stroke-linecap="round" stroke-linejoin="round"/>
<path d="M69.6773 89.3596C69.6728 89.6388 65.5928 89.7989 60.5646 89.7166C55.5362 89.6344 51.4638 89.3414 51.4683 89.0622C51.4727 88.783 55.5528 88.6229 60.5813 88.7052C65.6094 88.7872 69.6821 89.0801 69.6773 89.3596Z" fill="white" stroke="#1C4D87" stroke-width="0.5" stroke-miterlimit="10" stroke-linecap="round" stroke-linejoin="round"/>
<path d="M67.5671 89.2608C67.5642 89.4401 64.4309 89.5343 60.5685 89.4712C56.7062 89.4081 53.5777 89.2115 53.5806 89.0322C53.5835 88.8529 56.7167 88.7588 60.5791 88.8219C64.4414 88.8852 67.5699 89.0815 67.5671 89.2608Z" fill="white" stroke="#1C4D87" stroke-width="0.5" stroke-miterlimit="10" stroke-linecap="round" stroke-linejoin="round"/>
<path d="M68.7654 89.604L68.7366 91.3688" stroke="#1C4D87" stroke-width="0.5" stroke-miterlimit="10" stroke-linecap="round" stroke-linejoin="round"/>
<path d="M67.462 89.7686L67.4319 91.6266" stroke="#1C4D87" stroke-width="0.5" stroke-miterlimit="10" stroke-linecap="round" stroke-linejoin="round"/>
<path d="M65.5108 89.7832L65.4871 91.2231" stroke="#1C4D87" stroke-width="0.5" stroke-miterlimit="10" stroke-linecap="round" stroke-linejoin="round"/>
<path d="M62.9411 90.6704L62.9207 91.9242" stroke="#1C4D87" stroke-width="0.5" stroke-miterlimit="10" stroke-linecap="round" stroke-linejoin="round"/>
<path d="M60.1782 92.0188L60.2038 90.4399" stroke="#1C4D87" stroke-width="0.5" stroke-miterlimit="10" stroke-linecap="round" stroke-linejoin="round"/>
<path d="M52.0455 89.3306L52.0327 90.1201" stroke="#1C4D87" stroke-width="0.5" stroke-miterlimit="10" stroke-linecap="round" stroke-linejoin="round"/>
<path d="M53.0776 91.5776L53.0927 90.6484" stroke="#1C4D87" stroke-width="0.5" stroke-miterlimit="10" stroke-linecap="round" stroke-linejoin="round"/>
<path d="M57.3022 91.7395L57.3205 90.625" stroke="#1C4D87" stroke-width="0.5" stroke-miterlimit="10" stroke-linecap="round" stroke-linejoin="round"/>
<path d="M49.9439 86.6455L49.9067 88.9214C49.9023 89.2006 53.9746 89.4938 59.0031 89.5758C64.0312 89.6581 68.1113 89.498 68.1158 89.2188L68.1529 86.943L49.9439 86.6455Z" fill="white" stroke="#1C4D87" stroke-width="0.5" stroke-miterlimit="10" stroke-linecap="round" stroke-linejoin="round"/>
<path d="M68.1529 86.9427C68.1484 87.2219 64.0683 87.3819 59.0402 87.2997C54.0121 87.2174 49.9394 86.9244 49.9439 86.6452C49.9483 86.366 54.0284 86.2059 59.0565 86.2882C64.085 86.3702 68.1574 86.6631 68.1529 86.9427Z" fill="white" stroke="#1C4D87" stroke-width="0.5" stroke-miterlimit="10" stroke-linecap="round" stroke-linejoin="round"/>
<path d="M66.0426 86.8443C66.0398 87.0236 62.9065 87.1177 59.0441 87.0547C55.1818 86.9916 52.0533 86.795 52.0562 86.6157C52.059 86.4364 55.1923 86.3423 59.0547 86.4053C62.917 86.4684 66.0455 86.665 66.0426 86.8443Z" fill="white" stroke="#1C4D87" stroke-width="0.5" stroke-miterlimit="10" stroke-linecap="round" stroke-linejoin="round"/>
<path d="M67.241 87.1875L67.2122 88.9523" stroke="#1C4D87" stroke-width="0.5" stroke-miterlimit="10" stroke-linecap="round" stroke-linejoin="round"/>
<path d="M65.9376 87.3521L65.9072 89.2097" stroke="#1C4D87" stroke-width="0.5" stroke-miterlimit="10" stroke-linecap="round" stroke-linejoin="round"/>
<path d="M63.986 87.3667L63.9626 88.8065" stroke="#1C4D87" stroke-width="0.5" stroke-miterlimit="10" stroke-linecap="round" stroke-linejoin="round"/>
<path d="M61.4165 88.2539L61.396 89.5081" stroke="#1C4D87" stroke-width="0.5" stroke-miterlimit="10" stroke-linecap="round" stroke-linejoin="round"/>
<path d="M58.6533 89.6021L58.6793 88.0229" stroke="#1C4D87" stroke-width="0.5" stroke-miterlimit="10" stroke-linecap="round" stroke-linejoin="round"/>
<path d="M50.5211 86.9146L50.5083 87.7041" stroke="#1C4D87" stroke-width="0.5" stroke-miterlimit="10" stroke-linecap="round" stroke-linejoin="round"/>
<path d="M51.5527 89.1613L51.5681 88.2324" stroke="#1C4D87" stroke-width="0.5" stroke-miterlimit="10" stroke-linecap="round" stroke-linejoin="round"/>
<path d="M55.7778 89.3229L55.7961 88.208" stroke="#1C4D87" stroke-width="0.5" stroke-miterlimit="10" stroke-linecap="round" stroke-linejoin="round"/>
<path d="M50.6717 84.3779L50.6345 86.6538C50.63 86.933 54.7024 87.2263 59.7309 87.3082C64.759 87.3902 68.8391 87.2304 68.8436 86.9512L68.8807 84.6754L50.6717 84.3779Z" fill="white" stroke="#1C4D87" stroke-width="0.5" stroke-miterlimit="10" stroke-linecap="round" stroke-linejoin="round"/>
<path d="M68.8807 84.6751C68.8762 84.9543 64.7961 85.1144 59.768 85.0321C54.7399 84.9498 50.6672 84.6568 50.6716 84.3776C50.6761 84.0984 54.7562 83.9383 59.7843 84.0206C64.8128 84.1026 68.8852 84.3959 68.8807 84.6751Z" fill="white" stroke="#1C4D87" stroke-width="0.5" stroke-miterlimit="10" stroke-linecap="round" stroke-linejoin="round"/>
<path d="M66.7704 84.5767C66.7675 84.756 63.6342 84.8502 59.7719 84.7871C55.9095 84.724 52.7811 84.5274 52.7839 84.3481C52.7868 84.1688 55.9201 84.0747 59.7825 84.1378C63.6448 84.2008 66.7733 84.3974 66.7704 84.5767Z" fill="white" stroke="#1C4D87" stroke-width="0.5" stroke-miterlimit="10" stroke-linecap="round" stroke-linejoin="round"/>
<path d="M67.9688 84.9199L67.9399 86.6848" stroke="#1C4D87" stroke-width="0.5" stroke-miterlimit="10" stroke-linecap="round" stroke-linejoin="round"/>
<path d="M66.6654 85.0845L66.635 86.9422" stroke="#1C4D87" stroke-width="0.5" stroke-miterlimit="10" stroke-linecap="round" stroke-linejoin="round"/>
<path d="M64.7138 85.0991L64.6904 86.539" stroke="#1C4D87" stroke-width="0.5" stroke-miterlimit="10" stroke-linecap="round" stroke-linejoin="round"/>
<path d="M62.1443 85.9863L62.1238 87.2405" stroke="#1C4D87" stroke-width="0.5" stroke-miterlimit="10" stroke-linecap="round" stroke-linejoin="round"/>
<path d="M59.3811 87.3345L59.407 85.7554" stroke="#1C4D87" stroke-width="0.5" stroke-miterlimit="10" stroke-linecap="round" stroke-linejoin="round"/>
<path d="M51.2489 84.647L51.2361 85.4365" stroke="#1C4D87" stroke-width="0.5" stroke-miterlimit="10" stroke-linecap="round" stroke-linejoin="round"/>
<path d="M52.2805 86.8937L52.2959 85.9648" stroke="#1C4D87" stroke-width="0.5" stroke-miterlimit="10" stroke-linecap="round" stroke-linejoin="round"/>
<path d="M56.5056 87.0553L56.5235 85.9404" stroke="#1C4D87" stroke-width="0.5" stroke-miterlimit="10" stroke-linecap="round" stroke-linejoin="round"/>
<path d="M50.7066 82.2397L50.6694 84.5156C50.665 84.7948 54.7373 85.0881 59.7658 85.1701C64.7942 85.2523 68.874 85.0922 68.8785 84.8131L68.9156 82.5372L50.7066 82.2397Z" fill="white" stroke="#1C4D87" stroke-width="0.5" stroke-miterlimit="10" stroke-linecap="round" stroke-linejoin="round"/>
<path d="M68.9156 82.5369C68.9111 82.8161 64.831 82.9762 59.8029 82.8939C54.7748 82.8116 50.7021 82.5187 50.7065 82.2395C50.711 81.9599 54.7911 81.8002 59.8192 81.8825C64.8477 81.9644 68.9201 82.2574 68.9156 82.5369Z" fill="white" stroke="#1C4D87" stroke-width="0.5" stroke-miterlimit="10" stroke-linecap="round" stroke-linejoin="round"/>
<path d="M66.8053 82.4386C66.8025 82.6179 63.6692 82.712 59.8068 82.6489C55.9445 82.5858 52.816 82.3893 52.8188 82.2099C52.8217 82.0306 55.955 81.9365 59.8174 81.9996C63.6797 82.0627 66.8082 82.2593 66.8053 82.4386Z" fill="white" stroke="#1C4D87" stroke-width="0.5" stroke-miterlimit="10" stroke-linecap="round" stroke-linejoin="round"/>
<path d="M68.0039 82.7817L67.9751 84.5466" stroke="#1C4D87" stroke-width="0.5" stroke-miterlimit="10" stroke-linecap="round" stroke-linejoin="round"/>
<path d="M66.7003 82.9463L66.6699 84.804" stroke="#1C4D87" stroke-width="0.5" stroke-miterlimit="10" stroke-linecap="round" stroke-linejoin="round"/>
<path d="M64.7487 82.9609L64.7253 84.4008" stroke="#1C4D87" stroke-width="0.5" stroke-miterlimit="10" stroke-linecap="round" stroke-linejoin="round"/>
<path d="M62.1794 83.8481L62.1589 85.1023" stroke="#1C4D87" stroke-width="0.5" stroke-miterlimit="10" stroke-linecap="round" stroke-linejoin="round"/>
<path d="M59.4163 85.1963L59.4422 83.6172" stroke="#1C4D87" stroke-width="0.5" stroke-miterlimit="10" stroke-linecap="round" stroke-linejoin="round"/>
<path d="M51.2838 82.5088L51.271 83.298" stroke="#1C4D87" stroke-width="0.5" stroke-miterlimit="10" stroke-linecap="round" stroke-linejoin="round"/>
<path d="M52.3159 84.7555L52.331 83.8267" stroke="#1C4D87" stroke-width="0.5" stroke-miterlimit="10" stroke-linecap="round" stroke-linejoin="round"/>
<path d="M56.5405 84.9171L56.5588 83.8022" stroke="#1C4D87" stroke-width="0.5" stroke-miterlimit="10" stroke-linecap="round" stroke-linejoin="round"/>
<path d="M48.6248 80.0869L48.5877 82.3628C48.5832 82.642 52.6556 82.9353 57.684 83.0172C62.7125 83.0995 66.7922 82.9394 66.7967 82.6602L66.8338 80.3844L48.6248 80.0869Z" fill="white" stroke="#1C4D87" stroke-width="0.5" stroke-miterlimit="10" stroke-linecap="round" stroke-linejoin="round"/>
<path d="M66.8338 80.3845C66.8293 80.6637 62.7492 80.8238 57.7211 80.7415C52.6927 80.6593 48.6203 80.3663 48.6248 80.0871C48.6292 79.8079 52.7093 79.6478 57.7374 79.7301C62.7659 79.8121 66.8386 80.1053 66.8338 80.3845Z" fill="white" stroke="#1C4D87" stroke-width="0.5" stroke-miterlimit="10" stroke-linecap="round" stroke-linejoin="round"/>
<path d="M64.7238 80.2862C64.7209 80.4655 61.5876 80.5596 57.7253 80.4966C53.8629 80.4335 50.7344 80.2369 50.7373 80.0576C50.7402 79.8783 53.8735 79.7842 57.7358 79.8472C61.5979 79.9103 64.7267 80.1069 64.7238 80.2862Z" fill="white" stroke="#1C4D87" stroke-width="0.5" stroke-miterlimit="10" stroke-linecap="round" stroke-linejoin="round"/>
<path d="M65.9224 80.6289L65.8936 82.3938" stroke="#1C4D87" stroke-width="0.5" stroke-miterlimit="10" stroke-linecap="round" stroke-linejoin="round"/>
<path d="M64.6188 80.7935L64.5884 82.6512" stroke="#1C4D87" stroke-width="0.5" stroke-miterlimit="10" stroke-linecap="round" stroke-linejoin="round"/>
<path d="M62.6674 80.8081L62.644 82.248" stroke="#1C4D87" stroke-width="0.5" stroke-miterlimit="10" stroke-linecap="round" stroke-linejoin="round"/>
<path d="M60.0976 81.6953L60.0774 82.9495" stroke="#1C4D87" stroke-width="0.5" stroke-miterlimit="10" stroke-linecap="round" stroke-linejoin="round"/>
<path d="M57.3347 83.044L57.3607 81.4648" stroke="#1C4D87" stroke-width="0.5" stroke-miterlimit="10" stroke-linecap="round" stroke-linejoin="round"/>
<path d="M49.2023 80.356L49.1892 81.1455" stroke="#1C4D87" stroke-width="0.5" stroke-miterlimit="10" stroke-linecap="round" stroke-linejoin="round"/>
<path d="M50.2341 82.6027L50.2492 81.6738" stroke="#1C4D87" stroke-width="0.5" stroke-miterlimit="10" stroke-linecap="round" stroke-linejoin="round"/>
<path d="M54.4592 82.7648L54.4772 81.6499" stroke="#1C4D87" stroke-width="0.5" stroke-miterlimit="10" stroke-linecap="round" stroke-linejoin="round"/>
<path d="M47.5906 77.9312L47.5535 80.207C47.549 80.4862 51.6214 80.7795 56.6498 80.8615C61.678 80.9437 65.758 80.7837 65.7625 80.5045L65.7997 78.2286L47.5906 77.9312Z" fill="white" stroke="#1C4D87" stroke-width="0.5" stroke-miterlimit="10" stroke-linecap="round" stroke-linejoin="round"/>
<path d="M65.7999 78.2288C65.7955 78.508 61.7154 78.6681 56.6869 78.5858C51.6588 78.5035 47.5861 78.2106 47.5906 77.9314C47.5951 77.6518 51.6751 77.4921 56.7033 77.5744C61.7317 77.6566 65.8044 77.9496 65.7999 78.2288Z" fill="white" stroke="#1C4D87" stroke-width="0.5" stroke-miterlimit="10" stroke-linecap="round" stroke-linejoin="round"/>
<path d="M63.6894 78.1305C63.6865 78.3098 60.5532 78.4039 56.6908 78.3408C52.8285 78.2777 49.7 78.0811 49.7029 77.9018C49.7058 77.7225 52.8391 77.6284 56.7014 77.6915C60.5638 77.7546 63.6926 77.9511 63.6894 78.1305Z" fill="white" stroke="#1C4D87" stroke-width="0.5" stroke-miterlimit="10" stroke-linecap="round" stroke-linejoin="round"/>
<path d="M64.8882 78.4731L64.8594 80.238" stroke="#1C4D87" stroke-width="0.5" stroke-miterlimit="10" stroke-linecap="round" stroke-linejoin="round"/>
<path d="M63.5846 78.6377L63.5542 80.4954" stroke="#1C4D87" stroke-width="0.5" stroke-miterlimit="10" stroke-linecap="round" stroke-linejoin="round"/>
<path d="M61.6331 78.6528L61.6094 80.0924" stroke="#1C4D87" stroke-width="0.5" stroke-miterlimit="10" stroke-linecap="round" stroke-linejoin="round"/>
<path d="M59.0635 79.5396L59.043 80.7937" stroke="#1C4D87" stroke-width="0.5" stroke-miterlimit="10" stroke-linecap="round" stroke-linejoin="round"/>
<path d="M56.3005 80.8882L56.3265 79.3091" stroke="#1C4D87" stroke-width="0.5" stroke-miterlimit="10" stroke-linecap="round" stroke-linejoin="round"/>
<path d="M48.1682 78.2002L48.155 78.9898" stroke="#1C4D87" stroke-width="0.5" stroke-miterlimit="10" stroke-linecap="round" stroke-linejoin="round"/>
<path d="M49.2 80.4469L49.215 79.5181" stroke="#1C4D87" stroke-width="0.5" stroke-miterlimit="10" stroke-linecap="round" stroke-linejoin="round"/>
<path d="M53.4246 80.6087L53.4428 79.4941" stroke="#1C4D87" stroke-width="0.5" stroke-miterlimit="10" stroke-linecap="round" stroke-linejoin="round"/>
<path d="M35.552 113.972L35.5149 116.248C35.5104 116.527 39.5828 116.82 44.6113 116.902C49.6394 116.984 53.7195 116.824 53.7239 116.545L53.7611 114.269L35.552 113.972Z" fill="white" stroke="#1C4D87" stroke-width="0.5" stroke-miterlimit="10" stroke-linecap="round" stroke-linejoin="round"/>
<path d="M53.7611 114.269C53.7566 114.548 49.6765 114.708 44.6484 114.626C39.6202 114.544 35.5475 114.251 35.552 113.971C35.5565 113.692 39.6366 113.532 44.6647 113.614C49.6931 113.696 53.7655 113.989 53.7611 114.269Z" fill="white" stroke="#1C4D87" stroke-width="0.5" stroke-miterlimit="10" stroke-linecap="round" stroke-linejoin="round"/>
<path d="M51.6508 114.17C51.6479 114.35 48.5146 114.444 44.6523 114.381C40.7899 114.318 37.6614 114.121 37.6643 113.942C37.6672 113.763 40.8005 113.668 44.6628 113.732C48.5252 113.795 51.6537 113.991 51.6508 114.17Z" fill="white" stroke="#1C4D87" stroke-width="0.5" stroke-miterlimit="10" stroke-linecap="round" stroke-linejoin="round"/>
<path d="M52.8491 114.514L52.8203 116.279" stroke="#1C4D87" stroke-width="0.5" stroke-miterlimit="10" stroke-linecap="round" stroke-linejoin="round"/>
<path d="M51.5458 114.678L51.5154 116.536" stroke="#1C4D87" stroke-width="0.5" stroke-miterlimit="10" stroke-linecap="round" stroke-linejoin="round"/>
<path d="M49.5942 114.692L49.5708 116.132" stroke="#1C4D87" stroke-width="0.5" stroke-miterlimit="10" stroke-linecap="round" stroke-linejoin="round"/>
<path d="M47.0246 115.58L47.0042 116.833" stroke="#1C4D87" stroke-width="0.5" stroke-miterlimit="10" stroke-linecap="round" stroke-linejoin="round"/>
<path d="M44.2615 116.928L44.2874 115.349" stroke="#1C4D87" stroke-width="0.5" stroke-miterlimit="10" stroke-linecap="round" stroke-linejoin="round"/>
<path d="M36.1293 114.24L36.1165 115.029" stroke="#1C4D87" stroke-width="0.5" stroke-miterlimit="10" stroke-linecap="round" stroke-linejoin="round"/>
<path d="M37.1611 116.487L37.1762 115.559" stroke="#1C4D87" stroke-width="0.5" stroke-miterlimit="10" stroke-linecap="round" stroke-linejoin="round"/>
<path d="M41.386 116.649L41.4042 115.534" stroke="#1C4D87" stroke-width="0.5" stroke-miterlimit="10" stroke-linecap="round" stroke-linejoin="round"/>
<path d="M35.4441 111.634L35.407 113.91C35.4025 114.189 39.4749 114.482 44.5033 114.564C49.5318 114.646 53.6116 114.486 53.616 114.207L53.6532 111.931L35.4441 111.634Z" fill="white" stroke="#1C4D87" stroke-width="0.5" stroke-miterlimit="10" stroke-linecap="round" stroke-linejoin="round"/>
<path d="M53.6531 111.931C53.6487 112.211 49.5686 112.371 44.5404 112.288C39.5123 112.206 35.4396 111.913 35.4441 111.634C35.4486 111.355 39.5286 111.195 44.5571 111.277C49.5852 111.359 53.6579 111.652 53.6531 111.931Z" fill="white" stroke="#1C4D87" stroke-width="0.5" stroke-miterlimit="10" stroke-linecap="round" stroke-linejoin="round"/>
<path d="M51.5429 111.833C51.54 112.012 48.4067 112.106 44.5444 112.043C40.682 111.98 37.5535 111.783 37.5564 111.604C37.5593 111.425 40.6926 111.331 44.5549 111.394C48.4173 111.457 51.5461 111.653 51.5429 111.833Z" fill="white" stroke="#1C4D87" stroke-width="0.5" stroke-miterlimit="10" stroke-linecap="round" stroke-linejoin="round"/>
<path d="M52.7415 112.176L52.7124 113.941" stroke="#1C4D87" stroke-width="0.5" stroke-miterlimit="10" stroke-linecap="round" stroke-linejoin="round"/>
<path d="M51.4378 112.34L51.4077 114.198" stroke="#1C4D87" stroke-width="0.5" stroke-miterlimit="10" stroke-linecap="round" stroke-linejoin="round"/>
<path d="M49.4866 112.355L49.4629 113.795" stroke="#1C4D87" stroke-width="0.5" stroke-miterlimit="10" stroke-linecap="round" stroke-linejoin="round"/>
<path d="M46.9167 113.242L46.8962 114.496" stroke="#1C4D87" stroke-width="0.5" stroke-miterlimit="10" stroke-linecap="round" stroke-linejoin="round"/>
<path d="M44.1541 114.591L44.1797 113.012" stroke="#1C4D87" stroke-width="0.5" stroke-miterlimit="10" stroke-linecap="round" stroke-linejoin="round"/>
<path d="M36.0217 111.902L36.0085 112.692" stroke="#1C4D87" stroke-width="0.5" stroke-miterlimit="10" stroke-linecap="round" stroke-linejoin="round"/>
<path d="M37.0532 114.15L37.0683 113.221" stroke="#1C4D87" stroke-width="0.5" stroke-miterlimit="10" stroke-linecap="round" stroke-linejoin="round"/>
<path d="M41.2781 114.311L41.2963 113.197" stroke="#1C4D87" stroke-width="0.5" stroke-miterlimit="10" stroke-linecap="round" stroke-linejoin="round"/>
<path d="M35.4834 109.226L35.4463 111.501C35.4418 111.781 39.5142 112.074 44.5427 112.156C49.5708 112.238 53.6509 112.078 53.6553 111.799L53.6925 109.523L35.4834 109.226Z" fill="white" stroke="#1C4D87" stroke-width="0.5" stroke-miterlimit="10" stroke-linecap="round" stroke-linejoin="round"/>
<path d="M53.6924 109.523C53.688 109.802 49.6079 109.963 44.5798 109.88C39.5513 109.798 35.4789 109.505 35.4834 109.226C35.4879 108.947 39.568 108.786 44.5961 108.869C49.6245 108.951 53.6969 109.244 53.6924 109.523Z" fill="white" stroke="#1C4D87" stroke-width="0.5" stroke-miterlimit="10" stroke-linecap="round" stroke-linejoin="round"/>
<path d="M51.5822 109.425C51.5793 109.604 48.446 109.698 44.5837 109.635C40.7213 109.572 37.5928 109.376 37.5957 109.196C37.5986 109.017 40.7319 108.923 44.5942 108.986C48.4566 109.049 51.5851 109.246 51.5822 109.425Z" fill="white" stroke="#1C4D87" stroke-width="0.5" stroke-miterlimit="10" stroke-linecap="round" stroke-linejoin="round"/>
<path d="M52.7808 109.768L52.752 111.532" stroke="#1C4D87" stroke-width="0.5" stroke-miterlimit="10" stroke-linecap="round" stroke-linejoin="round"/>
<path d="M51.4771 109.932L51.447 111.79" stroke="#1C4D87" stroke-width="0.5" stroke-miterlimit="10" stroke-linecap="round" stroke-linejoin="round"/>
<path d="M49.5259 109.947L49.5022 111.387" stroke="#1C4D87" stroke-width="0.5" stroke-miterlimit="10" stroke-linecap="round" stroke-linejoin="round"/>
<path d="M46.9563 110.834L46.9358 112.088" stroke="#1C4D87" stroke-width="0.5" stroke-miterlimit="10" stroke-linecap="round" stroke-linejoin="round"/>
<path d="M44.1934 112.182L44.219 110.603" stroke="#1C4D87" stroke-width="0.5" stroke-miterlimit="10" stroke-linecap="round" stroke-linejoin="round"/>
<path d="M36.061 109.495L36.0479 110.284" stroke="#1C4D87" stroke-width="0.5" stroke-miterlimit="10" stroke-linecap="round" stroke-linejoin="round"/>
<path d="M37.0928 111.741L37.1078 110.812" stroke="#1C4D87" stroke-width="0.5" stroke-miterlimit="10" stroke-linecap="round" stroke-linejoin="round"/>
<path d="M41.3176 111.903L41.3359 110.789" stroke="#1C4D87" stroke-width="0.5" stroke-miterlimit="10" stroke-linecap="round" stroke-linejoin="round"/>
<path d="M36.0838 106.898L36.0466 109.174C36.0422 109.453 40.1145 109.746 45.143 109.828C50.1714 109.911 54.2512 109.75 54.2557 109.471L54.2928 107.195L36.0838 106.898Z" fill="white" stroke="#1C4D87" stroke-width="0.5" stroke-miterlimit="10" stroke-linecap="round" stroke-linejoin="round"/>
<path d="M54.2928 107.196C54.2883 107.475 50.2082 107.635 45.1801 107.553C40.1516 107.47 36.0793 107.177 36.0837 106.898C36.0882 106.619 40.1683 106.459 45.1964 106.541C50.2249 106.623 54.2976 106.916 54.2928 107.196Z" fill="white" stroke="#1C4D87" stroke-width="0.5" stroke-miterlimit="10" stroke-linecap="round" stroke-linejoin="round"/>
<path d="M52.1825 107.097C52.1797 107.277 49.046 107.371 45.184 107.308C41.3217 107.245 38.1932 107.048 38.196 106.869C38.1989 106.689 41.3322 106.595 45.1946 106.658C49.0569 106.721 52.1857 106.918 52.1825 107.097Z" fill="white" stroke="#1C4D87" stroke-width="0.5" stroke-miterlimit="10" stroke-linecap="round" stroke-linejoin="round"/>
<path d="M53.3811 107.44L53.3523 109.205" stroke="#1C4D87" stroke-width="0.5" stroke-miterlimit="10" stroke-linecap="round" stroke-linejoin="round"/>
<path d="M52.0775 107.605L52.0474 109.463" stroke="#1C4D87" stroke-width="0.5" stroke-miterlimit="10" stroke-linecap="round" stroke-linejoin="round"/>
<path d="M50.1262 107.619L50.1025 109.059" stroke="#1C4D87" stroke-width="0.5" stroke-miterlimit="10" stroke-linecap="round" stroke-linejoin="round"/>
<path d="M47.5566 108.506L47.5361 109.76" stroke="#1C4D87" stroke-width="0.5" stroke-miterlimit="10" stroke-linecap="round" stroke-linejoin="round"/>
<path d="M44.7937 109.855L44.8193 108.276" stroke="#1C4D87" stroke-width="0.5" stroke-miterlimit="10" stroke-linecap="round" stroke-linejoin="round"/>
<path d="M36.6613 107.167L36.6482 107.957" stroke="#1C4D87" stroke-width="0.5" stroke-miterlimit="10" stroke-linecap="round" stroke-linejoin="round"/>
<path d="M37.6931 109.414L37.7082 108.485" stroke="#1C4D87" stroke-width="0.5" stroke-miterlimit="10" stroke-linecap="round" stroke-linejoin="round"/>
<path d="M41.918 109.576L41.9362 108.461" stroke="#1C4D87" stroke-width="0.5" stroke-miterlimit="10" stroke-linecap="round" stroke-linejoin="round"/>
<path d="M36.438 104.566L36.4009 106.842C36.3964 107.121 40.4688 107.415 45.4972 107.497C50.5257 107.579 54.6054 107.419 54.6103 107.14L54.6474 104.864L36.438 104.566Z" fill="white" stroke="#1C4D87" stroke-width="0.5" stroke-miterlimit="10" stroke-linecap="round" stroke-linejoin="round"/>
<path d="M54.647 104.864C54.6426 105.143 50.5625 105.303 45.5344 105.221C40.5062 105.139 36.4335 104.846 36.438 104.567C36.4425 104.287 40.5225 104.127 45.5507 104.21C50.5791 104.292 54.6515 104.585 54.647 104.864Z" fill="white" stroke="#1C4D87" stroke-width="0.5" stroke-miterlimit="10" stroke-linecap="round" stroke-linejoin="round"/>
<path d="M52.5368 104.766C52.5339 104.945 49.4006 105.039 45.5383 104.976C41.6759 104.913 38.5474 104.716 38.5503 104.537C38.5532 104.358 41.6865 104.264 45.5488 104.327C49.4112 104.39 52.5397 104.586 52.5368 104.766Z" fill="white" stroke="#1C4D87" stroke-width="0.5" stroke-miterlimit="10" stroke-linecap="round" stroke-linejoin="round"/>
<path d="M53.7351 105.108L53.7063 106.873" stroke="#1C4D87" stroke-width="0.5" stroke-miterlimit="10" stroke-linecap="round" stroke-linejoin="round"/>
<path d="M52.4318 105.273L52.4014 107.131" stroke="#1C4D87" stroke-width="0.5" stroke-miterlimit="10" stroke-linecap="round" stroke-linejoin="round"/>
<path d="M50.4802 105.288L50.4568 106.728" stroke="#1C4D87" stroke-width="0.5" stroke-miterlimit="10" stroke-linecap="round" stroke-linejoin="round"/>
<path d="M47.9109 106.175L47.8904 107.429" stroke="#1C4D87" stroke-width="0.5" stroke-miterlimit="10" stroke-linecap="round" stroke-linejoin="round"/>
<path d="M45.1477 107.523L45.1736 105.944" stroke="#1C4D87" stroke-width="0.5" stroke-miterlimit="10" stroke-linecap="round" stroke-linejoin="round"/>
<path d="M37.0153 104.835L37.0024 105.625" stroke="#1C4D87" stroke-width="0.5" stroke-miterlimit="10" stroke-linecap="round" stroke-linejoin="round"/>
<path d="M38.0469 107.082L38.0622 106.153" stroke="#1C4D87" stroke-width="0.5" stroke-miterlimit="10" stroke-linecap="round" stroke-linejoin="round"/>
<path d="M42.272 107.244L42.2902 106.129" stroke="#1C4D87" stroke-width="0.5" stroke-miterlimit="10" stroke-linecap="round" stroke-linejoin="round"/>
<path d="M36.1604 102.225L36.1233 104.5C36.1188 104.78 40.1912 105.073 45.2197 105.155C50.2481 105.237 54.3279 105.077 54.3323 104.798L54.3695 102.522L36.1604 102.225Z" fill="white" stroke="#1C4D87" stroke-width="0.5" stroke-miterlimit="10" stroke-linecap="round" stroke-linejoin="round"/>
<path d="M54.3694 102.522C54.365 102.802 50.2849 102.962 45.2568 102.879C40.2283 102.797 36.1559 102.504 36.1604 102.225C36.1649 101.946 40.245 101.786 45.2731 101.868C50.3015 101.95 54.3739 102.243 54.3694 102.522Z" fill="white" stroke="#1C4D87" stroke-width="0.5" stroke-miterlimit="10" stroke-linecap="round" stroke-linejoin="round"/>
<path d="M52.2592 102.424C52.2563 102.603 49.123 102.697 45.2607 102.634C41.3983 102.571 38.2698 102.375 38.2727 102.195C38.2756 102.016 41.4089 101.922 45.2712 101.985C49.1336 102.048 52.2621 102.245 52.2592 102.424Z" fill="white" stroke="#1C4D87" stroke-width="0.5" stroke-miterlimit="10" stroke-linecap="round" stroke-linejoin="round"/>
<path d="M53.4578 102.767L53.429 104.532" stroke="#1C4D87" stroke-width="0.5" stroke-miterlimit="10" stroke-linecap="round" stroke-linejoin="round"/>
<path d="M52.1542 102.931L52.1238 104.789" stroke="#1C4D87" stroke-width="0.5" stroke-miterlimit="10" stroke-linecap="round" stroke-linejoin="round"/>
<path d="M50.2026 102.946L50.1792 104.386" stroke="#1C4D87" stroke-width="0.5" stroke-miterlimit="10" stroke-linecap="round" stroke-linejoin="round"/>
<path d="M47.6333 103.833L47.6128 105.087" stroke="#1C4D87" stroke-width="0.5" stroke-miterlimit="10" stroke-linecap="round" stroke-linejoin="round"/>
<path d="M44.8701 105.181L44.896 103.603" stroke="#1C4D87" stroke-width="0.5" stroke-miterlimit="10" stroke-linecap="round" stroke-linejoin="round"/>
<path d="M36.7377 102.494L36.7249 103.283" stroke="#1C4D87" stroke-width="0.5" stroke-miterlimit="10" stroke-linecap="round" stroke-linejoin="round"/>
<path d="M37.7693 104.74L37.7847 103.812" stroke="#1C4D87" stroke-width="0.5" stroke-miterlimit="10" stroke-linecap="round" stroke-linejoin="round"/>
<path d="M41.9944 104.902L42.0126 103.788" stroke="#1C4D87" stroke-width="0.5" stroke-miterlimit="10" stroke-linecap="round" stroke-linejoin="round"/>
<path d="M36.7036 99.8965L36.6665 102.172C36.662 102.452 40.7344 102.745 45.7629 102.827C50.791 102.909 54.8711 102.749 54.8756 102.47L54.9127 100.194L36.7036 99.8965Z" fill="white" stroke="#1C4D87" stroke-width="0.5" stroke-miterlimit="10" stroke-linecap="round" stroke-linejoin="round"/>
<path d="M54.9127 100.194C54.9082 100.473 50.8281 100.633 45.8 100.551C40.7715 100.469 36.6991 100.176 36.7036 99.8967C36.7081 99.6175 40.7882 99.4574 45.8163 99.5397C50.8448 99.6216 54.9171 99.9146 54.9127 100.194Z" fill="white" stroke="#1C4D87" stroke-width="0.5" stroke-miterlimit="10" stroke-linecap="round" stroke-linejoin="round"/>
<path d="M52.8024 100.096C52.7995 100.275 49.6662 100.369 45.8039 100.306C41.9415 100.243 38.813 100.046 38.8159 99.8672C38.8188 99.6879 41.9521 99.5937 45.8144 99.6568C49.6768 99.7199 52.8053 99.9165 52.8024 100.096Z" fill="white" stroke="#1C4D87" stroke-width="0.5" stroke-miterlimit="10" stroke-linecap="round" stroke-linejoin="round"/>
<path d="M54.0007 100.439L53.9719 102.204" stroke="#1C4D87" stroke-width="0.5" stroke-miterlimit="10" stroke-linecap="round" stroke-linejoin="round"/>
<path d="M52.6974 100.603L52.667 102.461" stroke="#1C4D87" stroke-width="0.5" stroke-miterlimit="10" stroke-linecap="round" stroke-linejoin="round"/>
<path d="M50.7458 100.618L50.7224 102.058" stroke="#1C4D87" stroke-width="0.5" stroke-miterlimit="10" stroke-linecap="round" stroke-linejoin="round"/>
<path d="M48.1765 101.505L48.156 102.759" stroke="#1C4D87" stroke-width="0.5" stroke-miterlimit="10" stroke-linecap="round" stroke-linejoin="round"/>
<path d="M45.4133 102.854L45.4393 101.274" stroke="#1C4D87" stroke-width="0.5" stroke-miterlimit="10" stroke-linecap="round" stroke-linejoin="round"/>
<path d="M37.2809 100.166L37.2681 100.955" stroke="#1C4D87" stroke-width="0.5" stroke-miterlimit="10" stroke-linecap="round" stroke-linejoin="round"/>
<path d="M38.3125 102.413L38.3279 101.483" stroke="#1C4D87" stroke-width="0.5" stroke-miterlimit="10" stroke-linecap="round" stroke-linejoin="round"/>
<path d="M42.5376 102.574L42.5558 101.459" stroke="#1C4D87" stroke-width="0.5" stroke-miterlimit="10" stroke-linecap="round" stroke-linejoin="round"/>
<path d="M35.542 97.54L35.5049 99.8159C35.5004 100.095 39.5728 100.388 44.6012 100.47C49.6294 100.553 53.7095 100.393 53.7139 100.113L53.7511 97.8375L35.542 97.54Z" fill="white" stroke="#1C4D87" stroke-width="0.5" stroke-miterlimit="10" stroke-linecap="round" stroke-linejoin="round"/>
<path d="M53.7511 97.8382C53.7466 98.1174 49.6666 98.2774 44.6381 98.1952C39.61 98.1129 35.5373 97.8199 35.5418 97.5407C35.5462 97.2615 39.6263 97.1014 44.6544 97.1837C49.6832 97.2657 53.7556 97.5586 53.7511 97.8382Z" fill="white" stroke="#1C4D87" stroke-width="0.5" stroke-miterlimit="10" stroke-linecap="round" stroke-linejoin="round"/>
<path d="M51.6408 97.7393C51.6379 97.9186 48.5046 98.0128 44.6423 97.9497C40.7799 97.8866 37.6514 97.69 37.6543 97.5107C37.6572 97.3314 40.7905 97.2373 44.6528 97.3004C48.5152 97.3634 51.6437 97.56 51.6408 97.7393Z" fill="white" stroke="#1C4D87" stroke-width="0.5" stroke-miterlimit="10" stroke-linecap="round" stroke-linejoin="round"/>
<path d="M52.8394 98.0825L52.8105 99.8474" stroke="#1C4D87" stroke-width="0.5" stroke-miterlimit="10" stroke-linecap="round" stroke-linejoin="round"/>
<path d="M51.5358 98.2471L51.5054 100.105" stroke="#1C4D87" stroke-width="0.5" stroke-miterlimit="10" stroke-linecap="round" stroke-linejoin="round"/>
<path d="M49.5842 98.2617L49.5608 99.7016" stroke="#1C4D87" stroke-width="0.5" stroke-miterlimit="10" stroke-linecap="round" stroke-linejoin="round"/>
<path d="M47.0147 99.1489L46.9939 100.403" stroke="#1C4D87" stroke-width="0.5" stroke-miterlimit="10" stroke-linecap="round" stroke-linejoin="round"/>
<path d="M44.2517 100.497L44.2776 98.918" stroke="#1C4D87" stroke-width="0.5" stroke-miterlimit="10" stroke-linecap="round" stroke-linejoin="round"/>
<path d="M36.1193 97.8091L36.1064 98.5987" stroke="#1C4D87" stroke-width="0.5" stroke-miterlimit="10" stroke-linecap="round" stroke-linejoin="round"/>
<path d="M37.1509 100.056L37.1662 99.127" stroke="#1C4D87" stroke-width="0.5" stroke-miterlimit="10" stroke-linecap="round" stroke-linejoin="round"/>
<path d="M41.3757 100.218L41.394 99.1035" stroke="#1C4D87" stroke-width="0.5" stroke-miterlimit="10" stroke-linecap="round" stroke-linejoin="round"/>
<path d="M65.7002 107.077C65.6102 112.581 61.0755 116.97 55.5713 116.88C50.0674 116.79 45.6783 112.256 45.768 106.751C45.8579 101.247 50.3927 96.8585 55.8969 96.9481C61.4011 97.0378 65.7902 101.573 65.7002 107.077Z" fill="#1C4D87" stroke="#1C4D87" stroke-width="0.5" stroke-miterlimit="10" stroke-linecap="round" stroke-linejoin="round"/>
<path d="M62.199 113.952C66.0914 110.06 66.0914 103.749 62.199 99.8565C58.3065 95.964 51.9957 95.964 48.1033 99.8565C44.2108 103.749 44.2108 110.06 48.1033 113.952C51.9957 117.845 58.3065 117.845 62.199 113.952Z" fill="white" stroke="#1C4D87" stroke-width="0.5" stroke-miterlimit="10" stroke-linecap="round" stroke-linejoin="round"/>
<path d="M61.113 113.169C64.5713 109.878 64.7067 104.406 61.4156 100.948C58.1244 97.4897 52.653 97.3542 49.1948 100.645C45.7366 103.936 45.6011 109.408 48.8922 112.866C52.1834 116.324 57.6548 116.46 61.113 113.169Z" fill="white" stroke="#1C4D87" stroke-width="0.5" stroke-miterlimit="10" stroke-linecap="round" stroke-linejoin="round"/>
<path d="M57.5179 113.943L57.0101 112.572C56.0419 112.878 55.2148 112.836 54.529 112.444C53.8429 112.052 53.2627 111.272 52.7879 110.104L54.789 109C54.976 109.477 55.161 109.849 55.3448 110.117C55.528 110.386 55.7153 110.558 55.9061 110.634C56.0972 110.711 56.2942 110.711 56.4972 110.636C56.7555 110.54 56.8916 110.39 56.9051 110.185C56.9185 109.981 56.8897 109.781 56.8177 109.588C56.6467 109.126 56.3934 108.776 56.0585 108.538C55.7236 108.3 55.3067 108.089 54.8085 107.906L53.5124 107.426C53.1433 107.279 52.7965 107.116 52.4728 106.936C52.1491 106.757 51.8539 106.52 51.5872 106.225C51.3201 105.93 51.0979 105.543 50.9202 105.062C50.5953 104.185 50.592 103.404 50.9106 102.719C51.2292 102.034 51.8011 101.502 52.6268 101.122L52.1395 99.8065L52.8458 99.5449L53.328 100.847C53.8736 100.676 54.3484 100.64 54.7522 100.737C55.1556 100.834 55.4972 101.012 55.7767 101.271C56.0559 101.529 56.2919 101.826 56.4834 102.159C56.6752 102.492 56.8321 102.809 56.9541 103.11L54.9049 104.169C54.7723 103.84 54.6439 103.557 54.5194 103.319C54.3945 103.082 54.2591 102.915 54.1124 102.816C53.9658 102.719 53.7881 102.713 53.5793 102.801C53.3485 102.887 53.2137 103.047 53.1746 103.282C53.1359 103.516 53.1522 103.731 53.2239 103.925C53.3882 104.368 53.6338 104.684 53.961 104.873C54.2879 105.061 54.6299 105.226 54.9869 105.367L56.2314 105.835C56.6512 106.005 57.0527 106.203 57.4356 106.429C57.8185 106.654 58.1618 106.937 58.466 107.275C58.7701 107.614 59.0176 108.043 59.2091 108.559C59.3903 109.049 59.4547 109.534 59.4022 110.015C59.3493 110.497 59.1809 110.935 58.8963 111.329C58.6116 111.723 58.2169 112.045 57.711 112.296L58.2239 113.681L57.5179 113.943Z" fill="#1C4D87" stroke="#1C4D87" stroke-width="0.5" stroke-miterlimit="10" stroke-linecap="round" stroke-linejoin="round"/>
<path d="M57.265 113.939L56.7572 112.568C55.7889 112.874 54.9619 112.831 54.2761 112.44C53.5899 112.048 53.0098 111.268 52.5349 110.1L54.5361 108.996C54.723 109.473 54.9081 109.845 55.0919 110.113C55.275 110.381 55.4623 110.554 55.6532 110.63C55.8443 110.706 56.0412 110.707 56.2442 110.631C56.5026 110.536 56.6387 110.386 56.6521 110.181C56.6656 109.977 56.6368 109.777 56.5647 109.584C56.3938 109.122 56.1405 108.772 55.8056 108.534C55.4704 108.296 55.0538 108.085 54.5556 107.902L53.2595 107.422C52.89 107.275 52.5432 107.112 52.2199 106.932C51.8962 106.753 51.601 106.516 51.3342 106.221C51.0672 105.926 50.845 105.539 50.6673 105.058C50.3423 104.181 50.3391 103.4 50.6577 102.715C50.9763 102.03 51.5481 101.498 52.3739 101.119L51.8866 99.8026L52.5929 99.541L53.0751 100.843C53.6207 100.672 54.0955 100.636 54.4992 100.733C54.9027 100.83 55.244 101.008 55.5238 101.267C55.803 101.526 56.039 101.822 56.2308 102.155C56.4226 102.488 56.5795 102.805 56.7014 103.107L54.6523 104.165C54.5197 103.836 54.3913 103.553 54.2668 103.315C54.1419 103.078 54.0065 102.911 53.8598 102.813C53.7132 102.715 53.5355 102.71 53.3267 102.798C53.0959 102.883 52.9611 103.043 52.922 103.278C52.8833 103.513 52.8996 103.727 52.9713 103.921C53.1356 104.365 53.3812 104.681 53.7084 104.869C54.0353 105.058 54.3773 105.223 54.7343 105.363L55.9788 105.832C56.3986 106.002 56.8001 106.2 57.183 106.425C57.5656 106.651 57.9092 106.933 58.2133 107.272C58.5175 107.611 58.765 108.039 58.9565 108.556C59.1377 109.046 59.2021 109.531 59.1496 110.012C59.0967 110.494 58.9283 110.932 58.6437 111.326C58.359 111.72 57.9639 112.042 57.4584 112.293L57.9713 113.678L57.265 113.939Z" fill="white" stroke="#1C4D87" stroke-width="0.5" stroke-miterlimit="10" stroke-linecap="round" stroke-linejoin="round"/>
<path d="M40.4719 91.9785C40.4719 91.9785 46.4228 97.6704 46.184 99.1192C45.9451 100.568 43.0715 102.549 43.0715 102.549L40.4719 91.9785Z" fill="white" stroke="#1C4D87" stroke-width="0.5" stroke-miterlimit="10" stroke-linecap="round" stroke-linejoin="round"/>
<path d="M26.6228 88.498C26.6228 88.498 43.1141 88.5166 43.2706 89.7086C43.4269 90.9007 41.6822 93.6664 41.6822 93.6664L26.6228 88.498Z" fill="white" stroke="#1C4D87" stroke-width="0.5" stroke-miterlimit="10" stroke-linecap="round" stroke-linejoin="round"/>
<path d="M23.8552 90.794C23.8552 90.794 25.7946 88.8681 26.6229 88.4983C27.4512 88.1285 39.5944 90.9745 40.472 91.9786C41.3499 92.9827 46.5465 102.877 46.7719 103.743C46.9973 104.609 40.6548 106.877 37.9009 106.362C36.4281 106.086 34.6783 102.27 34.6783 102.27L30.3027 94.9355L23.8552 90.794Z" fill="white" stroke="#1C4D87" stroke-width="0.5" stroke-miterlimit="10" stroke-linecap="round" stroke-linejoin="round"/>
<path d="M35.9077 104.04C35.9077 104.04 40.4415 110.438 40.3656 112.506C40.2897 114.574 39.105 116.316 38.0542 116.999C37.0034 117.683 5.60861 117.463 4.49951 117.137C3.39072 116.811 1.49044 114.234 1.13248 112.074C0.774834 109.914 0.841431 103.688 5.29772 100.544C10.1494 97.1199 23.8548 90.7944 23.8548 90.7944C23.8548 90.7944 27.4152 91.096 28.3905 92.4805C29.3658 93.865 35.9077 104.04 35.9077 104.04Z" fill="white" stroke="#1C4D87" stroke-width="0.5" stroke-miterlimit="10" stroke-linecap="round" stroke-linejoin="round"/>
<path d="M19.0865 115.688L19.1908 114.046C18.0551 113.918 17.2246 113.497 16.6982 112.78C16.1718 112.064 15.9314 110.997 15.9772 109.579L18.5393 109.358C18.5137 109.934 18.5338 110.402 18.6004 110.761C18.6664 111.121 18.78 111.383 18.9417 111.549C19.1034 111.715 19.3058 111.805 19.5491 111.821C19.8584 111.84 20.0672 111.748 20.1744 111.544C20.2817 111.34 20.3428 111.122 20.3576 110.889C20.3928 110.336 20.2923 109.861 20.0566 109.463C19.821 109.065 19.4886 108.658 19.0599 108.242L17.9466 107.156C17.6338 106.836 17.3517 106.51 17.101 106.178C16.85 105.845 16.655 105.466 16.5154 105.041C16.3758 104.616 16.3242 104.116 16.3607 103.541C16.4273 102.49 16.7811 101.686 17.4215 101.127C18.0622 100.568 18.8934 100.282 19.916 100.269L20.0163 98.6934L20.8622 98.7471L20.7632 100.306C21.4023 100.38 21.9073 100.56 22.278 100.844C22.6485 101.128 22.9181 101.467 23.0878 101.861C23.2568 102.255 23.3638 102.667 23.4089 103.097C23.4537 103.528 23.4701 103.925 23.4579 104.291L20.867 104.443C20.8811 104.044 20.8782 103.694 20.8587 103.393C20.8385 103.092 20.7761 102.858 20.6701 102.69C20.5641 102.523 20.3835 102.436 20.1286 102.431C19.852 102.413 19.6404 102.516 19.4928 102.74C19.3455 102.964 19.2642 103.192 19.2494 103.424C19.2158 103.955 19.324 104.392 19.5741 104.736C19.8242 105.079 20.1005 105.405 20.403 105.712L21.4686 106.763C21.8224 107.129 22.1451 107.516 22.4359 107.923C22.7263 108.331 22.9504 108.777 23.1086 109.265C23.2661 109.752 23.3253 110.306 23.2863 110.925C23.2491 111.511 23.0932 112.04 22.8195 112.511C22.5451 112.982 22.1717 113.355 21.6991 113.63C21.2265 113.906 20.673 114.057 20.0384 114.083L19.933 115.741L19.0865 115.688Z" fill="#1C4D87"/>
<path d="M20.9859 92.3607C20.9859 92.3607 32.6904 99.5529 32.2409 97.8268C31.7914 96.1004 30.5744 94.5741 28.3904 92.4804C26.2068 90.3864 20.9119 89.7173 20.9859 92.3607Z" fill="white" stroke="#1C4D87" stroke-width="0.5" stroke-miterlimit="10" stroke-linecap="round" stroke-linejoin="round"/>
<path d="M28.3909 92.48L33.9399 97.0698" stroke="#1C4D87" stroke-width="0.5" stroke-miterlimit="10" stroke-linecap="round" stroke-linejoin="round"/>
<path d="M78.1982 38.3858C78.1982 38.3858 80.4619 42.7873 81.3421 46.3714C82.2223 49.9556 82.1595 53.7283 82.1595 53.7283L74.8655 38.8885L77.0033 36.8765L78.1982 38.3858Z" fill="#FF8D1D" stroke="#1C4D87" stroke-width="0.5" stroke-miterlimit="10" stroke-linejoin="round"/>
<path d="M83.0255 27.1958C83.0255 27.1958 83.3547 29.5546 83.0803 30.0487C82.8059 30.5424 82.8059 30.5424 82.8059 30.5424C82.8059 30.5424 83.3544 32.2979 83.2449 32.6271C83.135 32.9562 82.2574 33.1756 82.2574 33.1756C82.2574 33.1756 81.7089 35.2055 81.7089 35.754C81.7089 36.3025 80.9959 36.3575 80.2278 36.3575C79.4597 36.3575 78.1982 35.9186 78.1982 35.9186L77.1009 37.3997L71.944 32.6271L72.2732 31.6397C72.2732 31.6397 71.7795 28.4577 71.9988 26.867C72.2181 25.276 72.6571 24.2886 74.4126 23.411C76.1682 22.5334 79.0207 23.1917 79.7888 23.5208C80.5569 23.85 82.1476 24.7826 82.7511 25.0567C83.3547 25.3311 83.7933 25.3311 83.7386 26.0989C83.6841 26.8667 83.0255 27.1958 83.0255 27.1958Z" fill="white" stroke="#1C4D87" stroke-width="0.5" stroke-miterlimit="10" stroke-linecap="round" stroke-linejoin="round"/>
<path d="M83.7388 26.0984C83.7936 25.3303 83.3549 25.3303 82.7514 25.0562C82.1478 24.7818 80.5572 23.8495 79.7891 23.5203C79.0209 23.1912 76.1684 22.5329 74.4129 23.4105C72.6573 24.2881 72.2187 25.2756 71.999 26.8665C71.7797 28.4575 72.2734 31.6392 72.2734 31.6392C72.4928 32.1329 73.59 32.2975 74.5775 31.6392C75.5649 30.9809 75.1259 30.5419 75.1259 30.5419C75.1259 30.3226 74.8515 28.8962 75.7295 28.6765C76.6071 28.4572 77.1008 29.225 77.1559 29.6092C77.2106 29.9931 77.485 30.4321 77.8142 30.3773C78.1433 30.3226 78.3626 29.8289 78.3626 29.8289C78.3626 29.8289 80.0631 29.3899 80.2277 28.567C80.3923 27.7442 79.9533 26.0984 79.9533 26.0984L83.0254 27.1957C83.0254 27.1957 83.6837 26.8665 83.7388 26.0984Z" fill="#1C4D87" stroke="#1C4D87" stroke-width="0.5" stroke-miterlimit="10" stroke-linecap="round" stroke-linejoin="round"/>
<path d="M75.126 30.542C75.126 30.542 75.4622 32.0408 76.3356 31.9217" stroke="#1C4D87" stroke-width="0.5" stroke-miterlimit="10" stroke-linecap="round" stroke-linejoin="round"/>
<path d="M82.4486 29.9372C82.4486 29.9372 81.6148 29.6989 80.9402 30.0563" stroke="#1C4D87" stroke-width="0.5" stroke-miterlimit="10" stroke-linecap="round" stroke-linejoin="round"/>
<path d="M82.0514 30.9134C82.0514 31.1894 81.9329 31.4132 81.7869 31.4132C81.6409 31.4132 81.5225 31.1894 81.5225 30.9134C81.5225 30.6374 81.6409 30.4136 81.7869 30.4136C81.9329 30.4136 82.0514 30.6371 82.0514 30.9134Z" fill="#1C4D87"/>
<path d="M81.2177 33.7077C81.2177 33.7077 80.2651 33.3504 79.9475 32.6758" stroke="#1C4D87" stroke-width="0.5" stroke-miterlimit="10" stroke-linecap="round" stroke-linejoin="round"/>
<path d="M77.6952 37.8198C77.6952 37.8198 79.2673 40.5238 79.2673 42.0955C79.2673 43.6676 79.2673 44.925 79.2673 44.925L76.8752 39.6541L77.6952 37.8198Z" fill="#1C4D87" stroke="#1C4D87" stroke-width="0.5" stroke-miterlimit="10" stroke-linejoin="round"/>
<path d="M71.9688 32.0908L77.7948 37.4055L76.8749 39.6545L71.2532 33.3683L71.9688 32.0908Z" fill="white" stroke="#1C4D87" stroke-width="0.5" stroke-miterlimit="10" stroke-linecap="round" stroke-linejoin="round"/>
<path d="M80.8614 110.748C80.8614 110.748 81.8534 112.401 83.4511 112.842C85.0488 113.283 87.5833 112.897 87.9138 113.283C88.2445 113.669 86.316 114.991 85.1038 115.156C83.8916 115.322 81.4125 114.991 80.2553 114.826C79.0982 114.66 78.1617 114.44 78.1617 114.44H77.6106L77.4454 114.936L74.3602 114.66C74.3602 114.66 73.9747 112.677 74.1949 111.41C74.4152 110.142 80.8614 110.748 80.8614 110.748Z" fill="#616161" stroke="#1C4D87" stroke-width="0.5" stroke-miterlimit="10" stroke-linecap="round" stroke-linejoin="round"/>
<path d="M84.7715 69.0755C84.7715 69.0755 84.8166 71.5114 84.8618 71.8271C84.9069 72.1428 84.3655 73.3608 84.0046 73.7668C83.6438 74.1728 82.1553 74.2179 82.1553 74.2179L82.471 68.7598L84.7715 69.0755Z" fill="white" stroke="#1C4D87" stroke-width="0.5" stroke-miterlimit="10" stroke-linecap="round" stroke-linejoin="round"/>
<path d="M82.6968 59.1069C82.6968 59.1069 84.7715 67.5418 84.7715 68.3089C84.7715 69.0758 84.7715 69.0758 84.7715 69.0758H83.0125L82.6968 59.1069Z" fill="#FF8D1D" stroke="#1C4D87" stroke-width="0.5" stroke-miterlimit="10" stroke-linejoin="round"/>
<path d="M82.673 71.5718C82.673 71.5718 81.5888 97.7386 81.6609 99.329C81.7332 100.919 81.0826 106.991 81.0103 107.786C80.9379 108.581 80.7935 109.159 80.7935 109.159C80.7935 109.159 81.5165 109.593 81.4441 110.027C81.3718 110.461 81.3718 111.039 81.3718 111.256C81.3718 111.472 78.4082 112.268 76.8902 112.412C75.3722 112.557 73.6375 111.545 73.6375 111.545L76.0228 86.2454L77.6131 75.4027L77.7579 72.2224L82.673 71.5718Z" fill="#1C4D87" stroke="#1C4D87" stroke-width="0.5" stroke-miterlimit="10" stroke-linecap="round" stroke-linejoin="round"/>
<path d="M73.6989 112.842L76.7291 115.762C76.7291 115.762 79.9249 116.643 80.2002 117.194C80.4756 117.745 79.6492 118.186 78.7127 118.462C77.7761 118.737 75.1865 119.288 73.5888 118.958C71.9911 118.627 69.9525 118.021 69.9525 118.021C69.9525 118.021 68.1342 117.58 67.6385 117.25C67.1426 116.919 67.8588 113.173 67.8588 113.173L73.6989 112.842Z" fill="#616161" stroke="#1C4D87" stroke-width="0.5" stroke-miterlimit="10" stroke-linecap="round" stroke-linejoin="round"/>
<path d="M66.843 70.2705C66.843 70.2705 66.6263 73.3788 67.1322 74.6797C67.638 75.9809 68.1443 76.8483 68.1443 77.0651C68.1443 77.2818 68.5781 90.7993 68.1443 92.6784C67.7104 94.5579 66.9154 97.16 66.9154 99.5453C66.9154 101.931 67.1322 113.424 67.1322 113.424C67.1322 113.424 69.0837 114.075 70.0958 113.858C71.1079 113.641 72.5535 113.352 73.1317 113.352C73.71 113.352 74.2159 113.424 74.2159 113.424C74.2159 113.424 74.3603 112.629 74.505 111.979C74.6497 111.328 74.505 110.822 74.6497 110.388C74.7944 109.954 76.8183 86.0286 77.0351 85.2332C77.2518 84.4382 79.8543 72.8003 79.8543 72.8003L66.843 70.2705Z" fill="#1C4D87" stroke="#1C4D87" stroke-width="0.5" stroke-miterlimit="10" stroke-linecap="round" stroke-linejoin="round"/>
<path d="M71.2531 33.3682L67.1791 38.8407C67.1791 38.8407 64.7534 40.8172 64.8882 44.9949C65.023 49.1726 66.7328 57.2038 66.7328 57.2038L65.941 72.5344C65.941 72.5344 78.3208 74.5496 81.2716 73.6861C84.2224 72.8222 83.4309 69.8714 83.4309 66.0568C83.4309 62.2421 82.3513 54.3967 81.8476 51.014C81.3436 47.6313 76.7375 39.2102 76.7375 39.2102L71.2531 33.3682Z" fill="#FF8D1D" stroke="#1C4D87" stroke-width="0.5" stroke-miterlimit="10" stroke-linejoin="round"/>
<path d="M113.563 54.2031L110.805 58.5944C110.805 58.5944 105.291 57.1648 104.167 56.8584C103.044 56.552 101.41 55.8373 101.41 55.8373C101.41 55.8373 99.9801 54.9181 99.4182 54.9693C98.8566 55.0202 98.7032 55.6331 98.7032 55.6331C98.7032 55.6331 98.0395 56.7053 98.9584 57.1648C99.8776 57.6243 103.656 59.4624 104.524 59.9222C105.392 60.3817 106.362 60.7902 108.252 61.8113C110.141 62.8327 110.805 62.7305 111.315 62.6793C111.826 62.6281 113.664 60.739 113.664 60.739L113.563 54.2031Z" fill="white" stroke="#1C4D87" stroke-width="0.5" stroke-miterlimit="10" stroke-linecap="round" stroke-linejoin="round"/>
<path d="M93.6668 53.917C93.6668 53.917 97.9479 54.5862 98.302 54.6505C98.6558 54.7149 100.973 56.774 101.101 57.0957C101.23 57.4175 101.294 58.3182 100.973 58.4469C100.651 58.5756 100.393 58.0288 100.393 58.0288L99.6535 57.2888C99.6535 57.2888 100.265 58.1898 100.072 58.4149C99.8786 58.64 98.7845 59.3479 98.3664 59.4766C97.9482 59.6053 97.7228 59.6053 97.5297 59.4446C97.3367 59.2839 96.8862 58.9298 96.7575 58.8654C96.6287 58.801 95.8245 58.6403 95.1489 58.1575C94.4733 57.675 93.5403 56.3558 93.5403 56.3558L93.6668 53.917Z" fill="white" stroke="#1C4D87" stroke-width="0.5" stroke-miterlimit="10" stroke-linecap="round" stroke-linejoin="round"/>
<path d="M66.9426 46.6858C66.9426 46.6858 76.752 56.558 77.6322 57.1237C78.5124 57.6898 78.8899 57.7526 79.3301 57.9412C79.7704 58.1297 93.4152 59.3874 93.4152 59.3874L93.6666 53.9168L83.7317 52.3447L80.3361 49.9552L77.0664 43.9816C77.0664 43.9816 76.4376 40.7119 75.3685 39.4542C74.2994 38.1965 71.2814 37.6308 69.5835 38.574" fill="#FF8D1D"/>
<path d="M66.9426 46.6858C66.9426 46.6858 76.752 56.558 77.6322 57.1237C78.5124 57.6898 78.8899 57.7526 79.3301 57.9412C79.7704 58.1297 93.4152 59.3874 93.4152 59.3874L93.6666 53.9168L83.7317 52.3447L80.3361 49.9552L77.0664 43.9816C77.0664 43.9816 76.4376 40.7119 75.3685 39.4542C74.2994 38.1965 71.2814 37.6308 69.5835 38.574" stroke="#1C4D87" stroke-width="0.5" stroke-miterlimit="10" stroke-linejoin="round"/>
<path d="M75.0427 47.4326C75.7266 47.5504 76.4064 47.6292 77.0038 47.6292" stroke="#1C4D87" stroke-width="0.5" stroke-miterlimit="10" stroke-linecap="round" stroke-linejoin="round"/>
<path d="M70.9043 46.3716C70.9043 46.3716 72.25 46.8278 73.8423 47.1906" stroke="#1C4D87" stroke-width="0.5" stroke-miterlimit="10" stroke-linecap="round" stroke-linejoin="round"/>
<path d="M67.886 46.4346C67.886 46.4346 69.1437 47.5664 72.6019 47.6922" stroke="#1C4D87" stroke-width="0.5" stroke-miterlimit="10" stroke-linecap="round" stroke-linejoin="round"/>
<path d="M80.8391 59.7021C80.8391 59.7021 74.3625 59.828 74.2998 60.3937C74.237 60.9595 74.0481 62.1544 74.2998 62.2172C74.5514 62.2799 80.9022 61.84 81.0908 61.7142C81.2794 61.5883 81.2166 60.9595 81.1536 60.5823" stroke="#1C4D87" stroke-width="0.5" stroke-miterlimit="10" stroke-linecap="round" stroke-linejoin="round"/>
<path d="M114.103 114.564C114.103 114.564 113.401 115.229 112.921 115.524C112.441 115.82 111.149 116.336 110.373 116.816C109.598 117.296 110.964 117.74 112.515 117.887C114.066 118.035 115.617 117.813 115.875 117.518C116.134 117.222 117.094 116.004 117.352 115.93C117.611 115.856 118.239 115.819 118.239 115.819L118.202 117.37C118.202 117.37 118.534 117.444 118.719 117.37C118.904 117.296 118.94 114.896 118.94 114.896L114.103 114.564Z" fill="#1C4D87" stroke="#1C4D87" stroke-width="0.5" stroke-miterlimit="10" stroke-linecap="round" stroke-linejoin="round"/>
<path d="M118.939 114.896C118.939 114.896 118.644 115.856 117.758 116.669C116.872 117.481 115.912 118.109 115.949 118.404C115.985 118.699 116.096 118.995 116.428 118.995C116.761 118.995 120.416 119.069 121.118 118.81C121.819 118.552 121.856 118.182 122.004 117.665C122.152 117.148 122.632 116.521 122.632 116.521L122.669 118.219L123.223 118.183L123.334 115.339L118.939 114.896Z" fill="#1C4D87" stroke="#1C4D87" stroke-width="0.5" stroke-miterlimit="10" stroke-linecap="round" stroke-linejoin="round"/>
<path d="M113.249 73.4311C113.249 73.4311 113.249 81.4754 113.992 84.4457C114.734 87.416 114.858 94.0371 115.044 96.4503C115.229 98.8635 113.992 113.973 113.992 113.973C113.744 114.84 113.744 114.84 113.744 114.84C113.744 114.84 115.044 115.335 115.787 115.458C116.529 115.582 118.88 115.582 119.066 115.582C119.252 115.582 120.675 114.84 120.675 114.84C120.675 114.84 120.799 106.177 120.799 102.34C120.799 98.5039 121.232 83.3324 121.232 83.3324L120.985 72.4418L113.188 72.3179L113.249 73.4311Z" fill="#1C4D87" stroke="#1C4D87" stroke-width="0.5" stroke-miterlimit="10" stroke-linecap="round" stroke-linejoin="round"/>
<path d="M116.591 75.0403C116.591 75.0403 118.447 86.9213 118.881 90.5102C119.314 94.0991 119.685 107.724 119.685 108.9C119.685 110.075 118.881 113.788 118.881 113.788L118.386 115.583C118.386 115.583 119.623 116.511 121.48 116.449C123.336 116.387 125.749 115.583 125.749 115.583C125.749 115.583 126.121 103.196 126.368 98.6166C126.616 94.0376 125.254 89.3348 125.254 89.3348L125.192 87.9116L124.945 86.2409C124.945 86.2409 125.007 79.6817 125.44 78.3203C125.873 76.9588 126.863 74.0506 126.616 72.8749C126.368 71.6992 126.368 71.6992 126.368 71.6992L116.282 73.4938L116.591 75.0403Z" fill="#1C4D87" stroke="#1C4D87" stroke-width="0.5" stroke-miterlimit="10" stroke-linecap="round" stroke-linejoin="round"/>
<path d="M126.526 35.0835C126.526 35.0835 127.388 37.1096 128.553 37.7177C129.718 38.3254 130.224 39.8959 130.022 41.3143C129.819 42.7327 130.072 42.3779 131.693 43.6445C133.314 44.9109 133.314 48.4569 132.555 49.2672C131.795 50.0776 130.883 50.6856 130.933 51.2934C130.984 51.9011 130.731 53.1677 129.87 53.7754C129.009 54.3831 127.844 53.826 127.844 53.826C127.844 53.826 127.692 49.5708 125.412 46.9876C123.133 44.404 123.082 42.3779 123.639 41.466C124.197 40.5541 125.412 39.0346 125.666 37.7682C125.919 36.5019 126.172 34.577 126.526 35.0835Z" fill="#1C4D87" stroke="#1C4D87" stroke-width="0.5" stroke-miterlimit="10" stroke-linecap="round" stroke-linejoin="round"/>
<path d="M120.186 45.1586C120.186 45.1586 119.696 45.7708 119.614 46.0564C119.532 46.342 119.247 46.5053 119.247 46.5053C119.247 46.5053 116.675 46.6685 115.778 47.689C114.88 48.7094 113.125 52.5051 113.247 54.8722C113.37 57.2393 112.705 69.9342 112.76 71.3219C112.815 72.7099 112.705 74.4862 112.705 74.4862L113.815 75.0414L114.148 73.4316L114.37 75.2079C114.37 75.2079 117.368 76.2072 120.921 75.1525C124.474 74.0979 127.416 73.5981 127.416 73.5981C127.416 73.5981 124.585 63.7717 124.585 63.1057C124.585 62.4394 128.859 52.891 128.97 50.5591C129.082 48.2272 128.97 47.339 128.249 46.7841C127.527 46.2289 125.695 45.6737 125.695 45.6737C125.695 45.6737 125.75 44.7856 125.473 44.3969C125.196 44.0082 124.805 44.3027 124.805 44.3027L120.186 45.1586Z" fill="#FF8D1D" stroke="#1C4D87" stroke-width="0.5" stroke-miterlimit="10" stroke-linejoin="round"/>
<path d="M118.037 63.0303C118.324 63.3754 118.625 63.6726 118.939 63.898" stroke="#1C4D87" stroke-width="0.5" stroke-miterlimit="10" stroke-linejoin="round"/>
<path d="M115.069 56.9424C115.069 56.9424 115.946 59.8384 117.308 62.0102" stroke="#1C4D87" stroke-width="0.5" stroke-miterlimit="10" stroke-linejoin="round"/>
<path d="M115.804 61.106C115.804 61.106 117.47 64.2408 118.841 65.3186" stroke="#1C4D87" stroke-width="0.5" stroke-miterlimit="10" stroke-linejoin="round"/>
<path d="M125.084 46.0786L121.087 47.9757" stroke="#1C4D87" stroke-width="0.5" stroke-miterlimit="10" stroke-linejoin="round"/>
<path d="M118.219 34.0201C118.219 34.0201 116.953 35.6303 117.054 37.1608C117.105 37.9455 117.409 38.0726 117.155 38.3765C116.902 38.6804 116.243 39.2378 116.496 39.6937C116.75 40.1497 117.206 40.3523 117.206 40.3523C117.206 40.3523 117.459 43.0371 117.915 43.1382C118.371 43.2397 120.065 42.8357 120.065 42.8357C120.065 42.8357 119.992 45.3673 119.992 45.8233C119.992 46.2792 118.573 48.0521 118.067 49.5211C117.56 50.9901 117.054 51.8004 117.408 51.446C117.762 51.0916 120.397 47.6467 120.549 47.4949C120.701 47.3429 120.751 46.6337 121.106 46.3804C121.46 46.1271 124.804 44.3034 124.804 44.3034C124.804 44.3034 124.297 42.2267 124.449 41.7707C124.601 41.3148 126.779 40.6056 126.931 37.9209C127.083 35.2362 126.07 33.7672 124.804 33.058C123.537 32.3488 121.004 32.0955 120.093 32.4503C119.181 32.8047 117.509 32.8556 117.408 33.7166C117.409 33.7159 117.257 34.1719 118.219 34.0201Z" fill="white" stroke="#1C4D87" stroke-width="0.5" stroke-miterlimit="10" stroke-linejoin="round"/>
<path d="M124.804 33.0575C123.538 32.3483 121.005 32.095 120.093 32.4498C119.182 32.8042 117.51 32.8551 117.409 33.7161C117.409 33.7161 117.257 34.172 118.219 34.0199C118.219 34.0199 118.32 35.641 119.384 36.4514C120.448 37.2618 121.714 37.515 121.714 37.515C121.714 37.515 121.816 38.0216 122.17 37.971C122.525 37.9204 122.93 37.515 122.93 37.515C122.93 37.515 123.791 37.363 123.994 38.3254C124.197 39.2879 123.842 39.9971 123.791 40.4024C123.741 40.8078 123.588 42.1247 124.45 41.7703C124.602 41.3143 126.78 40.6051 126.932 37.9204C127.084 35.2353 126.071 33.7667 124.804 33.0575Z" fill="#1C4D87" stroke="#1C4D87" stroke-width="0.5" stroke-miterlimit="10" stroke-linecap="round" stroke-linejoin="round"/>
<path d="M117.986 38.5493C118.11 38.5493 118.21 38.3178 118.21 38.0322C118.21 37.7466 118.11 37.5151 117.986 37.5151C117.863 37.5151 117.763 37.7466 117.763 38.0322C117.763 38.3178 117.863 38.5493 117.986 38.5493Z" fill="#1C4D87"/>
<path d="M117.478 37.1045C117.478 37.1045 118.067 36.7113 118.428 37.2354" stroke="#1C4D87" stroke-width="0.5" stroke-miterlimit="10" stroke-linecap="round" stroke-linejoin="round"/>
<path d="M117.969 40.9051C117.969 40.9051 118.657 40.9708 119.05 40.2827" stroke="#1C4D87" stroke-width="0.5" stroke-miterlimit="10" stroke-linecap="round" stroke-linejoin="round"/>
<path d="M123.867 39.3652C123.867 39.3652 123.736 40.3155 123.08 40.5448C122.425 40.774 121.901 40.5121 121.999 40.2172" stroke="#1C4D87" stroke-width="0.5" stroke-miterlimit="10" stroke-linecap="round" stroke-linejoin="round"/>
<path d="M119.576 80C119.576 80 119.124 81.2257 118.931 81.4838C118.737 81.7418 118.608 81.8385 118.931 81.9999C119.253 82.1613 119.576 81.8709 119.64 81.6451C119.705 81.4194 119.898 79.8066 119.898 79.8066L119.576 80Z" stroke="#1C4D87" stroke-width="0.5" stroke-miterlimit="10" stroke-linecap="round" stroke-linejoin="round"/>
<path d="M124.418 55.3892V63.4946C124.418 63.4946 123.641 65.2155 123.252 66.8254C122.863 68.4353 121.143 75.9855 121.087 76.2074C121.032 76.4296 119.415 79.9676 119.382 80.5804C119.35 81.1932 119.544 83.2895 119.705 83.5799C119.866 83.8699 120.285 83.9023 120.382 83.6122C120.479 83.3218 120.446 81.6447 120.446 81.6447L120.705 80.7738C120.705 80.7738 120.769 82.5799 120.801 83.1281C120.834 83.6762 121.124 83.999 121.349 83.9343C121.575 83.8696 121.672 83.3538 121.672 83.3538C121.672 83.3538 121.768 82.1928 121.801 81.9348C121.833 81.6767 121.833 83.6442 121.994 83.6442C122.156 83.6442 122.413 83.7089 122.542 83.3218C122.671 82.9347 122.8 81.419 122.865 81.1932C122.929 80.9675 122.929 82.9994 123.058 83.0637C123.187 83.1281 123.478 83.0637 123.542 82.7733C123.606 82.4829 123.574 80.8382 123.574 80.8382C123.574 80.8382 123.8 80.0319 123.8 78.6449C123.8 77.2582 123.639 75.9359 123.639 75.9359C123.639 75.9359 126.638 67.9694 127.348 66.3893C128.057 64.8089 128.089 62.9061 128.089 62.9061L129.121 56.4557L124.418 55.3892Z" fill="white" stroke="#1C4D87" stroke-width="0.5" stroke-miterlimit="10" stroke-linejoin="round"/>
<path d="M124.033 50.1826C124.033 50.1826 124.14 51.9471 124.196 53.0018C124.252 54.0565 124.196 56.0551 124.196 56.0551L129.47 56.999C129.47 56.999 130.025 50.5592 129.47 48.5606C128.915 46.562 127.305 46.1179 126.361 46.2844" fill="#FF8D1D"/>
<path d="M124.033 50.1826C124.033 50.1826 124.14 51.9471 124.196 53.0018C124.252 54.0565 124.196 56.0551 124.196 56.0551L129.47 56.999C129.47 56.999 130.025 50.5592 129.47 48.5606C128.915 46.562 127.305 46.1179 126.361 46.2844" stroke="#1C4D87" stroke-width="0.5" stroke-miterlimit="10" stroke-linejoin="round"/>
<path d="M121.802 81.9352L121.834 80.7739" stroke="#1C4D87" stroke-width="0.5" stroke-miterlimit="10" stroke-linecap="round" stroke-linejoin="round"/>
<path d="M100.763 55.5771C100.763 55.5771 99.488 54.5054 99.1694 54.4475C98.8508 54.3895 97.3444 54.7952 97.1997 55.0558C97.0549 55.3165 97.4315 55.4903 97.808 55.4903C98.1845 55.4903 99.3433 55.3456 99.3433 55.3456" fill="white"/>
<path d="M100.763 55.5771C100.763 55.5771 99.488 54.5054 99.1694 54.4475C98.8508 54.3895 97.3444 54.7952 97.1997 55.0558C97.0549 55.3165 97.4315 55.4903 97.808 55.4903C98.1845 55.4903 99.3433 55.3456 99.3433 55.3456" stroke="#1C4D87" stroke-width="0.5" stroke-miterlimit="10" stroke-linecap="round" stroke-linejoin="round"/>
</svg>
