<svg width="180" height="120" viewBox="0 0 180 120" fill="none" xmlns="http://www.w3.org/2000/svg">
<path d="M40.6792 14.1106C41.6071 12.8626 44.3828 12.8044 46.5711 11.1731C46.7338 11.0519 46.9092 10.9485 47.0927 10.8619C51.0058 9.01565 54.9671 9.63136 57.8826 11.4552C57.8919 11.461 57.901 11.4676 57.9096 11.4745C60.0866 13.2408 62.7508 10.6478 66.5205 12.972C66.6039 13.0234 66.6761 13.0839 66.6217 13.1655C64.4226 16.4638 61.2382 20.1274 55.5551 23.0733C55.4706 23.1171 55.369 23.1143 55.287 23.0661L40.76 14.5151C40.6179 14.4314 40.5807 14.243 40.6792 14.1106Z" fill="url(#paint0_linear_17_2480)"/>
<path d="M47.5866 26.4247C30.4605 35.8043 17.0067 69.2874 19.5921 96.9113C17.1494 112.483 109.178 120.381 92.7887 76.8882C84.5675 58.6013 76.0599 36.1667 59.0664 26.3906L47.5866 26.4247Z" fill="#ED8936"/>
<path d="M46.9191 26.084C44.9041 21.8363 43.1696 18.4589 40.5981 14.5128C40.5702 14.463 40.6174 14.4056 40.672 14.4224C43.2866 15.2305 45.9984 14.7473 50.2515 13.5462C50.2574 13.5445 50.2632 13.5419 50.2683 13.5387C52.6735 11.9891 55.4222 12.5152 58.2863 13.7381C58.2904 13.7399 58.2946 13.7412 58.2989 13.7421C61.3907 14.3589 62.4425 14.8886 66.5626 13.0601C66.6183 13.0354 66.6727 13.0971 66.6409 13.1491C63.5159 17.0251 60.945 21.2322 58.903 25.7554C58.8909 25.7728 58.8932 25.7939 58.8967 25.8148C59.2693 28.0232 47.1812 28.4987 46.9191 26.084Z" fill="#ED8936"/>
<g opacity="0.87">
<path d="M50.8618 90.2444L50.748 86.9701C47.3298 86.952 43.9254 86.2637 41.4908 85.2973C40.6215 84.9523 40.1516 84.0064 40.3662 83.0961L41.0921 80.0172C41.3584 78.8877 42.5551 78.2667 43.6403 78.6778C46.0538 79.5923 49.0184 80.2792 52.1855 80.1692C55.4733 80.0549 57.8864 78.8549 57.8071 76.5702C57.7355 74.5083 55.7982 73.3484 51.1861 72.2815C44.6043 70.7248 39.8243 68.0453 39.6248 62.3056C39.4446 57.1228 43.0967 53.0347 49.6354 51.7475L49.5216 48.4727C49.4849 47.419 50.3095 46.5351 51.3632 46.4984L53.2871 46.4316C54.3408 46.3949 55.2248 47.2195 55.2614 48.2732L55.3635 51.2134C58.5265 51.2301 60.8446 51.6903 62.6915 52.2681C63.6377 52.564 64.1836 53.5533 63.9576 54.5188L63.2905 57.3661C63.0334 58.4642 61.8916 59.1004 60.8236 58.7384C59.1215 58.1615 56.7233 57.5827 53.6358 57.6899C49.735 57.8255 48.6768 59.48 48.7271 60.929C48.7891 62.7122 51.1721 63.8568 56.2973 65.2411C63.6173 67.1624 66.7311 70.067 66.919 75.4724C67.0914 80.4321 63.5685 85.0181 56.4744 86.3806L56.6017 90.045C56.6384 91.0989 55.8138 91.9828 54.7602 92.0194L52.836 92.0863C51.7824 92.1227 50.8984 91.2982 50.8618 90.2444Z" fill="white"/>
</g>
<path d="M52.4511 28.9195C50.9589 28.9195 48.2776 28.7814 46.6967 27.88C45.4975 27.1962 45.459 26.3375 45.5428 25.8865C45.6048 25.5526 45.9633 25.3262 46.3433 25.3806C46.7234 25.4352 46.9812 25.75 46.9191 26.0839C46.8958 26.209 46.8414 26.5019 47.4559 26.8522C48.4542 27.4214 50.5537 27.742 52.9358 27.6889C55.2567 27.6371 57.3986 27.2331 58.3924 26.6595C58.7485 26.454 58.9121 26.2614 58.8786 26.0872C58.8144 25.7536 59.0703 25.4375 59.4499 25.3812C59.8292 25.325 60.1895 25.5496 60.2535 25.8832C60.329 26.2758 60.2871 27.0319 59.158 27.6835C57.9254 28.395 55.6125 28.8548 52.9711 28.9137C52.8217 28.9171 52.6465 28.9195 52.4511 28.9195Z" fill="url(#paint1_linear_17_2480)"/>
<path d="M146.16 79.2859C146.511 79.5574 156.127 78.8607 160.167 79.6967C160.167 79.6967 163.299 66.0338 154.307 65.4973C145.316 64.9606 142.198 70.5092 142.198 70.5092L146.16 79.2859Z" fill="#173F6F"/>
<path d="M136.664 64.8535L154.307 65.4974C154.307 65.4974 147.878 65.5854 148.59 73.7166C149.302 81.8478 152.925 105.591 143.724 105.615C134.523 105.638 134.375 101.435 134.375 101.435L136.664 64.8535Z" fill="#7D97F4"/>
<path d="M128.424 61.0383L135.244 59.4506C135.244 59.4506 139.804 59.0407 140.42 63.0937C141.037 67.1467 140.858 91.1585 140.665 96.1106C140.472 101.063 140.937 104.871 143.724 105.614L123.45 105.965L128.424 61.0383Z" fill="#173F6F"/>
<path d="M114.559 61.368C114.559 61.368 126.977 62.0504 135.244 59.4506C135.244 59.4506 129.748 59.0741 129.748 71.7621C129.748 81.4627 131.187 99.9784 129.931 103.493C128.675 107.008 123.978 111.733 117.245 107.672C110.512 103.612 114.559 61.368 114.559 61.368Z" fill="#91B3FA"/>
<path d="M111.257 42.3458C111.257 42.3458 124.959 43.8393 126.724 41.5169C126.724 41.5169 125.32 37.3372 121.15 37.6153C116.981 37.8934 111.257 42.3458 111.257 42.3458Z" fill="#7D97F4"/>
<path d="M66.6953 47.0483C67.8901 60.4756 70.3997 88.8767 71.4915 102.712C71.7349 105.796 74.207 108.232 77.2945 108.43C88.2927 109.136 113.044 110.506 122.543 109.231C120.367 108.159 118.997 105.936 119.016 103.51L119.521 41.4287C119.539 39.2351 121.723 37.6588 123.778 38.4285C125.072 38.9135 126.052 39.9466 126.724 41.5169C125.827 38.9036 124.417 36.9916 121.15 37.6153C121.15 37.6153 89.2021 37.9347 73.6991 38.896C69.4864 39.1572 66.3212 42.8442 66.6953 47.0483Z" fill="#173F6F"/>
<path d="M74.5984 40.673L117.527 39.0203C115.757 52.1283 116.504 78.822 117.18 105.129C117.22 106.689 118.134 108.092 119.545 108.759C119.545 108.759 90.9115 109.089 78.6085 108.216C75.7116 108.011 73.3486 105.819 72.9182 102.947C71.2292 91.6759 67.1883 62.5587 68.0293 47.1434C68.2219 43.6134 71.0657 40.809 74.5984 40.673Z" fill="#244C7D"/>
<path opacity="0.78" d="M74.1262 59.3745L74.6272 64.183C74.7191 65.0644 75.4449 65.7443 76.3305 65.7782L79.1301 65.8857C80.1399 65.9244 80.9795 65.1164 80.9795 64.1059V58.9187C80.9795 57.8774 80.0902 57.0583 79.0525 57.1436L75.7519 57.4148C74.7562 57.4966 74.0226 58.381 74.1262 59.3745Z" fill="url(#paint2_linear_17_2480)"/>
<path opacity="0.78" d="M83.9709 57.8924C88.6305 57.7475 106.518 57.166 111.034 57.0191C111.604 57.0006 112.075 57.4574 112.075 58.0275C112.075 58.5701 111.646 59.0155 111.104 59.0356L84.0575 60.0397C83.5366 60.059 83.0866 59.6782 83.0196 59.1612L83.0027 59.0304C82.926 58.4393 83.375 57.911 83.9709 57.8924Z" fill="url(#paint3_linear_17_2480)"/>
<path opacity="0.78" d="M83.6783 64.2316C83.7574 64.3642 83.9017 64.4442 84.0562 64.4408L102.627 64.0373C102.861 64.0322 103.047 63.8417 103.047 63.6083V62.3839C103.047 62.1407 102.845 61.946 102.602 61.9551L84.5487 62.6301C83.7446 62.6603 83.2662 63.5405 83.6783 64.2316Z" fill="url(#paint4_linear_17_2480)"/>
<path opacity="0.78" d="M74.1262 72.72L74.6272 77.5285C74.7191 78.41 75.4449 79.0897 76.3305 79.1237L79.1301 79.2311C80.1399 79.2699 80.9795 78.4618 80.9795 77.4513V72.2641C80.9795 71.2229 80.0902 70.4037 79.0525 70.489L75.7519 70.7603C74.7562 70.8421 74.0226 71.7265 74.1262 72.72Z" fill="url(#paint5_linear_17_2480)"/>
<path opacity="0.78" d="M83.9709 71.2379C88.6305 71.093 106.518 70.5115 111.034 70.3646C111.604 70.346 112.075 70.8029 112.075 71.3729C112.075 71.9155 111.646 72.3609 111.104 72.3811L84.0575 73.3851C83.5366 73.4045 83.0866 73.0237 83.0196 72.5067L83.0027 72.3759C82.926 71.7847 83.375 71.2563 83.9709 71.2379Z" fill="url(#paint6_linear_17_2480)"/>
<path opacity="0.78" d="M83.6783 77.577C83.7574 77.7096 83.9017 77.7895 84.0562 77.7862L102.627 77.3828C102.861 77.3777 103.047 77.1871 103.047 76.9538V75.7294C103.047 75.4861 102.845 75.2915 102.602 75.3006L84.5487 75.9756C83.7446 76.0057 83.2662 76.8859 83.6783 77.577Z" fill="url(#paint7_linear_17_2480)"/>
<path opacity="0.78" d="M74.1262 86.0655L74.6272 90.874C74.7191 91.7554 75.4449 92.4352 76.3305 92.4692L79.1301 92.5766C80.1399 92.6153 80.9795 91.8073 80.9795 90.7968V85.6096C80.9795 84.5684 80.0902 83.7492 79.0525 83.8345L75.7519 84.1057C74.7562 84.1876 74.0226 85.072 74.1262 86.0655Z" fill="url(#paint8_linear_17_2480)"/>
<path opacity="0.78" d="M83.9709 84.5833C88.6305 84.4385 106.518 83.857 111.034 83.71C111.604 83.6915 112.075 84.1483 112.075 84.7184C112.075 85.261 111.646 85.7064 111.104 85.7265L84.0575 86.7306C83.5366 86.75 83.0866 86.3692 83.0196 85.8522L83.0027 85.7214C82.926 85.1302 83.375 84.6019 83.9709 84.5833Z" fill="url(#paint9_linear_17_2480)"/>
<path opacity="0.78" d="M83.6783 90.9224C83.7574 91.0551 83.9017 91.135 84.0562 91.1317L102.627 90.7282C102.861 90.7231 103.047 90.5325 103.047 90.2992V89.0749C103.047 88.8316 102.845 88.637 102.602 88.6461L84.5487 89.3211C83.7446 89.3511 83.2662 90.2313 83.6783 90.9224Z" fill="url(#paint10_linear_17_2480)"/>
<path d="M128.135 89.1036C128.022 89.1036 127.929 89.0126 127.927 88.8985C127.926 88.8921 127.914 88.2337 127.85 85.9772C127.847 85.8618 127.938 85.7656 128.053 85.7625C128.166 85.7567 128.265 85.8501 128.268 85.9655C128.332 88.2248 128.344 88.8842 128.345 88.8906C128.347 89.006 128.255 89.1014 128.14 89.1035C128.138 89.1036 128.137 89.1036 128.135 89.1036Z" fill="url(#paint11_linear_17_2480)"/>
<path d="M127.983 83.5957C127.871 83.5957 127.778 83.5063 127.775 83.3931C127.73 81.9243 127.66 80.3006 127.586 78.5815C127.486 76.2588 127.382 73.8569 127.327 71.5431C127.183 65.4368 128.19 63.0927 129.061 62.2016C129.534 61.7172 129.93 61.7031 129.974 61.7031C130.089 61.7031 130.183 61.7967 130.183 61.9121C130.183 62.0262 130.091 62.1188 129.978 62.1212C129.93 62.1246 127.529 62.3884 127.745 71.5333C127.8 73.8429 127.903 76.2427 128.003 78.5634C128.078 80.2839 128.148 81.9089 128.192 83.3803C128.196 83.4957 128.105 83.592 127.99 83.5956C127.988 83.5957 127.986 83.5957 127.983 83.5957Z" fill="#BDD0FB"/>
<path d="M147.861 82.9112C147.752 82.9112 147.659 82.8256 147.653 82.7146C147.65 82.6595 147.317 77.1548 146.721 72.5737C146.103 67.8202 148.704 66.8179 148.815 66.7775C148.924 66.7381 149.044 66.7941 149.083 66.9026C149.123 67.0109 149.067 67.1303 148.959 67.1701C148.861 67.2068 146.564 68.1188 147.136 72.5198C147.734 77.1157 148.067 82.6345 148.07 82.6896C148.077 82.8049 147.989 82.904 147.874 82.9107C147.87 82.911 147.865 82.9112 147.861 82.9112Z" fill="#BDD0FB"/>
<path d="M97.6976 106.08C97.4952 106.08 97.2911 105.983 97.0743 105.784C96.2383 105.016 96.039 103.82 95.9883 102.695C95.5897 103.144 95.1808 103.58 94.7766 104.01L94.6174 103.861C95.0721 103.376 95.5328 102.886 95.9774 102.378C95.94 100.861 96.0097 99.3273 96.1844 97.8199C96.291 96.9002 96.4446 95.9271 96.8424 95.0409C96.9682 94.7608 97.1766 94.3597 97.5331 94.1103C97.9008 93.8534 98.3817 93.8243 98.7026 94.0401C99.0649 94.2837 99.163 94.7502 99.2054 95.0799C99.4587 97.0497 98.6894 98.8563 97.9995 100.025C97.4843 100.898 96.8595 101.697 96.1977 102.457C96.2311 103.6 96.3873 104.856 97.2218 105.623C97.4024 105.789 97.5635 105.867 97.7124 105.861C97.9599 105.852 98.1546 105.62 98.3124 105.394C99.0091 104.396 99.551 103.314 99.9294 102.166C99.9728 101.825 100.068 101.49 100.213 101.178L100.418 101.249C100.339 101.576 100.247 101.897 100.143 102.214C100.104 102.543 100.115 102.878 100.181 103.203C100.216 103.379 100.365 103.96 100.802 104.043C101.132 104.106 101.458 103.873 101.828 103.31L103.175 101.263L103.037 101.858C102.969 102.147 102.858 102.839 103.276 103.011C103.515 103.109 103.769 102.966 104.038 102.814C104.304 102.665 104.579 102.51 104.885 102.55L104.998 102.565L104.978 102.677C104.909 103.078 104.943 103.571 105.264 103.642C105.473 103.688 105.647 103.528 105.849 103.341C106.022 103.181 106.201 103.015 106.432 102.959L106.484 103.171C106.308 103.214 106.15 103.36 105.997 103.501C105.771 103.71 105.538 103.926 105.216 103.855C104.783 103.759 104.688 103.249 104.745 102.763C104.549 102.777 104.352 102.888 104.145 103.004C103.843 103.175 103.53 103.351 103.192 103.213C102.888 103.087 102.737 102.764 102.754 102.299L102.01 103.43C101.743 103.837 101.322 104.364 100.761 104.258C100.376 104.184 100.079 103.806 99.9666 103.246C99.9409 103.118 99.9229 102.988 99.9126 102.858C99.548 103.796 99.0726 104.686 98.4912 105.519C98.3026 105.789 98.0635 106.067 97.7202 106.079C97.7128 106.08 97.7051 106.08 97.6976 106.08ZM98.1996 94.113C98.0182 94.113 97.8248 94.1726 97.6582 94.2892C97.3459 94.5076 97.1566 94.8738 97.0415 95.1302C96.6557 95.9895 96.5058 96.9428 96.4012 97.8451C96.2369 99.2626 96.1662 100.703 96.1905 102.132C96.7865 101.434 97.3457 100.704 97.8118 99.9142C98.4843 98.7749 99.2345 97.0162 98.9891 95.1078C98.9304 94.6507 98.8007 94.369 98.5809 94.2214C98.4729 94.1486 98.3398 94.113 98.1996 94.113Z" fill="url(#paint12_linear_17_2480)"/>
<path d="M84.0329 51.1219L83.7861 44.748L84.9719 44.7021L85.1786 50.0384L86.8221 49.9748L86.8623 51.0124L84.0329 51.1219Z" fill="url(#paint13_linear_17_2480)"/>
<path d="M91.8831 47.6176C91.924 48.6726 91.7577 49.4912 91.3844 50.0732C91.0111 50.6553 90.4567 50.9605 89.7214 50.9891C88.9831 51.0176 88.4054 50.7569 87.9883 50.2069C87.5711 49.6569 87.3419 48.85 87.3007 47.7862C87.2599 46.7312 87.4262 45.9148 87.7998 45.3371C88.1732 44.7594 88.7321 44.4562 89.4761 44.4274C90.2113 44.399 90.7862 44.6598 91.2005 45.2099C91.6148 45.76 91.8423 46.5625 91.8831 47.6176ZM88.5131 47.7481C88.5412 48.4747 88.6542 49.0248 88.8521 49.3985C89.05 49.7722 89.3261 49.9521 89.6807 49.9384C90.3957 49.9107 90.7244 49.1528 90.6668 47.6647C90.6092 46.1766 90.2257 45.4462 89.5166 45.4737C89.1561 45.4877 88.8918 45.6878 88.7233 46.0742C88.5549 46.4606 88.4849 47.0186 88.5131 47.7481Z" fill="url(#paint14_linear_17_2480)"/>
<path d="M95.9524 50.6603L95.5239 49.0658L93.8628 49.1301L93.5589 50.753L92.373 50.7989L93.7034 44.3377L95.3122 44.2754L97.1426 50.6142L95.9524 50.6603ZM95.2608 48.0238L94.8634 46.5546C94.8396 46.4653 94.785 46.2411 94.6998 45.8819C94.6146 45.5228 94.5624 45.2825 94.5431 45.161C94.515 45.4125 94.4776 45.6896 94.4312 45.9927C94.3847 46.2958 94.2602 46.9883 94.0576 48.0702L95.2608 48.0238Z" fill="url(#paint15_linear_17_2480)"/>
<path d="M102.169 50.4197L100.722 50.4758L98.5727 45.9351L98.516 45.9373C98.6022 46.2862 98.6532 46.6627 98.6689 47.0666L98.8037 50.55L97.705 50.5926L97.4583 44.2187L98.9144 44.1623L101.044 48.6557L101.092 48.6538C101.025 48.3508 100.984 47.9886 100.967 47.5671L100.833 44.0881L101.923 44.0459L102.169 50.4197Z" fill="url(#paint16_linear_17_2480)"/>
<path d="M127.327 108.364C127.994 108.421 129.152 108.515 130.066 108.555C130.614 108.579 130.93 108.526 131.112 108.453C131.112 108.473 131.111 108.493 131.111 108.511C131.106 108.607 131.028 108.684 130.931 108.689C129.206 108.785 127.834 108.722 127.345 108.693C127.244 108.687 127.184 108.577 127.236 108.491C127.262 108.448 127.293 108.406 127.327 108.364Z" fill="url(#paint17_linear_17_2480)"/>
<path d="M130.065 108.555C129.152 108.515 127.994 108.422 127.327 108.364C127.983 107.559 130.065 107.016 130.065 107.016H130.654C131.058 107.599 131.117 108.155 131.112 108.453C130.93 108.526 130.614 108.58 130.065 108.555Z" fill="url(#paint18_linear_17_2480)"/>
<path d="M130.753 106.056L130.698 107.145C130.692 107.263 130.603 107.362 130.485 107.379C130.368 107.396 130.21 107.398 130.044 107.343C129.941 107.309 129.865 107.222 129.846 107.116L129.656 106.056L130.753 106.056Z" fill="url(#paint19_linear_17_2480)"/>
<path d="M138.392 108.547C138.681 108.507 138.812 108.356 138.867 108.196C138.867 108.197 138.868 108.198 138.868 108.2C138.911 108.369 138.823 108.579 138.615 108.629C138.115 108.747 138.115 108.747 137.913 108.738C137.696 108.73 137.496 108.64 137.387 108.496L137.385 108.494C137.603 108.602 137.909 108.614 138.392 108.547Z" fill="url(#paint20_linear_17_2480)"/>
<path d="M137.027 106.049H137.512C138.251 106.034 138.715 107.592 138.867 108.196C138.812 108.356 138.681 108.507 138.392 108.547C137.909 108.614 137.603 108.602 137.385 108.494C136.986 107.969 136.788 107.199 136.693 106.75C136.585 106.24 137.027 106.049 137.027 106.049Z" fill="url(#paint21_linear_17_2480)"/>
<path d="M137.45 105.038L137.72 106.109C137.753 106.241 137.69 106.376 137.568 106.439C137.418 106.516 137.205 106.597 137.011 106.574C136.919 106.563 136.843 106.498 136.812 106.412L136.417 105.285L137.45 105.038Z" fill="url(#paint22_linear_17_2480)"/>
<path d="M137.771 105.348C137.436 105.645 136.346 105.684 136.346 105.684C132.42 96.2612 130.814 94.9225 130.814 94.9225C131.381 98.4792 130.906 106.353 130.906 106.353C130.258 106.639 129.423 106.353 129.423 106.353C129.37 100.53 128.475 95.4525 127.418 91.4491C130.071 91.3895 131.482 90.4814 131.943 90.1169C134.155 93.6831 137.771 105.348 137.771 105.348Z" fill="url(#paint23_linear_17_2480)"/>
<path d="M131.269 79.2806C131.772 81.7859 131.592 86.2699 131.473 88.3153C131.44 88.8901 131.841 89.687 132.166 90.2307C132.217 90.3161 132.185 90.4252 132.097 90.4706C131.554 90.7497 129.714 91.6147 127.582 91.7223C127.44 91.7295 127.313 91.6326 127.276 91.4952C125.694 85.5895 123.857 81.8158 123.857 81.8158C125.885 78.5769 131.269 79.2806 131.269 79.2806Z" fill="#ED8936"/>
<path d="M130.546 94.6995C130.569 94.6995 130.591 94.6934 130.612 94.6811C130.671 94.6448 130.69 94.5676 130.654 94.5084C130.633 94.4736 130.125 93.6528 129.097 93.157C129.035 93.127 128.959 93.1529 128.929 93.2155C128.899 93.278 128.925 93.3533 128.988 93.3834C129.946 93.8457 130.434 94.6313 130.439 94.6392C130.463 94.6779 130.504 94.6995 130.546 94.6995Z" fill="url(#paint24_linear_17_2480)"/>
<path d="M134.42 86.4706C134.258 87.6377 133.782 88.9107 132.828 90.2629L132.466 89.9674C132.466 89.9674 132.884 88.2696 132.646 86.3429C133.235 86.2283 133.929 86.3465 134.42 86.4706Z" fill="#ED8936"/>
<path d="M130.708 82.3717L131.269 79.2805C131.269 79.2805 135.018 82.1457 134.42 86.4707C133.929 86.3466 133.234 86.2284 132.646 86.3431C132.475 84.9551 131.963 83.4484 130.708 82.3717Z" fill="#ED8936"/>
<path d="M123.798 81.8406L125.964 84.5073C126.198 86.3884 125.418 87.4246 124.438 87.994C124.162 87.1793 123.782 86.5609 123.469 86.1456C124.467 84.4109 123.798 81.8406 123.798 81.8406Z" fill="#ED8936"/>
<path d="M123.47 86.1455C123.782 86.5608 124.162 87.1793 124.438 87.9939C121.895 89.7994 120.624 88.6838 120.624 88.6838V88.3272C120.624 88.011 120.833 87.7297 121.139 87.6494C122.162 87.3809 123.106 86.778 123.47 86.1455Z" fill="#ED8936"/>
<path d="M125.19 77.9688L125.889 80.5365C125.967 80.825 126.279 80.9799 126.557 80.8689C126.856 80.7491 127.236 80.5857 127.563 80.409C127.913 80.2205 128.022 79.7713 127.801 79.4417L126.349 77.2764L125.19 77.9688Z" fill="url(#paint25_linear_17_2480)"/>
<path d="M123.798 76.0173C123.792 76.0614 124.38 78.9475 124.38 78.9475L126.021 78.5762L125.869 75.7579C125.869 75.7579 123.904 75.2791 123.798 76.0173Z" fill="url(#paint26_linear_17_2480)"/>
<path d="M125.364 76.3865L125.56 77.8639C125.563 77.8828 125.563 77.9016 125.56 77.9205C125.544 78.0363 125.458 78.4305 125.06 78.3178C124.698 78.2155 124.367 78.1275 124.139 78.1975C124.036 78.2289 123.974 78.3329 123.995 78.4381C124.049 78.7003 124.181 79.289 124.373 79.7829C124.412 79.8831 124.522 79.9358 124.625 79.9056C124.936 79.815 125.587 79.6053 126.071 79.3139C126.137 79.2744 126.176 79.203 126.173 79.1265C126.157 78.7536 126.114 77.6198 126.15 77.302C126.185 77.0037 126.551 76.825 126.71 76.7609C126.762 76.7399 126.803 76.6988 126.824 76.6466C126.897 76.462 126.999 76.0349 126.461 75.8599C126.348 75.8232 126.289 75.7018 126.329 75.5904C126.408 75.3684 126.442 75.0297 126.026 74.8431C125.602 74.6534 125.286 74.879 125.116 75.0624C125.047 75.1365 124.936 75.1478 124.85 75.0937C124.802 75.0629 124.739 75.0528 124.663 75.1C124.561 75.1638 124.425 75.1203 124.372 75.012C124.271 74.804 124.065 74.5812 123.65 74.6521C122.915 74.778 122.832 75.5928 123.026 76.0702C123.22 76.5477 124.009 76.3659 124.405 76.1251C124.706 75.9422 125.097 76.1339 125.267 76.2364C125.32 76.269 125.356 76.3243 125.364 76.3865Z" fill="#173F6F"/>
<path d="M126.216 77.8407C126.216 77.8407 125.914 76.9943 126.225 76.7871C126.535 76.5798 126.995 76.6874 126.894 77.3005C126.768 78.0633 126.216 77.8407 126.216 77.8407Z" fill="url(#paint27_linear_17_2480)"/>
<path d="M142.476 81.8186L112.557 91.6375L113.985 96.0461L144.076 86.4666C144.716 86.2631 145.115 85.6307 145.027 84.9658C144.937 84.2828 144.629 83.3443 143.792 82.2304C143.488 81.8253 142.958 81.6605 142.476 81.8186Z" fill="#173F6F"/>
<path d="M104.609 96.3654L108.158 94.2544C108.5 94.703 108.8 95.3932 108.818 96.4379L104.73 96.7479C104.513 96.7643 104.422 96.4766 104.609 96.3654Z" fill="#173F6F"/>
<path d="M112.557 91.6375C114.378 93.6833 113.985 96.0461 113.985 96.0461L108.818 96.4377C108.8 95.393 108.5 94.7029 108.158 94.2543L112.557 91.6375Z" fill="#ED8936"/>
<path d="M143.004 83.1012C143.032 83.0792 143.045 83.041 143.033 83.0049C143.018 82.9592 142.969 82.9344 142.923 82.9495L114.337 92.394C114.291 92.4093 114.266 92.4584 114.282 92.5041C114.297 92.5499 114.346 92.5747 114.392 92.5595L142.978 83.115C142.987 83.1118 142.996 83.1071 143.004 83.1012Z" fill="#7D97F4"/>
<path d="M143.664 84.7536C143.692 84.7316 143.705 84.6933 143.693 84.6573C143.678 84.6115 143.629 84.5867 143.583 84.6018L114.997 94.0463C114.951 94.0615 114.926 94.1107 114.941 94.1564C114.957 94.2021 115.006 94.2269 115.052 94.2118L143.638 84.7674C143.647 84.7642 143.656 84.7595 143.664 84.7536Z" fill="#7D97F4"/>
<path d="M132.615 89.9162L130.923 89.7783L130.19 90.4538C130.19 90.4538 130.364 90.6934 130.906 90.5557C131.448 90.418 132.19 90.3842 132.19 90.3842C132.19 90.3842 132.938 90.7215 132.947 90.0904L132.615 89.9162Z" fill="url(#paint28_linear_17_2480)"/>
<path d="M121.749 89.3902C121.602 89.5045 121.101 89.2658 120.794 89.1008C120.645 89.0204 120.572 88.8456 120.624 88.6838C120.697 88.451 120.82 88.1505 120.972 88.1126C121.223 88.0497 122.352 88.9191 121.749 89.3902Z" fill="url(#paint29_linear_17_2480)"/>
<path d="M74.0139 107.939C74.0139 107.939 73.8777 108.71 73.8109 109.473C73.7848 109.772 74.0148 110.031 74.3141 110.043C75.3308 110.086 77.5056 110.168 78.2861 110.133C78.4034 110.128 78.4801 110.008 78.4367 109.899C78.4003 109.807 78.3301 109.734 78.2407 109.692L74.6482 108.041L74.0139 107.939Z" fill="url(#paint30_linear_17_2480)"/>
<path d="M73.9023 107.486L74.0118 108.408C74.0118 108.408 74.6411 108.701 75.0709 108.371L74.8103 107.343L73.9023 107.486Z" fill="url(#paint31_linear_17_2480)"/>
<path d="M73.9846 90.1415C73.9374 90.3824 73.7308 102.164 74.9902 107.444C75.0108 107.53 74.9671 107.619 74.8851 107.652C74.692 107.731 74.3133 107.845 73.8595 107.86C73.719 107.865 73.5929 107.774 73.5533 107.639C73.1933 106.414 71.4684 100.277 71.2433 94.4135C70.9919 87.8623 71.2433 94.1905 71.2433 94.1905L71.3908 90.1409L73.9846 90.1415Z" fill="#91B3FA"/>
<path d="M69.8816 108.341C69.8816 108.341 69.6648 108.731 69.4548 109.765C69.4169 109.952 69.5475 110.131 69.7372 110.15C70.0729 110.183 70.5898 110.225 71.0037 110.222C71.1946 110.221 71.3435 110.055 71.3205 109.865C71.2747 109.488 71.1318 108.868 70.6905 108.385L69.8816 108.341Z" fill="url(#paint32_linear_17_2480)"/>
<path d="M69.6912 107.155L69.9469 108.55C69.9469 108.55 70.1998 108.738 70.7001 108.601L70.578 107.1L69.6912 107.155Z" fill="url(#paint33_linear_17_2480)"/>
<path d="M69 90.5028C67.97 96.7188 69.2234 105.866 69.6462 107.657C69.6721 107.766 69.7605 107.85 69.8716 107.869C70.0603 107.9 70.371 107.925 70.6772 107.837C70.7828 107.806 70.8569 107.711 70.8612 107.601C70.918 106.153 70.8159 97.2674 71.7756 93.7556C71.8242 93.5777 71.9329 93.4225 72.0833 93.3156L73.946 91.9913L74.0888 89.8508L69 90.5028Z" fill="#91B3FA"/>
<path d="M75.5632 78.7248C72.4765 78.6738 69.0707 79.5353 69.0707 79.5353C68.1506 84.9038 68.9099 91.0961 68.9099 91.0961C71.2995 91.7228 73.9951 90.713 73.9951 90.713C74.3923 88.4691 76.2453 82.1539 76.2453 82.1539C77.7535 81.9667 78.9958 81.5316 80.0189 80.9564C79.2385 80.0518 78.8706 78.9007 78.7108 78.2202C77.6196 78.5594 76.5153 78.7405 75.5632 78.7248Z" fill="#173F6F"/>
<path d="M84.6808 74.1783C84.3776 73.812 83.9938 73.9853 83.9938 73.9853C83.5395 75.904 81.1578 77.4598 78.7109 78.2202C78.8707 78.9006 79.2387 80.0517 80.0191 80.9563C84.0799 78.6731 84.6808 74.1783 84.6808 74.1783Z" fill="url(#paint34_linear_17_2480)"/>
<path d="M84.607 74.2713C84.6387 74.3722 84.2713 74.5258 84.055 74.1133C84.0474 73.9156 83.9272 73.0685 84.0453 72.9075C84.6746 72.0497 85.8944 70.9744 85.8944 70.9744C86.1006 71.1778 85.9307 71.3776 85.9307 71.3776L85.3389 71.9941C85.4627 72.2179 85.6137 72.4067 85.6845 72.6772C85.7381 72.8821 85.7053 73.1011 85.6018 73.2875C85.4979 73.4747 85.3562 73.7179 85.2222 73.9083C84.9686 74.2686 84.607 74.2713 84.607 74.2713Z" fill="url(#paint35_linear_17_2480)"/>
<path d="M85.0802 72.394L84.5409 72.8512L84.3716 73.3064L84.8524 73.8398C84.8524 73.8398 85.0141 72.9367 85.1342 72.7412C85.2543 72.5457 85.192 72.4512 85.0802 72.394Z" fill="url(#paint36_linear_17_2480)"/>
<path d="M70.2548 82.524L69.0709 79.5352C69.0709 79.5352 66.1877 81.4941 65.7136 83.9778C66.2584 84.018 67.2497 84.1597 68.2199 84.6496C68.4331 83.4768 70.2548 82.524 70.2548 82.524Z" fill="#173F6F"/>
<path d="M72.7742 85.3363C72.7742 85.3363 69.5372 87.1656 68.4449 85.6036C68.2182 85.2792 68.1639 84.9569 68.2198 84.6496C67.2495 84.1596 66.2582 84.0179 65.7134 83.9778C65.5705 84.7265 65.646 85.5229 66.086 86.3278C67.9992 89.8276 73.2025 86.1344 73.2025 86.1344L72.7742 85.3363Z" fill="url(#paint37_linear_17_2480)"/>
<path d="M72.3852 87.6508L74.1519 81.4813C74.1719 81.4113 74.2316 81.3602 74.304 81.3518C74.6241 81.3145 75.5516 81.2096 76.6225 81.1191C77.9124 81.01 79.4103 80.9215 80.3055 80.9967C80.4327 81.0074 80.5096 81.142 80.453 81.2565C79.944 82.2863 77.8502 86.4754 76.8017 87.8477C76.7669 87.8932 76.7132 87.9197 76.656 87.9192L72.5571 87.8811C72.4378 87.8799 72.3524 87.7655 72.3852 87.6508Z" fill="url(#paint38_linear_17_2480)"/>
<path d="M76.8058 80.5841L78.0866 80.3707C78.1548 80.3593 78.2107 80.4245 78.189 80.4902L78.0622 80.8744C78.0511 80.9078 78.022 80.9321 77.9871 80.9367L76.7546 81.1014C76.6908 81.1099 76.6382 81.0519 76.6529 80.9893L76.7313 80.6539C76.7398 80.6177 76.7692 80.5902 76.8058 80.5841Z" fill="#7D97F4"/>
<path d="M75.8468 81.6685L75.9523 81.1189C75.9629 81.0637 76.0084 81.0221 76.0643 81.0164L78.6513 80.7538C78.7383 80.745 78.8081 80.8248 78.7876 80.9099L78.6231 81.5948C78.6099 81.6496 78.5622 81.6892 78.5059 81.692L75.9779 81.8193C75.8957 81.8234 75.8313 81.7493 75.8468 81.6685Z" fill="#7D97F4"/>
<path d="M72.812 86.1602C72.812 86.1602 72.5659 85.1483 72.6652 84.7892C72.7645 84.4302 72.9568 83.9686 73.5979 84.0712C74.239 84.1737 74.9952 84.4438 74.9952 84.4438C74.9952 84.4438 74.957 84.9115 74.4698 84.7605L74.7719 84.9944C74.7719 84.9944 74.7287 85.3688 74.3171 85.1688L74.5981 85.4788C74.5981 85.4788 74.4214 85.7863 74.1186 85.5891C73.8159 85.3919 73.6707 86.282 72.812 86.1602Z" fill="url(#paint39_linear_17_2480)"/>
<path d="M72.4366 76.2188L71.4545 79.059C71.4382 79.106 71.4575 79.1581 71.5011 79.1822C71.7688 79.3302 72.7334 79.7581 73.8957 79.0211C74.0168 78.9443 74.0992 78.8192 74.1176 78.677L74.4356 76.2188H72.4366Z" fill="url(#paint40_linear_17_2480)"/>
<path d="M74.5736 73.5886C74.5736 73.5886 75.6521 75.6187 75.5138 76.4388C75.3756 77.2589 74.039 77.2 72.8718 76.5339L72.0562 74.3419L74.5736 73.5886Z" fill="url(#paint41_linear_17_2480)"/>
<path d="M72.9235 75.4575C72.9709 75.4365 72.9884 75.3784 72.96 75.335C72.8736 75.203 72.7116 74.9337 72.6599 74.6979C72.6599 74.6979 72.466 74.5738 73.1534 74.4093C73.8407 74.2447 74.8657 73.9894 75.0812 73.4043C75.2912 72.8339 74.7393 71.3994 73.8588 72.5424C73.8253 72.5859 73.7597 72.5869 73.7262 72.5434C73.5819 72.3555 73.2024 71.9655 72.6755 72.2019C72.1825 72.4231 72.127 72.7845 72.1337 72.9666C72.1357 73.0202 72.0878 73.0618 72.0352 73.0517C71.7859 73.0042 71.1877 72.9634 70.9085 73.577C70.6785 74.0825 70.828 74.3687 70.9641 74.5085C71.0082 74.5538 70.9889 74.6285 70.9284 74.6471C70.7646 74.6973 70.553 74.8362 70.5742 75.2199C70.6035 75.7506 71.1968 75.7038 71.3657 75.6797C71.3934 75.6757 71.4213 75.6852 71.4401 75.7059C71.5849 75.8662 72.2374 76.5467 72.9437 76.6287C73.0049 76.6359 73.0522 76.5754 73.0322 76.5173L72.7265 75.6287C72.7124 75.5875 72.7321 75.5422 72.772 75.5245L72.9235 75.4575Z" fill="#173F6F"/>
<path d="M73.0465 75.5836C73.0465 75.5836 72.2786 75.0568 72.2225 75.5004C72.1664 75.9442 72.914 76.1431 73.2842 75.9777L73.0465 75.5836Z" fill="url(#paint42_linear_17_2480)"/>
<path d="M129.2 45.5518H106.209C105.536 45.5518 104.99 45.0062 104.99 44.3331V23.9573H130.418V44.3331C130.418 45.0061 129.873 45.5518 129.2 45.5518Z" fill="#73431C"/>
<path d="M129.2 42.8826H106.209C105.536 42.8826 104.99 42.337 104.99 41.6639V23.8997H130.418V41.6639C130.418 42.337 129.873 42.8826 129.2 42.8826Z" fill="#ED8936"/>
<path d="M107.33 24.7297H106.454V26.218H107.33V24.7297Z" fill="url(#paint43_linear_17_2480)"/>
<path d="M109.299 24.7297H108.424V26.218H109.299V24.7297Z" fill="url(#paint44_linear_17_2480)"/>
<path d="M111.039 24.7297H110.164V26.218H111.039V24.7297Z" fill="url(#paint45_linear_17_2480)"/>
<path d="M113.009 24.7297H112.134V26.218H113.009V24.7297Z" fill="url(#paint46_linear_17_2480)"/>
<path d="M114.749 24.7297H113.874V26.218H114.749V24.7297Z" fill="url(#paint47_linear_17_2480)"/>
<path d="M116.719 24.7297H115.843V26.218H116.719V24.7297Z" fill="url(#paint48_linear_17_2480)"/>
<path d="M118.459 24.7297H117.583V26.218H118.459V24.7297Z" fill="url(#paint49_linear_17_2480)"/>
<path d="M120.428 24.7297H119.553V26.218H120.428V24.7297Z" fill="url(#paint50_linear_17_2480)"/>
<path d="M122.168 24.7297H121.293V26.218H122.168V24.7297Z" fill="url(#paint51_linear_17_2480)"/>
<path d="M124.138 24.7297H123.263V26.218H124.138V24.7297Z" fill="url(#paint52_linear_17_2480)"/>
<path d="M125.878 24.7297H125.003V26.218H125.878V24.7297Z" fill="url(#paint53_linear_17_2480)"/>
<path d="M127.848 24.7297H126.972V26.218H127.848V24.7297Z" fill="url(#paint54_linear_17_2480)"/>
<g opacity="0.79">
<path d="M118.95 26.988H116.307V29.6304H118.95V26.988Z" fill="white"/>
<path d="M122.161 26.988H119.519V29.6304H122.161V26.988Z" fill="white"/>
<path d="M125.34 26.988H122.698V29.6304H125.34V26.988Z" fill="white"/>
<path d="M128.492 26.988H125.85V29.6304H128.492V26.988Z" fill="white"/>
</g>
<g opacity="0.79">
<path d="M109.41 30.3105H106.768V32.9529H109.41V30.3105Z" fill="white"/>
<path d="M112.589 30.3105H109.947V32.9529H112.589V30.3105Z" fill="white"/>
<path d="M115.741 30.3105H113.099V32.9529H115.741V30.3105Z" fill="white"/>
<path d="M118.946 30.3105H116.304V32.9529H118.946V30.3105Z" fill="white"/>
<path d="M122.158 30.3105H119.515V32.9529H122.158V30.3105Z" fill="white"/>
<path d="M125.336 30.3105H122.694V32.9529H125.336V30.3105Z" fill="white"/>
<path d="M128.489 30.3105H125.846V32.9529H128.489V30.3105Z" fill="white"/>
</g>
<path opacity="0.79" d="M109.489 33.4761H106.846V36.1184H109.489V33.4761Z" fill="white"/>
<path opacity="0.79" d="M112.667 33.4761H110.025V36.1184H112.667V33.4761Z" fill="white"/>
<path d="M115.82 33.4761H113.177V36.1184H115.82V33.4761Z" fill="url(#paint55_linear_17_2480)"/>
<path opacity="0.79" d="M119.025 33.4761H116.382V36.1184H119.025V33.4761Z" fill="white"/>
<path opacity="0.79" d="M122.236 33.4761H119.594V36.1184H122.236V33.4761Z" fill="white"/>
<path opacity="0.79" d="M125.415 33.4761H122.772V36.1184H125.415V33.4761Z" fill="white"/>
<path opacity="0.79" d="M128.567 33.4761H125.925V36.1184H128.567V33.4761Z" fill="white"/>
<g opacity="0.79">
<path d="M109.567 36.6025H106.925V39.2449H109.567V36.6025Z" fill="white"/>
<path d="M112.746 36.6025H110.104V39.2449H112.746V36.6025Z" fill="white"/>
<path d="M115.898 36.6025H113.256V39.2449H115.898V36.6025Z" fill="white"/>
<path d="M119.103 36.6025H116.461V39.2449H119.103V36.6025Z" fill="white"/>
<path d="M122.315 36.6025H119.672V39.2449H122.315V36.6025Z" fill="white"/>
<path d="M125.493 36.6025H122.851V39.2449H125.493V36.6025Z" fill="white"/>
<path d="M128.646 36.6025H126.003V39.2449H128.646V36.6025Z" fill="white"/>
</g>
<g opacity="0.79">
<path d="M109.567 39.7217H106.925V42.364H109.567V39.7217Z" fill="white"/>
<path d="M112.746 39.7217H110.104V42.364H112.746V39.7217Z" fill="white"/>
<path d="M115.898 39.7217H113.256V42.364H115.898V39.7217Z" fill="white"/>
</g>
<path d="M108.182 23.5452H107.058C106.8 23.5452 106.588 23.7569 106.588 24.0157V25.0613H106.928V24.3817C106.928 24.1229 107.139 23.9111 107.398 23.9111H108.522C108.564 23.9111 108.605 23.9173 108.644 23.9279C108.603 23.7107 108.411 23.5452 108.182 23.5452Z" fill="url(#paint56_linear_17_2480)"/>
<path d="M110.366 23.5452H109.242C108.983 23.5452 108.771 23.7569 108.771 24.0157V25.0613H109.111V24.3817C109.111 24.1229 109.323 23.9111 109.582 23.9111H110.706C110.748 23.9111 110.789 23.9173 110.828 23.9279C110.787 23.7107 110.595 23.5452 110.366 23.5452Z" fill="url(#paint57_linear_17_2480)"/>
<path d="M112.181 23.5452H111.057C110.798 23.5452 110.587 23.7569 110.587 24.0157V25.0613H110.926V24.3817C110.926 24.1229 111.138 23.9111 111.397 23.9111H112.521C112.563 23.9111 112.604 23.9173 112.643 23.9279C112.602 23.7107 112.41 23.5452 112.181 23.5452Z" fill="url(#paint58_linear_17_2480)"/>
<path d="M114.051 23.5452H112.927C112.668 23.5452 112.456 23.7569 112.456 24.0157V25.0613H112.796V24.3817C112.796 24.1229 113.008 23.9111 113.267 23.9111H114.391C114.433 23.9111 114.474 23.9173 114.513 23.9279C114.471 23.7107 114.28 23.5452 114.051 23.5452Z" fill="url(#paint59_linear_17_2480)"/>
<path d="M115.779 23.5452H114.655C114.397 23.5452 114.185 23.7569 114.185 24.0157V25.0613H114.525V24.3817C114.525 24.1229 114.736 23.9111 114.995 23.9111H116.119C116.161 23.9111 116.202 23.9173 116.241 23.9279C116.2 23.7107 116.008 23.5452 115.779 23.5452Z" fill="url(#paint60_linear_17_2480)"/>
<path d="M117.649 23.5452H116.525C116.266 23.5452 116.055 23.7569 116.055 24.0157V25.0613H116.394V24.3817C116.394 24.1229 116.606 23.9111 116.865 23.9111H117.989C118.031 23.9111 118.072 23.9173 118.111 23.9279C118.07 23.7107 117.878 23.5452 117.649 23.5452Z" fill="url(#paint61_linear_17_2480)"/>
<path d="M119.464 23.5452H118.34C118.081 23.5452 117.869 23.7569 117.869 24.0157V25.0613H118.209V24.3817C118.209 24.1229 118.421 23.9111 118.68 23.9111H119.804C119.846 23.9111 119.887 23.9173 119.926 23.9279C119.884 23.7107 119.693 23.5452 119.464 23.5452Z" fill="url(#paint62_linear_17_2480)"/>
<path d="M121.491 23.5452H120.367C120.108 23.5452 119.896 23.7569 119.896 24.0157V25.0613H120.236V24.3817C120.236 24.1229 120.448 23.9111 120.707 23.9111H121.831C121.873 23.9111 121.914 23.9173 121.953 23.9279C121.911 23.7107 121.72 23.5452 121.491 23.5452Z" fill="url(#paint63_linear_17_2480)"/>
<path d="M123.238 23.5283H122.114C121.856 23.5283 121.644 23.74 121.644 23.9989V25.0445H121.984V24.3648C121.984 24.1061 122.195 23.8943 122.454 23.8943H123.578C123.62 23.8943 123.661 23.9005 123.7 23.911C123.659 23.6939 123.467 23.5283 123.238 23.5283Z" fill="url(#paint64_linear_17_2480)"/>
<path d="M125.053 23.5283H123.929C123.671 23.5283 123.459 23.74 123.459 23.9989V25.0445H123.799V24.3648C123.799 24.1061 124.01 23.8943 124.269 23.8943H125.393C125.435 23.8943 125.476 23.9005 125.515 23.911C125.474 23.6939 125.282 23.5283 125.053 23.5283Z" fill="url(#paint65_linear_17_2480)"/>
<path d="M128.648 23.5708H127.524C127.265 23.5708 127.053 23.7825 127.053 24.0413V25.0869H127.393V24.4073C127.393 24.1485 127.605 23.9368 127.864 23.9368H128.988C129.03 23.9368 129.071 23.9429 129.11 23.9535C129.068 23.7364 128.877 23.5708 128.648 23.5708Z" fill="url(#paint66_linear_17_2480)"/>
<path d="M127.08 23.5283H125.956C125.697 23.5283 125.486 23.74 125.486 23.9989V25.0445H125.825V24.3648C125.825 24.1061 126.037 23.8943 126.296 23.8943H127.42C127.462 23.8943 127.503 23.9005 127.542 23.911C127.501 23.6939 127.309 23.5283 127.08 23.5283Z" fill="url(#paint67_linear_17_2480)"/>
<path d="M91.9187 24.7986C91.8603 24.7986 91.8041 24.7719 91.7672 24.7245C91.721 24.665 91.7138 24.5839 91.7489 24.5173C91.7678 24.4814 93.6577 20.8933 95.3219 17.7524C95.3714 17.6589 95.4874 17.6233 95.5809 17.6725C97.5691 18.7217 99.0128 20.5791 99.5421 22.7687C99.5541 22.8181 99.5459 22.8703 99.5194 22.9138C99.4928 22.9572 99.4501 22.9883 99.4006 23.0002L91.9637 24.7932C91.9487 24.7969 91.9336 24.7986 91.9187 24.7986ZM95.5701 18.1036C94.2455 20.6042 92.8032 23.3399 92.2862 24.3207L99.1216 22.6728C98.5997 20.7331 97.3184 19.0845 95.5701 18.1036Z" fill="#91B3FA"/>
<path d="M89.9163 33.9931C89.4296 33.9931 88.9364 33.9475 88.4411 33.8528C84.195 33.0411 81.4008 28.9261 82.2126 24.6799C82.6058 22.6229 83.7765 20.8423 85.509 19.6659C87.2415 18.4895 89.3285 18.0581 91.3854 18.4513C92.1527 18.598 92.8896 18.8559 93.5755 19.2179C93.6206 19.2416 93.6543 19.2824 93.6694 19.331C93.6843 19.3797 93.6794 19.4324 93.6555 19.4774C92.3067 22.0231 90.8096 24.8627 90.2809 25.8661L97.3054 24.1725C97.4083 24.1476 97.5119 24.211 97.5368 24.314C97.7998 25.4023 97.8258 26.516 97.614 27.6241C96.8969 31.375 93.6019 33.9929 89.9163 33.9931ZM89.8976 18.6934C88.4189 18.6934 86.9747 19.1344 85.7245 19.9833C84.0768 21.1022 82.9634 22.7957 82.5894 24.752C81.8174 28.7904 84.4747 32.7039 88.5131 33.4759C92.5518 34.2478 96.465 31.5905 97.2371 27.5521C97.4265 26.5615 97.4161 25.5664 97.2064 24.5911L89.9582 26.3386C89.8849 26.3563 89.8081 26.3294 89.7618 26.2699C89.7155 26.2104 89.7083 26.1293 89.7435 26.0627C89.762 26.0275 91.584 22.5682 93.2253 19.4698C92.6222 19.1712 91.9798 18.9556 91.3133 18.8282C90.8414 18.738 90.3676 18.6934 89.8976 18.6934Z" fill="#91B3FA"/>
<path d="M92.694 23.9627C92.6884 23.9627 92.6827 23.9617 92.6772 23.9595C92.6534 23.9503 92.6406 23.9248 92.6487 23.9005C92.6724 23.8291 95.1076 19.5747 95.5955 18.7226C95.602 18.7113 95.6127 18.7032 95.6252 18.7C95.6378 18.6968 95.6511 18.6987 95.6622 18.7056C95.678 18.7153 97.251 19.6915 98.0932 21.2012C98.1061 21.2243 98.0978 21.2536 98.0747 21.2665C98.0515 21.2794 98.0223 21.2711 98.0094 21.248C97.2558 19.897 95.9075 18.9789 95.6537 18.814C94.6495 20.5679 92.7818 23.8356 92.7386 23.9334C92.7308 23.9514 92.7127 23.9627 92.694 23.9627Z" fill="#91B3FA"/>
<defs>
<linearGradient id="paint0_linear_17_2480" x1="54.2908" y1="-12.2149" x2="53.4136" y2="22.296" gradientUnits="userSpaceOnUse">
<stop stop-color="#E1473D"/>
<stop offset="1" stop-color="#E9605A"/>
</linearGradient>
<linearGradient id="paint1_linear_17_2480" x1="45.5154" y1="27.146" x2="60.2773" y2="27.146" gradientUnits="userSpaceOnUse">
<stop stop-color="#E1473D"/>
<stop offset="1" stop-color="#E9605A"/>
</linearGradient>
<linearGradient id="paint2_linear_17_2480" x1="74.1164" y1="61.5123" x2="80.9794" y2="61.5123" gradientUnits="userSpaceOnUse">
<stop stop-color="#DAE3FE"/>
<stop offset="1" stop-color="#E9EFFD"/>
</linearGradient>
<linearGradient id="paint3_linear_17_2480" x1="82.9942" y1="58.5295" x2="112.075" y2="58.5295" gradientUnits="userSpaceOnUse">
<stop stop-color="#DAE3FE"/>
<stop offset="1" stop-color="#E9EFFD"/>
</linearGradient>
<linearGradient id="paint4_linear_17_2480" x1="83.5273" y1="63.1979" x2="103.047" y2="63.1979" gradientUnits="userSpaceOnUse">
<stop stop-color="#DAE3FE"/>
<stop offset="1" stop-color="#E9EFFD"/>
</linearGradient>
<linearGradient id="paint5_linear_17_2480" x1="74.1164" y1="74.8577" x2="80.9794" y2="74.8577" gradientUnits="userSpaceOnUse">
<stop stop-color="#DAE3FE"/>
<stop offset="1" stop-color="#E9EFFD"/>
</linearGradient>
<linearGradient id="paint6_linear_17_2480" x1="82.9942" y1="71.8749" x2="112.075" y2="71.8749" gradientUnits="userSpaceOnUse">
<stop stop-color="#DAE3FE"/>
<stop offset="1" stop-color="#E9EFFD"/>
</linearGradient>
<linearGradient id="paint7_linear_17_2480" x1="83.5273" y1="76.5433" x2="103.047" y2="76.5433" gradientUnits="userSpaceOnUse">
<stop stop-color="#DAE3FE"/>
<stop offset="1" stop-color="#E9EFFD"/>
</linearGradient>
<linearGradient id="paint8_linear_17_2480" x1="74.1164" y1="88.2032" x2="80.9794" y2="88.2032" gradientUnits="userSpaceOnUse">
<stop stop-color="#DAE3FE"/>
<stop offset="1" stop-color="#E9EFFD"/>
</linearGradient>
<linearGradient id="paint9_linear_17_2480" x1="82.9942" y1="85.2204" x2="112.075" y2="85.2204" gradientUnits="userSpaceOnUse">
<stop stop-color="#DAE3FE"/>
<stop offset="1" stop-color="#E9EFFD"/>
</linearGradient>
<linearGradient id="paint10_linear_17_2480" x1="83.5273" y1="89.8887" x2="103.047" y2="89.8887" gradientUnits="userSpaceOnUse">
<stop stop-color="#DAE3FE"/>
<stop offset="1" stop-color="#E9EFFD"/>
</linearGradient>
<linearGradient id="paint11_linear_17_2480" x1="127.85" y1="87.433" x2="128.345" y2="87.433" gradientUnits="userSpaceOnUse">
<stop stop-color="#DAE3FE"/>
<stop offset="1" stop-color="#E9EFFD"/>
</linearGradient>
<linearGradient id="paint12_linear_17_2480" x1="41.3259" y1="204.765" x2="3.57669" y2="270.881" gradientUnits="userSpaceOnUse">
<stop stop-color="#09005D"/>
<stop offset="1" stop-color="#1A0F91"/>
</linearGradient>
<linearGradient id="paint13_linear_17_2480" x1="88.129" y1="38.843" x2="83.7322" y2="53.0097" gradientUnits="userSpaceOnUse">
<stop stop-color="#FF928E"/>
<stop offset="1" stop-color="#FEB3B1"/>
</linearGradient>
<linearGradient id="paint14_linear_17_2480" x1="91.9717" y1="40.0358" x2="87.575" y2="54.2024" gradientUnits="userSpaceOnUse">
<stop stop-color="#FF928E"/>
<stop offset="1" stop-color="#FEB3B1"/>
</linearGradient>
<linearGradient id="paint15_linear_17_2480" x1="97.2261" y1="41.6664" x2="92.8293" y2="55.8331" gradientUnits="userSpaceOnUse">
<stop stop-color="#FF928E"/>
<stop offset="1" stop-color="#FEB3B1"/>
</linearGradient>
<linearGradient id="paint16_linear_17_2480" x1="101.187" y1="42.8957" x2="96.79" y2="57.0623" gradientUnits="userSpaceOnUse">
<stop stop-color="#FF928E"/>
<stop offset="1" stop-color="#FEB3B1"/>
</linearGradient>
<linearGradient id="paint17_linear_17_2480" x1="131.112" y1="108.552" x2="127.217" y2="108.552" gradientUnits="userSpaceOnUse">
<stop stop-color="#4042E2"/>
<stop offset="1" stop-color="#4F52FF"/>
</linearGradient>
<linearGradient id="paint18_linear_17_2480" x1="131.112" y1="107.789" x2="127.327" y2="107.789" gradientUnits="userSpaceOnUse">
<stop stop-color="#09005D"/>
<stop offset="1" stop-color="#1A0F91"/>
</linearGradient>
<linearGradient id="paint19_linear_17_2480" x1="130.753" y1="106.723" x2="129.656" y2="106.723" gradientUnits="userSpaceOnUse">
<stop stop-color="#FF928E"/>
<stop offset="1" stop-color="#FEB3B1"/>
</linearGradient>
<linearGradient id="paint20_linear_17_2480" x1="138.879" y1="108.469" x2="137.385" y2="108.469" gradientUnits="userSpaceOnUse">
<stop stop-color="#4042E2"/>
<stop offset="1" stop-color="#4F52FF"/>
</linearGradient>
<linearGradient id="paint21_linear_17_2480" x1="138.867" y1="107.319" x2="136.676" y2="107.319" gradientUnits="userSpaceOnUse">
<stop stop-color="#09005D"/>
<stop offset="1" stop-color="#1A0F91"/>
</linearGradient>
<linearGradient id="paint22_linear_17_2480" x1="137.728" y1="105.808" x2="136.417" y2="105.808" gradientUnits="userSpaceOnUse">
<stop stop-color="#FF928E"/>
<stop offset="1" stop-color="#FEB3B1"/>
</linearGradient>
<linearGradient id="paint23_linear_17_2480" x1="127.589" y1="93.7261" x2="142.104" y2="114.88" gradientUnits="userSpaceOnUse">
<stop stop-color="#09005D"/>
<stop offset="1" stop-color="#1A0F91"/>
</linearGradient>
<linearGradient id="paint24_linear_17_2480" x1="128.917" y1="93.9219" x2="130.672" y2="93.9219" gradientUnits="userSpaceOnUse">
<stop stop-color="#4042E2"/>
<stop offset="1" stop-color="#4F52FF"/>
</linearGradient>
<linearGradient id="paint25_linear_17_2480" x1="126.543" y1="77.2608" x2="126.583" y2="84.126" gradientUnits="userSpaceOnUse">
<stop stop-color="#FF928E"/>
<stop offset="1" stop-color="#FEB3B1"/>
</linearGradient>
<linearGradient id="paint26_linear_17_2480" x1="127.321" y1="75.086" x2="123.94" y2="78.1042" gradientUnits="userSpaceOnUse">
<stop stop-color="#FF928E"/>
<stop offset="1" stop-color="#FEB3B1"/>
</linearGradient>
<linearGradient id="paint27_linear_17_2480" x1="128.708" y1="80.3428" x2="126.423" y2="77.2035" gradientUnits="userSpaceOnUse">
<stop stop-color="#FF928E"/>
<stop offset="1" stop-color="#FEB3B1"/>
</linearGradient>
<linearGradient id="paint28_linear_17_2480" x1="129.877" y1="88.776" x2="134.545" y2="92.9097" gradientUnits="userSpaceOnUse">
<stop stop-color="#FF928E"/>
<stop offset="1" stop-color="#FEB3B1"/>
</linearGradient>
<linearGradient id="paint29_linear_17_2480" x1="164.59" y1="6.30614" x2="159.936" y2="15.1789" gradientUnits="userSpaceOnUse">
<stop stop-color="#FF928E"/>
<stop offset="1" stop-color="#FEB3B1"/>
</linearGradient>
<linearGradient id="paint30_linear_17_2480" x1="78.1723" y1="106.873" x2="65.0169" y2="121.182" gradientUnits="userSpaceOnUse">
<stop stop-color="#4042E2"/>
<stop offset="1" stop-color="#4F52FF"/>
</linearGradient>
<linearGradient id="paint31_linear_17_2480" x1="73.9023" y1="107.936" x2="75.0709" y2="107.936" gradientUnits="userSpaceOnUse">
<stop stop-color="#FF928E"/>
<stop offset="1" stop-color="#FEB3B1"/>
</linearGradient>
<linearGradient id="paint32_linear_17_2480" x1="75.2214" y1="104.16" x2="62.066" y2="118.469" gradientUnits="userSpaceOnUse">
<stop stop-color="#4042E2"/>
<stop offset="1" stop-color="#4F52FF"/>
</linearGradient>
<linearGradient id="paint33_linear_17_2480" x1="69.6912" y1="107.876" x2="70.7001" y2="107.876" gradientUnits="userSpaceOnUse">
<stop stop-color="#FF928E"/>
<stop offset="1" stop-color="#FEB3B1"/>
</linearGradient>
<linearGradient id="paint34_linear_17_2480" x1="87.2287" y1="69.7536" x2="77.0954" y2="83.2325" gradientUnits="userSpaceOnUse">
<stop stop-color="#FF928E"/>
<stop offset="1" stop-color="#FEB3B1"/>
</linearGradient>
<linearGradient id="paint35_linear_17_2480" x1="359.509" y1="437.717" x2="369.642" y2="451.196" gradientUnits="userSpaceOnUse">
<stop stop-color="#FF928E"/>
<stop offset="1" stop-color="#FEB3B1"/>
</linearGradient>
<linearGradient id="paint36_linear_17_2480" x1="87.2042" y1="72.0393" x2="81.9679" y2="74.5605" gradientUnits="userSpaceOnUse">
<stop stop-color="#FF928E"/>
<stop offset="1" stop-color="#FEB3B1"/>
</linearGradient>
<linearGradient id="paint37_linear_17_2480" x1="66.551" y1="88.5998" x2="71.6419" y2="82.3938" gradientUnits="userSpaceOnUse">
<stop stop-color="#FF928E"/>
<stop offset="1" stop-color="#FEB3B1"/>
</linearGradient>
<linearGradient id="paint38_linear_17_2480" x1="72.3782" y1="84.4439" x2="80.4719" y2="84.4439" gradientUnits="userSpaceOnUse">
<stop stop-color="#DAE3FE"/>
<stop offset="1" stop-color="#E9EFFD"/>
</linearGradient>
<linearGradient id="paint39_linear_17_2480" x1="69.8322" y1="86.5156" x2="74.3898" y2="84.6247" gradientUnits="userSpaceOnUse">
<stop stop-color="#FF928E"/>
<stop offset="1" stop-color="#FEB3B1"/>
</linearGradient>
<linearGradient id="paint40_linear_17_2480" x1="74.579" y1="74.2863" x2="71.0881" y2="82.8196" gradientUnits="userSpaceOnUse">
<stop stop-color="#FF928E"/>
<stop offset="1" stop-color="#FEB3B1"/>
</linearGradient>
<linearGradient id="paint41_linear_17_2480" x1="89.2713" y1="-65.7836" x2="88.7023" y2="-60.5965" gradientUnits="userSpaceOnUse">
<stop stop-color="#FF928E"/>
<stop offset="1" stop-color="#FEB3B1"/>
</linearGradient>
<linearGradient id="paint42_linear_17_2480" x1="88.289" y1="-65.8908" x2="87.72" y2="-60.7037" gradientUnits="userSpaceOnUse">
<stop stop-color="#FF928E"/>
<stop offset="1" stop-color="#FEB3B1"/>
</linearGradient>
<linearGradient id="paint43_linear_17_2480" x1="143.037" y1="14.2933" x2="108.492" y2="24.9791" gradientUnits="userSpaceOnUse">
<stop stop-color="#E1473D"/>
<stop offset="1" stop-color="#E9605A"/>
</linearGradient>
<linearGradient id="paint44_linear_17_2480" x1="143.209" y1="14.8495" x2="108.664" y2="25.5352" gradientUnits="userSpaceOnUse">
<stop stop-color="#E1473D"/>
<stop offset="1" stop-color="#E9605A"/>
</linearGradient>
<linearGradient id="paint45_linear_17_2480" x1="143.361" y1="15.3407" x2="108.816" y2="26.0263" gradientUnits="userSpaceOnUse">
<stop stop-color="#E1473D"/>
<stop offset="1" stop-color="#E9605A"/>
</linearGradient>
<linearGradient id="paint46_linear_17_2480" x1="143.533" y1="15.8968" x2="108.988" y2="26.5823" gradientUnits="userSpaceOnUse">
<stop stop-color="#E1473D"/>
<stop offset="1" stop-color="#E9605A"/>
</linearGradient>
<linearGradient id="paint47_linear_17_2480" x1="143.685" y1="16.388" x2="109.14" y2="27.0735" gradientUnits="userSpaceOnUse">
<stop stop-color="#E1473D"/>
<stop offset="1" stop-color="#E9605A"/>
</linearGradient>
<linearGradient id="paint48_linear_17_2480" x1="143.857" y1="16.9441" x2="109.312" y2="27.6296" gradientUnits="userSpaceOnUse">
<stop stop-color="#E1473D"/>
<stop offset="1" stop-color="#E9605A"/>
</linearGradient>
<linearGradient id="paint49_linear_17_2480" x1="144.009" y1="17.4353" x2="109.464" y2="28.1208" gradientUnits="userSpaceOnUse">
<stop stop-color="#E1473D"/>
<stop offset="1" stop-color="#E9605A"/>
</linearGradient>
<linearGradient id="paint50_linear_17_2480" x1="144.181" y1="17.9914" x2="109.636" y2="28.6771" gradientUnits="userSpaceOnUse">
<stop stop-color="#E1473D"/>
<stop offset="1" stop-color="#E9605A"/>
</linearGradient>
<linearGradient id="paint51_linear_17_2480" x1="144.333" y1="18.4826" x2="109.788" y2="29.1681" gradientUnits="userSpaceOnUse">
<stop stop-color="#E1473D"/>
<stop offset="1" stop-color="#E9605A"/>
</linearGradient>
<linearGradient id="paint52_linear_17_2480" x1="144.505" y1="19.0387" x2="109.96" y2="29.7242" gradientUnits="userSpaceOnUse">
<stop stop-color="#E1473D"/>
<stop offset="1" stop-color="#E9605A"/>
</linearGradient>
<linearGradient id="paint53_linear_17_2480" x1="144.657" y1="19.5299" x2="110.112" y2="30.2154" gradientUnits="userSpaceOnUse">
<stop stop-color="#E1473D"/>
<stop offset="1" stop-color="#E9605A"/>
</linearGradient>
<linearGradient id="paint54_linear_17_2480" x1="144.829" y1="20.086" x2="110.283" y2="30.7715" gradientUnits="userSpaceOnUse">
<stop stop-color="#E1473D"/>
<stop offset="1" stop-color="#E9605A"/>
</linearGradient>
<linearGradient id="paint55_linear_17_2480" x1="113.178" y1="34.7973" x2="115.82" y2="34.7973" gradientUnits="userSpaceOnUse">
<stop stop-color="#E1473D"/>
<stop offset="1" stop-color="#E9605A"/>
</linearGradient>
<linearGradient id="paint56_linear_17_2480" x1="106.588" y1="24.3032" x2="108.644" y2="24.3032" gradientUnits="userSpaceOnUse">
<stop stop-color="#E1473D"/>
<stop offset="1" stop-color="#E9605A"/>
</linearGradient>
<linearGradient id="paint57_linear_17_2480" x1="108.771" y1="24.3032" x2="110.828" y2="24.3032" gradientUnits="userSpaceOnUse">
<stop stop-color="#E1473D"/>
<stop offset="1" stop-color="#E9605A"/>
</linearGradient>
<linearGradient id="paint58_linear_17_2480" x1="110.587" y1="24.3032" x2="112.643" y2="24.3032" gradientUnits="userSpaceOnUse">
<stop stop-color="#E1473D"/>
<stop offset="1" stop-color="#E9605A"/>
</linearGradient>
<linearGradient id="paint59_linear_17_2480" x1="112.456" y1="24.3032" x2="114.513" y2="24.3032" gradientUnits="userSpaceOnUse">
<stop stop-color="#E1473D"/>
<stop offset="1" stop-color="#E9605A"/>
</linearGradient>
<linearGradient id="paint60_linear_17_2480" x1="114.185" y1="24.3032" x2="116.241" y2="24.3032" gradientUnits="userSpaceOnUse">
<stop stop-color="#E1473D"/>
<stop offset="1" stop-color="#E9605A"/>
</linearGradient>
<linearGradient id="paint61_linear_17_2480" x1="116.055" y1="24.3032" x2="118.111" y2="24.3032" gradientUnits="userSpaceOnUse">
<stop stop-color="#E1473D"/>
<stop offset="1" stop-color="#E9605A"/>
</linearGradient>
<linearGradient id="paint62_linear_17_2480" x1="117.869" y1="24.3032" x2="119.926" y2="24.3032" gradientUnits="userSpaceOnUse">
<stop stop-color="#E1473D"/>
<stop offset="1" stop-color="#E9605A"/>
</linearGradient>
<linearGradient id="paint63_linear_17_2480" x1="119.896" y1="24.3032" x2="121.953" y2="24.3032" gradientUnits="userSpaceOnUse">
<stop stop-color="#E1473D"/>
<stop offset="1" stop-color="#E9605A"/>
</linearGradient>
<linearGradient id="paint64_linear_17_2480" x1="121.644" y1="24.2864" x2="123.7" y2="24.2864" gradientUnits="userSpaceOnUse">
<stop stop-color="#E1473D"/>
<stop offset="1" stop-color="#E9605A"/>
</linearGradient>
<linearGradient id="paint65_linear_17_2480" x1="123.459" y1="24.2864" x2="125.515" y2="24.2864" gradientUnits="userSpaceOnUse">
<stop stop-color="#E1473D"/>
<stop offset="1" stop-color="#E9605A"/>
</linearGradient>
<linearGradient id="paint66_linear_17_2480" x1="127.053" y1="24.3289" x2="129.11" y2="24.3289" gradientUnits="userSpaceOnUse">
<stop stop-color="#E1473D"/>
<stop offset="1" stop-color="#E9605A"/>
</linearGradient>
<linearGradient id="paint67_linear_17_2480" x1="125.486" y1="24.2864" x2="127.542" y2="24.2864" gradientUnits="userSpaceOnUse">
<stop stop-color="#E1473D"/>
<stop offset="1" stop-color="#E9605A"/>
</linearGradient>
</defs>
</svg>
