<svg width="127" height="127" viewBox="0 0 127 127" fill="none" xmlns="http://www.w3.org/2000/svg">
<path d="M45.8035 46.5847C47.0285 55.017 41.1705 62.8481 32.7192 64.0767C24.2673 65.3048 16.4225 59.465 15.1972 51.0325C13.9717 42.6004 19.8297 34.7691 28.2813 33.541C36.7329 32.3129 44.5779 38.1529 45.8035 46.5847Z" fill="#F5F5F5"/>
<path d="M42.162 47.1139C43.0957 53.5394 38.6317 59.5073 32.1908 60.4436C25.7506 61.3796 19.7719 56.9292 18.8382 50.5038C17.9048 44.0779 22.3688 38.1096 28.8092 37.1739C35.2499 36.2379 41.2281 40.6882 42.162 47.1139Z" fill="#EBEBEB"/>
<path d="M42.1061 46.749C42.0358 46.762 41.9116 46.2573 41.5941 45.3914C41.273 44.5313 40.7333 43.2987 39.7295 42.0124C39.2283 41.3723 38.6149 40.7218 37.8776 40.1176C37.1359 39.5207 36.2779 38.9619 35.3025 38.526C34.8161 38.3063 34.3043 38.11 33.7671 37.9583C33.2311 37.8039 32.6741 37.6761 32.0988 37.6037C31.5248 37.5296 30.935 37.4854 30.3363 37.5009C29.7379 37.5151 29.1326 37.5727 28.526 37.6761C27.921 37.7879 27.332 37.9421 26.7656 38.1343C26.1979 38.3261 25.6594 38.5705 25.1455 38.8377C24.6302 39.1041 24.1511 39.4155 23.701 39.745C23.2489 40.0721 22.8359 40.4333 22.4549 40.8067C21.6896 41.5519 21.076 42.3723 20.5857 43.1879C20.1016 44.0086 19.7496 44.8308 19.4994 45.6045C19.0003 47.1572 18.9182 48.5001 18.9131 49.418C18.9134 50.3401 18.9708 50.8567 18.8999 50.8684C18.8481 50.8788 18.6724 50.3815 18.5621 49.4366C18.4585 48.4975 18.4405 47.0894 18.8867 45.4254C19.1108 44.5966 19.4481 43.7096 19.935 42.8186C20.428 41.9329 21.0607 41.0381 21.8654 40.2212C22.2657 39.812 22.7026 39.4165 23.1839 39.0569C23.6629 38.6949 24.1753 38.353 24.7277 38.0602C25.2791 37.766 25.859 37.4986 26.4704 37.2883C27.081 37.0772 27.7163 36.9096 28.3686 36.7894C29.0223 36.6774 29.6761 36.6167 30.3218 36.6048C30.968 36.5918 31.6045 36.6436 32.2235 36.73C32.843 36.8146 33.4419 36.9596 34.016 37.1346C34.5916 37.3066 35.1382 37.5275 35.6548 37.7737C36.6911 38.2636 37.5936 38.8857 38.3617 39.5476C39.1249 40.2164 39.748 40.9332 40.2436 41.6342C41.2357 43.0429 41.7038 44.3713 41.9304 45.2885C42.1524 46.2131 42.1585 46.7404 42.1061 46.749Z" fill="#E0E0E0"/>
<path d="M32.8305 55.5731L33.1553 57.6003L31.3456 57.8896L31.0299 55.9173C29.2209 56.0953 27.4119 55.8101 26.292 55.1911L26.9333 52.8238C27.9458 53.3488 29.3265 53.6285 30.6504 53.5467L30.166 50.5241C28.0791 50.3577 25.7279 50.0473 25.3136 47.4591C25.0065 45.5406 26.1363 43.6709 28.9432 42.8876L28.6217 40.8784L30.4317 40.5886L30.7474 42.5617C32.1221 42.453 33.5008 42.6031 34.5975 43.0771L34.0494 45.4482C33.0423 45.0712 32.0519 44.9142 31.1294 44.9501L31.6222 48.027C33.706 48.1756 36.0215 48.4921 36.4299 51.0435C36.7314 52.9254 35.6166 54.7743 32.8305 55.5731ZM29.7403 47.8637L29.3283 45.2942C28.4043 45.6648 28.1083 46.2508 28.2036 46.8479C28.3054 47.4809 28.9034 47.7382 29.7403 47.8637ZM33.5516 51.727C33.45 51.0933 32.8703 50.834 32.0484 50.6864L32.4482 53.184C33.3214 52.8403 33.644 52.3062 33.5516 51.727Z" fill="#E0E0E0"/>
<path d="M101.954 32.6813C105.164 37.9767 103.463 44.8773 98.1563 48.0947C92.8489 51.3122 85.9442 49.6279 82.7344 44.3325C79.5243 39.0376 81.2249 32.1369 86.5322 28.9195C91.8395 25.7019 98.7443 27.3864 101.954 32.6813Z" fill="#F5F5F5"/>
<path d="M99.6675 34.0676C102.114 38.1023 100.818 43.3614 96.7732 45.8133C92.729 48.2649 87.4668 46.9814 85.0211 42.9464C82.5751 38.9111 83.8707 33.652 87.9152 31.2004C91.9596 28.7488 97.2212 30.0323 99.6675 34.0676Z" fill="#EBEBEB"/>
<path d="M99.5267 33.8389C99.4833 33.8673 99.2572 33.5648 98.7992 33.0756C98.3405 32.5912 97.6301 31.9191 96.5938 31.3431C96.0771 31.0568 95.4822 30.7952 94.8175 30.6001C94.152 30.4109 93.4195 30.2801 92.6433 30.2648C92.2557 30.2557 91.8574 30.2694 91.4548 30.3202C91.0525 30.3687 90.6435 30.4411 90.2382 30.5557C89.833 30.6687 89.4259 30.8064 89.0296 30.9865C88.6334 31.1655 88.2445 31.3758 87.8681 31.6169C87.4947 31.8633 87.1444 32.1333 86.8201 32.4223C86.4947 32.7116 86.2036 33.0276 85.9354 33.352C85.6659 33.6763 85.4338 34.0205 85.226 34.3685C85.0162 34.7157 84.8422 35.0743 84.6931 35.4322C84.3921 36.1477 84.214 36.8706 84.1173 37.5554C84.0261 38.2417 84.0233 38.8917 84.0754 39.4805C84.1815 40.6608 84.5072 41.5826 84.7637 42.1985C85.0253 42.8155 85.21 43.1449 85.166 43.1729C85.1343 43.1945 84.8757 42.9115 84.5341 42.3105C84.1986 41.7116 83.7873 40.7743 83.6144 39.5343C83.5293 38.9163 83.5036 38.227 83.577 37.4929C83.656 36.7604 83.8257 35.9824 84.1325 35.2077C84.2844 34.8203 84.4647 34.432 84.6847 34.0548C84.9026 33.6768 85.1488 33.3029 85.4353 32.9501C85.7208 32.5968 86.0332 32.2537 86.3827 31.9397C86.7314 31.6253 87.1091 31.3332 87.5115 31.068C87.9174 30.8079 88.3375 30.5818 88.7662 30.3908C89.195 30.1991 89.6357 30.0533 90.0741 29.9357C90.5127 29.8168 90.9544 29.7439 91.388 29.6984C91.8219 29.6504 92.2503 29.6433 92.6659 29.6616C93.4982 29.6956 94.2785 29.8562 94.9801 30.0815C95.6804 30.3126 96.3006 30.6159 96.8307 30.9443C97.8937 31.6057 98.5836 32.3619 98.9953 32.9115C99.4058 33.4673 99.5592 33.8183 99.5267 33.8389Z" fill="#E0E0E0"/>
<path d="M95.8205 42.3726L96.6125 43.637L95.4834 44.3434L94.713 43.113C93.553 43.7449 92.2617 44.0668 91.3369 43.9697L91.0951 42.2039C91.9213 42.2684 92.9246 42.0642 93.7872 41.6342L92.6066 39.749C91.1629 40.2291 89.5017 40.6878 88.4908 39.0734C87.7418 37.8768 87.9676 36.3053 89.6239 34.9858L88.8393 33.7325L89.9683 33.0256L90.739 34.2563C91.628 33.794 92.5932 33.5037 93.4613 33.51L93.7666 35.2519C92.9858 35.2852 92.2787 35.4607 91.6716 35.7462L92.8736 37.6655C94.31 37.1742 95.9493 36.7297 96.9455 38.3213C97.6805 39.4953 97.4585 41.0485 95.8205 42.3726ZM91.5678 38.0896L90.5637 36.4869C90.0504 36.9967 90.0184 37.4727 90.2515 37.8453C90.4992 38.2403 90.9721 38.243 91.5678 38.0896ZM95.2132 39.5946C94.9655 39.1994 94.5043 39.19 93.9124 39.3243L94.8881 40.8824C95.3745 40.4048 95.4392 39.956 95.2132 39.5946Z" fill="#E0E0E0"/>
<path d="M86.8216 22.2794C84.1247 23.98 80.5565 23.1672 78.8519 20.4641C77.1473 17.7608 77.9517 14.1908 80.6489 12.4903C83.3459 10.7898 86.9141 11.6026 88.6184 14.3056C90.323 17.0087 89.5186 20.5789 86.8216 22.2794Z" fill="#F5F5F5"/>
<path d="M86.0872 21.1148C84.0321 22.4107 81.313 21.7912 80.0138 19.7313C78.7148 17.6713 79.328 14.9507 81.3831 13.6548C83.4385 12.3589 86.1578 12.9782 87.4565 15.0381C88.7557 17.0981 88.1425 19.8187 86.0872 21.1148Z" fill="#EBEBEB"/>
<path d="M86.2037 21.0401C86.1887 21.018 86.3424 20.8989 86.59 20.6586C86.8354 20.418 87.1747 20.0462 87.462 19.5074C87.6047 19.2387 87.7338 18.9301 87.8285 18.5862C87.92 18.2418 87.9807 17.8636 87.9814 17.4638C87.9827 17.2641 87.972 17.0591 87.9421 16.8524C87.9134 16.6456 87.8725 16.4358 87.8097 16.2281C87.7477 16.0205 87.6733 15.812 87.5771 15.6098C87.4813 15.4074 87.3695 15.209 87.242 15.0175C87.1117 14.8275 86.9695 14.6497 86.8179 14.4851C86.666 14.3203 86.5006 14.1732 86.3312 14.0381C86.1618 13.9022 85.9824 13.7858 85.8013 13.682C85.6207 13.5771 85.4346 13.4907 85.2489 13.4173C84.8778 13.269 84.5039 13.1839 84.1506 13.1402C83.7963 13.0995 83.4617 13.1039 83.1592 13.1359C82.5524 13.2011 82.0808 13.3772 81.7663 13.5151C81.4511 13.6553 81.2832 13.7533 81.2685 13.731C81.257 13.7147 81.4003 13.5791 81.7066 13.3977C82.0119 13.2197 82.4907 12.9995 83.1275 12.8989C83.445 12.8496 83.7996 12.83 84.1783 12.8613C84.556 12.8953 84.9581 12.9756 85.3599 13.1265C85.5605 13.2011 85.7622 13.2905 85.9583 13.4003C86.1549 13.509 86.3497 13.6322 86.5339 13.7767C86.7183 13.9205 86.8979 14.0782 87.0627 14.2552C87.2278 14.432 87.3815 14.6238 87.5217 14.8285C87.6594 15.035 87.7795 15.2494 87.8819 15.4683C87.9845 15.6873 88.0635 15.9128 88.128 16.1376C88.1933 16.3624 88.2347 16.5892 88.2621 16.812C88.2908 17.035 88.2982 17.2555 88.2926 17.4696C88.2824 17.8984 88.207 18.3015 88.0975 18.6649C87.9847 19.0274 87.8344 19.3495 87.67 19.6256C87.3391 20.1788 86.956 20.541 86.6769 20.7576C86.3939 20.9743 86.2143 21.0566 86.2037 21.0401Z" fill="#E0E0E0"/>
<path d="M81.7763 19.2097L81.1324 19.6288L80.7585 19.054L81.3849 18.6464C81.0491 18.0548 80.8716 17.3929 80.9132 16.9158L81.8203 16.7754C81.7946 17.2013 81.9089 17.7159 82.138 18.1561L83.0979 17.531C82.8375 16.7921 82.5863 15.941 83.4085 15.4061C84.0179 15.0096 84.8289 15.1117 85.5233 15.9524L86.1614 15.5371L86.5355 16.1119L85.9089 16.5199C86.155 16.9733 86.3133 17.4675 86.3178 17.9146L85.4238 18.0875C85.3996 17.686 85.3029 17.3235 85.1505 17.0134L84.1733 17.6497C84.4393 18.3847 84.6828 19.2247 83.8726 19.752C83.2747 20.1411 82.473 20.0411 81.7763 19.2097ZM83.9429 16.9814L84.759 16.45C84.4918 16.1904 84.2465 16.1782 84.0567 16.3017C83.8556 16.4325 83.8584 16.6761 83.9429 16.9814ZM83.201 18.8716C83.4022 18.7406 83.4029 18.5028 83.3283 18.1996L82.535 18.7159C82.7855 18.9621 83.0171 18.9913 83.201 18.8716Z" fill="#E0E0E0"/>
<path d="M119.938 114.412C119.938 114.449 94.6679 114.479 63.5028 114.479C32.3269 114.479 7.06226 114.449 7.06226 114.412C7.06226 114.376 32.3269 114.346 63.5028 114.346C94.6676 114.346 119.938 114.376 119.938 114.412Z" fill="#244C7D"/>
<path d="M22.1634 106.614C22.4501 105.503 21.7217 104.387 20.9051 103.581C20.0885 102.775 19.1121 102.053 18.6874 100.987C17.999 99.2604 18.9244 97.0247 17.7499 95.584C17.059 94.7364 15.82 94.4529 15.2066 93.5474C14.885 93.0724 14.7809 92.4888 14.6544 91.9294C14.0097 89.0758 12.5812 86.4032 10.5673 84.2812C10.4271 86.8225 10.9876 89.3988 12.1708 91.6523C12.6465 92.5581 13.2305 93.4412 13.3882 94.4519C13.6442 96.0935 12.7278 97.7847 13.1311 99.3963C13.5921 101.24 15.6628 102.473 15.7611 104.371C15.8441 105.975 14.4458 107.383 14.55 108.986C14.5944 109.669 14.9112 110.302 15.2637 110.888C16.5043 112.95 18.3262 114.371 21.0882 114.324L24.471 114.443L22.1634 106.614Z" fill="#ED8936"/>
<g opacity="0.3">
<path d="M22.1634 106.614C22.4501 105.503 21.7217 104.387 20.9051 103.581C20.0885 102.775 19.1121 102.053 18.6874 100.987C17.999 99.2604 18.9244 97.0247 17.7499 95.584C17.059 94.7364 15.82 94.4529 15.2066 93.5474C14.885 93.0724 14.7809 92.4888 14.6544 91.9294C14.0097 89.0758 12.5812 86.4032 10.5673 84.2812C10.4271 86.8225 10.9876 89.3988 12.1708 91.6523C12.6465 92.5581 13.2305 93.4412 13.3882 94.4519C13.6442 96.0935 12.7278 97.7847 13.1311 99.3963C13.5921 101.24 15.6628 102.473 15.7611 104.371C15.8441 105.975 14.4458 107.383 14.55 108.986C14.5944 109.669 14.9112 110.302 15.2637 110.888C16.5043 112.95 18.3262 114.371 21.0882 114.324L24.471 114.443L22.1634 106.614Z" fill="black"/>
</g>
<path d="M25.156 114.42C25.156 114.42 25.4786 114.495 26.0875 114.4C26.3907 114.356 26.7639 114.276 27.1868 114.124C27.6071 113.97 28.0859 113.751 28.5444 113.38C28.7646 113.188 28.9846 112.951 29.1029 112.636C29.2195 112.323 29.2406 111.978 29.2622 111.625C29.2802 111.272 29.2807 110.903 29.3412 110.531C29.3983 110.159 29.5446 109.792 29.7544 109.443C30.1535 108.742 30.8157 108.079 31.0295 107.128C31.2609 106.192 31.0951 105.18 30.9376 104.163C30.7806 103.148 30.6285 102.042 31.0166 100.985C31.3795 99.9267 32.1212 98.9717 32.4923 97.7789C32.8616 96.5742 32.6894 95.2785 32.7674 94.0009C32.8032 93.359 32.9272 92.7172 33.2083 92.1226C33.4819 91.5239 33.8616 90.959 34.158 90.3285C34.7585 89.0542 34.8644 87.6097 35.0288 86.1942C35.1088 85.481 35.1898 84.7604 35.2713 84.0326C35.3521 83.3014 35.4169 82.5732 35.6472 81.8693C35.8558 81.1604 36.1575 80.4746 36.4565 79.7759C36.6028 79.4243 36.7577 79.0728 36.8492 78.6824C36.9155 78.2836 36.9345 77.9105 36.9584 77.5188C36.9962 76.7431 36.9645 75.9572 36.8682 75.1772C36.7763 74.3964 36.6356 73.6225 36.5515 72.8401C36.5464 72.7939 36.5411 72.7477 36.5362 72.7053L36.5187 72.5496L36.3803 72.6189C35.6559 72.9816 35.0359 73.5221 34.5594 74.1556C34.075 74.785 33.7222 75.4955 33.4405 76.2176C32.8753 77.671 32.6719 79.1942 32.3872 80.6476C32.109 82.101 31.7425 83.5307 30.9973 84.7388C30.6267 85.3413 30.1781 85.8912 29.7857 86.4789C29.3943 87.0624 29.0496 87.7035 28.9462 88.4068C28.7461 89.8378 29.5345 91.0946 29.3704 92.3618C29.312 92.9915 29.0613 93.58 28.7534 94.1175C28.4463 94.658 28.0852 95.1591 27.7428 95.6631C27.4006 96.1667 27.0745 96.6778 26.8347 97.2239C26.5906 97.7682 26.4563 98.3504 26.4192 98.9198C26.3366 100.061 26.4984 101.143 26.4151 102.164C26.3463 103.188 25.9871 104.115 25.5802 104.945C25.171 105.777 24.7159 106.53 24.3346 107.259C24.1428 107.624 23.966 107.98 23.8218 108.337C23.6691 108.694 23.5942 109.06 23.5248 109.407C23.4138 110.108 23.4245 110.762 23.5 111.338C23.647 112.496 24.0793 113.331 24.4677 113.8C24.5568 113.925 24.6602 114.014 24.7415 114.096C24.8208 114.182 24.8992 114.24 24.9635 114.285C25.0887 114.378 25.156 114.42 25.156 114.42C25.171 114.403 24.8776 114.248 24.501 113.773C24.1286 113.301 23.7151 112.473 23.5828 111.327C23.5147 110.758 23.5106 110.113 23.6259 109.424C23.6973 109.084 23.7738 108.726 23.9251 108.38C24.0689 108.031 24.248 107.677 24.441 107.316C24.8253 106.593 25.2853 105.843 25.7034 105.006C26.1182 104.172 26.4916 103.226 26.5675 102.176C26.6564 101.133 26.4992 100.047 26.5855 98.933C26.6244 98.3758 26.7552 97.8208 26.9932 97.2942C27.2277 96.7657 27.5487 96.2645 27.8909 95.7647C28.2332 95.2643 28.5985 94.7611 28.9142 94.2094C29.2302 93.6613 29.4956 93.0486 29.5596 92.3819C29.7227 91.0321 28.9401 89.767 29.1436 88.4368C29.2414 87.7786 29.5685 87.1655 29.9546 86.5925C30.3409 86.0156 30.7918 85.4652 31.1735 84.8475C31.9422 83.6047 32.3148 82.1475 32.5957 80.6882C32.8832 79.2257 33.0869 77.7187 33.6419 76.2953C33.9183 75.5877 34.2632 74.8953 34.7316 74.2877C35.1923 73.6753 35.7857 73.1602 36.4761 72.8142L36.3201 72.7279C36.3249 72.7708 36.3303 72.8175 36.3353 72.8643C36.4204 73.6557 36.5616 74.4315 36.6526 75.2031C36.7476 75.9745 36.7791 76.7449 36.7422 77.5089C36.7201 77.8861 36.6973 78.2818 36.6384 78.6374C36.5558 78.9933 36.4039 79.3441 36.2589 79.692C35.962 80.388 35.6559 81.0842 35.4435 81.8086C35.2083 82.5292 35.141 83.2854 35.0625 84.0078C34.9818 84.736 34.9018 85.4573 34.8225 86.1711C34.661 87.5927 34.5548 89.0136 33.9767 90.244C33.6909 90.8564 33.312 91.4228 33.0303 92.0413C32.7395 92.6582 32.6107 93.3364 32.5769 93.9889C32.5032 95.2945 32.6729 96.5706 32.3198 97.7271C31.9691 98.8779 31.2312 99.838 30.8583 100.93C30.4593 102.033 30.6247 103.175 30.7859 104.187C30.9493 105.205 31.1133 106.196 30.8954 107.096C30.6998 108.004 30.0567 108.662 29.6495 109.382C29.4377 109.74 29.2858 110.127 29.2299 110.514C29.1708 110.899 29.1738 111.27 29.1588 111.621C29.1413 111.97 29.1215 112.311 29.0145 112.604C28.9084 112.896 28.7014 113.127 28.4898 113.316C28.0481 113.682 27.5782 113.906 27.1647 114.064C26.7486 114.22 26.3803 114.307 26.0808 114.358C25.7811 114.412 25.5485 114.42 25.3928 114.424C25.2368 114.418 25.156 114.42 25.156 114.42Z" fill="#244C7D"/>
<path d="M35.8449 74.5681C35.8414 74.5674 35.8302 74.6019 35.8122 74.6702C35.7923 74.7513 35.7677 74.8513 35.7375 74.9748C35.6709 75.2412 35.5917 75.6436 35.4639 76.146C35.3311 76.6469 35.0242 77.214 34.7616 77.9128C34.4888 78.606 34.2122 79.4096 33.9577 80.3123C33.6996 81.2143 33.4708 82.2163 33.232 83.2895C32.9854 84.3606 32.7395 85.5097 32.1492 86.5932C31.8718 87.1426 31.5597 87.6989 31.3118 88.3072C31.0575 88.9158 30.9206 89.5808 30.8246 90.2483C30.662 91.5884 30.4162 92.9491 30.0954 94.341C29.4172 97.1132 28.771 99.7535 28.1828 102.158C27.5803 104.554 27.0375 106.713 26.5798 108.533C26.1345 110.337 25.7725 111.802 25.5173 112.836C25.3997 113.332 25.3067 113.723 25.2391 114.008C25.212 114.132 25.1899 114.233 25.1721 114.314C25.1581 114.384 25.1528 114.419 25.1563 114.42C25.1599 114.421 25.1726 114.387 25.1934 114.32C25.2168 114.24 25.2457 114.141 25.2813 114.019C25.3585 113.736 25.4647 113.348 25.5991 112.857C25.8703 111.827 26.2551 110.368 26.7286 108.571C27.1993 106.754 27.7573 104.599 28.3768 102.208C28.9707 99.8028 29.6227 97.1619 30.3075 94.3888C30.6285 92.9986 30.8769 91.6128 31.0354 90.2793C31.1294 89.6161 31.2602 88.9753 31.5043 88.385C31.7433 87.7921 32.0507 87.2387 32.328 86.6832C32.9232 85.579 33.1711 84.3954 33.408 83.3283C33.6397 82.2524 33.8586 81.2534 34.1058 80.3532C34.3496 79.4523 34.6145 78.6502 34.8751 77.9562C35.1241 77.2598 35.421 76.686 35.5454 76.1681C35.6625 75.6532 35.7271 75.2552 35.7801 74.9837C35.8017 74.8584 35.8195 74.7568 35.8337 74.6745C35.8447 74.605 35.8485 74.5689 35.8449 74.5681Z" fill="#244C7D"/>
<path d="M25.7536 114.443C27.9632 113.13 28.5967 109.243 27.6751 106.843C26.7534 104.444 25.14 102.251 24.8913 99.6928C24.7 97.7261 25.3442 95.7078 24.886 93.7855C24.268 91.1914 21.7351 89.182 21.7643 86.5155C21.7806 85.0192 22.632 83.6115 22.5642 82.1168C22.4811 80.2834 21.0737 78.8287 20.2022 77.2138C18.8682 74.7416 18.7803 71.8188 18.3241 69.0472C17.868 66.2753 16.8116 63.3068 14.3551 61.9446C13.9924 64.2979 13.3729 65.9095 13.5675 69.0977C13.6373 70.2428 14.9673 72.4345 15.1484 74.9435C15.2566 76.4434 15.3315 77.9453 15.4232 79.4462C15.5124 80.9067 15.6071 82.3939 16.1306 83.7604C16.5317 84.8074 17.1763 85.7586 17.4743 86.8396C18.0346 88.8734 17.2982 91.0761 17.7509 93.1368C18.1341 94.8825 19.3424 96.3849 19.5893 98.1551C19.9363 100.642 18.3264 103.226 19.1504 105.599C19.5593 106.776 20.5276 107.721 20.8024 108.937C21.0158 109.88 20.7831 110.878 20.9764 111.826C21.2873 113.352 24.1986 114.538 25.7536 114.443Z" fill="#ED8936"/>
<path d="M14.9642 64.2805C14.9604 64.281 14.9637 64.3262 14.9738 64.4134C14.9865 64.5122 15.003 64.6397 15.0236 64.8002C15.0744 65.1401 15.1313 65.6392 15.2461 66.2843C15.3696 66.9333 15.7038 67.6638 15.971 68.5447C16.253 69.4228 16.5334 70.436 16.7813 71.5703C17.0335 72.7039 17.2443 73.9587 17.4658 75.3092C17.6947 76.6496 17.9286 78.1309 18.5984 79.5368C18.9083 80.2432 19.256 80.95 19.5171 81.7031C19.7846 82.4537 19.9075 83.2609 19.9832 84.0907C20.0973 85.7577 20.3193 87.491 20.6312 89.2378C21.3078 92.7247 21.9525 96.0458 22.5392 99.0686C23.1577 102.08 23.7147 104.792 24.1839 107.076C24.6576 109.343 25.0419 111.182 25.3111 112.47C25.4465 113.095 25.5527 113.586 25.6284 113.935C25.6649 114.092 25.6939 114.218 25.7163 114.315C25.7373 114.4 25.7498 114.443 25.7533 114.443C25.7569 114.442 25.7518 114.397 25.7378 114.31C25.7208 114.212 25.6987 114.086 25.671 113.926C25.605 113.575 25.512 113.082 25.3937 112.454C25.1407 111.162 24.7795 109.318 24.3342 107.045C23.8781 104.759 23.3365 102.043 22.7353 99.0285C22.1542 96.0064 21.5156 92.6864 20.845 89.2005C20.5334 87.4519 20.3127 85.7438 20.1948 84.0702C20.1176 83.2355 19.9896 82.4039 19.713 81.6348C19.444 80.8657 19.0914 80.1558 18.7813 79.4552C18.1153 78.0702 17.8814 76.6237 17.6431 75.2782C17.4143 73.9302 17.1938 72.6719 16.9309 71.5358C16.6723 70.3989 16.3802 69.3839 16.0861 68.5061C15.8054 67.6222 15.4608 66.898 15.3282 66.2655C15.2024 65.6321 15.1306 65.1279 15.0663 64.7923C15.0368 64.6333 15.0135 64.5071 14.9952 64.409C14.9787 64.3237 14.968 64.28 14.9642 64.2805Z" fill="#244C7D"/>
<path d="M111.25 99.3055C111.947 99.6078 112.459 100.251 112.715 100.965C112.972 101.679 112.996 102.459 112.91 103.214C112.745 104.673 111.916 106.145 111.023 107.311C109.794 106.239 109.512 104.369 109.428 103.411C109.296 101.897 109.976 99.0797 111.25 99.3055Z" fill="#ED8936"/>
<path d="M112.451 109.719C112.255 108.895 112.598 107.99 113.231 107.426C113.864 106.862 114.748 106.624 115.594 106.688C115.984 106.718 116.407 106.832 116.631 107.154C116.84 107.455 116.816 107.874 116.647 108.199C116.477 108.524 116.183 108.767 115.873 108.962C114.808 109.63 113.655 110.08 112.451 109.719Z" fill="#ED8936"/>
<path d="M110.876 114.193C110.868 114.191 110.885 114.085 110.919 113.893C110.958 113.683 111.008 113.41 111.068 113.083C111.204 112.406 111.378 111.436 111.904 110.495C112.423 109.555 113.15 108.864 113.762 108.521C114.065 108.345 114.331 108.24 114.519 108.186C114.612 108.154 114.688 108.142 114.737 108.13C114.788 108.119 114.814 108.116 114.815 108.119C114.824 108.143 114.39 108.221 113.801 108.585C113.21 108.938 112.508 109.623 111.997 110.546C111.481 111.468 111.296 112.425 111.142 113.098C111.067 113.438 111.007 113.713 110.96 113.902C110.913 114.091 110.883 114.194 110.876 114.193Z" fill="#244C7D"/>
<path d="M110.922 101.496C110.925 101.496 110.93 101.541 110.937 101.627C110.943 101.724 110.95 101.849 110.959 102.003C110.977 102.33 110.996 102.803 111.015 103.387C111.052 104.557 111.082 106.172 111.075 107.957C111.067 109.742 111.023 111.358 110.975 112.527C110.951 113.112 110.928 113.584 110.908 113.911C110.897 114.065 110.889 114.189 110.882 114.287C110.875 114.372 110.869 114.417 110.866 114.417C110.862 114.417 110.86 114.372 110.86 114.285C110.862 114.188 110.864 114.063 110.866 113.909C110.874 113.569 110.885 113.099 110.899 112.525C110.928 111.356 110.96 109.741 110.968 107.957C110.975 106.173 110.958 104.558 110.939 103.389C110.93 102.814 110.923 102.345 110.918 102.004C110.916 101.85 110.916 101.725 110.915 101.628C110.916 101.542 110.918 101.496 110.922 101.496Z" fill="#244C7D"/>
<path d="M110.326 110.607C110.046 108.842 108.856 107.246 107.244 106.474C106.834 106.277 106.298 106.149 105.96 106.454C105.622 106.76 105.698 107.309 105.863 107.734C106.551 109.502 108.399 110.749 110.296 110.727" fill="#ED8936"/>
<path d="M107.443 107.858C107.447 107.851 107.539 107.892 107.704 107.972C107.787 108.011 107.888 108.06 107.999 108.129C108.109 108.197 108.242 108.265 108.373 108.364C108.508 108.459 108.657 108.559 108.802 108.687C108.955 108.806 109.104 108.949 109.259 109.102C109.562 109.414 109.867 109.786 110.127 110.217C110.383 110.65 110.569 111.094 110.698 111.509C110.757 111.719 110.813 111.918 110.843 112.109C110.884 112.298 110.9 112.478 110.916 112.641C110.939 112.804 110.931 112.954 110.937 113.084C110.943 113.214 110.934 113.326 110.927 113.417C110.913 113.6 110.903 113.701 110.895 113.7C110.871 113.699 110.913 113.294 110.842 112.649C110.82 112.488 110.801 112.312 110.756 112.126C110.723 111.938 110.665 111.744 110.605 111.538C110.472 111.131 110.287 110.697 110.036 110.271C109.78 109.848 109.483 109.481 109.189 109.17C109.038 109.019 108.894 108.875 108.746 108.754C108.605 108.626 108.46 108.523 108.33 108.426C107.802 108.047 107.433 107.878 107.443 107.858Z" fill="#244C7D"/>
<path d="M93.2591 58.7271C93.2591 58.7271 81.3996 50.3228 79.8977 49.4963C78.4669 48.7089 73.9297 48.1369 73.5218 48.0378L65.3968 46.2712L52.9821 46.6423L49.421 48.7836L40.4106 52.9337C37.9549 54.0647 36.0195 56.085 34.9948 58.5872L29.304 72.4835L43.4233 76.6601L43.8627 91.3184L40.5325 114.412H81.8639L79.7842 70.1511L84.0867 71.0982L93.2591 58.7271Z" fill="#244C7D"/>
<path d="M43.6854 70.7564C43.6854 70.7564 43.5368 70.8659 43.2488 71.033C42.9613 71.1935 42.5262 71.4348 41.9293 71.5164C41.3309 71.5994 40.6169 71.4547 39.8688 71.2177C39.116 70.9809 38.3263 70.6167 37.5216 70.1968C36.7159 69.7775 35.9626 69.3526 35.2549 69.0109C34.5488 68.6668 33.8902 68.4041 33.3202 68.2377C32.7512 68.0668 32.2745 67.9924 31.9445 67.9578C31.7794 67.9406 31.6507 67.9317 31.5633 67.9289C31.4759 67.9241 31.4299 67.919 31.4299 67.919C31.4299 67.919 31.6146 67.908 31.9466 67.9375C32.278 67.966 32.7581 68.035 33.3309 68.2019C33.9047 68.3642 34.5676 68.6246 35.2765 68.967C35.9872 69.3071 36.7418 69.7313 37.5465 70.1499C38.3502 70.569 39.136 70.9329 39.8843 71.1709C40.629 71.4097 41.3354 71.5562 41.9255 71.479C42.5147 71.4036 42.9498 71.1697 43.2397 71.015C43.3847 70.934 43.4962 70.8689 43.5704 70.8227C43.6443 70.7777 43.6854 70.7564 43.6854 70.7564Z" fill="white"/>
<path d="M43.0833 63.9094C43.0833 63.9094 43.0508 63.9109 42.9893 63.9086C42.9119 63.9048 42.8235 63.9008 42.7201 63.8957C42.4864 63.8848 42.1486 63.8589 41.7323 63.8177C40.8997 63.7362 39.7526 63.5723 38.5073 63.2866C37.2619 62.9991 36.1585 62.6452 35.3739 62.3547C34.9815 62.2099 34.6663 62.0854 34.4514 61.9932C34.3564 61.9526 34.2749 61.9178 34.2037 61.8873C34.1473 61.8624 34.1189 61.8469 34.1189 61.8469C34.1189 61.8469 34.1501 61.8558 34.208 61.8774C34.2802 61.9051 34.363 61.9371 34.4593 61.9742C34.6764 62.0605 34.9932 62.1794 35.3869 62.3196C36.1738 62.6008 37.2764 62.9483 38.5194 63.235C39.7623 63.52 40.906 63.6894 41.7366 63.7806C42.1519 63.8266 42.489 63.8581 42.7219 63.8754C42.8247 63.884 42.9131 63.8916 42.9901 63.8982C43.0513 63.9036 43.0833 63.9094 43.0833 63.9094Z" fill="white"/>
<path d="M51.9647 49.4963C51.9647 49.4963 51.8601 49.6701 51.6355 49.9591C51.4133 50.25 51.0475 50.6393 50.5342 51.047C50.0226 51.4572 49.3493 51.8618 48.5639 52.2261C47.7775 52.5893 46.8776 52.9055 45.9213 53.1905C44.9642 53.4737 44.0476 53.7252 43.2271 53.9957C42.4067 54.2652 41.6821 54.5512 41.0991 54.8451C40.5154 55.1372 40.0671 55.4199 39.773 55.636C39.6214 55.7381 39.5152 55.8329 39.4372 55.889C39.361 55.9477 39.3191 55.9764 39.3191 55.9764C39.3191 55.9764 39.4687 55.8395 39.7608 55.6193C40.0519 55.3975 40.4987 55.1087 41.0821 54.8115C41.665 54.5123 42.3907 54.2218 43.2116 53.9492C44.0328 53.6757 44.9495 53.4227 45.9058 53.1397C46.8609 52.8552 47.7585 52.5413 48.5434 52.1819C49.3269 51.8215 49.9988 51.4222 50.5108 51.0178C51.0244 50.6157 51.3927 50.2324 51.619 49.9464C51.7405 49.8098 51.8141 49.6876 51.8746 49.6129C51.9325 49.5355 51.9647 49.4963 51.9647 49.4963Z" fill="white"/>
<path d="M77.3776 51.3904C77.3776 51.3904 77.3398 51.3716 77.2702 51.3317C77.2001 51.2931 77.1007 51.2286 76.9648 51.1605C76.6976 51.016 76.2996 50.8252 75.785 50.6495C75.2712 50.4724 74.6443 50.3066 73.9374 50.1753C73.2313 50.0404 72.4467 49.936 71.6242 49.8207C69.9885 49.589 68.5087 49.3797 67.4114 49.2243C66.8884 49.1478 66.4576 49.0846 66.1356 49.0376C65.9979 49.0163 65.8836 48.9987 65.7891 48.9843C65.7098 48.9716 65.6687 48.9622 65.6687 48.9622C65.6687 48.9622 65.7109 48.9644 65.7904 48.9738C65.8851 48.9858 65.9999 49 66.1383 49.0175C66.4609 49.0605 66.8925 49.1179 67.4165 49.1877C68.5145 49.3391 69.9951 49.5433 71.6316 49.7689C72.4541 49.8839 73.2392 49.9901 73.9468 50.128C74.655 50.2621 75.2836 50.4326 75.7977 50.6147C76.3126 50.7958 76.7101 50.9924 76.9747 51.143C77.2404 51.2918 77.3776 51.3904 77.3776 51.3904Z" fill="white"/>
<path d="M71.6213 54.1941C71.6213 54.1941 71.5274 54.2383 71.346 54.3175C71.1657 54.3988 70.8969 54.5121 70.5479 54.6515C69.8497 54.9284 68.8301 55.3104 67.5401 55.6879C66.251 56.0638 64.6945 56.4552 62.9338 56.7046C61.1736 56.9746 59.2104 56.9751 57.1639 56.9071C55.1157 56.8403 53.1624 56.7511 51.39 56.8626C49.6188 56.9668 48.0374 57.2741 46.7677 57.7061C45.4929 58.1296 44.5424 58.6785 43.9247 59.1004C43.6206 59.3201 43.3862 59.4933 43.2378 59.6241C43.0857 59.7501 43.0037 59.8143 43.0037 59.8143C43.0037 59.8143 43.0806 59.7448 43.231 59.616C43.3773 59.4824 43.61 59.3063 43.913 59.0836C44.5284 58.6556 45.4789 58.0999 46.7558 57.6708C48.0275 57.2329 49.6122 56.921 51.3869 56.8141C53.1626 56.6995 55.1179 56.7877 57.1654 56.8542C59.2117 56.9223 61.17 56.9233 62.9269 56.6564C64.6848 56.41 66.2403 56.0229 67.5294 55.6518C68.8195 55.2794 69.84 54.903 70.5401 54.6322C70.8898 54.4958 71.1598 54.3856 71.3414 54.3076C71.5243 54.2317 71.6213 54.1941 71.6213 54.1941Z" fill="white"/>
<path d="M75.5181 56.6787C75.5186 56.6804 75.5031 56.6875 75.4726 56.6992C75.4297 56.7152 75.3857 56.7315 75.339 56.7488C75.2229 56.7922 75.0522 56.8468 74.8394 56.9085C74.4139 57.0287 73.8097 57.1618 73.1302 57.1701C72.4505 57.1767 71.8432 57.05 71.419 56.9243C71.2069 56.86 71.037 56.8024 70.9222 56.7556C70.876 56.7371 70.8323 56.7195 70.7899 56.7025C70.7599 56.6898 70.7444 56.6825 70.7451 56.6807C70.7459 56.6789 70.7624 56.6832 70.7937 56.6926C70.8371 56.7066 70.8818 56.7211 70.9293 56.7363C71.0459 56.777 71.2171 56.829 71.4292 56.8885C71.8539 57.0043 72.4563 57.1239 73.1297 57.1173C73.8025 57.1089 74.4033 56.9829 74.8295 56.8725C75.0426 56.8156 75.2145 56.7665 75.3324 56.7292C75.3801 56.7152 75.4254 56.702 75.469 56.6891C75.5008 56.6807 75.5176 56.6769 75.5181 56.6787Z" fill="white"/>
<path d="M67.5052 63.8647C67.5052 63.8647 66.2871 64.122 64.297 64.4187C63.3023 64.5686 62.1133 64.7172 60.7897 64.849C59.4656 64.9742 58.0067 65.0799 56.4725 65.1383C54.9378 65.1914 53.4745 65.1916 52.1446 65.1627C50.8146 65.1271 49.6181 65.0651 48.6153 64.9877C46.6089 64.836 45.3755 64.6676 45.3755 64.6676C45.3755 64.6676 45.4532 64.6722 45.6005 64.6862C45.7593 64.7019 45.9742 64.723 46.2449 64.7499C46.804 64.8091 47.615 64.8795 48.6178 64.9503C49.6206 65.023 50.8167 65.0809 52.1456 65.1139C53.4748 65.1401 54.9368 65.1383 56.4702 65.0855C58.0031 65.0273 59.4611 64.9232 60.7847 64.8005C62.1075 64.6714 63.2962 64.5267 64.2911 64.3816C65.2863 64.2384 66.09 64.1093 66.6434 64.0098C66.9116 63.9636 67.1245 63.9267 67.2817 63.8995C67.428 63.8752 67.5052 63.8647 67.5052 63.8647Z" fill="white"/>
<path d="M77.4533 63.1441C77.4533 63.1441 77.4215 63.1481 77.3611 63.1504C77.2846 63.1527 77.1975 63.1552 77.0962 63.1583C76.8661 63.1646 76.5331 63.1679 76.1216 63.1672C75.2989 63.1649 74.1612 63.1352 72.9095 63.028C71.6575 62.9195 70.5315 62.7511 69.7218 62.6048C69.3169 62.5314 68.99 62.4674 68.7652 62.4184C68.6662 62.3968 68.5811 62.378 68.5064 62.3617C68.4475 62.3483 68.417 62.3384 68.417 62.3384C68.417 62.3384 68.449 62.3412 68.5087 62.3513C68.5839 62.3648 68.6697 62.3803 68.7693 62.3983C69.0207 62.4428 69.3426 62.4999 69.7281 62.5682C70.5389 62.7049 71.6639 62.8672 72.9141 62.9754C74.164 63.0826 75.2999 63.1182 76.1218 63.1301C76.5135 63.1331 76.8404 63.1359 77.0957 63.138C77.197 63.1387 77.2841 63.1395 77.3606 63.14C77.4215 63.1408 77.4533 63.1441 77.4533 63.1441Z" fill="white"/>
<path d="M64.7638 73.6153C64.7638 73.6153 64.6924 73.6283 64.5555 73.6481C64.4067 73.6689 64.207 73.6966 63.9566 73.7314C63.6965 73.769 63.3782 73.813 63.0056 73.8368C62.6335 73.8622 62.2108 73.9148 61.7409 73.9224C61.2715 73.9384 60.7574 73.9646 60.205 73.9552C59.9289 73.9532 59.6431 73.957 59.349 73.9501C59.0549 73.9405 58.7524 73.9305 58.4422 73.9204C57.2014 73.8701 55.8392 73.7764 54.412 73.6514C52.984 73.5313 51.6249 73.4068 50.3864 73.3248C49.1481 73.2475 48.031 73.1957 47.0927 73.2092C46.8585 73.2107 46.6353 73.212 46.4234 73.2135C46.2129 73.2239 46.014 73.2338 45.8273 73.243C45.4549 73.2587 45.1341 73.2755 44.8738 73.3082C44.6221 73.3331 44.4219 73.353 44.2723 73.3677C44.1347 73.3806 44.062 73.385 44.062 73.385C44.062 73.385 44.1336 73.3735 44.2708 73.3573C44.4201 73.34 44.6203 73.3169 44.8715 73.2879C45.1321 73.2519 45.4527 73.2323 45.8255 73.2135C46.0125 73.2031 46.2116 73.1919 46.4224 73.18C46.6345 73.1774 46.858 73.1749 47.0925 73.1721C48.032 73.1538 49.1504 73.2018 50.3897 73.2762C51.6292 73.3558 52.9888 73.4787 54.4166 73.5988C55.8433 73.7238 57.2045 73.819 58.4443 73.8719C58.7541 73.8828 59.0564 73.8935 59.3503 73.9036C59.6439 73.9112 59.9294 73.9085 60.2052 73.9112C60.7572 73.9227 61.2705 73.8988 61.7394 73.8851C62.2088 73.88 62.6309 73.83 63.003 73.8074C63.3754 73.7863 63.6939 73.7454 63.954 73.7108C64.205 73.6801 64.4049 73.6557 64.554 73.6374C64.6911 73.6212 64.7638 73.6153 64.7638 73.6153Z" fill="white"/>
<path d="M79.7178 70.6334C79.7178 70.6334 79.6792 70.6405 79.6053 70.6489C79.5156 70.6586 79.4092 70.6697 79.2817 70.6832C79.0008 70.7132 78.5931 70.7475 78.0889 70.7815C77.0808 70.8503 75.6838 70.9001 74.1415 70.8602C72.599 70.8188 71.2063 70.6959 70.203 70.5742C69.7013 70.5138 69.2962 70.4582 69.017 70.4135C68.8906 70.3934 68.7846 70.3764 68.6957 70.3622C68.6223 70.35 68.5842 70.3408 68.5842 70.3408C68.5842 70.3408 68.6233 70.3429 68.6973 70.3517C68.7864 70.3632 68.8928 70.3769 69.0198 70.3931C69.2997 70.4315 69.7054 70.4815 70.2073 70.5372C71.2108 70.6492 72.602 70.7663 74.143 70.8074C75.6833 70.847 77.0788 70.8033 78.0866 70.7442C78.5908 70.715 78.9985 70.6863 79.2799 70.6626C79.4077 70.653 79.5146 70.6449 79.6043 70.6383C79.6784 70.6334 79.7178 70.6334 79.7178 70.6334Z" fill="white"/>
<path d="M79.8976 79.8639C79.8976 79.8639 79.7696 79.858 79.5265 79.842C79.2832 79.8304 78.9255 79.7912 78.4632 79.7788C77.5395 79.7315 76.1991 79.7209 74.5471 79.8027C72.8948 79.8817 70.9337 80.079 68.765 80.3648C66.5961 80.6475 64.2194 81.0191 61.715 81.3417C59.2093 81.6597 56.8072 81.8636 54.6175 81.8819C52.4282 81.901 50.4552 81.7473 48.8237 81.4618C47.1918 81.1811 45.8974 80.8161 45.0262 80.5037C44.8052 80.4346 44.6134 80.3607 44.4483 80.2934C44.2845 80.2286 44.1448 80.1735 44.0292 80.1278C43.8029 80.0379 43.6851 79.9883 43.6851 79.9883C43.6851 79.9883 43.8057 80.0313 44.0333 80.1179C44.1494 80.1623 44.2898 80.2159 44.4542 80.2787C44.6198 80.3445 44.8118 80.4166 45.0333 80.4841C45.9055 80.7905 47.1999 81.1494 48.8303 81.425C50.4603 81.7054 52.4308 81.855 54.6175 81.8331C56.8047 81.8121 59.2045 81.6068 61.7086 81.2891C64.2121 80.9665 66.589 80.5964 68.7592 80.3163C70.9288 80.033 72.8918 79.8395 74.5456 79.7651C76.1991 79.6879 77.5402 79.7044 78.4645 79.758C79.3883 79.8093 79.8976 79.8639 79.8976 79.8639Z" fill="white"/>
<path d="M65.9308 89.3467C65.9308 89.3467 64.7096 89.555 62.7187 89.7678C61.7236 89.8763 60.5353 89.9733 59.214 90.0487C57.8925 90.1168 56.4373 90.1595 54.91 90.1513C53.3819 90.1376 51.9275 90.0744 50.6067 89.9873C49.2864 89.8928 48.0995 89.779 47.1061 89.6563C45.1186 89.415 43.9006 89.1895 43.9006 89.1895C43.9006 89.1895 43.9776 89.1976 44.1236 89.2184C44.2809 89.2413 44.4935 89.2725 44.7612 89.3116C45.0378 89.354 45.3764 89.4038 45.7708 89.4526C46.165 89.5026 46.6131 89.5674 47.1107 89.619C48.1041 89.7368 49.2905 89.8468 50.6103 89.9385C51.9303 90.0228 53.3837 90.0845 54.9105 90.0983C56.4368 90.1064 57.8907 90.0655 59.2115 90C60.532 89.9271 61.72 89.8341 62.7149 89.7305C63.2133 89.686 63.6621 89.6276 64.0571 89.5832C64.452 89.5397 64.7914 89.495 65.0687 89.4564C65.3372 89.4211 65.5501 89.3929 65.7076 89.3723C65.8536 89.3538 65.9308 89.3467 65.9308 89.3467Z" fill="white"/>
<path d="M79.7447 87.5283C79.7447 87.5283 79.6987 87.5453 79.6096 87.573C79.5062 87.6043 79.3772 87.6434 79.2192 87.6911C78.8803 87.7937 78.3871 87.9332 77.7752 88.0968C76.5519 88.4249 74.8486 88.8313 72.9477 89.1806C71.0457 89.5286 69.3089 89.7526 68.0488 89.8799C67.4188 89.9439 66.9083 89.9886 66.555 90.013C66.3904 90.0244 66.256 90.0335 66.1483 90.0411C66.0554 90.047 66.0063 90.0475 66.0063 90.0475C66.0063 90.0475 66.0549 90.0399 66.1476 90.0307C66.255 90.0206 66.3891 90.0081 66.5535 89.9926C66.906 89.9619 67.416 89.9116 68.045 89.843C69.3033 89.7064 71.0378 89.4765 72.9383 89.1288C74.8377 88.7795 76.541 88.3792 77.7658 88.0607C78.3784 87.9017 78.873 87.7678 79.2136 87.6713C79.3726 87.6274 79.5026 87.5916 79.6065 87.5629C79.6967 87.5385 79.7447 87.5283 79.7447 87.5283Z" fill="white"/>
<path d="M56.2415 99.9374C56.2415 99.9374 55.4917 100.067 54.2648 100.131C53.6517 100.166 52.9197 100.169 52.1084 100.134C51.2976 100.091 50.4079 100.004 49.4828 99.8528C48.5585 99.6948 47.689 99.4863 46.908 99.2636C46.1295 99.0322 45.4381 98.7914 44.8699 98.559C43.7307 98.0987 43.0642 97.7319 43.0642 97.7319C43.0642 97.7319 43.1087 97.7492 43.1907 97.7868C43.2862 97.8312 43.4046 97.8861 43.5488 97.9534C43.7035 98.0276 43.8935 98.1162 44.1188 98.2089C44.3434 98.3032 44.5956 98.4187 44.8836 98.5244C45.4528 98.752 46.144 98.9887 46.9217 99.2171C47.7017 99.437 48.5694 99.6435 49.4917 99.801C50.4147 99.9521 51.3022 100.04 52.1109 100.085C52.9204 100.123 53.6509 100.124 54.2633 100.094C54.5699 100.088 54.846 100.061 55.0891 100.045C55.3324 100.031 55.5409 100.009 55.7114 99.9892C55.8699 99.9727 55.9997 99.9593 56.1043 99.9483C56.194 99.9392 56.2415 99.9374 56.2415 99.9374Z" fill="white"/>
<path d="M80.6761 99.2893C80.6761 99.2893 80.5895 99.3063 80.4234 99.3335C80.2471 99.3617 80.0043 99.4008 79.6972 99.4501C79.0665 99.5514 78.1526 99.6888 77.0221 99.8501C74.7612 100.173 71.6307 100.574 68.1628 100.919C64.6934 101.262 61.5451 101.484 59.2647 101.611C58.1245 101.675 57.2014 101.719 56.5634 101.744C56.2525 101.756 56.0071 101.765 55.8286 101.772C55.6607 101.778 55.5723 101.778 55.5723 101.778C55.5723 101.778 55.6602 101.771 55.828 101.761C56.0064 101.752 56.2517 101.739 56.5624 101.723C57.2108 101.687 58.1306 101.636 59.2626 101.574C61.542 101.437 64.6893 101.209 68.1577 100.866C71.6248 100.521 74.7551 100.127 77.017 99.813C78.1392 99.6523 79.051 99.5217 79.6941 99.4295C80.002 99.3843 80.2451 99.3487 80.4219 99.3228C80.5882 99.2992 80.6761 99.2893 80.6761 99.2893Z" fill="white"/>
<path d="M82.0074 108.644C82.0074 108.644 81.4519 108.76 80.4397 108.925C79.4275 109.09 77.9563 109.296 76.1283 109.448C74.3008 109.599 72.1146 109.684 69.6902 109.605C67.2652 109.527 64.6102 109.257 61.8337 108.916C59.0559 108.576 56.4118 108.232 53.995 108.043C51.5789 107.847 49.3928 107.81 47.5622 107.9C45.7314 107.993 44.2594 108.201 43.2528 108.393C42.7494 108.489 42.3598 108.57 42.0976 108.635C41.8345 108.695 41.6956 108.724 41.6956 108.724C41.6956 108.724 41.8327 108.688 42.0951 108.624C42.3565 108.557 42.7456 108.472 43.2488 108.373C44.2551 108.175 45.7276 107.961 47.5599 107.863C49.392 107.768 51.5805 107.801 53.9983 107.994C56.4171 108.181 59.0623 108.524 61.8395 108.863C64.6155 109.204 67.2688 109.476 69.6912 109.556C72.1133 109.638 74.298 109.557 76.1247 109.41C77.952 109.264 79.4232 109.063 80.4359 108.905C80.9421 108.824 81.335 108.76 81.6007 108.712C81.8672 108.666 82.0074 108.644 82.0074 108.644Z" fill="white"/>
<path d="M89.4577 56.4534C89.4577 56.4534 89.3843 56.655 89.2192 57.0058C89.0559 57.3576 88.7823 57.8496 88.3896 58.4214C87.9985 58.9944 87.4752 59.6355 86.8605 60.3147C86.2466 60.9949 85.54 61.7127 84.823 62.4879C84.1082 63.2649 83.4719 64.0472 82.9695 64.8115C82.4694 65.5763 82.0978 66.3172 81.8781 66.9725C81.6553 67.6266 81.5557 68.1813 81.5263 68.5664C81.5001 68.7581 81.5088 68.9093 81.4999 69.0106C81.4955 69.1125 81.4905 69.1661 81.4905 69.1661C81.4905 69.1661 81.479 68.9514 81.5057 68.5646C81.5291 68.1775 81.6233 67.619 81.8428 66.9603C82.0592 66.3002 82.4293 65.5539 82.9289 64.7846C83.4308 64.016 84.0678 63.2303 84.7841 62.4518C85.5021 61.6756 86.2095 60.9593 86.8245 60.2817C87.4404 59.6053 87.9652 58.9685 88.3591 58.3998C88.7546 57.8323 89.0322 57.3447 89.2009 56.9964C89.2918 56.8255 89.3452 56.6845 89.3904 56.5933C89.4328 56.5011 89.4577 56.4534 89.4577 56.4534Z" fill="white"/>
<path d="M77.759 60.8298C77.759 60.8298 77.7877 60.8067 77.8454 60.7668C77.9163 60.7186 77.9996 60.6622 78.0981 60.5949C78.3196 60.4491 78.6323 60.225 79.0082 59.9365C79.3859 59.6495 79.8182 59.2852 80.279 58.8603C80.7351 58.4305 81.2175 57.937 81.6887 57.3881C82.1563 56.8357 82.5673 56.2812 82.9193 55.7625C83.2658 55.24 83.5571 54.7557 83.7806 54.3373C84.0059 53.9202 84.1776 53.5763 84.2866 53.3343C84.3371 53.2263 84.3798 53.1351 84.4161 53.0574C84.4463 52.9944 84.4646 52.9622 84.4646 52.9622C84.4646 52.9622 84.2569 53.5133 83.8136 54.3548C83.5939 54.7765 83.3051 55.2642 82.9599 55.7894C82.6089 56.3112 82.1982 56.8682 81.7291 57.4221C81.2564 57.9728 80.7715 58.4668 80.3122 58.8959C79.8482 59.32 79.4123 59.6822 79.0311 59.966C78.2706 60.5372 77.759 60.8298 77.759 60.8298Z" fill="white"/>
<path d="M59.6062 72.708C59.6055 72.7059 59.6263 72.6963 59.6674 72.6798C59.7154 72.6612 59.7759 72.6379 59.8508 72.6089C60.0144 72.5535 60.2471 72.4504 60.5437 72.3132C61.1279 72.0234 61.9466 71.5259 62.7914 70.7148C63.643 69.913 64.5186 68.8182 65.3649 67.5221C66.2153 66.2269 67.0657 64.7479 67.8729 63.1522C69.4886 59.9577 70.6329 56.9173 71.4337 54.7141C71.8343 53.6115 72.1447 52.7141 72.3621 52.0949C72.4685 51.7923 72.5523 51.5541 72.6131 51.3819C72.641 51.3067 72.6633 51.246 72.6814 51.1975C72.6974 51.1561 72.7068 51.1352 72.7088 51.136C72.7108 51.1368 72.7058 51.1589 72.6938 51.2015C72.6791 51.2511 72.6606 51.313 72.6374 51.39C72.5823 51.5637 72.5061 51.8048 72.4093 52.1106C72.2064 52.7347 71.9087 53.6369 71.5188 54.7443C70.7388 56.9569 69.6065 60.007 67.9867 63.2099C67.1775 64.8096 66.3217 66.2912 65.4632 67.5866C64.6082 68.8843 63.7195 69.9808 62.8531 70.7806C61.9936 71.5896 61.1597 72.0803 60.5651 72.358C60.2631 72.4893 60.0263 72.5853 59.8595 72.633C59.7828 72.6572 59.721 72.6765 59.6718 72.692C59.6288 72.7047 59.607 72.71 59.6062 72.708Z" fill="#455A64"/>
<path d="M59.1807 78.0824C59.1785 78.0786 59.2262 78.0422 59.3194 77.9767C59.4236 77.9048 59.56 77.8106 59.7296 77.6933C60.0845 77.4456 60.595 77.0829 61.2087 76.6117C62.4408 75.6755 64.0578 74.2757 65.7972 72.677C66.6694 71.8794 67.5051 71.1253 68.2277 70.4027C68.9521 69.6816 69.5582 68.9879 70.0197 68.3689C70.484 67.752 70.8007 67.2107 71.0004 66.8281C71.1066 66.6397 71.1728 66.4853 71.2252 66.3842C71.276 66.2821 71.3047 66.2292 71.3087 66.231C71.3128 66.2328 71.292 66.2889 71.2488 66.3946C71.2038 66.4995 71.1444 66.6577 71.0446 66.8505C70.8574 67.2419 70.5503 67.7941 70.0921 68.422C69.6369 69.0519 69.0337 69.7565 68.3108 70.485C67.5897 71.2155 66.755 71.9732 65.8828 72.7707C64.1426 74.3702 62.512 75.7631 61.2628 76.6834C60.6407 77.1464 60.1211 77.4987 59.7571 77.7341C59.5752 77.8523 59.4307 77.9386 59.3331 77.9981C59.2356 78.057 59.183 78.0859 59.1807 78.0824Z" fill="#455A64"/>
<path d="M52.3276 105.237C52.3258 105.236 52.336 105.216 52.3581 105.18C52.3845 105.137 52.4172 105.084 52.4579 105.019C52.5473 104.878 52.6845 104.674 52.8676 104.415C53.2356 103.9 53.8023 103.178 54.5501 102.328C56.055 100.637 58.1643 98.3333 60.4881 95.7814C62.8175 93.2394 64.926 90.9389 66.4601 89.2648C67.2237 88.4408 67.8437 87.7713 68.2806 87.2998C68.4922 87.0753 68.6593 86.8983 68.7802 86.77C68.834 86.7149 68.8775 86.6702 68.9125 86.6344C68.9427 86.6044 68.9593 86.5896 68.9608 86.5912C68.9623 86.5927 68.9493 86.6102 68.9222 86.6432C68.8897 86.6813 68.8493 86.7288 68.7992 86.7875C68.6824 86.9199 68.5214 87.1022 68.3171 87.3336C67.8874 87.8116 67.2775 88.4903 66.5264 89.3257C64.9994 91.0062 62.9006 93.3158 60.5818 95.8675C58.2557 98.4106 56.1498 100.713 54.6171 102.388C53.862 103.229 53.2867 103.94 52.9072 104.445C52.7182 104.698 52.575 104.897 52.4787 105.033C52.4338 105.096 52.3974 105.147 52.3685 105.187C52.3433 105.221 52.3294 105.238 52.3276 105.237Z" fill="#455A64"/>
<path d="M76.0384 59.5863C76.0298 59.5881 75.9962 59.4506 75.9429 59.1999C75.9144 59.0747 75.884 58.9208 75.8621 58.7399C75.8385 58.5594 75.8024 58.3544 75.7905 58.125C75.7714 57.8962 75.7529 57.6452 75.7547 57.3752C75.744 57.1049 75.7623 56.8169 75.7755 56.5134C75.8207 55.9078 75.9142 55.2444 76.08 54.5624C76.253 53.8822 76.4816 53.2523 76.7255 52.696C76.856 52.4217 76.9751 52.1585 77.111 51.9249C77.2363 51.6853 77.3701 51.4722 77.4943 51.2792C77.6122 51.0821 77.7402 50.918 77.8456 50.7697C77.9497 50.6201 78.0488 50.4984 78.1326 50.4011C78.2975 50.2045 78.3914 50.0991 78.398 50.1047C78.4046 50.1103 78.3236 50.2266 78.1717 50.4316C78.0943 50.5329 78.0016 50.6582 77.9038 50.8108C77.8044 50.9622 77.6825 51.1286 77.5705 51.3272C77.4521 51.5218 77.3239 51.7354 77.204 51.9749C77.0732 52.2086 76.9589 52.4707 76.8326 52.7435C76.5972 53.2967 76.3744 53.9205 76.2035 54.5934C76.0394 55.2678 75.9436 55.9231 75.8923 56.522C75.8761 56.8222 75.854 57.1072 75.8601 57.3749C75.8537 57.6427 75.8669 57.8916 75.8801 58.1189C75.886 58.3468 75.9157 58.551 75.9325 58.7313C75.9475 58.9119 75.9706 59.0661 75.9916 59.1918C76.0297 59.4435 76.0468 59.5845 76.0384 59.5863Z" fill="#455A64"/>
<path d="M79.734 68.6989C79.7015 68.7126 79.2443 67.7027 78.7129 66.4438C78.1813 65.1845 77.7767 64.1528 77.8089 64.1391C77.8412 64.1253 78.2984 65.135 78.8303 66.3943C79.3616 67.6534 79.7665 68.6851 79.734 68.6989Z" fill="#455A64"/>
<path d="M43.423 60.6464C43.4035 60.657 43.2059 60.2936 42.832 59.7429C42.4594 59.1922 41.8929 58.4642 41.1655 57.7566C40.4363 57.0505 39.6915 56.5062 39.1299 56.1501C38.5683 55.7929 38.1993 55.6062 38.2092 55.5864C38.213 55.5785 38.3085 55.6187 38.4782 55.6982C38.6486 55.7759 38.8884 55.9032 39.1772 56.0733C39.755 56.4124 40.517 56.9514 41.2544 57.6652C41.9895 58.3804 42.5511 59.1259 42.9072 59.6934C43.086 59.9771 43.2203 60.2128 43.3032 60.3809C43.3877 60.5481 43.4307 60.6423 43.423 60.6464Z" fill="#455A64"/>
<path d="M53.4027 54.6406C53.3969 54.6408 53.3862 54.5407 53.4002 54.3789C53.4139 54.2176 53.4576 53.9946 53.5549 53.766C53.6831 53.4534 53.8759 53.225 53.9826 53.1214L53.9968 53.1077L54.004 53.1247C54.0334 53.195 54.0471 53.2342 54.0431 53.2362C54.0388 53.2382 54.0169 53.2027 53.9806 53.1359L54.0019 53.1392C53.9079 53.2527 53.7291 53.4818 53.6039 53.7866C53.4109 54.2359 53.4205 54.6431 53.4027 54.6406Z" fill="#455A64"/>
<path d="M56.7655 56.3833C56.7597 56.3846 56.7317 56.2891 56.7135 56.1301C56.6947 55.9713 56.6906 55.7478 56.7279 55.5055C56.766 55.2632 56.8377 55.0516 56.9037 54.9058C56.9697 54.7598 57.0251 54.6772 57.0305 54.6803C57.047 54.6871 56.8519 55.0356 56.7803 55.5136C56.7036 55.9904 56.7833 56.3818 56.7655 56.3833Z" fill="#455A64"/>
<path d="M60.4318 56.0938C60.4145 56.0938 60.4402 55.7687 60.334 55.3887C60.2319 55.0074 60.0442 54.7407 60.0592 54.7321C60.0643 54.7285 60.1179 54.79 60.1857 54.9025C60.2535 55.0148 60.332 55.1806 60.3853 55.3747C60.4382 55.5688 60.4552 55.7514 60.4539 55.8827C60.4529 56.0143 60.4382 56.0945 60.4318 56.0938Z" fill="#455A64"/>
<path d="M63.6366 54.6895C63.6206 54.6964 63.5134 54.3702 63.2559 54.0441C63.0016 53.7152 62.7113 53.5323 62.7217 53.5183C62.725 53.513 62.8017 53.5513 62.9127 53.6336C63.024 53.7154 63.167 53.845 63.2973 54.0116C63.4273 54.1785 63.5183 54.3486 63.5708 54.4761C63.6237 54.6039 63.6425 54.6875 63.6366 54.6895Z" fill="#455A64"/>
<path d="M65.8443 52.5127C65.829 52.5224 65.7645 52.1231 65.4059 51.8206C65.0541 51.5099 64.6495 51.5043 64.6571 51.4878C64.6573 51.4843 64.681 51.4827 64.7241 51.4832C64.7673 51.4827 64.8298 51.4904 64.9055 51.5069C65.0566 51.5391 65.2598 51.625 65.4407 51.7804C65.6208 51.9366 65.7356 52.1251 65.7894 52.2699C65.8169 52.3423 65.8334 52.403 65.8392 52.4457C65.8458 52.4883 65.8478 52.512 65.8443 52.5127Z" fill="#455A64"/>
<path d="M67.0247 48.4908C67.0161 48.5063 66.7704 48.2436 66.3564 48.1715C65.9437 48.091 65.6208 48.2487 65.618 48.2312C65.6051 48.2238 65.9335 48.0361 66.3658 48.1194C66.7997 48.1961 67.0394 48.4887 67.0247 48.4908Z" fill="#455A64"/>
<path d="M51.1986 51.9308C51.1931 51.9295 51.2032 51.8436 51.252 51.7133C51.3002 51.5833 51.3937 51.4113 51.538 51.2541C51.6828 51.0971 51.8463 50.9894 51.9718 50.9308C52.0976 50.8713 52.1824 50.8538 52.1839 50.8594C52.1925 50.8749 51.857 50.9803 51.5769 51.2902C51.2919 51.595 51.2149 51.9381 51.1986 51.9308Z" fill="#455A64"/>
<path d="M50.3959 49.2541C50.3909 49.251 50.4315 49.1677 50.5222 49.0488C50.6123 48.9302 50.7579 48.7801 50.9474 48.6516C51.1371 48.5236 51.3309 48.4446 51.4744 48.4049C51.6184 48.3648 51.7109 48.3585 51.7117 48.3641C51.7172 48.3811 51.3477 48.441 50.9768 48.6953C50.6032 48.9447 50.4096 49.2655 50.3959 49.2541Z" fill="#455A64"/>
<path d="M44.0825 64.8631C44.0807 64.8666 44.0708 64.8496 44.0655 64.8654C44.0576 64.8806 44.051 64.9106 44.0447 64.9489C44.0315 65.0259 44.0175 65.1412 44.0028 65.2901C43.9733 65.588 43.9395 66.0203 43.9032 66.5552C43.8306 67.6248 43.7465 69.1041 43.667 70.7384C43.5875 72.3731 43.5285 73.8537 43.4922 74.9255C43.4752 75.4455 43.461 75.874 43.4506 76.1948C43.445 76.3317 43.4402 76.4455 43.4363 76.54C43.4318 76.619 43.4275 76.6604 43.4229 76.6604C43.4183 76.6604 43.414 76.619 43.4097 76.54C43.4069 76.4455 43.4033 76.3314 43.399 76.1943C43.3934 75.894 43.3921 75.4597 43.3987 74.9233C43.4112 73.8501 43.4551 72.3678 43.5349 70.7318C43.6144 69.0963 43.7132 67.617 43.81 66.5476C43.8582 66.0129 43.9065 65.5809 43.9517 65.2835C43.9743 65.1349 43.9967 65.0198 44.0188 64.9426C44.0302 64.904 44.0398 64.875 44.0551 64.8567C44.08 64.8344 44.0858 64.8689 44.0825 64.8631Z" fill="#244C7D"/>
<path d="M72.0667 13.5598C69.9478 12.9121 67.7398 14.8083 65.5655 14.3823C64.2452 14.1237 63.2483 13.0689 62.0738 12.4128C60.3174 11.4316 57.8335 11.2733 56.0398 12.1839C54.246 13.0945 53.0898 14.0673 52.8452 16.0643C51.2125 15.1273 48.4886 17.1827 47.5607 19.1656C46.6329 21.1486 46.8658 23.1989 47.3926 25.3241C48.2994 28.983 49.9331 32.4602 52.1708 35.494C52.369 35.7628 52.6855 36.0599 52.9875 35.9179C53.1968 35.8196 53.2648 35.5603 53.3014 35.3322C53.6136 33.3886 53.3672 31.4054 53.199 29.4442C53.0309 27.4829 52.9483 25.461 53.5676 23.5926C54.1868 21.7242 55.6486 20.0198 57.5798 19.6383C59.0062 19.3566 60.4878 19.8209 61.7558 20.5324C63.0238 21.2441 64.1381 22.1964 65.3453 23.0066C66.5528 23.8166 67.9082 24.4996 69.3608 24.5629C70.8134 24.6261 72.3715 23.9411 72.9905 22.6254C73.6095 21.3096 72.915 19.4405 71.4929 19.1387C72.7987 19.0186 73.9399 17.8898 74.0743 16.5852C74.2081 15.2807 73.3207 13.9431 72.0667 13.5598Z" fill="#244C7D"/>
<path d="M65.532 47.6333L65.3268 43.4274C65.3268 43.4274 70.8698 42.3651 70.7433 36.7903C70.6821 34.0982 70.1053 28.5658 69.5249 23.564C68.9008 18.1848 64.2516 14.1866 58.8394 14.3764L58.3016 14.3951C52.516 14.9372 49.7441 20.1536 50.4459 25.9222L51.7802 48.3773C52.0047 52.1563 55.2379 55.0456 59.0184 54.8454C62.8048 54.6448 65.7167 51.4207 65.532 47.6333Z" fill="#FFBE9D"/>
<path d="M65.3331 43.4235C65.3331 43.4235 61.8213 43.8335 57.9958 41.6138C57.9958 41.6138 59.8536 45.5637 65.3966 44.867L65.3331 43.4235Z" fill="#EB996E"/>
<path d="M67.6468 27.3423C67.6765 27.7619 67.3456 28.133 66.9077 28.1721C66.4708 28.2107 66.0918 27.9031 66.0621 27.4833C66.0327 27.0637 66.3634 26.6918 66.8005 26.653C67.2381 26.6141 67.6171 26.9227 67.6468 27.3423Z" fill="#244C7D"/>
<path d="M68.422 26.3299C68.327 26.4371 67.7085 26.0119 66.8523 26.0444C65.9965 26.0642 65.3836 26.527 65.2871 26.4254C65.2399 26.3805 65.3336 26.1897 65.6003 25.9809C65.8627 25.7731 66.3153 25.5641 66.849 25.5476C67.3824 25.5318 67.838 25.7124 68.103 25.9045C68.3732 26.0972 68.4692 26.2817 68.422 26.3299Z" fill="#244C7D"/>
<path d="M59.2347 27.9278C59.2644 28.3477 58.9332 28.7188 58.4956 28.7576C58.0587 28.7965 57.6797 28.4889 57.65 28.069C57.6206 27.6494 57.9515 27.2778 58.3884 27.2387C58.8263 27.1996 59.205 27.5082 59.2347 27.9278Z" fill="#244C7D"/>
<path d="M60.0104 26.7848C59.9152 26.8919 59.2959 26.467 58.4402 26.4993C57.5847 26.5193 56.9716 26.9819 56.8748 26.8803C56.8276 26.8353 56.9205 26.6448 57.1883 26.4358C57.4506 26.2277 57.9033 26.0189 58.4367 26.0022C58.9701 25.9864 59.4257 26.167 59.6909 26.3591C59.9607 26.5521 60.0569 26.7367 60.0104 26.7848Z" fill="#244C7D"/>
<path d="M63.3408 33.0265C63.335 32.978 63.8643 32.8673 64.7229 32.7268C64.9408 32.6966 65.1463 32.6458 65.1778 32.4954C65.2237 32.3356 65.1239 32.1032 65.0091 31.8523C64.7848 31.3303 64.5504 30.7832 64.304 30.2099C63.3228 27.8706 62.6045 25.9442 62.6987 25.9054C62.7935 25.8668 63.6655 27.7314 64.6464 30.0705C64.8831 30.6476 65.1094 31.1975 65.3246 31.7238C65.416 31.9694 65.5682 32.2462 65.4681 32.578C65.415 32.7436 65.2585 32.8678 65.1199 32.9102C64.9812 32.9579 64.8582 32.9645 64.7503 32.975C63.8842 33.0522 63.3459 33.075 63.3408 33.0265Z" fill="#244C7D"/>
<path d="M60.8415 33.7074C60.9804 33.6945 61.0147 34.6238 61.8336 35.2558C62.651 35.8898 63.6383 35.7508 63.6502 35.8804C63.6652 35.9383 63.4359 36.0686 63.018 36.0948C62.6083 36.1232 62.0046 36.0125 61.5037 35.6259C61.0043 35.2383 60.7765 34.7059 60.7315 34.3256C60.682 33.938 60.7775 33.7041 60.8415 33.7074Z" fill="#244C7D"/>
<path d="M59.9417 22.3942C59.8652 22.6299 59.0064 22.5497 58.0062 22.7059C57.0024 22.842 56.2028 23.1646 56.0621 22.9606C55.9991 22.8626 56.1327 22.6388 56.4525 22.4018C56.7692 22.1654 57.2797 21.9332 57.8804 21.8451C58.4812 21.7582 59.0369 21.8344 59.408 21.9705C59.7819 22.1059 59.9742 22.2824 59.9417 22.3942Z" fill="#244C7D"/>
<path d="M68.0204 23.8625C67.8767 24.0624 67.2795 23.8811 66.5698 23.8966C65.8597 23.8872 65.2645 24.0731 65.119 23.8745C65.055 23.778 65.1426 23.5798 65.3986 23.3863C65.6509 23.1938 66.0783 23.0287 66.566 23.0264C67.054 23.0249 67.4825 23.1861 67.7365 23.3769C67.9943 23.5679 68.0837 23.7655 68.0204 23.8625Z" fill="#244C7D"/>
<path d="M51.0457 30.0325C50.9492 29.9946 47.1773 29.0342 47.4326 32.8397C47.6878 36.6451 51.4557 35.6037 51.4549 35.4942C51.4541 35.3848 51.0457 30.0325 51.0457 30.0325Z" fill="#FFBE9D"/>
<path d="M50.1957 34.1305C50.1782 34.1195 50.1325 34.1813 50.0238 34.2402C49.9179 34.2974 49.7325 34.3446 49.529 34.2836C49.117 34.163 48.7358 33.5475 48.6712 32.863C48.6382 32.5173 48.6888 32.1825 48.7932 31.9014C48.8907 31.6151 49.0576 31.4086 49.2577 31.3591C49.4561 31.2991 49.6075 31.4106 49.6611 31.5145C49.7192 31.6174 49.7002 31.6949 49.7208 31.7002C49.7319 31.7091 49.7982 31.6309 49.7568 31.4759C49.736 31.4015 49.6855 31.3146 49.5912 31.2476C49.495 31.1795 49.3581 31.1505 49.2181 31.1752C48.926 31.2151 48.6799 31.5028 48.5653 31.8117C48.4345 32.1229 48.3695 32.4995 48.4066 32.8877C48.4825 33.653 48.923 34.3441 49.4838 34.466C49.7561 34.5181 49.974 34.4223 50.0835 34.3248C50.195 34.2229 50.2095 34.1366 50.1957 34.1305Z" fill="#EB996E"/>
<path d="M70.6626 22.3545C68.2311 23.0939 65.4515 22.5696 63.4566 20.9946C62.0609 19.8927 60.957 18.2773 59.24 17.814C58.084 17.5021 56.8224 17.7937 55.7952 18.4089C54.768 19.024 53.9507 19.9377 53.256 20.9125C54.432 23.7068 53.8196 26.8932 53.1894 29.8587C53.1198 30.1863 53.0353 30.5399 52.7769 30.7533C52.3383 31.1157 51.6543 30.8683 51.2468 30.4713C50.5948 29.8353 50.3182 28.9138 50.1262 28.0235C49.6888 25.9953 49.5631 23.8818 49.9464 21.8427C50.3297 19.8036 51.2407 17.8399 52.6896 16.3545C54.5001 14.4983 57.0929 13.4774 59.6855 13.4264C62.2778 13.3756 64.8521 14.2593 66.9748 15.748C67.9595 16.4386 68.8742 17.2834 69.4089 18.3611" fill="#244C7D"/>
<path d="M73.7135 14.8464C73.7135 14.8464 73.7402 14.9624 73.6909 15.1778C73.6432 15.3897 73.5047 15.7039 73.1862 15.982C72.8705 16.2627 72.3696 16.4603 71.779 16.5068C71.4844 16.5306 71.1667 16.5327 70.8319 16.4816C70.4999 16.4278 70.1433 16.3137 69.8451 16.0658C69.5553 15.8237 69.3147 15.4448 69.3315 15.0069C69.3455 14.5616 69.6889 14.1745 70.1065 14.0061C70.3165 13.9185 70.551 13.8753 70.7887 13.8946C71.0262 13.9144 71.2637 14.013 71.4532 14.1654C71.8438 14.4697 72.0498 14.9731 72.0673 15.4775C72.0889 15.9896 71.8738 16.5098 71.5157 16.8964C71.158 17.2876 70.6807 17.5664 70.1626 17.728C69.1164 18.0556 67.9472 17.8959 66.8949 17.4882C65.8304 17.0849 64.8956 16.4788 64.0181 15.8903C63.1387 15.3033 62.2868 14.7407 61.4057 14.3485C60.5296 13.951 59.6168 13.7524 58.7656 13.8034C57.9139 13.8537 57.1431 14.1212 56.5068 14.4687C55.2243 15.1788 54.49 16.1712 54.0598 16.8545C53.8426 17.202 53.6991 17.4869 53.6041 17.681C53.5088 17.8751 53.4616 17.9787 53.4545 17.9759C53.4514 17.9746 53.4598 17.9472 53.4786 17.8949C53.4982 17.8428 53.5256 17.7646 53.5693 17.6652C53.6534 17.4653 53.7872 17.1733 53.9965 16.8166C54.4118 16.1158 55.1377 15.0945 56.4418 14.3518C57.0887 13.9889 57.8764 13.7062 58.7554 13.6472C59.6348 13.587 60.5802 13.7879 61.4758 14.1895C62.377 14.5855 63.2393 15.1517 64.1202 15.7364C64.9985 16.3226 65.9208 16.9175 66.9617 17.3117C67.9906 17.7102 69.1123 17.8603 70.1075 17.5512C70.5987 17.3998 71.0493 17.1362 71.3818 16.775C71.7158 16.4146 71.9093 15.9492 71.8928 15.4824C71.8794 15.0211 71.6919 14.5642 71.3495 14.2957C71.016 14.0115 70.5416 13.9916 70.1659 14.1512C69.7879 14.3013 69.491 14.6381 69.4768 15.014C69.4575 15.3907 69.6665 15.7384 69.9312 15.964C70.1997 16.1931 70.5342 16.3076 70.8514 16.3632C71.1712 16.4168 71.4834 16.4201 71.7707 16.4019C72.346 16.3663 72.8293 16.1857 73.1385 15.9261C73.4514 15.6678 73.5959 15.3711 73.6538 15.1684C73.714 14.9624 73.7023 14.8456 73.7135 14.8464Z" fill="#455A64"/>
<path d="M46.9968 22.4708C47.0105 22.4307 47.4311 22.673 48.171 22.7321C48.538 22.7565 48.9815 22.7139 49.4428 22.5546C49.9046 22.4022 50.3872 22.1413 50.8472 21.817C51.7661 21.151 52.2635 20.1934 52.4649 19.4878C52.6727 18.772 52.6396 18.2973 52.6767 18.2988C52.6881 18.2983 52.7052 18.4149 52.7082 18.628C52.709 18.8406 52.6846 19.1507 52.5939 19.5229C52.4202 20.2587 51.9221 21.2711 50.9584 21.9699C50.4799 22.3072 49.9843 22.5688 49.4966 22.7202C49.0118 22.8772 48.5411 22.9082 48.1593 22.8652C47.7763 22.82 47.4796 22.7189 47.2856 22.6318C47.0913 22.5444 46.9917 22.4809 46.9968 22.4708Z" fill="#455A64"/>
<path d="M47.26 25.2219C47.2641 25.1871 47.7122 25.2704 48.4295 25.2049C49.1404 25.1439 50.1323 24.8882 51.0246 24.2529C51.9166 23.6164 52.4823 22.7624 52.7718 22.1102C53.068 21.4536 53.1356 21.003 53.1696 21.0106C53.181 21.0124 53.1757 21.1262 53.1401 21.3283C53.1051 21.5305 53.0304 21.8198 52.8945 22.1627C52.6296 22.845 52.0617 23.7452 51.134 24.4068C50.2059 25.0675 49.1699 25.3106 48.4386 25.3382C48.0703 25.3548 47.7724 25.3309 47.5697 25.2979C47.3672 25.2656 47.258 25.2333 47.26 25.2219Z" fill="#455A64"/>
<path d="M57.2929 30.5255C57.2421 30.5374 57.1903 30.5021 57.1771 30.4468C57.1641 30.3911 57.1946 30.3365 57.2451 30.3243C57.2959 30.3124 57.3477 30.3477 57.3609 30.4033C57.3742 30.4587 57.3437 30.5136 57.2929 30.5255Z" fill="#EB996E"/>
<path d="M58.9158 30.0969C58.865 30.1089 58.8117 30.0669 58.7967 30.0034C58.7817 29.9397 58.8106 29.8785 58.8614 29.8663C58.9122 29.8544 58.9656 29.8963 58.9806 29.9598C58.9956 30.0235 58.9666 30.0847 58.9158 30.0969Z" fill="#EB996E"/>
<path d="M60.0166 30.0309C59.9651 30.0393 59.9125 29.9778 59.8988 29.8935C59.8851 29.8092 59.9158 29.7342 59.9674 29.7259C60.0189 29.7175 60.0715 29.7792 60.0852 29.8633C60.0987 29.9476 60.0679 30.0228 60.0166 30.0309Z" fill="#EB996E"/>
<path d="M58.1332 31.5243C58.0811 31.5261 58.0377 31.5007 58.0366 31.4672C58.0354 31.4339 58.0768 31.4052 58.1289 31.4034C58.1809 31.4016 58.2244 31.427 58.2254 31.4606C58.2264 31.4938 58.1852 31.5225 58.1332 31.5243Z" fill="#EB996E"/>
<path d="M59.6215 31.1234C59.5697 31.1297 59.5219 31.0871 59.5146 31.0284C59.5075 30.9695 59.5435 30.9166 59.5953 30.9103C59.6472 30.9039 59.6949 30.9466 59.702 31.0053C59.7094 31.0642 59.6733 31.117 59.6215 31.1234Z" fill="#EB996E"/>
<path d="M67.3976 29.9173C67.3468 29.9292 67.2948 29.8927 67.2811 29.8353C67.2676 29.7778 67.2976 29.7217 67.3484 29.7098C67.3992 29.6978 67.4512 29.7344 67.4649 29.7918C67.4787 29.8492 67.4484 29.9054 67.3976 29.9173Z" fill="#EB996E"/>
<path d="M68.5092 29.7762C68.4574 29.783 68.4086 29.7358 68.3998 29.6708C68.3911 29.6055 68.4259 29.5471 68.4777 29.5402C68.5295 29.5334 68.5786 29.5806 68.5872 29.6459C68.5956 29.7106 68.5608 29.7693 68.5092 29.7762Z" fill="#EB996E"/>
<path d="M66.414 29.9793C66.3632 29.9913 66.3134 29.9649 66.303 29.9204C66.2926 29.876 66.3251 29.83 66.3759 29.8181C66.4267 29.8061 66.4764 29.8325 66.4869 29.877C66.4973 29.9214 66.4648 29.9674 66.414 29.9793Z" fill="#EB996E"/>
<path d="M67.2795 31.0654C67.2325 31.0883 67.1733 31.0627 67.1469 31.0083C67.1208 30.9539 67.1373 30.8915 67.1843 30.8688C67.2313 30.8462 67.2907 30.8716 67.3169 30.926C67.3433 30.9804 67.3265 31.0428 67.2795 31.0654Z" fill="#EB996E"/>
<path d="M68.2252 30.8418C68.1744 30.8298 68.1413 30.7854 68.1515 30.7427C68.1617 30.7 68.2109 30.6751 68.2617 30.6871C68.3125 30.699 68.3456 30.7435 68.3354 30.7861C68.3255 30.8288 68.276 30.8537 68.2252 30.8418Z" fill="#EB996E"/>
<path d="M66.3391 94.1419L66.2792 88.4963C66.2792 88.4963 62.5111 83.2768 63.998 77.6146C63.998 77.6146 66.4547 75.8869 73.0399 76.8999C73.0399 76.8999 81.3078 68.8453 92.3901 70.8933C103.472 72.9413 104.503 82.5989 104.609 85.2275C104.714 87.8562 104.691 92.9613 100.876 97.9522L100.619 102.905C100.619 102.905 99.7112 104.771 97.08 104.644C94.4488 104.518 94.5994 104.129 94.5994 104.129C94.5994 104.129 91.3017 106.794 91.1544 107.492C91.0071 108.189 90.4937 110.825 90.4937 110.825C90.4937 110.825 89.35 112.384 86.8768 112.565C85.7094 112.65 84.7447 112.338 84.0515 111.986C83.385 111.646 82.8773 111.057 82.6525 110.344C82.3398 109.352 81.5359 107.682 79.5448 106.764L77.8384 106.318C77.8384 106.318 77.1488 106.944 74.7539 107.202C72.3589 107.459 72.3498 106.608 72.3498 106.608C72.3498 106.608 68.6238 107.47 65.823 103.816C63.6109 100.93 62.4113 95.7304 66.3391 94.1419Z" fill="#ED8936"/>
<path d="M89.3126 94.4681C89.309 94.4653 89.3512 94.4054 89.4347 94.2941C89.5186 94.1831 89.6438 94.0211 89.7987 93.8075C90.1106 93.3823 90.5496 92.7567 91.0311 91.9464C91.5097 91.1351 92.0283 90.1367 92.4883 88.9792C92.7192 88.4011 92.9349 87.7836 93.1269 87.1341C93.3133 86.4915 93.4764 85.7859 93.3088 85.0983C93.1386 84.4107 92.6326 83.8784 92.0896 83.4966C91.5397 83.111 90.9417 82.8362 90.3679 82.6023C89.2135 82.1392 88.1038 81.9192 87.1686 81.8326C86.2313 81.742 85.4665 81.7849 84.9425 81.8331C84.6801 81.858 84.4769 81.8832 84.3395 81.9038C84.2018 81.9218 84.1289 81.9292 84.1282 81.9248C84.1274 81.9205 84.1985 81.9043 84.3352 81.8776C84.4716 81.8481 84.6743 81.8149 84.9369 81.7821C85.4614 81.7181 86.2308 81.6604 87.1767 81.7397C88.1206 81.8151 89.2435 82.0272 90.4129 82.4892C90.9943 82.7229 91.5986 82.997 92.1645 83.3912C92.7213 83.7806 93.2557 84.3348 93.4373 85.0668C93.6143 85.7976 93.4401 86.5232 93.2514 87.1709C93.0563 87.8242 92.8368 88.4445 92.6016 89.0249C92.1327 90.1867 91.6026 91.1859 91.1117 91.9949C90.6176 92.8026 90.1653 93.4221 89.8401 93.839C89.6786 94.0485 89.5468 94.2057 89.4558 94.3114C89.3652 94.4168 89.3161 94.4709 89.3126 94.4681Z" fill="#244C7D"/>
<path d="M73.8167 77.1443C73.8202 77.1433 73.837 77.1875 73.8558 77.2756C73.8743 77.3635 73.8878 77.4974 73.8728 77.6688C73.8443 78.0089 73.666 78.5042 73.2396 78.9513C72.8238 79.4087 72.1938 79.7816 71.5802 80.2845C70.9612 80.7846 70.3198 81.3856 69.7234 82.0846C68.522 83.4803 67.7298 84.9685 67.2792 86.0838C67.0524 86.6424 66.9005 87.1069 66.8007 87.4295C66.7557 87.5796 66.7189 87.7028 66.6892 87.8024C66.6622 87.8872 66.646 87.9314 66.6414 87.9304C66.6368 87.9294 66.6447 87.8832 66.6633 87.7958C66.6866 87.6942 66.7158 87.5685 66.7511 87.4156C66.8362 87.0876 66.9752 86.6162 67.1923 86.0493C67.6234 84.918 68.4103 83.4074 69.6231 81.9985C70.2251 81.2929 70.8753 80.6889 71.504 80.1895C72.1311 79.6853 72.7603 79.3234 73.1717 78.887C73.5936 78.4618 73.7783 77.9906 73.8217 77.663C73.8654 77.3307 73.8009 77.1461 73.8167 77.1443Z" fill="#244C7D"/>
<g opacity="0.5">
<path d="M78.2461 77.836L81.6174 78.6968C81.6174 78.6968 86.5537 73.1489 91.9743 71.7466L89.9438 71.2678C89.9438 71.2678 83.3965 72.4169 78.2461 77.836Z" fill="black"/>
</g>
<path d="M90.874 71.4819C86.4699 72.4649 82.3777 74.8012 79.2926 78.0941L78.2461 77.836C78.2461 77.836 83.0274 72.5896 89.9438 71.2678L90.874 71.4819Z" fill="#ED8936"/>
<g opacity="0.7">
<path d="M90.874 71.4819C86.4699 72.4649 82.3777 74.8012 79.2926 78.0941L78.2461 77.836C78.2461 77.836 83.0274 72.5896 89.9438 71.2678L90.874 71.4819Z" fill="black"/>
</g>
<path d="M64.7107 95.2943C66.5796 92.6212 71.2611 93.4378 73.3975 95.8424C75.5029 98.2117 76.4826 101.553 75.0922 104.401C74.4986 105.617 73.3602 106.691 72.0071 106.662C73.3962 105.165 73.889 103.006 73.4541 101.011C73.019 99.0159 71.7635 97.2579 70.1735 95.9765C69.367 95.3265 68.4613 94.6125 67.4305 94.5102C66.3998 94.4076 65.5718 94.3784 64.7107 95.2943Z" fill="#ED8936"/>
<g opacity="0.3">
<path d="M64.7107 95.2943C66.5796 92.6212 71.2611 93.4378 73.3975 95.8424C75.5029 98.2117 76.4826 101.553 75.0922 104.401C74.4986 105.617 73.3602 106.691 72.0071 106.662C73.3962 105.165 73.889 103.006 73.4541 101.011C73.019 99.0159 71.7635 97.2579 70.1735 95.9765C69.367 95.3265 68.4613 94.6125 67.4305 94.5102C66.3998 94.4076 65.5718 94.3784 64.7107 95.2943Z" fill="black"/>
</g>
<g opacity="0.3">
<path d="M89.4987 94.3108C89.4644 94.876 89.9808 95.3776 90.5432 95.4432C91.1058 95.5087 91.6648 95.2123 92.039 94.7874C92.4131 94.3624 92.6295 93.8229 92.8015 93.2832C93.3847 91.4531 93.6867 88.7208 93.3811 86.8247C92.5731 89.2816 91.1297 92.3441 89.4561 94.3159" fill="black"/>
</g>
<g opacity="0.3">
<path d="M91.2695 85.8639C90.906 84.7892 89.794 84.1644 88.7226 83.7913C87.6325 83.4115 86.4885 83.1868 85.3356 83.1258C84.9723 83.1065 84.5984 83.1052 84.2573 83.2312C83.9162 83.3574 83.6104 83.6361 83.5474 83.9942C83.4963 84.284 83.6546 84.6048 83.9086 84.7308C85.745 86.8525 87.1278 89.3648 87.9396 92.0503C88.0973 92.5723 88.7585 92.712 89.1179 92.3023C89.982 91.3178 90.4798 89.9894 90.9264 88.7285C91.254 87.8042 91.5837 86.7933 91.2695 85.8639Z" fill="black"/>
</g>
<g opacity="0.3">
<path d="M66.9841 86.3601C65.8324 84.5795 65.2284 82.4497 65.2741 80.3299C65.2838 79.8815 65.3387 79.3939 65.6518 79.0728C66.0308 78.6839 66.644 78.6768 67.186 78.7109C68.68 78.8051 70.167 79.0144 71.629 79.3362C71.7433 79.3614 71.8736 79.4002 71.9185 79.5082C71.9864 79.6712 71.9698 79.9268 71.819 80.0192C69.5447 81.4139 67.9325 83.9793 67.073 86.4896" fill="black"/>
</g>
<path d="M64.1523 77.8162C64.1615 77.8174 64.1549 77.9541 64.1353 78.1997C64.1135 78.4451 64.0916 78.8012 64.0756 79.2409C64.0441 80.1197 64.0718 81.3397 64.2989 82.6622C64.4157 83.3226 64.5707 83.9429 64.7371 84.4997C64.909 85.0547 65.0909 85.5462 65.2631 85.9508C65.4345 86.3556 65.5839 86.6795 65.6954 86.899C65.8041 87.1199 65.8607 87.2446 65.8529 87.2492C65.845 87.2538 65.7731 87.1375 65.6499 86.9231C65.5239 86.7102 65.3611 86.3907 65.1775 85.9881C64.9931 85.5855 64.8005 85.0938 64.6207 84.536C64.4465 83.9767 64.2862 83.3513 64.1686 82.6851C63.9395 81.3503 63.9265 80.1189 63.9822 79.2365C64.0101 78.7951 64.0462 78.4387 64.084 78.1941C64.1193 77.9495 64.1432 77.8149 64.1523 77.8162Z" fill="#FAFAFA"/>
<path d="M89.7447 71.0848C89.7457 71.0891 89.7005 71.1056 89.6136 71.1325C89.512 71.1623 89.386 71.1991 89.2318 71.2438C89.0655 71.2893 88.8625 71.3467 88.6294 71.4224C88.3959 71.4965 88.1277 71.5727 87.8376 71.6774C87.2527 71.8714 86.5666 72.1333 85.8178 72.4531C85.0721 72.7805 84.2654 73.1701 83.4442 73.6271C82.6256 74.0894 81.8722 74.5747 81.2039 75.0403C80.5402 75.5125 79.9591 75.9613 79.4884 76.3591C79.2479 76.5519 79.0429 76.7411 78.8577 76.9016C78.6715 77.0612 78.5169 77.2044 78.3911 77.3228C78.2725 77.4307 78.1752 77.5191 78.097 77.5902C78.0287 77.6504 77.9913 77.6804 77.988 77.6771C77.9847 77.6738 78.016 77.6375 78.0782 77.5712C78.1519 77.4952 78.2436 77.4008 78.3553 77.2854C78.4757 77.1612 78.6258 77.0121 78.8077 76.847C78.9885 76.6809 79.1897 76.4861 79.4274 76.288C79.8923 75.8796 80.4699 75.4208 81.1331 74.941C81.8008 74.4676 82.5562 73.9768 83.3792 73.5118C84.2047 73.0523 85.0175 72.6637 85.7696 72.3411C86.5247 72.0259 87.2174 71.7719 87.8082 71.5885C88.1013 71.4889 88.3723 71.4188 88.6085 71.3512C88.8442 71.2821 89.05 71.2321 89.2186 71.194C89.3754 71.1587 89.5036 71.1297 89.607 71.1066C89.6962 71.0878 89.7437 71.0802 89.7447 71.0848Z" fill="#FAFAFA"/>
<path d="M92.7066 84.5065C92.6871 84.5283 92.303 84.1387 91.5667 83.6688C91.203 83.4278 90.7389 83.1903 90.2113 82.9601C89.681 82.7341 89.0742 82.5438 88.4257 82.3968C87.1242 82.1042 85.9037 82.1098 85.0368 82.1931C84.1674 82.2815 83.6419 82.4267 83.6355 82.3991C83.6332 82.3902 83.7633 82.3518 84.0018 82.2901C84.2388 82.223 84.5901 82.1585 85.0267 82.1001C85.8989 81.9922 87.1359 81.9713 88.4542 82.2677C89.1108 82.4166 89.7247 82.6129 90.2591 82.8481C90.791 83.0877 91.2563 83.3368 91.6177 83.5906C91.7082 83.6523 91.7948 83.7115 91.8776 83.7679C91.9548 83.8288 92.0279 83.887 92.0975 83.9421C92.236 84.0493 92.3521 84.1456 92.4387 84.2335C92.6177 84.4034 92.713 84.4999 92.7066 84.5065Z" fill="#FAFAFA"/>
<path d="M69.9888 106.251C69.9873 106.256 69.9456 106.244 69.8674 106.219C69.7899 106.192 69.6728 106.158 69.5291 106.097C69.2377 105.984 68.825 105.794 68.3439 105.507C67.3845 104.941 66.1608 103.911 65.2921 102.424C64.4232 100.936 64.1272 99.364 64.1062 98.2505C64.0924 97.6904 64.1295 97.2378 64.1745 96.9284C64.1923 96.7732 64.2202 96.6546 64.2344 96.5738C64.2507 96.4933 64.2611 96.4514 64.2657 96.4522C64.2766 96.4539 64.254 96.6249 64.2255 96.9343C64.1963 97.2434 64.174 97.6932 64.1996 98.2469C64.2443 99.3483 64.5512 100.893 65.4064 102.357C66.2614 103.821 67.4557 104.847 68.3929 105.427C68.8626 105.721 69.2654 105.923 69.5491 106.049C69.8323 106.177 69.9926 106.241 69.9888 106.251Z" fill="#FAFAFA"/>
<g opacity="0.2">
<path d="M70.6548 100.382C70.2662 100.234 69.7996 100.371 69.5164 100.676C69.2332 100.981 69.1278 101.427 69.1938 101.837C69.2601 102.248 69.3836 102.602 69.6792 102.895C69.8814 103.095 70.235 103.286 70.5184 103.304C70.9109 103.328 71.2695 103.046 71.4605 102.703C71.6851 102.299 71.7247 101.797 71.5659 101.363C71.4075 100.929 71.0869 100.546 70.6548 100.382Z" fill="black"/>
</g>
<path d="M70.2624 100.335C69.8971 100.774 69.7775 101.405 69.9571 101.947C70.1367 102.489 70.6091 102.924 71.1641 103.058C70.9759 103.24 70.5959 103.367 70.3089 103.285C69.5469 103.066 69.0572 102.265 69.1158 101.475C69.1395 101.158 69.2568 100.84 69.4834 100.618C69.7099 100.395 70.1377 100.308 70.2624 100.335Z" fill="#ED8936"/>
<g opacity="0.4">
<path d="M70.2624 100.335C69.8971 100.774 69.7775 101.405 69.9571 101.947C70.1367 102.489 70.6091 102.924 71.1641 103.058C70.9759 103.24 70.5959 103.367 70.3089 103.285C69.5469 103.066 69.0572 102.265 69.1158 101.475C69.1395 101.158 69.2568 100.84 69.4834 100.618C69.7099 100.395 70.1377 100.308 70.2624 100.335Z" fill="black"/>
</g>
<g opacity="0.2">
<path d="M66.9119 98.9389C66.537 98.7959 66.0869 98.9285 65.8139 99.2224C65.5408 99.5163 65.439 99.9466 65.5027 100.343C65.5665 100.739 65.6856 101.081 65.9709 101.363C66.1657 101.556 66.5068 101.74 66.7804 101.757C67.1588 101.781 67.505 101.509 67.6892 101.177C67.9058 100.788 67.9439 100.304 67.7908 99.8853C67.6381 99.4665 67.3288 99.0969 66.9119 98.9389Z" fill="black"/>
</g>
<path d="M66.5334 98.8931C66.1811 99.3165 66.0657 99.9251 66.2387 100.448C66.4119 100.971 66.8676 101.391 67.4031 101.52C67.2215 101.696 66.8549 101.818 66.5781 101.739C65.843 101.528 65.3706 100.755 65.4272 99.9929C65.4498 99.6873 65.5631 99.3808 65.7818 99.1659C66.0005 98.9512 66.4132 98.8677 66.5334 98.8931Z" fill="#ED8936"/>
<g opacity="0.4">
<path d="M66.5334 98.8931C66.1811 99.3165 66.0657 99.9251 66.2387 100.448C66.4119 100.971 66.8676 101.391 67.4031 101.52C67.2215 101.696 66.8549 101.818 66.5781 101.739C65.843 101.528 65.3706 100.755 65.4272 99.9929C65.4498 99.6873 65.5631 99.3808 65.7818 99.1659C66.0005 98.9512 66.4132 98.8677 66.5334 98.8931Z" fill="black"/>
</g>
<path d="M77.0105 91.79C76.9913 91.7924 77.0294 91.7869 77.0105 91.79V91.79Z" fill="#244C7D"/>
<path d="M76.5481 91.9352C76.5591 91.9279 76.5728 91.9254 76.5841 91.9187C76.5898 91.9159 76.5951 91.9122 76.6008 91.9094L76.5481 91.9352Z" fill="#244C7D"/>
<path d="M78.4676 92.7417C78.3363 92.4214 78.1209 92.1194 77.8092 91.9683C77.6093 91.8713 77.3203 91.7753 77.033 91.7877L77.0104 91.79C76.87 91.7989 76.715 91.8423 76.5845 91.9188C76.0231 92.1885 75.6137 92.7763 75.5672 93.4047C75.5083 94.2022 76.0112 94.9965 76.7366 95.333C76.9794 95.4456 77.2553 95.5119 77.5159 95.4512C77.78 95.3897 78 95.2043 78.1687 94.9919C78.6622 94.3704 78.7686 93.4755 78.4676 92.7417Z" fill="#244C7D"/>
<path d="M69.0978 89.35C69.0812 89.3522 69.1144 89.3472 69.0978 89.35V89.35Z" fill="#244C7D"/>
<path d="M68.6975 89.4759C68.707 89.4696 68.7188 89.4674 68.7288 89.4616C68.7338 89.4594 68.7383 89.4559 68.7433 89.4536L68.6975 89.4759Z" fill="#244C7D"/>
<path d="M70.3601 90.1744C70.2463 89.8968 70.0599 89.6354 69.7899 89.5043C69.6169 89.4203 69.3665 89.3372 69.1176 89.3481L69.098 89.3502C68.9763 89.358 68.8422 89.3954 68.7289 89.4617C68.2428 89.6954 67.8879 90.2044 67.8478 90.7487C67.7968 91.4396 68.2324 92.1274 68.8608 92.419C69.0711 92.5165 69.3101 92.5739 69.5356 92.5214C69.7645 92.468 69.955 92.3075 70.101 92.1236C70.5285 91.5854 70.6207 90.8102 70.3601 90.1744Z" fill="#244C7D"/>
<path d="M70.8724 94.4135C70.8736 94.4092 70.9277 94.4204 71.0303 94.446C71.134 94.4686 71.2826 94.5161 71.4731 94.5809C71.8505 94.717 72.3859 94.9639 72.9674 95.3924C73.5477 95.8181 74.1698 96.4338 74.675 97.2461C75.183 98.0551 75.5627 99.0548 75.7372 100.142C75.9077 101.231 75.8784 102.292 75.7019 103.23C75.5264 104.168 75.1439 104.977 74.6486 105.511C74.1571 106.05 73.6082 106.317 73.2216 106.425C72.8309 106.536 72.6036 106.509 72.6036 106.509C72.6013 106.492 72.8284 106.5 73.2066 106.375C73.5813 106.255 74.1091 105.981 74.579 105.449C75.0514 104.922 75.4159 104.131 75.582 103.207C75.7492 102.284 75.7746 101.235 75.6064 100.163C75.4345 99.0922 75.0646 98.1089 74.5714 97.3104C74.0806 96.5087 73.4759 95.8961 72.911 95.4674C72.3453 95.0358 71.8231 94.7788 71.4545 94.6291C71.0839 94.4816 70.8688 94.427 70.8724 94.4135Z" fill="#244C7D"/>
<path d="M68.4407 91.4087C68.4277 91.4186 68.3619 91.363 68.2941 91.2436C68.2263 91.1253 68.1653 90.9393 68.1643 90.728C68.1641 90.5167 68.2237 90.3302 68.2911 90.2116C68.3581 90.0917 68.4236 90.0358 68.4366 90.0455C68.4696 90.0663 68.2908 90.3424 68.2966 90.7275C68.2931 91.1128 68.4734 91.3879 68.4407 91.4087Z" fill="#FAFAFA"/>
<path d="M76.0972 94.2154C76.0838 94.2238 76.02 94.158 75.9646 94.0229C75.9088 93.889 75.873 93.683 75.9098 93.4613C75.9471 93.2398 76.0482 93.0564 76.1445 92.9479C76.241 92.8382 76.3225 92.7966 76.3327 92.809C76.3604 92.8359 76.1026 93.0775 76.0403 93.4829C75.9669 93.8867 76.132 94.1989 76.0972 94.2154Z" fill="#FAFAFA"/>
<path d="M80.917 107.638C80.9035 107.657 80.5962 107.444 80.0585 107.176C79.5228 106.903 78.7493 106.597 77.8753 106.312C77.0011 106.026 76.2015 105.784 75.6315 105.581C75.3465 105.48 75.1171 105.394 74.9617 105.326C74.8057 105.26 74.7214 105.22 74.7247 105.211C74.7321 105.192 75.0846 105.315 75.6607 105.492C76.2363 105.672 77.0384 105.899 77.9167 106.186C78.7943 106.473 79.5715 106.796 80.1019 107.093C80.2365 107.163 80.3531 107.236 80.4552 107.3C80.5583 107.363 80.6447 107.42 80.7123 107.472C80.8492 107.572 80.9221 107.631 80.917 107.638Z" fill="#244C7D"/>
<path d="M98.9376 99.457C98.9449 99.4623 98.8619 99.589 98.7052 99.8141C98.5512 100.041 98.3105 100.357 98.0026 100.739C97.3859 101.502 96.4532 102.491 95.3455 103.497C94.2373 104.502 93.2035 105.374 92.4725 106.024C92.1202 106.338 91.8289 106.598 91.6079 106.796C91.4042 106.978 91.2884 107.076 91.282 107.07C91.2757 107.063 91.3793 106.953 91.5723 106.758C91.7644 106.563 92.0511 106.289 92.4098 105.955C93.1258 105.286 94.1512 104.402 95.2564 103.399C96.361 102.397 97.2983 101.424 97.931 100.679C98.2467 100.306 98.4979 100.001 98.664 99.7833C98.8329 99.5682 98.9302 99.4516 98.9376 99.457Z" fill="#244C7D"/>
<g opacity="0.2">
<path d="M94.6191 104.161C95.9874 104.273 97.5371 103.853 98.5086 102.884C99.4802 101.914 99.817 100.289 99.2318 99.0474C98.435 100.185 97.5356 101.395 96.4388 102.323C95.7466 102.909 95.2887 103.623 94.6191 104.161Z" fill="black"/>
</g>
<g opacity="0.5">
<path d="M89.753 72.214C91.5203 74.832 95.1762 75.6585 96.9392 78.2795C97.6217 79.294 97.959 80.4954 98.2859 81.6737C99.642 86.5617 100.998 91.4497 102.354 96.3377C102.523 93.1599 101.757 90.0151 100.996 86.9252C100.245 83.8739 99.4944 80.8226 98.7436 77.7713C98.5785 77.1002 98.4058 76.4119 98.0111 75.8444C97.6105 75.2684 97.0138 74.8637 96.4312 74.4726C94.3443 73.0715 92.1955 71.6433 89.7449 71.0845" fill="black"/>
</g>
<g opacity="0.3">
<path d="M77.2862 80.1353C77.3982 80.4914 76.9115 80.975 76.151 81.5773C75.768 81.8762 75.32 82.2189 74.8274 82.5877C74.3393 82.9641 73.8087 83.371 73.2618 83.8117C72.7187 84.2575 72.2125 84.6941 71.7444 85.0957C71.2831 85.5028 70.8564 85.8719 70.4858 86.1858C69.7414 86.8079 69.1688 87.1856 68.843 87.0035C68.5316 86.831 68.5382 86.0992 68.9725 85.0865C69.1866 84.5806 69.5188 84.018 69.9547 83.4409C70.3967 82.8701 70.9466 82.289 71.5928 81.7594C72.2427 81.2349 72.9235 80.8148 73.5722 80.4983C74.2257 80.1889 74.8442 79.9783 75.3832 79.8717C76.4627 79.6527 77.1808 79.7952 77.2862 80.1353Z" fill="white"/>
</g>
<path d="M70.4917 100.181C70.4914 100.219 70.228 100.243 69.9156 100.319C69.6024 100.392 69.3563 100.488 69.339 100.454C69.3218 100.423 69.5537 100.267 69.8851 100.19C70.2161 100.111 70.4935 100.146 70.4917 100.181Z" fill="#FAFAFA"/>
<path d="M66.6366 98.7821C66.631 98.8202 66.3864 98.8062 66.1004 98.874C65.8134 98.938 65.5997 99.0577 65.5782 99.0259C65.5556 98.9995 65.7547 98.8169 66.0709 98.7453C66.3864 98.6711 66.6452 98.7483 66.6366 98.7821Z" fill="#FAFAFA"/>
<path d="M83.7352 110.591C83.7014 110.61 83.3634 110.04 82.8935 109.373C82.4256 108.705 82.0035 108.194 82.0324 108.168C82.0576 108.144 82.5287 108.621 83.0017 109.297C83.4767 109.971 83.7657 110.576 83.7352 110.591Z" fill="#FAFAFA"/>
<path d="M68.6065 83.9352C68.6408 83.9581 68.1404 84.6906 67.7056 85.6868C67.2646 86.6807 67.0624 87.5443 67.0226 87.5344C67.0063 87.5308 67.036 87.3098 67.1239 86.9611C67.2115 86.6124 67.3634 86.1371 67.5847 85.6337C67.8064 85.1308 68.0543 84.6977 68.2522 84.3975C68.45 84.0967 68.5928 83.9255 68.6065 83.9352Z" fill="#FAFAFA"/>
<path d="M80.9201 79.0174C80.913 79.0514 80.262 78.9374 79.4947 78.6679C78.7266 78.4007 78.1462 78.0839 78.1619 78.0532C78.1784 78.0184 78.7784 78.2787 79.5384 78.5432C80.2973 78.8094 80.9288 78.9798 80.9201 79.0174Z" fill="#FAFAFA"/>
<path d="M100.731 74.8983C100.757 74.9143 100.353 75.4675 99.6518 75.915C98.9536 76.3682 98.283 76.5063 98.2792 76.4758C98.2668 76.438 98.9046 76.249 99.583 75.8081C100.265 75.3735 100.702 74.8713 100.731 74.8983Z" fill="#EB996E"/>
<path d="M108.17 73.2003C106.805 70.0512 93.1534 58.8701 93.1534 58.8701L85.4585 68.8625C85.5687 68.7124 98.013 76.2927 98.013 76.2927L101.685 93.0245L102.315 96.0034C102.315 96.0034 100.665 97.4441 100.733 98.9645C100.778 99.9793 98.4354 102.166 98.4354 102.166C97.8816 101.706 97.525 101.577 97.2471 101.63L94.7706 103.949L95.3604 104.487C96.0173 105.087 96.8819 105.407 97.7709 105.38L102.005 105.25C102.609 105.231 103.181 104.98 103.602 104.547C104.904 103.206 107.652 100.214 107.707 98.7692C107.738 97.9625 107.745 97.1926 107.742 96.5729C107.742 96.5724 109.534 76.3494 108.17 73.2003Z" fill="#FFBE9D"/>
<path d="M104.117 99.9595C104.121 99.9663 104.041 100.026 103.882 100.11C103.725 100.197 103.486 100.299 103.21 100.451C102.929 100.597 102.653 100.847 102.379 101.167C102.107 101.484 101.786 101.842 101.368 102.11C100.54 102.667 99.6095 102.814 98.9707 102.771C98.8112 102.76 98.6613 102.752 98.5351 102.696C98.4083 102.647 98.3248 102.526 98.3309 102.426C98.3283 102.328 98.3756 102.257 98.419 102.23C98.4637 102.204 98.4922 102.21 98.4917 102.212C98.4932 102.218 98.467 102.222 98.4345 102.251C98.403 102.279 98.3713 102.341 98.3802 102.423C98.3835 102.506 98.4495 102.589 98.562 102.63C98.672 102.673 98.8163 102.676 98.974 102.681C99.5991 102.7 100.495 102.543 101.297 102.004C101.702 101.744 102.011 101.405 102.291 101.088C102.57 100.771 102.873 100.511 103.167 100.371C103.456 100.226 103.698 100.139 103.86 100.066C104.024 99.9955 104.112 99.9513 104.117 99.9595Z" fill="#EB996E"/>
<path d="M102.181 102.164C102.199 102.197 101.849 102.403 101.473 102.723C101.094 103.041 100.833 103.351 100.803 103.329C100.776 103.31 100.998 102.955 101.39 102.626C101.78 102.295 102.168 102.134 102.181 102.164Z" fill="#EB996E"/>
<path d="M103.893 95.2325C103.896 95.2709 103.519 95.2943 103.111 95.4901C102.701 95.6801 102.443 95.9552 102.415 95.9293C102.387 95.9127 102.618 95.5797 103.057 95.375C103.495 95.1662 103.898 95.2005 103.893 95.2325Z" fill="#EB996E"/>
<path d="M101.244 103.47C101.235 103.491 100.971 103.36 100.516 103.252C100.065 103.143 99.411 103.077 98.7135 103.216C98.5406 103.254 98.3722 103.295 98.2147 103.351C98.1359 103.374 98.0577 103.41 97.9658 103.426C97.8763 103.446 97.7623 103.42 97.6937 103.368C97.4494 103.19 97.2236 103.025 97.0209 102.878C96.6416 102.597 96.4125 102.416 96.4232 102.401C96.4339 102.386 96.6823 102.54 97.0755 102.802C97.2815 102.941 97.5111 103.097 97.7598 103.265C97.869 103.349 98.0061 103.287 98.1725 103.228C98.3348 103.168 98.5086 103.125 98.6876 103.086C99.409 102.942 100.084 103.026 100.54 103.162C100.77 103.226 100.947 103.306 101.067 103.362C101.186 103.424 101.248 103.462 101.244 103.47Z" fill="#EB996E"/>
<path d="M72.5245 64.6589C70.8964 64.1939 70.1743 63.9914 70.1743 63.9914L70.1788 63.2528C70.1788 63.2528 70.1788 63.2528 70.8268 63.2454C71.4747 63.2381 72.4115 62.437 72.4115 62.437L73.7996 60.3089L73.9784 58.9462C73.8296 57.2632 71.8026 57.9216 71.8026 57.9216C71.7074 57.3346 69.1118 56.7451 67.1616 56.3831C65.8375 56.1372 64.4732 56.4944 63.444 57.3628L61.5718 58.9429L55.9607 63.8555L41.4811 76.0859L31.9643 73.2756C31.9643 73.2756 28.9381 82.5357 28.4436 85.8613C27.4954 92.2347 36.2548 96.4816 40.1161 93.2019C43.1182 90.652 60.6294 71.7961 63.5299 68.6683C63.5375 68.6676 63.5464 68.6683 63.554 68.6676C65.3396 68.4397 68.3485 66.6373 68.3485 66.6373L69.8956 66.8197C69.8956 66.8197 74.0064 67.6048 74.4925 66.7984C74.8738 66.1657 74.1524 65.124 72.5245 64.6589Z" fill="#FFBE9D"/>
<path d="M64.0937 62.8085C64.1021 62.8052 64.1341 62.8687 64.1844 62.9873C64.2372 63.1049 64.2957 63.2829 64.351 63.507C64.4635 63.9543 64.527 64.6025 64.4171 65.3033C64.3043 66.0038 64.0427 66.6004 63.7971 66.9906C63.6749 67.1864 63.5641 67.3376 63.4775 67.4331C63.3927 67.5301 63.3429 67.5806 63.3358 67.5748C63.3172 67.5598 63.4968 67.3398 63.7163 66.9436C63.9368 66.5489 64.1765 65.9642 64.2865 65.2824C64.3934 64.6004 64.3467 63.9703 64.2596 63.5268C64.174 63.082 64.0711 62.8171 64.0937 62.8085Z" fill="#EB996E"/>
<path d="M65.1423 57.6235C65.1418 57.6189 65.1967 57.6087 65.3013 57.5935C65.4062 57.579 65.5609 57.5587 65.7613 57.5401C66.1606 57.5066 66.7476 57.4563 67.4664 57.5602C67.8238 57.6151 68.214 57.7151 68.6018 57.8988C68.9876 58.0817 69.3765 58.3479 69.6833 58.7268C69.9876 59.1017 70.2109 59.5968 70.2033 60.1363C70.2015 60.404 70.1306 60.6773 70.0031 60.9214C69.8761 61.1665 69.7006 61.3849 69.5053 61.5828C69.1167 61.9671 68.691 62.2826 68.2617 62.561C68.044 62.6941 67.8368 62.8355 67.595 62.9257C67.4753 62.9686 67.3476 62.9996 67.2145 62.9897C67.0816 62.9841 66.9468 62.9178 66.8632 62.8124C66.7778 62.7052 66.7512 62.5701 66.753 62.4492C66.7545 62.3263 66.7806 62.2102 66.8175 62.101C66.8927 61.8858 66.994 61.6887 67.1154 61.5135C67.3565 61.1614 67.6691 60.8998 67.9889 60.7289L68.0031 60.8173C67.2838 60.6803 66.6961 60.5686 66.2706 60.4876C66.0778 60.4479 65.9221 60.4162 65.8007 60.3913C65.6935 60.3679 65.6376 60.3532 65.6384 60.3486C65.6392 60.344 65.6966 60.3496 65.8053 60.3646C65.9277 60.3832 66.0849 60.4068 66.2795 60.436C66.707 60.5066 67.2973 60.6044 68.0197 60.7238L68.1533 60.7459L68.0339 60.8122C67.7298 60.9811 67.4334 61.2361 67.2066 61.5754C67.0925 61.7438 66.9973 61.9338 66.9282 62.1378C66.864 62.3339 66.8332 62.5762 66.9584 62.736C67.0859 62.9011 67.3379 62.8899 67.5515 62.8066C67.7687 62.7253 67.9782 62.5836 68.1916 62.4515C68.6122 62.1772 69.0349 61.862 69.4111 61.4896C69.7913 61.1137 70.0748 60.6382 70.0735 60.134C70.0824 59.6323 69.8759 59.1624 69.5881 58.8033C69.2985 58.4401 68.9264 58.1792 68.5541 57.9976C68.1797 57.8152 67.8017 57.7124 67.4515 57.6527C66.7479 57.5389 66.1637 57.5737 65.7649 57.5917C65.5759 57.6034 65.4233 57.6128 65.3039 57.6202C65.1987 57.6265 65.1428 57.628 65.1423 57.6235Z" fill="#EB996E"/>
<path d="M71.8203 58.0083C71.8286 58.0075 71.8474 58.1046 71.8652 58.2821C71.883 58.4594 71.9003 58.7177 71.8952 59.0378C71.882 59.6697 71.7751 60.5872 71.2625 61.4411C70.7568 62.291 69.9584 62.8401 69.3019 62.9255C68.9671 62.9656 68.7019 62.8183 68.5856 62.6789C68.5244 62.6093 68.4929 62.5432 68.4779 62.4978C68.4626 62.452 68.4621 62.4264 68.4657 62.4254C68.4779 62.42 68.4987 62.5232 68.6227 62.643C68.7431 62.7614 68.9849 62.8803 69.2907 62.8325C69.8965 62.7317 70.6636 62.193 71.1489 61.373C71.644 60.5496 71.7649 59.658 71.8017 59.0342C71.8327 58.403 71.7974 58.0098 71.8203 58.0083Z" fill="#EB996E"/>
<path d="M68.2261 65.2616C68.2119 65.2454 68.344 65.1301 68.5002 64.903C68.6564 64.6787 68.8269 64.3284 68.8672 63.9137C68.9074 63.4989 68.8076 63.1222 68.6973 62.8723C68.5878 62.6195 68.4801 62.4808 68.4974 62.4676C68.5081 62.4575 68.6442 62.5771 68.7817 62.8316C68.9191 63.0823 69.042 63.4813 68.9991 63.9266C68.9556 64.3716 68.7583 64.7394 68.5751 64.9591C68.3912 65.1824 68.2348 65.2736 68.2261 65.2616Z" fill="#EB996E"/>
<path d="M65.7577 60.4473C65.7724 60.4379 65.874 60.6485 65.8392 61.0031C65.8227 61.1768 65.778 61.3904 65.6619 61.5962C65.5548 61.7999 65.414 62.0155 65.2294 62.2114C64.8588 62.6101 64.4016 62.8083 64.0884 62.9413C63.7684 63.0701 63.5654 63.1334 63.5586 63.1174C63.5509 63.0998 63.7425 63.0054 64.0498 62.856C64.3521 62.7018 64.7846 62.4966 65.1329 62.1204C65.3076 61.9347 65.445 61.7313 65.5548 61.5372C65.6683 61.3495 65.7183 61.156 65.746 60.9911C65.8029 60.6587 65.7389 60.4524 65.7577 60.4473Z" fill="#EB996E"/>
<path d="M76.5578 61.1985L69.4138 65.0936C69.4138 65.0936 73.236 66.0484 76.6952 69.71C79.8324 73.0308 81.0442 76.627 81.0442 76.627L88.1628 71.8909C88.1628 71.8909 84.3404 63.2203 76.5578 61.1985Z" fill="#455A64"/>
<path d="M70.6729 64.9472C70.9876 64.7674 72.9368 63.6536 76.4425 61.65L76.459 61.6406L76.4778 61.6455C77.4164 61.8913 78.4065 62.2916 79.3963 62.8481C80.3823 63.4105 81.3679 64.1273 82.3071 64.9863C83.25 65.8415 84.1514 66.8329 84.9945 67.9289C85.8352 69.0272 86.6318 70.2202 87.3127 71.5245L87.3394 71.5758L87.2901 71.6089C87.172 71.6878 87.044 71.7735 86.916 71.8593C84.9896 73.1466 83.1326 74.3876 81.424 75.5293L81.3597 75.5723L81.3305 75.5009C80.4796 73.4219 79.3668 71.6261 78.1649 70.1941C76.9622 68.7592 75.6869 67.6848 74.5571 66.9101C73.425 66.1339 72.4398 65.65 71.7527 65.3556C71.408 65.2096 71.1375 65.1092 70.9536 65.0442C70.8652 65.0143 70.7959 64.9906 70.7433 64.9729C70.6925 64.9553 70.6714 64.9472 70.6729 64.9472C70.693 64.9513 70.7141 64.9556 70.7474 64.9624C70.8004 64.9777 70.8708 64.9977 70.9602 65.0234C71.1466 65.0818 71.4204 65.1761 71.7687 65.3165C72.4631 65.5997 73.4578 66.0742 74.6013 66.8448C75.7425 67.6139 77.0313 68.6868 78.2472 70.1247C79.4623 71.5601 80.5873 73.3637 81.4471 75.4531L81.3536 75.4247C83.0613 74.2814 84.917 73.0386 86.8423 71.7496C86.9706 71.6637 87.0984 71.5784 87.2165 71.4991L87.1938 71.5835C86.5205 70.2931 85.726 69.1003 84.8916 68.0079C84.0542 66.9162 83.1596 65.9287 82.2248 65.0765C81.2937 64.2205 80.3176 63.506 79.3417 62.9439C78.362 62.3879 77.3826 61.9863 76.4535 61.7369L76.4885 61.7323C72.9546 63.6858 70.9899 64.7719 70.6729 64.9472Z" fill="white"/>
<path d="M82.3689 67.2941C82.1827 68.3937 80.7895 69.0594 79.2572 68.7808C77.7248 68.5021 76.6331 67.3848 76.8193 66.2849C77.0054 65.1851 78.3986 64.5196 79.931 64.7983C81.4637 65.0769 82.5551 66.1943 82.3689 67.2941Z" fill="#FAFAFA"/>
<path d="M79.0406 67.6485L78.7935 67.9215L78.5087 67.6447L78.747 67.3815C78.5252 67.1334 78.3642 66.8431 78.3157 66.6107L78.7952 66.4019C78.8511 66.6457 78.9974 66.9175 79.1899 67.1044C79.3845 67.2937 79.5115 67.3112 79.5872 67.2274C79.8343 66.9543 78.7094 66.2352 79.2882 65.5957C79.5331 65.3252 79.9276 65.2784 80.3566 65.603L80.6014 65.3325L80.8862 65.6094L80.6459 65.8751C80.8082 66.0605 80.937 66.2782 80.9961 66.4885L80.5245 66.7092C80.4455 66.4661 80.3291 66.2698 80.1844 66.1291C79.9875 65.9376 79.8539 65.9373 79.7759 66.0234C79.5377 66.2865 80.6581 67.0056 80.0838 67.6401C79.8473 67.9012 79.462 67.952 79.0406 67.6485Z" fill="#455A64"/>
<path d="M72.3036 64.0308C72.3036 64.0308 73.5146 64.6454 72.3511 65.5438L70.5713 64.8535L72.3036 64.0308Z" fill="#FAFAFA"/>
<path d="M75.5583 62.2012C75.5583 62.2012 76.7265 63.4351 77.8423 62.1514L76.4656 61.6914L75.5583 62.2012Z" fill="#FAFAFA"/>
<path d="M80.6541 73.8565C80.6541 73.8565 82.2266 72.5802 83.1453 74.3021L81.3886 75.4771L80.6541 73.8565Z" fill="#FAFAFA"/>
<path d="M86.456 70.156C86.456 70.156 85.3214 70.8659 86.0908 72.3318L87.2531 71.5543L86.456 70.156Z" fill="#FAFAFA"/>
<path d="M82.2469 74.2757C82.2466 74.548 82.0338 74.7685 81.7711 74.7682C81.5085 74.768 81.2956 74.5473 81.2959 74.275C81.2962 74.0027 81.5093 73.7822 81.7719 73.7825C82.0343 73.7827 82.2469 74.0037 82.2469 74.2757Z" fill="#455A64"/>
<path d="M87.014 71.2445C87.0137 71.5168 86.8006 71.7372 86.538 71.737C86.2753 71.7367 86.0625 71.516 86.0627 71.2437C86.063 70.9714 86.2761 70.751 86.5387 70.7512C86.8014 70.7512 87.0142 70.9722 87.014 71.2445Z" fill="#455A64"/>
<path d="M77.1975 62.1537C77.1975 62.329 76.9537 62.471 76.6532 62.4707C76.3527 62.4704 76.1091 62.3282 76.1094 62.1527C76.1094 61.9774 76.3532 61.8354 76.6537 61.8354C76.9542 61.836 77.1975 61.9782 77.1975 62.1537Z" fill="#455A64"/>
<path d="M72.5539 64.7876C72.5537 65.0208 72.3172 65.2098 72.0258 65.2095C71.7343 65.2093 71.498 65.0201 71.4983 64.7869C71.4985 64.5537 71.735 64.3647 72.0264 64.365C72.318 64.365 72.5539 64.5542 72.5539 64.7876Z" fill="#455A64"/>
<path d="M76.9347 64.5229C76.9344 64.7929 76.5986 65.0113 76.1846 65.0111C75.7706 65.0108 75.4351 64.7916 75.4351 64.5216C75.4353 64.2516 75.7711 64.0329 76.1851 64.0334C76.5991 64.034 76.9347 64.2532 76.9347 64.5229Z" fill="#FAFAFA"/>
<path d="M82.9519 71.0496C82.6141 71.2033 82.197 70.9897 82.0205 70.5726C81.844 70.1555 81.9748 69.693 82.3128 69.5393C82.6507 69.3857 83.0677 69.5993 83.2443 70.0163C83.4208 70.4334 83.2897 70.8959 82.9519 71.0496Z" fill="#FAFAFA"/>
<path d="M72.4111 62.4369L75.3433 65.523C75.3433 65.523 76.5163 66.8651 77.307 66.2309C78.0977 65.5967 76.9874 64.4105 76.7528 64.0658C76.5181 63.7209 73.6451 60.2324 73.6451 60.2324L72.4111 62.4369Z" fill="#FFBE9D"/>
<path d="M73.9236 59.6525C73.9396 59.6566 73.9066 59.8636 73.8111 60.1885C73.7151 60.5126 73.551 60.9548 73.2906 61.4051C73.03 61.8555 72.7158 62.2146 72.457 62.4359C72.199 62.6589 72.011 62.7569 72.0031 62.7447C71.9904 62.7267 72.1578 62.6022 72.393 62.3675C72.6295 62.1341 72.9218 61.7778 73.1761 61.3386C73.6826 60.4564 73.8787 59.6378 73.9236 59.6525Z" fill="#EB996E"/>
<path d="M46.6302 71.737C46.6332 71.7406 46.586 71.7868 46.4933 71.8717C46.3901 71.9639 46.2537 72.0853 46.0833 72.2374C45.712 72.5595 45.1935 73.0093 44.5575 73.561C43.2637 74.6723 41.4684 76.198 39.4676 77.8625C37.4661 79.527 35.6368 81.0131 34.2926 82.0639C33.6223 82.5915 33.0704 83.0063 32.6856 83.2885C32.4996 83.421 32.3511 83.5272 32.2383 83.6077C32.1352 83.6796 32.0798 83.7154 32.0772 83.7116C32.0747 83.7078 32.1247 83.6649 32.2225 83.5861C32.3312 83.5008 32.475 83.3883 32.6546 83.2473C33.0295 82.9529 33.572 82.5272 34.2345 81.9905C35.5626 80.9217 37.3818 79.4249 39.383 77.7607C41.3752 76.097 43.1786 74.5907 44.4971 73.4896C45.1445 72.9512 45.6723 72.5125 46.05 72.1983C46.2271 72.054 46.3688 71.939 46.476 71.8516C46.574 71.7729 46.6271 71.7335 46.6302 71.737Z" fill="#EB996E"/>
</svg>
