<svg width="103" height="107" viewBox="0 0 103 107" fill="none" xmlns="http://www.w3.org/2000/svg">
<path d="M38.3968 86.4624C38.4167 90.4628 41.0103 93.6879 44.1894 93.6656L45.3208 93.6578L45.2487 79.1714L44.1173 79.1792C40.938 79.2011 38.3768 82.462 38.3968 86.4624Z" fill="#E0E0E0"/>
<path d="M49.6462 91.5062C47.2658 94.3515 43.3834 94.3786 40.9749 91.5666C38.5663 88.7546 38.5433 84.1684 40.9238 81.3232C43.3042 78.4779 47.1866 78.4508 49.5954 81.2628C52.004 84.0745 52.0267 88.6607 49.6462 91.5062Z" fill="#E6E6E6"/>
<path d="M47.4636 91.6187C49.893 90.1963 50.8862 86.7168 49.6821 83.847C48.478 80.9772 45.5325 79.8038 43.1031 81.2263C40.6737 82.6487 39.6805 86.1282 40.8846 88.998C42.0887 91.8678 45.0342 93.0411 47.4636 91.6187Z" fill="#EBEBEB"/>
<path d="M46.0556 88.7042C45.7986 88.9315 45.4964 89.052 45.1492 89.0664L45.1245 89.2556C45.112 89.3512 45.0709 89.4304 45.0017 89.4928C44.9323 89.5549 44.8572 89.5789 44.776 89.5641C44.6949 89.5494 44.6313 89.5017 44.5848 89.4208C44.5384 89.34 44.5217 89.2493 44.5349 89.1485L44.5567 88.9821C44.2594 88.8816 44.0121 88.723 43.8153 88.5063C43.6182 88.29 43.4886 88.052 43.4263 87.7926C43.3984 87.6689 43.3896 87.569 43.3994 87.4933C43.4126 87.3922 43.4546 87.311 43.5263 87.2489C43.5974 87.1871 43.6781 87.1643 43.7681 87.1808C43.8407 87.1941 43.9014 87.2307 43.9503 87.2914C43.9992 87.3521 44.0315 87.4251 44.0466 87.5104C44.0718 87.6854 44.1417 87.8388 44.2557 87.9705C44.3696 88.1025 44.5051 88.2033 44.6623 88.2729L44.8988 86.6579C44.5618 86.4572 44.3056 86.2325 44.1305 85.9838C43.9552 85.7348 43.8904 85.4367 43.9358 85.0883C43.9818 84.735 44.1229 84.4571 44.3591 84.2549C44.5953 84.0525 44.8963 83.956 45.2624 83.9655L45.2832 83.8066C45.2957 83.7107 45.3358 83.6316 45.403 83.5689C45.47 83.5062 45.5419 83.4817 45.6189 83.4958C45.7001 83.5106 45.7656 83.56 45.816 83.644C45.8664 83.7284 45.8852 83.8182 45.8727 83.9141L45.8529 84.0655C46.1938 84.1689 46.4488 84.3338 46.618 84.5608C46.7875 84.7879 46.8533 85.0479 46.8151 85.3405C46.8007 85.4514 46.7587 85.5383 46.6895 85.6004C46.62 85.6628 46.5427 85.6862 46.4572 85.6706C46.3804 85.6568 46.319 85.6157 46.273 85.5482C46.2273 85.4806 46.206 85.4003 46.2092 85.3078C46.2104 85.1995 46.1701 85.0955 46.0894 84.9956C46.0082 84.8956 45.8955 84.8145 45.7505 84.7518L45.5377 86.1854C46.2723 86.6236 46.5968 87.1707 46.5114 87.8264C46.4642 88.1843 46.3124 88.4772 46.0556 88.7042ZM44.6342 85.5135C44.7068 85.6276 44.8313 85.7469 45.0076 85.872L45.1724 84.6544C44.9885 84.6573 44.844 84.7018 44.7389 84.7888C44.6335 84.8757 44.5709 84.9944 44.5511 85.1461C44.5337 85.2769 44.5613 85.3997 44.6342 85.5135ZM45.6893 88.1649C45.8111 88.0528 45.8825 87.9162 45.9035 87.7544C45.9207 87.6233 45.894 87.493 45.8231 87.3642C45.7524 87.2351 45.6209 87.1039 45.4284 86.9708L45.2406 88.3622C45.4179 88.3431 45.5676 88.2773 45.6893 88.1649Z" fill="#FAFAFA"/>
<path d="M41.9474 82.0259C44.0005 79.8499 47.1583 80.0524 49 82.4776C50.8418 84.9032 50.6706 88.6329 48.6176 90.8088C50.2809 88.5635 50.2635 85.2047 48.5768 82.984C46.7348 80.5585 43.5772 80.3563 41.5242 82.5322C41.6565 82.3534 41.7978 82.1844 41.9474 82.0259Z" fill="#E0E0E0"/>
<path d="M72.8078 67.0173C73.0755 69.9406 75.1758 72.0697 77.499 71.7728L78.3257 71.6671L77.3564 61.0811L76.5297 61.1868C74.2065 61.484 72.54 64.0941 72.8078 67.0173Z" fill="#E0E0E0"/>
<path d="M81.3522 69.7125C79.7917 72.0031 76.9547 72.3656 75.0156 70.5221C73.0765 68.6787 72.7696 65.3273 74.3302 63.0367C75.8907 60.7461 78.7277 60.3836 80.6668 62.2271C82.6059 64.0705 82.9128 67.4218 81.3522 69.7125Z" fill="#E6E6E6"/>
<path d="M78.3682 70.5875C80.3393 70.2414 81.6996 68.0734 81.4067 65.745C81.1138 63.4166 79.2785 61.8096 77.3074 62.1557C75.3364 62.5017 73.976 64.6697 74.2689 66.9981C74.5619 69.3265 76.3972 70.9335 78.3682 70.5875Z" fill="#EBEBEB"/>
<path d="M78.5493 67.9808C78.3757 68.1697 78.1625 68.2844 77.9094 68.3257L77.9033 68.4664C77.9001 68.5375 77.8752 68.599 77.8285 68.6507C77.7818 68.7024 77.7282 68.7264 77.6678 68.7229C77.6074 68.7194 77.558 68.69 77.5189 68.6351C77.4798 68.5802 77.4619 68.5152 77.4651 68.4404L77.4705 68.3168C77.2467 68.2697 77.056 68.1755 76.8983 68.0346C76.7406 67.8936 76.6308 67.731 76.5687 67.547C76.5405 67.4589 76.5278 67.3867 76.53 67.3306C76.5332 67.2555 76.5589 67.1923 76.6073 67.1406C76.6555 67.0891 76.7129 67.0652 76.7797 67.0692C76.8335 67.0724 76.8802 67.0941 76.9198 67.1339C76.9594 67.1741 76.9875 67.2246 77.0042 67.2856C77.0337 67.4112 77.0944 67.5172 77.1861 67.6036C77.2778 67.69 77.3832 67.7518 77.5025 67.7888L77.5732 66.5868C77.314 66.4698 77.1125 66.328 76.9687 66.1616C76.8249 65.9949 76.7587 65.7826 76.7697 65.5241C76.7809 65.2618 76.8665 65.0461 77.0264 64.8774C77.1863 64.7087 77.4003 64.6113 77.6685 64.5862L77.6737 64.4683C77.6768 64.397 77.7011 64.3358 77.7463 64.2838C77.7913 64.2321 77.8424 64.2078 77.8996 64.2113C77.96 64.2147 78.0111 64.2453 78.0532 64.3023C78.0952 64.3594 78.1148 64.4233 78.1119 64.4946L78.107 64.607C78.3627 64.6523 78.5596 64.7506 78.6977 64.9016C78.8361 65.0527 78.9005 65.237 78.8912 65.4542C78.8877 65.5365 78.8626 65.6038 78.8156 65.6553C78.7689 65.707 78.7136 65.7309 78.6503 65.7272C78.5931 65.7237 78.5457 65.6994 78.508 65.6538C78.4701 65.6085 78.4496 65.5516 78.4461 65.4837C78.44 65.4045 78.4041 65.3317 78.3388 65.2659C78.273 65.2 78.1857 65.1506 78.0754 65.1177L78.0104 66.1847C78.5752 66.4404 78.8471 66.8115 78.8261 67.2988C78.8154 67.5646 78.7227 67.7919 78.5493 67.9808ZM77.3081 65.7731C77.3685 65.8499 77.467 65.9265 77.6037 66.0022L77.6473 65.0975C77.513 65.1157 77.4101 65.1613 77.3387 65.2338C77.267 65.3066 77.2289 65.399 77.224 65.5117C77.2198 65.6093 77.2479 65.6963 77.3081 65.7731ZM78.2473 67.6189C78.3292 67.5262 78.3728 67.4199 78.3781 67.3C78.3823 67.2027 78.3547 67.1096 78.2948 67.0215C78.2349 66.9334 78.1304 66.8491 77.9813 66.7688L77.9319 67.8029C78.0603 67.7729 78.1654 67.7116 78.2473 67.6189Z" fill="#F5F5F5"/>
<path d="M75.123 63.4602C76.4867 61.6881 78.8082 61.5572 80.3084 63.1679C81.8086 64.7785 81.9193 67.5212 80.5559 69.2934C81.6301 67.5048 81.4046 65.0504 80.0311 63.5755C78.5309 61.9645 76.2094 62.0954 74.8457 63.8678C74.931 63.7254 75.0237 63.5893 75.123 63.4602Z" fill="#E0E0E0"/>
<path d="M51.1024 106.83C79.3105 106.83 102.178 105.799 102.178 104.527C102.178 103.255 79.3105 102.225 51.1024 102.225C22.8943 102.225 0.0270996 103.255 0.0270996 104.527C0.0270996 105.799 22.8943 106.83 51.1024 106.83Z" fill="#F5F5F5"/>
<path d="M60.908 80.5886H36.5222C33.7799 80.5863 31.5571 77.9606 31.4036 74.7601V5.90625C31.5571 2.62773 33.7799 0.00202199 36.5222 0H60.908C63.6504 0.00231085 65.8731 2.62773 65.8751 5.86754V74.7214C65.8731 77.9606 63.6504 80.5863 60.908 80.5886Z" fill="#263238"/>
<path d="M60.9077 1.34805H54.5699C54.1581 1.34545 53.8086 1.70393 53.7527 2.18574L53.7255 2.42116C53.5922 3.60662 52.7388 4.4937 51.7265 4.49919H45.7026C44.6903 4.4937 43.8369 3.60634 43.7036 2.42116L43.6799 2.18574C43.6256 1.6993 43.2747 1.33592 42.8595 1.33621H36.5217C34.4087 1.32726 32.69 3.34348 32.6824 5.83948C32.6824 5.84873 32.6824 5.85797 32.6824 5.8675V74.7213C32.6824 77.2174 34.3953 79.2405 36.508 79.2405H60.8938C63.0072 79.2405 64.7208 77.2179 64.7228 74.7213V5.86721C64.7213 3.37698 63.0158 1.35672 60.9077 1.34805Z" fill="#173F6F"/>
<path opacity="0.7" d="M60.9077 1.34805H54.5699C54.1581 1.34545 53.8086 1.70393 53.7527 2.18574L53.7255 2.42116C53.5922 3.60662 52.7388 4.4937 51.7265 4.49919H45.7026C44.6903 4.4937 43.8369 3.60634 43.7036 2.42116L43.6799 2.18574C43.6256 1.6993 43.2747 1.33592 42.8595 1.33621H36.5217C34.4087 1.32726 32.69 3.34348 32.6824 5.83948C32.6824 5.84873 32.6824 5.85797 32.6824 5.8675V74.7213C32.6824 77.2174 34.3953 79.2405 36.508 79.2405H60.8938C63.0072 79.2405 64.7208 77.2179 64.7228 74.7213V5.86721C64.7213 3.37698 63.0158 1.35672 60.9077 1.34805Z" fill="white"/>
<g opacity="0.7">
<path d="M47.2393 2.11004C47.2413 2.42721 47.0251 2.68631 46.7564 2.68833C46.4879 2.69064 46.2686 2.43501 46.2669 2.11784C46.2649 1.80068 46.4811 1.54157 46.7498 1.53955C46.752 1.53955 46.7542 1.53955 46.7564 1.53955C47.0232 1.53984 47.2393 1.79519 47.2393 2.11004Z" fill="black"/>
<path d="M50.6733 1.53979H49.012C48.7452 1.53979 48.5291 1.79514 48.5291 2.11029C48.5291 2.42543 48.7452 2.68078 49.012 2.68078H50.6733C50.9398 2.68078 51.1562 2.42543 51.1562 2.11029C51.1562 1.79514 50.9401 1.53979 50.6733 1.53979Z" fill="black"/>
</g>
<path d="M35.8636 3.89282H35.3503V4.49913H35.8636V3.89282Z" fill="#173F6F"/>
<path d="M36.3733 3.89293V4.49924H36.8865V3.89293V3.28662H36.3733V3.89293Z" fill="#173F6F"/>
<path d="M37.3999 2.68433V3.28659V3.8929V4.49921H37.9132V3.8929V3.28659V2.68433H37.3999Z" fill="#173F6F"/>
<path d="M59.4525 2.72437V3.16718H59.2026V4.05657H59.4525V4.49939H61.7215V2.72437H59.4525ZM60.4656 4.05657H59.6958V3.16718H60.4487L60.4656 4.05657Z" fill="#173F6F"/>
<path d="M58.2842 51.0502H39.1454C38.9205 51.0502 38.7383 50.835 38.7383 50.5692V36.4248C38.7383 36.159 38.9205 35.9438 39.1454 35.9438H58.2842C58.5091 35.9438 58.6913 36.159 58.6913 36.4248V50.5692C58.6913 50.8347 58.5089 51.0502 58.2842 51.0502Z" fill="#173F6F"/>
<path opacity="0.6" d="M44.9168 42.9924H41.9578C41.6798 42.9924 41.4543 42.726 41.4543 42.3976V39.5423C41.4543 39.2138 41.6798 38.9475 41.9578 38.9475H44.9168C45.1949 38.9475 45.4203 39.2138 45.4203 39.5423V42.3976C45.4203 42.7263 45.1949 42.9924 44.9168 42.9924Z" fill="white"/>
<g opacity="0.3">
<path d="M41.4542 46.0723C42.3137 46.0723 43.1735 46.0723 44.033 46.0723C44.3252 46.0723 44.3257 45.5359 44.033 45.5359C43.1735 45.5359 42.3137 45.5359 41.4542 45.5359C41.162 45.5356 41.1615 46.0723 41.4542 46.0723Z" fill="black"/>
</g>
<g opacity="0.3">
<path d="M45.4244 46.0723C46.2839 46.0723 47.1437 46.0723 48.0032 46.0723C48.2954 46.0723 48.2959 45.5359 48.0032 45.5359C47.1437 45.5359 46.2839 45.5359 45.4244 45.5359C45.1322 45.5356 45.1317 46.0723 45.4244 46.0723Z" fill="black"/>
</g>
<g opacity="0.3">
<path d="M49.3948 46.0723C50.2543 46.0723 51.1141 46.0723 51.9736 46.0723C52.2658 46.0723 52.2663 45.5359 51.9736 45.5359C51.1141 45.5359 50.2543 45.5359 49.3948 45.5359C49.1024 45.5356 49.1019 46.0723 49.3948 46.0723Z" fill="black"/>
</g>
<g opacity="0.3">
<path d="M53.3651 46.0723C54.2246 46.0723 55.0843 46.0723 55.9439 46.0723C56.2361 46.0723 56.2366 45.5359 55.9439 45.5359C55.0843 45.5359 54.2246 45.5359 53.3651 45.5359C53.0729 45.5356 53.0724 46.0723 53.3651 46.0723Z" fill="black"/>
</g>
<path d="M54.4282 23.4005H42.6304C42.2902 23.4005 42.0144 23.0747 42.0144 22.6729V9.94931C42.0144 9.54751 42.2902 9.22168 42.6304 9.22168H54.4282C54.7684 9.22168 55.0442 9.54751 55.0442 9.94931V22.6729C55.0442 23.0747 54.7686 23.4005 54.4282 23.4005Z" fill="#173F6F"/>
<path d="M48.5293 15.3103H43.9848C43.843 15.3103 43.7813 15.0983 43.8931 14.9955L46.04 13.0197L48.4376 10.8131C48.4914 10.7635 48.5669 10.7635 48.6207 10.8131L51.0183 13.0197L53.1652 14.9955C53.2772 15.0986 53.2156 15.3103 53.0735 15.3103H48.5293Z" fill="#173F6F"/>
<g opacity="0.7">
<path d="M48.5293 15.3103H43.9848C43.843 15.3103 43.7813 15.0983 43.8931 14.9955L46.04 13.0197L48.4376 10.8131C48.4914 10.7635 48.5669 10.7635 48.6207 10.8131L51.0183 13.0197L53.1652 14.9955C53.2772 15.0986 53.2156 15.3103 53.0735 15.3103H48.5293Z" fill="white"/>
</g>
<path d="M51.7421 14.7577H45.316C45.2568 14.7577 45.2042 14.7132 45.1851 14.6474C45.1661 14.5812 45.1847 14.5084 45.2311 14.4654L48.4442 11.5084C48.4943 11.4627 48.564 11.4621 48.6139 11.5081L51.8272 14.4651C51.8737 14.5078 51.8922 14.5809 51.8732 14.6471C51.8541 14.7132 51.8013 14.7577 51.7421 14.7577ZM45.5346 14.5055H51.5232L48.529 11.7498L45.5346 14.5055Z" fill="#173F6F"/>
<path d="M45.7482 15.3105H44.8799V19.6928H45.7482V15.3105Z" fill="#173F6F"/>
<g opacity="0.7">
<path d="M45.7482 15.3105H44.8799V19.6928H45.7482V15.3105Z" fill="white"/>
</g>
<path d="M47.7177 15.3105H46.8494V19.6928H47.7177V15.3105Z" fill="#173F6F"/>
<g opacity="0.7">
<path d="M47.7177 15.3105H46.8494V19.6928H47.7177V15.3105Z" fill="white"/>
</g>
<path d="M50.3891 15.3105H49.5208V19.6928H50.3891V15.3105Z" fill="#173F6F"/>
<g opacity="0.7">
<path d="M50.3891 15.3105H49.5208V19.6928H50.3891V15.3105Z" fill="white"/>
</g>
<path d="M52.3253 15.3105H51.457V19.6928H52.3253V15.3105Z" fill="#173F6F"/>
<g opacity="0.7">
<path d="M52.3253 15.3105H51.457V19.6928H52.3253V15.3105Z" fill="white"/>
</g>
<path d="M53.1605 20.8207H43.8977C43.7644 20.8207 43.6671 20.6722 43.7001 20.5197L43.8407 19.8735C43.8639 19.7669 43.9451 19.6924 44.0383 19.6924H52.9862C53.0749 19.6924 53.1534 19.7603 53.1806 19.8602L53.3549 20.5064C53.397 20.6621 53.2987 20.8207 53.1605 20.8207Z" fill="#173F6F"/>
<g opacity="0.7">
<path d="M53.1605 20.8207H43.8977C43.7644 20.8207 43.6671 20.6722 43.7001 20.5197L43.8407 19.8735C43.8639 19.7669 43.9451 19.6924 44.0383 19.6924H52.9862C53.0749 19.6924 53.1534 19.7603 53.1806 19.8602L53.3549 20.5064C53.397 20.6621 53.2987 20.8207 53.1605 20.8207Z" fill="white"/>
</g>
<path d="M48.5291 14.1819C48.1809 14.1819 47.8977 13.8474 47.8977 13.4358C47.8977 13.0244 48.1811 12.6899 48.5291 12.6899C48.8773 12.6899 49.1604 13.0247 49.1604 13.4358C49.1604 13.8471 48.8773 14.1819 48.5291 14.1819ZM48.5291 12.9421C48.2985 12.9421 48.1112 13.1637 48.1112 13.4358C48.1112 13.7082 48.2985 13.9297 48.5291 13.9297C48.7597 13.9297 48.947 13.7082 48.947 13.4358C48.947 13.1637 48.7597 12.9421 48.5291 12.9421Z" fill="#173F6F"/>
<path d="M52.8346 15.9472H44.2239C44.1402 15.9472 44.0725 15.8672 44.0725 15.7684V15.4893C44.0725 15.3906 44.1402 15.3105 44.2239 15.3105H52.8346C52.9182 15.3105 52.9859 15.3906 52.9859 15.4893V15.7684C52.9859 15.8672 52.9182 15.9472 52.8346 15.9472Z" fill="#173F6F"/>
<g opacity="0.7">
<path d="M52.8346 15.9472H44.2239C44.1402 15.9472 44.0725 15.8672 44.0725 15.7684V15.4893C44.0725 15.3906 44.1402 15.3105 44.2239 15.3105H52.8346C52.9182 15.3105 52.9859 15.3906 52.9859 15.4893V15.7684C52.9859 15.8672 52.9182 15.9472 52.8346 15.9472Z" fill="white"/>
</g>
<path d="M52.789 15.4701H44.2695C44.2105 15.4701 44.1626 15.4138 44.1626 15.3442C44.1626 15.2746 44.2103 15.2183 44.2695 15.2183H52.789C52.8479 15.2183 52.8956 15.2746 52.8956 15.3442C52.8958 15.4138 52.8481 15.4701 52.789 15.4701Z" fill="#173F6F"/>
<path d="M52.789 20.4028H44.2695C44.2105 20.4028 44.1626 20.3465 44.1626 20.2769C44.1626 20.2073 44.2103 20.1506 44.2695 20.1506H52.789C52.8479 20.1506 52.8956 20.207 52.8956 20.2769C52.8958 20.3465 52.8481 20.4028 52.789 20.4028Z" fill="#173F6F"/>
<path d="M56.3434 25.8918H41.0859V26.7255H56.3434V25.8918Z" fill="#173F6F"/>
<path d="M45.2801 30.2581H37.6289V31.0917H45.2801V30.2581Z" fill="#173F6F"/>
<path d="M52.426 30.2581H46.8452V31.0917H52.426V30.2581Z" fill="#173F6F"/>
<path d="M59.5913 30.2581H54.0105V31.0917H59.5913V30.2581Z" fill="#173F6F"/>
<path opacity="0.3" d="M45.2801 30.2581H37.6289V31.0917H45.2801V30.2581Z" fill="black"/>
<path opacity="0.3" d="M52.426 30.2581H46.8452V31.0917H52.426V30.2581Z" fill="black"/>
<path opacity="0.3" d="M59.5913 30.2581H54.0105V31.0917H59.5913V30.2581Z" fill="black"/>
<path d="M40.4346 58.7536C41.0405 58.7536 41.5318 58.1733 41.5318 57.4575C41.5318 56.7417 41.0405 56.1614 40.4346 56.1614C39.8286 56.1614 39.3374 56.7417 39.3374 57.4575C39.3374 58.1733 39.8286 58.7536 40.4346 58.7536Z" fill="#173F6F"/>
<path d="M58.2696 56.8188H43.9338V57.6063H58.2696V56.8188Z" fill="#173F6F"/>
<path d="M40.251 63.9223C40.857 63.9223 41.3482 63.342 41.3482 62.6262C41.3482 61.9104 40.857 61.3301 40.251 61.3301C39.645 61.3301 39.1538 61.9104 39.1538 62.6262C39.1538 63.342 39.645 63.9223 40.251 63.9223Z" fill="#173F6F"/>
<path d="M58.2696 62.0027H43.9338V62.7901H58.2696V62.0027Z" fill="#173F6F"/>
<path d="M40.4346 68.8761C41.0405 68.8761 41.5318 68.2958 41.5318 67.58C41.5318 66.8642 41.0405 66.2839 40.4346 66.2839C39.8286 66.2839 39.3374 66.8642 39.3374 67.58C39.3374 68.2958 39.8286 68.8761 40.4346 68.8761Z" fill="#173F6F"/>
<path d="M58.2696 67.1863H43.9338V67.9737H58.2696V67.1863Z" fill="#173F6F"/>
<path opacity="0.3" d="M58.2696 56.8188H43.9338V57.6063H58.2696V56.8188Z" fill="black"/>
<path opacity="0.3" d="M58.2696 62.0027H43.9338V62.7901H58.2696V62.0027Z" fill="black"/>
<path opacity="0.3" d="M58.2696 67.1863H43.9338V67.9737H58.2696V67.1863Z" fill="black"/>
<path opacity="0.2" d="M32.4309 61.7453C32.4309 61.0512 34.5566 52.0285 39.2331 42.543C43.9097 33.0575 49.6915 39.5354 55.3031 29.1245C60.9147 18.7135 61.5461 1.33618 61.5461 1.33618H55.0114C55.0114 1.33618 53.7726 20.7959 47.8209 23.3407C41.8691 25.8855 32.4312 41.3861 32.4312 41.3861L32.4309 61.7453Z" fill="white"/>
<path opacity="0.2" d="M36.5459 79.3577H40.372C40.372 79.3577 61.5772 43.6261 64.7233 37.2014V30.2749C61.8323 38.306 36.5459 79.3577 36.5459 79.3577Z" fill="white"/>
<path d="M63.4723 28.4318C65.4204 33.0481 69.9737 35.0386 73.6426 32.8779L74.9481 32.109L67.893 15.3926L66.5875 16.1615C62.9189 18.3222 61.5241 23.8159 63.4723 28.4318Z" fill="#ED8936"/>
<path opacity="0.3" d="M63.4723 28.4318C65.4204 33.0481 69.9737 35.0386 73.6426 32.8779L74.9481 32.109L67.893 15.3926L66.5875 16.1615C62.9189 18.3222 61.5241 23.8159 63.4723 28.4318Z" fill="black"/>
<path d="M74.9124 32.1344C78.8295 29.8556 80.4411 24.2572 78.512 19.63C76.583 15.0028 71.8438 13.099 67.9267 15.3778C64.0096 17.6566 62.398 23.255 64.3271 27.8822C66.2562 32.5094 70.9954 34.4132 74.9124 32.1344Z" fill="#ED8936"/>
<path d="M65.7559 27.0872C67.3157 30.7831 71.1164 32.2852 74.2451 30.4428C77.3738 28.6002 78.6456 24.1105 77.0857 20.4146C75.5259 16.7187 71.7253 15.2163 68.5966 17.059C65.4679 18.9016 64.1963 23.3913 65.7559 27.0872Z" fill="#ED8936"/>
<path opacity="0.3" d="M65.7559 27.0872C67.3157 30.7831 71.1164 32.2852 74.2451 30.4428C77.3738 28.6002 78.6456 24.1105 77.0857 20.4146C75.5259 16.7187 71.7253 15.2163 68.5966 17.059C65.4679 18.9016 64.1963 23.3913 65.7559 27.0872Z" fill="white"/>
<path d="M73.4142 25.8834C73.2259 26.319 72.9344 26.6616 72.5395 26.9115L72.6021 27.1472C72.6337 27.2665 72.6244 27.3855 72.574 27.5042C72.5236 27.6229 72.4481 27.7009 72.3471 27.7385C72.2461 27.776 72.1495 27.7633 72.0568 27.7012C71.9642 27.6388 71.9013 27.5449 71.8681 27.4196L71.813 27.2124C71.4206 27.2959 71.0582 27.2783 70.7261 27.1599C70.3938 27.0417 70.1293 26.8534 69.9324 26.5952C69.8407 26.4707 69.7825 26.3612 69.7573 26.267C69.7238 26.1414 69.7336 26.0189 69.7867 25.899C69.8395 25.7797 69.9219 25.6991 70.0336 25.6575C70.1239 25.624 70.2119 25.6261 70.2977 25.663C70.3836 25.7003 70.4559 25.7633 70.5146 25.8516C70.6281 26.0371 70.7826 26.1679 70.978 26.2439C71.1734 26.3202 71.3785 26.3459 71.594 26.321L71.0902 24.2933C70.6036 24.2875 70.1992 24.1991 69.8767 24.029C69.5541 23.8585 69.3355 23.557 69.2203 23.1234C69.1035 22.6838 69.1331 22.2675 69.3091 21.8747C69.4849 21.4818 69.7869 21.1681 70.2151 20.9333L70.1625 20.7357C70.1307 20.6164 70.139 20.498 70.1867 20.3801C70.2339 20.2626 70.3056 20.186 70.4014 20.1505C70.5024 20.1129 70.6022 20.1262 70.7009 20.1895C70.7997 20.253 70.865 20.3443 70.8966 20.4636L70.9467 20.6519C71.3908 20.5428 71.7654 20.5624 72.0705 20.7114C72.3759 20.8605 72.5772 21.1173 72.6738 21.4812C72.7105 21.6196 72.7036 21.7482 72.6532 21.8666C72.6029 21.9853 72.5246 22.0644 72.4183 22.1037C72.3226 22.1393 72.2319 22.1332 72.1463 22.0855C72.0608 22.0379 71.9977 21.9593 71.9568 21.8504C71.906 21.7245 71.8094 21.6309 71.6678 21.5696C71.5257 21.5084 71.3563 21.4902 71.1582 21.515L71.6018 23.3169C72.6628 23.3308 73.3015 23.7459 73.5184 24.5622C73.637 25.0076 73.602 25.4484 73.4142 25.8834ZM70.2337 23.1454C70.3726 23.2285 70.574 23.2831 70.8381 23.3094L70.443 21.7897C70.2315 21.9166 70.0857 22.0653 70.0058 22.2363C69.9256 22.4076 69.9104 22.5873 69.9605 22.7759C70.0038 22.9394 70.0948 23.0624 70.2337 23.1454ZM72.7308 25.5053C72.8176 25.2939 72.8347 25.0876 72.7811 24.8866C72.7378 24.7234 72.6442 24.5905 72.5004 24.4888C72.3564 24.3869 72.1412 24.3236 71.8544 24.2988L72.3067 26.0354C72.5026 25.8935 72.644 25.717 72.7308 25.5053Z" fill="#ED8936"/>
<path d="M65.4459 20.9136C66.7749 17.0166 70.5264 15.1304 73.8251 16.7003C77.1237 18.2703 78.7207 22.7019 77.3917 26.5986C78.2361 22.8833 76.5995 19.008 73.5789 17.5704C70.2802 16.0004 66.5287 17.887 65.1997 21.7836C65.267 21.4881 65.3491 21.1975 65.4459 20.9136Z" fill="#ED8936"/>
<path opacity="0.3" d="M65.4459 20.9136C66.7749 17.0166 70.5264 15.1304 73.8251 16.7003C77.1237 18.2703 78.7207 22.7019 77.3917 26.5986C78.2361 22.8833 76.5995 19.008 73.5789 17.5704C70.2802 16.0004 66.5287 17.887 65.1997 21.7836C65.267 21.4881 65.3491 21.1975 65.4459 20.9136Z" fill="black"/>
<path d="M10.9523 53.2047C12.0023 55.6926 14.4566 56.7657 16.4339 55.601L17.1376 55.1865L13.335 46.1765L12.6312 46.591C10.654 47.7557 9.90233 50.7168 10.9523 53.2047Z" fill="#ED8936"/>
<path opacity="0.3" d="M10.9523 53.2047C12.0023 55.6926 14.4566 56.7657 16.4339 55.601L17.1376 55.1865L13.335 46.1765L12.6312 46.591C10.654 47.7557 9.90233 50.7168 10.9523 53.2047Z" fill="black"/>
<path d="M19.2776 52.279C18.5308 54.9154 16.1161 56.3375 13.8843 55.4553C11.6525 54.5731 10.4487 51.7207 11.1955 49.0843C11.9423 46.4479 14.357 45.0258 16.5888 45.908C18.8205 46.7902 20.0243 49.6426 19.2776 52.279Z" fill="#ED8936"/>
<path d="M12.1829 52.4799C13.0236 54.4718 15.0722 55.2815 16.7585 54.2884C18.4447 53.2953 19.1301 50.8753 18.2894 48.8833C17.4488 46.8914 15.4001 46.0814 13.7139 47.0748C12.0276 48.0679 11.3422 50.4879 12.1829 52.4799Z" fill="#ED8936"/>
<path opacity="0.3" d="M12.1829 52.4799C13.0236 54.4718 15.0722 55.2815 16.7585 54.2884C18.4447 53.2953 19.1301 50.8753 18.2894 48.8833C17.4488 46.8914 15.4001 46.0814 13.7139 47.0748C12.0276 48.0679 11.3422 50.4879 12.1829 52.4799Z" fill="white"/>
<path d="M16.3109 51.831C16.2095 52.0659 16.0525 52.2504 15.8395 52.385L15.8732 52.5121C15.8904 52.5763 15.8852 52.6407 15.8581 52.7045C15.8309 52.7684 15.7903 52.8105 15.7358 52.8307C15.6813 52.851 15.6292 52.844 15.5793 52.8105C15.5294 52.7767 15.4954 52.7262 15.4776 52.6586L15.448 52.5468C15.2365 52.5919 15.0411 52.5823 14.8621 52.5185C14.6831 52.4549 14.5406 52.3533 14.4344 52.214C14.3851 52.147 14.3535 52.0878 14.3401 52.037C14.322 51.9691 14.3273 51.9032 14.3557 51.8385C14.3841 51.7741 14.4286 51.7308 14.4887 51.7085C14.5374 51.6906 14.5848 51.6915 14.631 51.7114C14.6773 51.7314 14.7164 51.7654 14.7479 51.8131C14.8091 51.9131 14.8924 51.9835 14.9976 52.0245C15.103 52.0656 15.2135 52.0794 15.3297 52.0661L15.0582 50.9731C14.7959 50.9699 14.578 50.9223 14.4041 50.8307C14.2303 50.7389 14.1124 50.5762 14.0503 50.3425C13.9875 50.1057 14.0033 49.8812 14.0982 49.6695C14.1931 49.4578 14.3557 49.2885 14.5865 49.162L14.5582 49.0554C14.5411 48.991 14.5455 48.9271 14.5711 48.8636C14.5966 48.8003 14.6352 48.759 14.6868 48.74C14.7413 48.7197 14.7951 48.727 14.8482 48.761C14.9015 48.7954 14.9365 48.8445 14.9536 48.9089L14.9805 49.0103C15.2199 48.9514 15.4218 48.9621 15.5862 49.0424C15.7507 49.1227 15.8593 49.2611 15.9114 49.4572C15.9312 49.5317 15.9275 49.601 15.9004 49.6649C15.8732 49.729 15.8312 49.7715 15.7737 49.7928C15.7221 49.8119 15.6732 49.8087 15.627 49.783C15.5808 49.7573 15.5468 49.7151 15.5248 49.6562C15.4974 49.5883 15.4453 49.5378 15.369 49.5048C15.2925 49.4719 15.201 49.4621 15.0944 49.4754L15.3336 50.4465C15.9055 50.454 16.2498 50.6779 16.3667 51.1178C16.431 51.359 16.4122 51.5965 16.3109 51.831ZM14.5968 50.3552C14.6716 50.4 14.7805 50.4295 14.9228 50.4436L14.7098 49.6244C14.5958 49.6929 14.5171 49.7729 14.4741 49.8651C14.4308 49.9575 14.4227 50.0543 14.4496 50.1559C14.4728 50.2443 14.5217 50.3108 14.5968 50.3552ZM15.9427 51.6274C15.9896 51.5133 15.9987 51.4024 15.9698 51.2937C15.9463 51.2056 15.896 51.1343 15.8185 51.0794C15.7409 51.0245 15.6248 50.9904 15.4703 50.9769L15.714 51.9128C15.8197 51.8365 15.8957 51.7415 15.9427 51.6274Z" fill="#ED8936"/>
<path d="M12.0161 49.1525C12.7323 47.0523 14.7545 46.0355 16.5325 46.8815C18.3104 47.7276 19.1711 50.1164 18.4549 52.2167C18.91 50.2141 18.028 48.1254 16.3997 47.3506C14.6217 46.5046 12.5998 47.5211 11.8833 49.6216C11.9195 49.4622 11.964 49.3053 12.0161 49.1525Z" fill="#ED8936"/>
<path opacity="0.3" d="M12.0161 49.1525C12.7323 47.0523 14.7545 46.0355 16.5325 46.8815C18.3104 47.7276 19.1711 50.1164 18.4549 52.2167C18.91 50.2141 18.028 48.1254 16.3997 47.3506C14.6217 46.5046 12.5998 47.5211 11.8833 49.6216C11.9195 49.4622 11.964 49.3053 12.0161 49.1525Z" fill="black"/>
<path d="M61.1916 84.6146C61.1916 84.6146 63.5019 75.5693 72.2153 75.1794C80.9287 74.7894 87.8596 77.5188 88.1237 86.642C88.3878 95.7653 83.899 97.5588 83.899 97.5588L83.767 102.315H79.3442V99.5083C79.3442 99.5083 73.5353 99.8202 71.357 99.0403V103.095H66.6044L66.5384 97.6365C66.5384 97.6365 63.04 95.609 61.9176 92.1H59.4753C58.6373 89.1944 58.3517 86.3463 59.0943 84.5574L61.1916 84.6146Z" fill="#ED8936"/>
<path d="M66.2133 79.2942C66.0478 77.6576 65.882 76.0209 65.7164 74.3843C65.6996 74.2185 65.6846 74.0402 65.7521 73.8935C65.8688 73.6399 66.1639 73.6058 66.4062 73.641C67.4386 73.7915 68.3302 74.6197 68.928 75.6249C69.5259 76.6304 69.8739 77.8084 70.2145 78.9693" fill="#ED8936"/>
<path d="M65.6541 77.6041C65.0562 76.5986 64.1647 75.7705 63.1326 75.6203C62.8902 75.585 62.5951 75.6191 62.4785 75.8727C62.411 76.0195 62.4259 76.1977 62.4428 76.3635C62.6083 78.0002 62.7741 79.6368 62.9396 81.2735L66.9408 80.9488C66.5999 79.7873 66.252 78.6094 65.6541 77.6041Z" fill="#ED8936"/>
<path d="M73.4647 77.4612C75.2272 77.25 77 77.4193 78.7093 77.9701C79.014 78.0684 79.144 77.51 78.8396 77.4118C77.0913 76.8485 75.2678 76.666 73.4647 76.8823C73.1537 76.9196 73.1505 77.499 73.4647 77.4612Z" fill="#263238"/>
<path d="M65.2226 83.6498C65.2509 83.9014 65.2637 84.1547 65.2588 84.4083C65.2563 84.5325 65.25 84.6567 65.2397 84.7803C65.2372 84.8101 65.2343 84.8396 65.2314 84.8693C65.2253 84.9363 65.2346 84.8497 65.227 84.9106C65.2184 84.9794 65.2086 85.0481 65.1979 85.1166C65.1746 85.265 65.2324 85.436 65.369 85.4727C65.4893 85.5051 65.6456 85.4297 65.6705 85.2705C65.7547 84.7347 65.7735 84.1902 65.7126 83.6498C65.7036 83.5697 65.6913 83.5045 65.641 83.445C65.5984 83.3947 65.5287 83.3569 65.4676 83.3603C65.3495 83.3664 65.2045 83.4889 65.2226 83.6498Z" fill="#263238"/>
<path d="M88.2382 86.5296C88.67 85.6804 89.7095 85.733 90.28 86.3416C90.8957 86.9982 91.2916 88.417 90.9233 89.3454C90.724 89.848 90.1687 90.1279 89.8435 89.6164C89.5308 89.1244 89.6995 88.4404 89.8606 87.917C90.1528 86.967 90.703 86.0412 91.5095 85.6293C92.3147 85.2179 93.3918 85.4511 93.8613 86.3789C94.0229 86.6983 94.447 86.4075 94.2846 86.0865C93.7285 84.9872 92.5 84.6047 91.5016 85.0134C90.3548 85.4831 89.5985 86.8093 89.2848 88.142C89.1249 88.8211 89.1195 89.6201 89.5829 90.1418C89.9937 90.604 90.5937 90.5546 91.0138 90.1386C91.9464 89.2146 91.5229 87.2035 90.8651 86.235C90.1125 85.127 88.4969 84.8964 87.8149 86.2373C87.6521 86.5577 88.0758 86.8491 88.2382 86.5296Z" fill="#ED8936"/>
<path d="M59.0819 84.9687C59.9619 86.9988 60.1935 89.3605 59.735 91.5749C59.6602 91.9368 60.1326 92.0913 60.2077 91.7288C60.6984 89.3585 60.4466 86.8477 59.5051 84.6764C59.3614 84.3448 58.9381 84.6374 59.0819 84.9687Z" fill="#263238"/>
<path d="M78.7194 74.8799C81.2069 75.1075 83.6118 76.2156 85.5697 78.0437C85.7529 78.2147 86.0143 77.9103 85.8292 77.7373C83.7889 75.8323 81.313 74.6835 78.7194 74.4463C78.4839 74.4249 78.4851 74.8582 78.7194 74.8799Z" fill="#ED8936"/>
<path d="M86.2774 79.0655C86.4921 79.3373 86.7065 79.6094 86.921 79.8812C86.9865 79.9644 87.1149 79.9653 87.1804 79.8812C87.2496 79.7922 87.2503 79.6634 87.1804 79.5747C86.9657 79.3029 86.7512 79.0308 86.5368 78.759C86.4713 78.6758 86.3429 78.675 86.2774 78.759C86.2082 78.8483 86.2072 78.9771 86.2774 79.0655Z" fill="#ED8936"/>
<path d="M16.9588 5.74732C14.4116 4.29351 11.3489 5.55408 10.1182 8.5631C8.88755 11.5721 9.95466 15.19 12.5021 16.6441C14.4686 17.7664 16.7388 17.2658 18.2397 15.597L19.7724 15.7545L19.3019 13.9165C19.3146 13.8864 19.3303 13.859 19.3427 13.8284C20.5734 10.8191 19.5061 7.20114 16.9588 5.74732Z" fill="#173F6F"/>
<path d="M14.4182 4.36007C16.067 4.08363 17.8159 4.86181 18.9004 6.35491" stroke="#173F6F" stroke-miterlimit="10" stroke-linecap="round" stroke-linejoin="round"/>
<path d="M19.3774 7.06006C19.5567 7.27266 19.6983 7.52945 19.7902 7.80906" stroke="#173F6F" stroke-miterlimit="10" stroke-linecap="round" stroke-linejoin="round"/>
<path d="M14.737 14.2099L12.1333 11.9195L12.8099 10.8461L14.5558 12.382L16.9549 9.00122L17.8229 9.86086L14.737 14.2099Z" fill="white"/>
<path d="M25.6455 91.2307L22.8708 91.7544L25.1418 99.3551L27.9198 98.8311L25.6455 91.2307Z" fill="#F2B269"/>
<path d="M24.1216 98.1537L25.1034 97.6933C25.3254 97.589 25.5756 97.6254 25.7781 97.7756C26.651 98.4235 26.9606 97.8787 27.2878 96.7314C27.6611 96.4939 27.9448 96.9752 28.0248 97.1029L29.8183 99.9123C29.9704 100.146 29.9338 100.481 29.7362 100.661C29.701 100.693 29.6621 100.718 29.6205 100.737C28.4282 101.296 27.8641 101.56 26.3803 102.256L21.8422 104.384C20.6051 104.964 19.8537 103.612 20.3176 103.237C22.408 101.564 23.7629 100.007 24.2067 98.8871C24.2918 98.6875 24.1224 98.6477 24.1216 98.1537Z" fill="#263238"/>
<path d="M23.019 99.9152C23.3259 99.7612 23.6186 99.5694 23.8917 99.3438C23.9159 99.3187 23.9184 99.2748 23.8969 99.2462C23.8854 99.2306 23.8685 99.2222 23.8509 99.2228C23.6863 99.2081 22.2311 99.1058 22.0098 99.5073C21.9671 99.5787 21.9627 99.6728 21.9984 99.7494C22.0504 99.899 22.1595 100.011 22.2923 100.05C22.5407 100.097 22.7953 100.05 23.019 99.9152ZM23.6702 99.3467C23.3347 99.596 22.6972 100.018 22.3358 99.9022C22.2409 99.869 22.1627 99.789 22.1211 99.683C22.104 99.6515 22.105 99.6107 22.124 99.5807C22.2468 99.3612 23.0716 99.3207 23.6702 99.3467Z" fill="#173F6F"/>
<path d="M23.8801 99.3532C23.8941 99.3518 23.9075 99.3454 23.9185 99.3353C23.9293 99.3107 23.9266 99.281 23.9117 99.2596C23.8914 99.199 23.1233 97.9069 22.4807 98.3133C22.323 98.4179 22.3066 98.5352 22.3272 98.6178C22.4127 99.0158 23.4256 99.3694 23.8552 99.3783L23.8801 99.3532ZM22.5864 98.3951C23.0126 98.1952 23.5393 98.9124 23.7344 99.2065C23.2498 99.1444 22.4893 98.813 22.447 98.5655C22.4406 98.5467 22.4228 98.4936 22.5426 98.4199L22.5864 98.3951Z" fill="#173F6F"/>
<path d="M24.7878 99.7118C24.7702 99.7118 24.7531 99.7055 24.7379 99.6928C24.4606 99.4527 24.0958 99.3667 23.7608 99.4657C23.7156 99.4787 23.6698 99.4458 23.6586 99.3927C23.6478 99.3392 23.675 99.2852 23.7207 99.2719C24.1029 99.1601 24.5201 99.258 24.8375 99.5319C24.8751 99.5645 24.8834 99.6269 24.856 99.6714C24.8397 99.6977 24.8137 99.7118 24.7878 99.7118Z" fill="#173F6F"/>
<path d="M24.3603 100.54C24.343 100.54 24.3256 100.534 24.3104 100.521C24.0331 100.281 23.6681 100.195 23.3333 100.294C23.2878 100.307 23.2423 100.274 23.2311 100.221C23.2203 100.167 23.2477 100.113 23.2932 100.1C23.6754 99.988 24.0928 100.087 24.41 100.36C24.4476 100.393 24.4557 100.455 24.4285 100.5C24.4119 100.526 24.3862 100.54 24.3603 100.54Z" fill="#173F6F"/>
<path d="M23.7541 101.352C23.7368 101.352 23.7194 101.346 23.7042 101.333C23.4265 101.093 23.0621 101.007 22.7271 101.106C22.6819 101.119 22.6362 101.086 22.6249 101.033C22.6141 100.979 22.6413 100.925 22.687 100.912C23.0695 100.8 23.4866 100.898 23.8038 101.172C23.8414 101.204 23.8497 101.267 23.8223 101.311C23.806 101.338 23.7803 101.352 23.7541 101.352Z" fill="#173F6F"/>
<path opacity="0.3" d="M29.8183 99.9126L28.0248 97.1029C27.945 96.9755 27.6626 96.4975 27.2909 96.73L25.6453 91.2305L22.8709 91.7545L24.7014 97.882L24.1216 98.1538C24.1224 98.6477 24.2918 98.6876 24.207 98.8872C24.1635 98.9969 24.1087 99.1122 24.0478 99.2301C23.9994 99.2298 23.9519 99.2373 23.9038 99.2431C23.8265 99.0923 23.0971 97.9238 22.4811 98.3135C22.3234 98.4181 22.307 98.5354 22.3276 98.618C22.3767 98.8465 22.7315 99.0599 23.1061 99.2023C22.6501 99.2147 22.1349 99.2812 22.0104 99.5071C21.9676 99.5787 21.9632 99.6726 21.9989 99.7491C22.051 99.8988 22.1601 100.01 22.2928 100.05C22.541 100.097 22.7956 100.05 23.0193 99.9149C23.269 99.7896 23.5059 99.6333 23.7338 99.4603C23.7434 99.4614 23.7517 99.4681 23.7614 99.4655C23.8182 99.4487 23.8764 99.4447 23.9341 99.4383C23.8187 99.6379 23.683 99.8462 23.523 100.064C23.4458 100.07 23.3687 100.078 23.2932 100.1C23.2477 100.113 23.2203 100.167 23.2311 100.221C23.2423 100.274 23.2878 100.307 23.3333 100.294C23.3389 100.292 23.3448 100.293 23.3506 100.291C23.2 100.484 23.0333 100.683 22.8511 100.887C22.7963 100.894 22.741 100.896 22.6875 100.912C22.642 100.926 22.6146 100.98 22.6254 101.033C22.6308 101.059 22.6449 101.08 22.663 101.093C22.0383 101.766 21.2524 102.49 20.3183 103.237C19.8544 103.612 20.6058 104.965 21.8429 104.385L26.3811 102.257C27.8648 101.561 28.429 101.297 29.6213 100.737C29.6628 100.719 29.7017 100.693 29.7369 100.661C29.9338 100.481 29.9707 100.146 29.8183 99.9126ZM22.4469 98.566C22.4405 98.5472 22.4227 98.494 22.5425 98.4204L22.586 98.3956C23.0122 98.1957 23.5389 98.9129 23.7341 99.207C23.2499 99.1448 22.4892 98.8132 22.4469 98.566ZM22.3356 99.9022C22.2407 99.869 22.1625 99.789 22.1209 99.683C22.1038 99.6515 22.1048 99.6108 22.1236 99.5807C22.2412 99.3704 23.0007 99.3251 23.5908 99.3444C23.6128 99.3488 23.6345 99.3531 23.6556 99.3569C23.3174 99.607 22.6926 100.016 22.3356 99.9022Z" fill="black"/>
<path d="M29.3918 93.4944L26.6094 93.0322L26.8901 101.086L29.6757 101.549L29.3918 93.4944Z" fill="#F2B269"/>
<path d="M26.2138 99.5834L27.2668 99.4841C27.5049 99.4615 27.735 99.5831 27.891 99.7969C28.5645 100.719 28.9958 100.306 29.5939 99.3226C30.0098 99.2253 30.1614 99.7836 30.2059 99.9335L31.2217 103.242C31.3093 103.517 31.1907 103.825 30.9571 103.928C30.9156 103.947 30.872 103.958 30.8278 103.961C29.5492 104.082 28.9442 104.139 27.3528 104.289L22.4858 104.749C21.159 104.874 20.7773 103.32 21.3138 103.123C23.728 102.249 25.4103 101.231 26.1128 100.315C26.2439 100.153 26.0918 100.056 26.2138 99.5834Z" fill="#263238"/>
<path d="M24.7219 100.884C25.0534 100.843 25.3809 100.762 25.6983 100.641C25.7276 100.625 25.7408 100.584 25.7276 100.549C25.7205 100.531 25.7063 100.516 25.6895 100.511C25.5359 100.44 24.1702 99.837 23.8589 100.144C23.8003 100.198 23.7726 100.286 23.7878 100.372C23.8003 100.533 23.8768 100.677 23.9939 100.761C24.2194 100.892 24.4744 100.936 24.7219 100.884ZM25.4858 100.567C25.1031 100.689 24.3891 100.871 24.0722 100.635C23.9898 100.57 23.935 100.466 23.9215 100.351C23.913 100.315 23.924 100.276 23.9497 100.254C24.1213 100.087 24.9199 100.334 25.4858 100.567Z" fill="#173F6F"/>
<path d="M25.6849 100.646C25.6986 100.65 25.713 100.648 25.7262 100.642C25.7426 100.622 25.7475 100.593 25.7385 100.567C25.7341 100.503 25.3211 99.001 24.6061 99.1665C24.4293 99.2119 24.3845 99.3182 24.3836 99.4043C24.3662 99.8144 25.2465 100.504 25.6551 100.661L25.6849 100.646ZM24.6863 99.2815C25.1433 99.2385 25.4685 100.107 25.582 100.455C25.1342 100.228 24.4897 99.6472 24.5107 99.3959C24.5092 99.3757 24.5056 99.3188 24.6384 99.2899L24.6863 99.2815Z" fill="#173F6F"/>
<path d="M25.5481 100.612C25.9146 100.636 26.2685 100.86 26.4883 101.208" stroke="#173F6F" stroke-width="0.5" stroke-miterlimit="10" stroke-linecap="round" stroke-linejoin="round"/>
<path d="M24.9326 101.256C25.2992 101.28 25.653 101.504 25.8728 101.852" stroke="#173F6F" stroke-width="0.5" stroke-miterlimit="10" stroke-linecap="round" stroke-linejoin="round"/>
<path d="M24.1519 101.822C24.5184 101.846 24.8722 102.07 25.0921 102.418" stroke="#173F6F" stroke-width="0.5" stroke-miterlimit="10" stroke-linecap="round" stroke-linejoin="round"/>
<path opacity="0.2" d="M24.7778 43.4787C24.7778 43.4787 26.3103 44.3941 29.0671 44.0913C33.5502 43.5991 36.9579 41.6797 36.9579 41.6797" stroke="black" stroke-width="0.5" stroke-miterlimit="10" stroke-linecap="round" stroke-linejoin="round"/>
<path d="M25.0657 44.0918C25.0657 44.0918 16.7572 63.578 16.3425 70.8153C15.8855 78.7525 23.9121 97.2466 23.9121 97.2466L28.2108 94.8785C28.2108 94.8785 22.6239 77.3631 23.0217 71.2784C24.2911 62.578 33.2319 45.5343 33.2319 45.5343L25.0657 44.0918Z" fill="#173F6F"/>
<path opacity="0.2" d="M29.3846 48.7099C27.3763 49.7861 26.7129 56.3657 26.8002 59.3479C28.2106 55.7923 29.7338 52.3136 30.9525 49.6547C30.6808 49.4623 29.6604 48.5259 29.3846 48.7099Z" fill="black"/>
<path d="M25.0082 42.7754L37.0592 43.2384C37.0592 43.2384 37.1374 47.6068 36.2246 50.859L24.2703 46.2541L25.0082 42.7754Z" fill="#173F6F"/>
<path d="M29.102 43.8018C29.102 43.8018 26.4335 65.6171 26.3459 72.9378C26.2471 80.9617 26.3021 97.2463 26.3021 97.2463H30.4982C30.4982 97.2463 32.2358 82.1983 32.9185 74.4208C33.6941 65.5607 36.7263 48.028 36.7263 48.028L29.102 43.8018Z" fill="#173F6F"/>
<path opacity="0.2" d="M26.2872 88.3867L26.2985 95.9319L25.5818 96.3265L25.8728 86.8821L26.2872 88.3867Z" fill="black"/>
<path opacity="0.2" d="M32.7444 46.4915C32.9019 47.0016 33.2464 47.4265 33.6709 47.6348C34.0954 47.843 34.5935 47.8309 35.0104 47.6027" stroke="black" stroke-width="0.5" stroke-miterlimit="10" stroke-linecap="round" stroke-linejoin="round"/>
<path d="M25.0913 33.2005C25.0291 33.3643 24.9614 33.5281 24.891 33.6881C24.0926 35.4897 23.3312 36.6957 22.6343 37.3881C21.6779 38.3297 20.8346 38.3037 20.1746 37.4999C19.0322 36.1076 20.0927 32.6087 20.1465 32.6087C20.2 32.6087 21.4581 32.981 21.4581 32.981L21.5596 32.6087C21.709 32.0541 22.0137 30.9708 22.4059 29.7834C23.159 27.5277 24.2506 24.8884 25.2661 24.7619C25.2661 24.7321 26.668 29.0837 25.0913 33.2005Z" fill="#263238"/>
<path opacity="0.2" d="M23.9525 32.678L23.6498 36.0721L23.1008 36.8569L23.3529 32.4805L23.9525 32.678Z" fill="black"/>
<path opacity="0.2" d="M22.0882 35.8533C22.1001 35.0078 22.0427 34.1632 21.916 33.3307L21.4478 32.9973C21.5972 32.5008 21.8241 31.4959 22.2161 30.4329C23.5673 32.6123 22.1503 35.7366 22.0882 35.8533Z" fill="black"/>
<path d="M36.5304 35.4311C36.6461 38.8598 37.0975 42.6196 37.0608 43.4792C33.2245 46.1884 26.1403 46.6356 24.4942 45.1266C24.4455 44.7531 24.8685 43.6254 24.5866 43.4792C21.9022 42.0844 25.0739 24.8021 25.2656 24.7353C26.2985 24.4552 27.3465 24.259 28.4024 24.149C29.9483 24.0571 31.4969 24.0571 33.0425 24.149C34.2715 24.2261 35.4959 24.3864 36.7094 24.6288C36.2373 27.1395 35.9727 29.6982 35.9196 32.2693C35.8607 33.8355 36.4854 34.068 36.5304 35.4311Z" fill="#263238"/>
<path d="M21.4802 29.1069C21.0445 29.2005 20.6156 29.3331 20.1967 29.5035C20.0896 29.5902 19.8553 31.1864 19.8893 31.503C19.9091 31.6662 20.5043 33.0891 20.5043 33.0891C20.7469 33.2457 21.4836 33.215 21.4836 33.215L21.4802 29.1069Z" fill="#F2B269"/>
<path d="M30.9693 27.3807C30.9693 27.3807 34.2019 25.5248 34.8394 24.0851C35.4769 22.6457 34.0608 21.1928 31.6914 21.1827C29.3219 21.1726 26.9158 22.2988 27.2063 24.4517C27.4968 26.6042 28.58 27.3639 28.58 27.3639C28.58 27.3639 29.2796 26.3578 30.9693 27.3807Z" fill="#263238"/>
<path d="M32.1449 24.2819C31.1998 25.1349 30.1852 26.6378 29.5817 26.6144C29.0692 26.593 28.8005 25.474 28.5679 24.9341C29.2167 23.7677 28.9188 23.7821 28.3745 22.7457L30.7383 18.717C30.8765 20.5966 30.7542 23.4254 32.1449 24.2819Z" fill="#F2B269"/>
<path opacity="0.2" d="M29.7793 20.3599L28.3689 22.7458C28.5286 23.0413 28.753 23.3022 28.8636 23.6274C29.5292 23.271 30.1432 22.3692 30.2053 21.4327C30.2561 20.8397 29.974 20.3564 29.7793 20.3599Z" fill="black"/>
<path d="M24.0499 30.9028C24.0859 31.0394 24.0286 31.1876 23.9225 31.2338C23.9125 31.2382 23.9022 31.2414 23.8919 31.2437L21.6523 31.8058C21.5281 31.8246 21.4107 31.7295 21.3701 31.5773L19.9908 26.0359C19.9561 25.8816 20.0238 25.7204 20.1431 25.6731L22.3827 25.111C22.5197 25.0977 22.6458 25.2071 22.6874 25.3758L24.0499 30.9028Z" fill="#263238"/>
<path opacity="0.2" d="M24.0499 30.9028C24.0859 31.0394 24.0286 31.1876 23.9225 31.2338C23.9125 31.2382 23.9022 31.2414 23.8919 31.2437L21.6523 31.8058C21.5281 31.8246 21.4107 31.7295 21.3701 31.5773L19.9908 26.0359C19.9561 25.8816 20.0238 25.7204 20.1431 25.6731L22.3827 25.111C22.5197 25.0977 22.6458 25.2071 22.6874 25.3758L24.0499 30.9028Z" fill="white"/>
<path opacity="0.5" d="M22.3524 25.4412C22.316 25.2936 22.214 25.1965 22.0971 25.1824L20.1431 25.6729C20.0238 25.7199 19.9561 25.8814 19.9908 26.0357L21.3701 31.5771C21.4041 31.705 21.4936 31.7882 21.5949 31.8015L23.5567 31.309C23.567 31.3067 23.5772 31.3035 23.5873 31.2989C23.6936 31.2527 23.7506 31.1045 23.7147 30.9679L22.3524 25.4412Z" fill="black"/>
<path d="M25.3676 30.817L23.4292 29.3164L23.4649 32.7307C23.4649 32.7307 25.3817 33.6946 25.7189 32.484L25.3676 30.817Z" fill="#F2B269"/>
<path d="M21.4072 31.3228L21.4167 31.5146C21.4512 32.2183 21.9505 32.7639 22.5471 32.75L23.527 32.7503L23.4296 29.3164L22.4599 29.6145C21.8089 29.8144 21.3683 30.5296 21.4072 31.3228Z" fill="#F2B269"/>
<path d="M25.2654 30.7373C25.8639 31.0724 28.374 33.3327 28.374 33.3327L27.1118 35.1158L24.9731 32.5915L25.2654 30.7373Z" fill="#F2B269"/>
<path opacity="0.2" d="M26.2871 34.6184C26.2871 34.6184 30.4113 41.4718 33.2316 40.0365C36.052 38.6011 36.5303 35.4306 36.5303 35.4306L32.9167 38.0988L26.2869 34.0161V34.6184H26.2871Z" fill="black"/>
<path d="M26.8651 31.1226C26.8651 31.1226 31.9424 34.6585 32.4896 34.8864C33.0369 35.1143 34.0842 29.7612 34.4652 28.3311C34.8459 26.901 35.8211 24.7735 36.6842 24.6282C36.6842 24.6282 39.4611 24.4925 38.2509 29.9299C37.0408 35.3673 35.0934 39.2158 32.9073 39.3062C30.7212 39.3966 26.0386 34.1437 26.0386 34.1437L26.8651 31.1226Z" fill="#263238"/>
<path d="M20.4177 29.4274C20.8288 29.2105 21.2425 28.9924 21.6802 28.8679C21.7448 28.8497 21.8118 28.8332 21.8768 28.848C21.9419 28.8627 22.0049 28.9164 22.0186 28.993C22.036 29.0909 21.9717 29.1802 21.9106 29.2492C21.5988 29.6019 21.2432 29.9006 20.8588 30.1325" fill="#F2B269"/>
<path opacity="0.2" d="M26.0386 34.1438L26.8651 31.1227C26.8651 31.1227 31.9424 34.6586 32.4896 34.8865C33.0369 35.1144 34.3835 30.1611 34.7642 28.731" stroke="black" stroke-width="0.5" stroke-miterlimit="10" stroke-linecap="round" stroke-linejoin="round"/>
<path opacity="0.2" d="M34.7225 24.3066C34.7225 24.3066 30.8546 27.9173 29.8665 28.0118C29.8665 28.0118 33.6754 27.0384 34.7225 24.3066Z" fill="black"/>
<path d="M29.0796 27.7986C28.9568 27.3729 28.6812 26.6591 28.3352 26.4711C28.2467 26.4228 28.1506 26.385 28.0535 26.3942C27.9565 26.4032 27.8582 26.4682 27.8225 26.5753C27.7667 26.7426 27.876 26.9179 27.978 27.0514C28.1166 27.2328 28.2506 27.3945 28.4433 27.4832C28.6348 27.5716 28.8857 27.7726 29.0796 27.7986Z" stroke="white" stroke-width="0.25" stroke-miterlimit="10" stroke-linecap="round" stroke-linejoin="round"/>
<path d="M29.1265 27.798C29.5072 27.8072 30.1691 27.7457 30.4371 27.4262C30.5056 27.3444 30.5687 27.2509 30.5946 27.1399C30.6205 27.029 30.6027 26.8979 30.5296 26.8216C30.4156 26.7026 30.2386 26.7638 30.0975 26.8314C29.9058 26.9233 29.7312 27.0166 29.5947 27.2003C29.4593 27.382 29.2135 27.5917 29.1265 27.798Z" stroke="white" stroke-width="0.25" stroke-miterlimit="10" stroke-linecap="round" stroke-linejoin="round"/>
<path d="M29.0922 27.8687C28.8381 29.1434 28.7217 30.4562 28.7464 31.7653" stroke="white" stroke-width="0.25" stroke-miterlimit="10" stroke-linecap="round" stroke-linejoin="round"/>
<path d="M29.1628 27.7988C29.0511 29.1177 29.423 30.6556 29.8871 31.8625" stroke="white" stroke-width="0.25" stroke-miterlimit="10" stroke-linecap="round" stroke-linejoin="round"/>
<path opacity="0.2" d="M24.6878 38.3313C24.7281 38.3472 28.2706 38.4659 28.2706 38.4659C28.2706 38.4659 30.2891 40.6098 31.2051 40.8201L31.4088 42.7756C31.4088 42.7756 28.3742 44.3597 25.3015 43.1347C23.0392 42.2329 24.6878 38.3313 24.6878 38.3313Z" fill="black"/>
<path d="M21.532 26.4212C21.5689 26.594 21.5061 26.7618 21.3916 26.7962C21.2772 26.8302 21.1544 26.7179 21.1175 26.5448C21.0806 26.3718 21.1434 26.204 21.2579 26.1699C21.3723 26.1358 21.4951 26.2482 21.532 26.4212Z" fill="white"/>
<path opacity="0.2" d="M32.7434 35.209C32.7434 35.209 33.2109 37.2859 33.4853 36.973C33.7597 36.6602 33.3623 35.9459 33.3623 35.9459C33.3623 35.9459 34.6206 36.6102 34.2563 36.107C33.8919 35.6038 32.7434 35.209 32.7434 35.209Z" fill="black"/>
<path d="M25.7592 15.1655C26.7667 15.6357 26.5921 16.929 24.9594 19.3097C23.9253 18.2889 23.3423 15.9301 23.8649 15.1635C24.3872 14.3966 24.8801 14.7576 25.7592 15.1655Z" fill="#263238"/>
<path d="M29.724 14.5554C28.7253 13.0046 26.8515 12.7033 25.5387 13.883C23.7297 15.5133 24.3133 19.2528 25.2875 21.3129C26.3722 23.6064 29.2166 23.9048 30.3485 21.5024C31.1038 19.9033 30.7275 18.4688 30.2707 15.972C30.18 15.4575 29.9932 14.9737 29.724 14.5554Z" fill="#F2B269"/>
<path d="M27.4234 18.0193C27.4762 18.2778 27.3747 18.5196 27.2263 18.5488C27.0779 18.5779 26.9319 18.385 26.893 18.1224C26.8542 17.8599 26.9451 17.621 27.0904 17.5927C27.2351 17.5644 27.3838 17.7524 27.4234 18.0193Z" fill="#263238"/>
<path d="M25.4683 18.5063C25.5211 18.7651 25.4162 19.0078 25.271 19.0361C25.126 19.0644 24.9763 18.8723 24.9377 18.6097C24.8988 18.3472 24.99 18.1083 25.135 18.08C25.28 18.052 25.4319 18.2562 25.4683 18.5063Z" fill="#263238"/>
<path d="M24.4771 17.2263C24.5135 17.2413 24.5539 17.2327 24.5832 17.2029C24.7757 16.992 25.041 16.9008 25.2992 16.9565C25.3537 16.9744 25.4102 16.9369 25.4256 16.8722C25.4408 16.8075 25.4088 16.7407 25.3542 16.7228H25.3537C25.0288 16.6422 24.6911 16.7529 24.4475 17.0195C24.404 17.0622 24.3981 17.1388 24.4346 17.1902C24.4351 17.1911 24.4355 17.1916 24.4363 17.1922C24.448 17.2061 24.462 17.2176 24.4771 17.2263Z" fill="#263238"/>
<path d="M27.5608 16.6788C27.5813 16.6739 27.5999 16.6618 27.6141 16.6439C27.6439 16.587 27.6293 16.5121 27.5811 16.4769C27.5804 16.4763 27.5799 16.476 27.5791 16.4755C27.2974 16.2655 26.9468 16.2308 26.6394 16.3822C26.5886 16.4116 26.5673 16.4841 26.5922 16.5442C26.6182 16.6031 26.6788 16.628 26.7297 16.6003C26.9752 16.489 27.251 16.5217 27.473 16.6881C27.5021 16.7002 27.5341 16.6967 27.5608 16.6788Z" fill="#263238"/>
<path d="M28.9848 14.0326C28.0715 14.7189 29.9824 17.7186 30.7788 20.5255C32.6365 18.1684 31.4831 14.2434 30.8388 13.6088C30.1947 12.9739 29.7895 13.4366 28.9848 14.0326Z" fill="#263238"/>
<path d="M31.9428 17.5626C31.9014 18.2634 31.6264 18.9162 31.1779 19.3775C30.5808 19.9835 29.9496 19.4465 29.8352 18.575C29.7398 17.7995 29.924 16.5276 30.6617 16.265C31.3997 16.0031 31.9843 16.7015 31.9428 17.5626Z" fill="#F2B269"/>
<path opacity="0.1" d="M30.3656 18.5231C30.2757 18.0601 30.3691 17.552 30.6136 17.1748C30.7175 17.0144 30.8833 16.8665 31.0462 16.9281" stroke="black" stroke-width="0.5" stroke-miterlimit="10"/>
<path d="M27.0367 20.3917C27.4522 20.1471 27.8187 19.8004 28.1121 19.3752C28.1635 19.4477 28.2053 19.5286 28.2366 19.6156C28.296 19.7681 28.3229 19.9359 28.3146 20.1035C28.2977 20.4466 28.119 20.8559 27.5055 21.2234C27.4612 21.2534 27.4157 21.2805 27.3693 21.3045C27.2013 21.0295 27.0167 20.769 26.8169 20.5252C26.8169 20.5258 26.9015 20.4795 27.0367 20.3917Z" fill="#263238"/>
<path d="M28.1011 19.3779C28.1524 19.4504 28.1942 19.5313 28.2255 19.6183C28.135 19.9334 27.7695 20.2693 27.1941 20.6215L27.0256 20.3944C27.4411 20.1495 27.8076 19.8031 28.1011 19.3779Z" fill="white"/>
<path d="M27.7015 20.6711C27.8758 20.4409 28.0834 20.2488 28.3145 20.1038C28.2976 20.4469 28.1189 20.8562 27.5054 21.2237C27.5205 21.0197 27.589 20.8265 27.7015 20.6711Z" fill="#FF3636"/>
<path d="M25.9673 17.9622C25.8392 18.6915 25.6262 19.3966 25.3347 20.0572C25.6299 20.2274 25.9737 20.2346 26.2739 20.0772L25.9673 17.9622Z" fill="#DE842C"/>
<path d="M30.2717 14.1965C30.2717 14.1965 30.514 13.2334 28.9825 12.2239C27.451 11.2143 24.8757 11.8573 23.1648 13.1003C21.4538 14.3432 23.3922 16.1257 24.1937 16.2092L23.9815 15.8759C24.8405 15.9698 25.7078 15.856 26.5238 15.5425L26.0213 15.3259C26.0213 15.3259 29.2336 14.8461 30.2717 14.1965Z" fill="#263238"/>
</svg>
