<svg width="152" height="152" viewBox="0 0 152 152" fill="none" xmlns="http://www.w3.org/2000/svg">
<path d="M22.4231 136.721C22.4231 136.721 -12.1933 102.369 27.6094 77.0548C67.4121 51.7407 51.0417 52.3123 53.7534 36.2732C56.4651 20.2342 88.8471 9.11994 100.493 31.6919C112.14 54.2639 100.968 65.8676 122.816 79.4199C144.665 92.9723 149.699 121.749 134.602 136.718L22.4231 136.721Z" fill="#1C4D87"/>
<path opacity="0.7" d="M22.4231 136.721C22.4231 136.721 -12.1933 102.369 27.6094 77.0548C67.4121 51.7407 51.0417 52.3123 53.7534 36.2732C56.4651 20.2342 88.8471 9.11994 100.493 31.6919C112.14 54.2639 100.968 65.8676 122.816 79.4199C144.665 92.9723 149.699 121.749 134.602 136.718L22.4231 136.721Z" fill="white"/>
<path d="M81.3475 44.302H67.6675V33.3154" stroke="#263238" stroke-width="0.5" stroke-linecap="round" stroke-linejoin="round"/>
<path d="M70.1176 42.3047H69.0232V44.302H70.1176V42.3047Z" stroke="#263238" stroke-width="0.5" stroke-linecap="round" stroke-linejoin="round"/>
<path d="M72.3915 41.6724H71.2971V44.302H72.3915V41.6724Z" stroke="#263238" stroke-width="0.5" stroke-linecap="round" stroke-linejoin="round"/>
<path d="M74.6654 40.6174H73.571V44.3019H74.6654V40.6174Z" stroke="#263238" stroke-width="0.5" stroke-linecap="round" stroke-linejoin="round"/>
<path d="M76.9425 39.5626H75.8481V44.302H76.9425V39.5626Z" stroke="#263238" stroke-width="0.5" stroke-linecap="round" stroke-linejoin="round"/>
<path d="M79.2165 38.073H78.1221V44.302H79.2165V38.073Z" stroke="#263238" stroke-width="0.5" stroke-linecap="round" stroke-linejoin="round"/>
<path d="M67.6675 42.3746C67.6675 42.3746 76.4379 40.505 80.6331 34.9479" stroke="#263238" stroke-width="0.5" stroke-linecap="round" stroke-linejoin="round"/>
<path d="M80.0828 34.7746L80.934 34.5405V35.4768" stroke="#263238" stroke-width="0.5" stroke-linecap="round" stroke-linejoin="round"/>
<path d="M78.128 27.8617C77.7389 27.7826 77.3467 27.7157 76.9485 27.6641" stroke="#263238" stroke-width="0.5" stroke-linecap="round" stroke-linejoin="round"/>
<path d="M81.5997 50.4397C84.8525 52.1117 89.3517 52.2424 89.3517 52.2424C87.0869 50.689 85.5304 48.409 84.7431 47.0531C87.1477 44.9799 88.6312 42.1618 88.6312 39.0519C88.6312 34.2487 85.1018 30.1325 80.0828 28.4119" stroke="#263238" stroke-width="0.5" stroke-linecap="round" stroke-linejoin="round"/>
<path d="M74.7839 50.5796C76.6665 50.5833 78.5355 50.2603 80.3076 49.625" stroke="#263238" stroke-width="0.5" stroke-linecap="round" stroke-linejoin="round"/>
<path d="M62.4385 44.3019C64.4054 47.4939 68.1111 49.8256 72.5161 50.4244" stroke="#263238" stroke-width="0.5" stroke-linecap="round" stroke-linejoin="round"/>
<path d="M60.9216 39.0519C60.922 39.664 60.9801 40.2747 61.0949 40.8759" stroke="#263238" stroke-width="0.5" stroke-linecap="round" stroke-linejoin="round"/>
<path d="M74.7841 27.5242C68.6342 27.5242 63.4176 30.8682 61.6118 35.4768" stroke="#263238" stroke-width="0.5" stroke-linecap="round" stroke-linejoin="round"/>
<path d="M98.7724 58.2616C98.7724 58.2616 92.9326 59.9822 91.6163 62.779C90.3 65.5758 87.6643 73.3886 87.6643 73.3886C87.6643 73.3886 85.1958 77.748 85.1958 79.0643C85.1958 80.3806 88.8438 85.2629 90.4915 86.5792C92.1392 87.8955 98.2891 79.2285 98.2891 79.2285L98.7724 58.2616Z" fill="white" stroke="#263238" stroke-width="0.5" stroke-linecap="round" stroke-linejoin="round"/>
<path d="M125.172 97.1371C125.248 97.204 125.476 100.128 125.476 100.128C125.476 100.128 127.035 103.208 127.017 107.92C126.999 112.632 128.516 136.767 128.516 136.767H91.2C91.2 136.767 93.7931 118.672 97.4715 109.516C97.4715 109.516 97.584 102.001 99.5995 99.9066C99.5995 99.9066 98.724 96.824 100.511 96.444C102.299 96.064 125.172 97.1371 125.172 97.1371Z" fill="#999999"/>
<mask id="mask0_14_963" style="mask-type:luminance" maskUnits="userSpaceOnUse" x="91" y="96" width="38" height="41">
<path d="M125.172 97.1371C125.248 97.204 125.476 100.128 125.476 100.128C125.476 100.128 127.035 103.208 127.017 107.92C126.999 112.632 128.516 136.767 128.516 136.767H91.2C91.2 136.767 93.7931 118.672 97.4715 109.516C97.4715 109.516 97.584 102.001 99.5995 99.9066C99.5995 99.9066 98.724 96.824 100.511 96.444C102.299 96.064 125.172 97.1371 125.172 97.1371Z" fill="white"/>
</mask>
<g mask="url(#mask0_14_963)">
<path opacity="0.2" d="M128.516 136.767H91.2C91.2 136.767 93.7931 118.672 97.4715 109.516C97.4715 109.516 97.4927 108.087 97.6843 106.3C99.4019 107.127 101.667 108.318 102.299 109.136C103.36 110.504 99.5934 112.501 99.5934 112.501C99.9348 112.871 100.356 113.158 100.824 113.342C101.293 113.525 101.797 113.599 102.299 113.559C103.968 113.392 110.534 111.893 110.534 111.893C110.534 111.893 108.081 113.392 108.379 114.456C108.677 115.52 111.373 118.986 112.839 119.837C114.304 120.688 109.859 118.986 109.859 118.986C109.859 118.986 114.912 127.151 117.952 128.784C120.992 130.416 127.203 125.364 126.312 124.944C125.421 124.524 121.81 119.609 122.466 118.782C122.843 118.305 125.078 119.56 127.54 120.186C127.984 128.133 128.516 136.767 128.516 136.767Z" fill="black"/>
</g>
<path d="M125.172 97.1371C125.248 97.204 125.476 100.128 125.476 100.128C125.476 100.128 127.035 103.208 127.017 107.92C126.999 112.632 128.516 136.767 128.516 136.767H91.2C91.2 136.767 93.7931 118.672 97.4715 109.516C97.4715 109.516 97.584 102.001 99.5995 99.9066C99.5995 99.9066 98.724 96.824 100.511 96.444C102.299 96.064 125.172 97.1371 125.172 97.1371Z" stroke="#263238" stroke-width="0.5" stroke-linecap="round" stroke-linejoin="round"/>
<path d="M100.396 97.2466C100.266 98.1173 100.266 99.0024 100.396 99.8731C103.162 101.722 106.373 102.795 109.695 102.98C115.064 103.208 122.719 101.764 124.819 100.548V97.66L100.396 97.2466Z" fill="#263238"/>
<path d="M103.816 98.8213C103.816 98.8213 103.36 101.232 103.816 102.144C104.272 103.056 108.394 103.305 108.394 103.305L108.263 99.8731L103.816 98.8213Z" fill="#BFBFBF" stroke="#263238" stroke-width="0.5" stroke-linecap="round" stroke-linejoin="round"/>
<path d="M117.952 103.758C117.849 102.448 117.64 101.149 117.326 99.8732L116.052 99.9066C116.052 99.9066 116.736 102.257 116.356 103.758" fill="#999999"/>
<path d="M117.952 103.758C117.849 102.448 117.64 101.149 117.326 99.8732L116.052 99.9066C116.052 99.9066 116.736 102.257 116.356 103.758" stroke="#263238" stroke-width="0.5" stroke-linecap="round" stroke-linejoin="round"/>
<path opacity="0.2" d="M98.4534 72.2243L98.2953 79.2163C97.0323 80.9793 95.6692 82.6682 94.2126 84.2749C94.1366 83.3629 94.0454 82.2837 93.936 81.0555C93.4283 75.3799 95.3556 70.8199 95.2401 70.4824L98.4534 72.2243Z" fill="#1C4D87"/>
<path d="M96.0943 59.28C97.2973 58.7121 98.528 58.2048 99.7818 57.76C99.9399 57.3466 99.5629 56.1123 103.369 54.1394C107.175 52.1664 112.671 53.4007 112.671 53.4007L114.799 56.0333C114.799 56.0333 122.202 58.9791 123.919 60.4656C125.637 61.9522 127.078 96.7784 125.649 98.0248C121.569 101.582 104.272 102.068 99.5811 97.356C98.5658 96.3407 97.8818 88.9899 95.9331 78.0824C95.9331 78.0824 92.2274 69.5704 92.428 64.9131" fill="white"/>
<path d="M96.0943 59.28C97.2973 58.7121 98.528 58.2048 99.7818 57.76C99.9399 57.3466 99.5629 56.1123 103.369 54.1394C107.175 52.1664 112.671 53.4007 112.671 53.4007L114.799 56.0333C114.799 56.0333 122.202 58.9791 123.919 60.4656C125.637 61.9522 127.078 96.7784 125.649 98.0248C121.569 101.582 104.272 102.068 99.5811 97.356C98.5658 96.3407 97.8818 88.9899 95.9331 78.0824C95.9331 78.0824 92.2274 69.5704 92.428 64.9131" stroke="#263238" stroke-width="0.5" stroke-linecap="round" stroke-linejoin="round"/>
<path opacity="0.2" d="M114.687 56.5835C114.687 56.5835 115.094 60.2315 111.343 62.6635C111.343 62.6635 109.619 61.56 108.403 61.4475C107.187 61.335 106.768 61.7515 106.768 61.7515C106.768 61.7515 106.512 60.3227 107.096 59.3833C107.68 58.444 108.823 59.1675 110.702 61.7515C110.714 61.7515 113.89 60.192 114.687 56.5835Z" fill="#1C4D87"/>
<path opacity="0.2" d="M103.092 60.4687C103.092 60.4687 101.612 60.5356 100.87 61.7516C100.128 62.9676 99.9034 63.4236 99.9034 63.4236C99.9034 63.4236 98.7117 62.2441 99.5994 58.5961C99.5013 59.6494 99.5484 60.7111 99.7392 61.7516C99.7392 61.7516 100.505 58.9305 100.876 58.894C101.247 58.8575 101.986 59.0764 103.092 60.4687Z" fill="#1C4D87"/>
<path d="M100.87 52.3944C101.486 53.0613 101.925 53.8714 102.147 54.7512C102.37 55.631 102.368 56.5524 102.144 57.4317L104.81 61.7515L106.452 57.9272C106.452 57.9272 110.255 56.9392 111.364 54.3491C109.759 51.3451 109.144 47.9105 109.607 44.536C110.352 38.8087 100.87 52.3944 100.87 52.3944Z" fill="#BFBFBF" stroke="#263238" stroke-width="0.5" stroke-linecap="round" stroke-linejoin="round"/>
<path d="M109.844 47.193C111.021 38.4135 108.391 34.9114 101.487 35.4039C94.5834 35.8964 94.4709 43.6119 96.1186 46.886C96.6719 47.9864 96.4926 50.3941 99.9247 54.2428C101.241 55.7202 104.698 54.6076 107.172 52.1695" fill="#BFBFBF"/>
<path d="M109.844 47.193C111.021 38.4135 108.391 34.9114 101.487 35.4039C94.5834 35.8964 94.4709 43.6119 96.1186 46.886C96.6719 47.9864 96.4926 50.3941 99.9247 54.2428C101.241 55.7202 104.698 54.6076 107.172 52.1695" stroke="#263238" stroke-width="0.5" stroke-linecap="round" stroke-linejoin="round"/>
<path d="M99.5752 45.071C99.5752 45.071 100.253 43.8702 102.104 45.071" stroke="#263238" stroke-width="0.5" stroke-linecap="round" stroke-linejoin="round"/>
<path d="M96.7995 45.071C96.7995 45.071 95.7963 44.2411 95.4954 45.071" stroke="#263238" stroke-width="0.5" stroke-linecap="round" stroke-linejoin="round"/>
<path d="M101.207 46.8829C101.287 47.1869 101.207 47.4665 101.013 47.5152C100.818 47.5638 100.612 47.3601 100.536 47.0592C100.46 46.7582 100.536 46.4755 100.73 46.4269C100.925 46.3782 101.131 46.5819 101.207 46.8829Z" fill="#263238"/>
<path d="M97.4835 46.8829C97.5625 47.1869 97.4835 47.4665 97.2889 47.5152C97.0944 47.5638 96.8876 47.3601 96.8086 47.0592C96.7296 46.7582 96.8086 46.4755 97.0062 46.4269C97.2038 46.3782 97.4075 46.5819 97.4835 46.8829Z" fill="#263238"/>
<path d="M97.6387 45.7429C98.4018 46.7917 97.6965 48.1141 97.4472 49.1356C97.1979 50.157 98.7423 50.0932 99.1739 49.7436" stroke="#263238" stroke-width="0.5" stroke-linecap="round" stroke-linejoin="round"/>
<path d="M106.111 46.4178C106.111 46.4178 105.464 44.3658 106.853 43.3504C108.242 42.335 108.148 48.4576 108.148 48.4576L109.473 49.1994C109.473 49.1994 111.386 44.1408 110.461 40.4381C109.537 36.7354 105.792 34.1118 100.624 35.5102C93.6897 37.3829 95.2492 43.0616 95.2492 43.0616C95.2492 43.0616 95.5532 41.4565 95.8816 41.5416C96.2099 41.6267 97.3104 42.6816 102.688 40.8302C102.688 40.8302 103.296 41.3562 103.159 42.6542C103.023 43.9523 105.33 45.1075 105.689 47.269L106.111 46.4178Z" fill="#999999"/>
<mask id="mask1_14_963" style="mask-type:luminance" maskUnits="userSpaceOnUse" x="95" y="35" width="16" height="15">
<path d="M106.111 46.4178C106.111 46.4178 105.464 44.3658 106.853 43.3504C108.242 42.335 108.148 48.4576 108.148 48.4576L109.473 49.1994C109.473 49.1994 111.386 44.1408 110.461 40.4381C109.537 36.7354 105.792 34.1118 100.624 35.5102C93.6897 37.3829 95.2492 43.0616 95.2492 43.0616C95.2492 43.0616 95.5532 41.4565 95.8816 41.5416C96.2099 41.6267 97.3104 42.6816 102.688 40.8302C102.688 40.8302 103.296 41.3562 103.159 42.6542C103.023 43.9523 105.33 45.1075 105.689 47.269L106.111 46.4178Z" fill="white"/>
</mask>
<g mask="url(#mask1_14_963)">
<path opacity="0.4" d="M106.111 46.4178C106.111 46.4178 105.464 44.3658 106.853 43.3504C108.242 42.335 108.148 48.4576 108.148 48.4576L109.473 49.1994C109.473 49.1994 111.386 44.1408 110.461 40.4381C109.537 36.7354 105.792 34.1118 100.624 35.5102C93.6897 37.3829 95.2492 43.0616 95.2492 43.0616C95.2492 43.0616 95.5532 41.4565 95.8816 41.5416C96.2099 41.6267 97.3104 42.6816 102.688 40.8302C102.688 40.8302 103.296 41.3562 103.159 42.6542C103.023 43.9523 105.33 45.1075 105.689 47.269L106.111 46.4178Z" fill="black"/>
</g>
<path d="M106.111 46.4178C106.111 46.4178 105.464 44.3658 106.853 43.3504C108.242 42.335 108.148 48.4576 108.148 48.4576L109.473 49.1994C109.473 49.1994 111.386 44.1408 110.461 40.4381C109.537 36.7354 105.792 34.1118 100.624 35.5102C93.6897 37.3829 95.2492 43.0616 95.2492 43.0616C95.2492 43.0616 95.5532 41.4565 95.8816 41.5416C96.2099 41.6267 97.3104 42.6816 102.688 40.8302C102.688 40.8302 103.296 41.3562 103.159 42.6542C103.023 43.9523 105.33 45.1075 105.689 47.269L106.111 46.4178Z" stroke="#263238" stroke-width="0.5" stroke-linecap="round" stroke-linejoin="round"/>
<path d="M97.1704 50.1023C97.627 50.2744 98.1204 50.3247 98.6023 50.2482L98.9063 50.5856L99.1829 50.2816C99.1829 50.2816 100.879 50.5036 101.712 50.2816C102.545 50.0597 103.409 50.5856 103.84 50.5856C103.84 50.5856 105.689 48.3664 105.506 47.2234C105.443 46.7228 105.341 46.2279 105.202 45.7429C105.202 45.7429 105.552 46.0621 105.737 46.0013C105.799 45.988 105.854 45.956 105.897 45.9098C105.939 45.8635 105.966 45.8052 105.974 45.7429C105.974 45.7429 107.771 49.3909 107.731 52.3458C107.731 52.3458 105.676 55.7597 102.953 55.9543C99.8973 56.1701 98.3104 54.9815 98.3104 54.9815C97.9967 54.0225 97.9062 53.0046 98.046 52.0053C97.8349 51.7879 97.5907 51.6052 97.3224 51.4642C97.2046 51.0203 97.1534 50.5613 97.1704 50.1023Z" fill="#263238"/>
<path d="M95.8724 41.5507C95.4249 41.3217 95.0621 40.9559 94.8368 40.5064C94.6116 40.057 94.5356 39.5475 94.6199 39.0519C94.9056 37.2826 96.222 36.6655 97.1674 36.1335C97.1674 36.1335 99.0948 34.4858 102.679 34.2821C106.996 34.0359 111.191 36.2976 110.206 39.6325C110.206 39.6325 104.126 37.0394 102.679 40.8485C102.679 40.8394 98.4959 43.2653 95.8724 41.5507Z" fill="#263238"/>
<path d="M106.442 44.5361C106.442 44.5361 107.798 41.9308 108.704 42.7941C109.61 43.6575 109.361 44.9221 109.054 46.1381C108.747 47.3541 108.64 47.1474 108.066 47.7007C107.491 48.254 106.88 48.8164 106.667 48.2145C106.54 47.8688 106.502 47.4964 106.558 47.1322" fill="#BFBFBF"/>
<path d="M106.442 44.5361C106.442 44.5361 107.798 41.9308 108.704 42.7941C109.61 43.6575 109.361 44.9221 109.054 46.1381C108.747 47.3541 108.64 47.1474 108.066 47.7007C107.491 48.254 106.88 48.8164 106.667 48.2145C106.54 47.8688 106.502 47.4964 106.558 47.1322" stroke="#263238" stroke-width="0.5" stroke-linecap="round" stroke-linejoin="round"/>
<path d="M102.272 52.0995C99.8395 52.1603 99.043 51.7955 99.043 51.7955C99.014 51.8391 98.9731 51.8734 98.9251 51.8945C98.8772 51.9155 98.8242 51.9223 98.7725 51.9141L99.1737 52.744C99.1737 52.744 99.575 52.9933 100.615 52.9933C101.493 52.9933 102.272 52.0995 102.272 52.0995Z" fill="white"/>
<path opacity="0.2" d="M100.192 40.9032C100.192 40.9032 99.2044 38.9272 101.794 37.7264C104.385 36.5256 108.58 36.9847 109.598 38.3344" stroke="white" stroke-width="0.5" stroke-linecap="round" stroke-linejoin="round"/>
<path opacity="0.2" d="M97.514 41.2711C97.514 41.2711 94.6685 41.1495 96.7813 38.374C98.8941 35.5984 103.369 34.726 103.369 34.726" stroke="white" stroke-width="0.5" stroke-linecap="round" stroke-linejoin="round"/>
<path d="M114.808 56.0364C114.571 57.2251 114.083 58.3495 113.376 59.335C112.67 60.3204 111.763 61.1442 110.714 61.7516C110.714 61.7516 108.75 58.8271 107.716 58.894C107.211 58.9244 106.442 60.4687 106.442 60.4687" stroke="#263238" stroke-width="0.5" stroke-linecap="round" stroke-linejoin="round"/>
<path d="M99.7818 57.76C99.4292 59.1584 99.6754 61.937 99.6754 61.937C99.6754 61.937 100.53 59.1645 100.87 58.897C101.478 58.4045 103.369 60.8091 103.369 60.8091" stroke="#263238" stroke-width="0.5" stroke-linecap="round" stroke-linejoin="round"/>
<path d="M104.801 61.7516L103.36 62.697C103.36 62.697 104.983 64.5058 104.792 66.1505C104.6 67.7951 105.184 71.4157 105.184 71.4157" stroke="#263238" stroke-width="0.5" stroke-linecap="round" stroke-linejoin="round"/>
<path d="M91.0327 78.3742C92.0158 80.3066 92.4091 82.4855 92.1636 84.6396C92.1636 84.6396 90.0356 87.5884 88.4031 88.0292C84.4329 89.0993 82.0404 80.2742 77.2706 68.4243C76.9666 67.6643 79.6753 63.6484 79.6753 63.6484L87.5519 75.9027C88.2883 76.0036 88.9894 76.2811 89.5955 76.7114C90.2016 77.1418 90.6947 77.7122 91.0327 78.3742Z" fill="#BFBFBF" stroke="#263238" stroke-width="0.5" stroke-linecap="round" stroke-linejoin="round"/>
<path d="M79.3439 64.5393L77.3223 61.8033C77.3223 61.8033 74.2823 60.0583 73.9449 61.101C73.4493 62.6636 70.9565 63.1257 70.9565 63.1257C71.1754 63.9252 73.6105 67.4881 74.9906 68.2937C76.3708 69.0993 76.5106 69.3364 77.0791 69.5097C78.5231 69.8957 78.8666 68.8591 78.8666 68.8591" fill="#BFBFBF"/>
<path d="M79.3439 64.5393L77.3223 61.8033C77.3223 61.8033 74.2823 60.0583 73.9449 61.101C73.4493 62.6636 70.9565 63.1257 70.9565 63.1257C71.1754 63.9252 73.6105 67.4881 74.9906 68.2937C76.3708 69.0993 76.5106 69.3364 77.0791 69.5097C78.5231 69.8957 78.8666 68.8591 78.8666 68.8591" stroke="#263238" stroke-width="0.5" stroke-linecap="round" stroke-linejoin="round"/>
<path d="M63.2563 76.453C63.2563 76.453 52.1512 66.1353 65.9437 62.4082C79.7362 58.6812 76.1094 72.3308 76.1094 72.3308L75.1974 72.4889C75.1974 72.4889 78.812 60.2741 66.4118 63.4601C54.0117 66.646 63.7701 75.8298 63.7701 75.8298L63.2563 76.453Z" fill="#757575" stroke="#263238" stroke-width="0.5" stroke-linecap="round" stroke-linejoin="round"/>
<path d="M78.0155 66.4058C75.6838 65.2688 76.4955 63.1864 74.2277 61.8731C73.6197 61.5205 71.6467 61.7363 71.0235 61.2986C70.0872 60.645 70.4155 60.195 70.4398 60.116C70.4702 59.9366 71.1269 60.5203 73.3643 59.888C74.2581 59.6357 76.7083 60.4018 77.4744 61.0706C79.2741 62.6331 80.8397 64.4754 80.6694 65.9163C80.5721 66.7462 79.648 67.0806 79.648 67.0806" fill="#BFBFBF"/>
<path d="M78.0155 66.4058C75.6838 65.2688 76.4955 63.1864 74.2277 61.8731C73.6197 61.5205 71.6467 61.7363 71.0235 61.2986C70.0872 60.645 70.4155 60.195 70.4398 60.116C70.4702 59.9366 71.1269 60.5203 73.3643 59.888C74.2581 59.6357 76.7083 60.4018 77.4744 61.0706C79.2741 62.6331 80.8397 64.4754 80.6694 65.9163C80.5721 66.7462 79.648 67.0806 79.648 67.0806" stroke="#263238" stroke-width="0.5" stroke-linecap="round" stroke-linejoin="round"/>
<path d="M71.3275 62.8793C71.3275 62.8793 73.2823 62.4021 73.9055 62.4081C74.7627 62.4081 75.0333 62.5358 75.237 62.9006C75.2917 63.0306 75.3167 63.1712 75.3104 63.3121C75.3041 63.453 75.2666 63.5907 75.2005 63.7153C75.5148 63.8646 75.7643 64.1227 75.9027 64.4419C75.9701 64.7883 75.8992 65.1473 75.7051 65.4421C76.0439 65.5421 76.3509 65.7286 76.5959 65.9832C76.7174 66.1011 76.7899 66.2605 76.799 66.4296C76.808 66.5987 76.7528 66.765 76.6445 66.8952C76.6445 66.8952 77.745 67.6491 77.1339 68.1112C76.5229 68.5733 74.8539 69.239 74.0939 69.1661C73.3339 69.0931 68.5703 63.3019 71.3275 62.8793Z" fill="#BFBFBF" stroke="#263238" stroke-width="0.5" stroke-linecap="round" stroke-linejoin="round"/>
<path d="M75.2003 63.7153C75.2003 63.7153 72.0934 64.6669 71.2483 64.6456" stroke="#263238" stroke-width="0.5" stroke-linecap="round" stroke-linejoin="round"/>
<path d="M75.696 65.4421C75.696 65.4421 73.0512 66.3937 72.5071 66.5001" stroke="#263238" stroke-width="0.5" stroke-linecap="round" stroke-linejoin="round"/>
<path d="M76.6445 66.88C75.696 67.2775 74.7233 67.6146 73.7322 67.8893" stroke="#263238" stroke-width="0.5" stroke-linecap="round" stroke-linejoin="round"/>
<path d="M63.0496 74.8813C63.0496 74.8813 66.4544 69.0566 74.9056 70.0993L81.852 84.5576C81.852 84.5576 77.4926 92.8264 65.1593 90.8686L63.0496 74.8813Z" fill="#757575" stroke="#263238" stroke-width="0.5" stroke-linecap="round" stroke-linejoin="round"/>
<path d="M66.3204 86.4424C66.3204 86.4424 58.8876 80.9279 53.8564 86.5458L56.1425 88.2573C56.1425 88.2573 58.4864 83.3295 66.4025 89.4125" fill="#757575"/>
<path d="M66.3204 86.4424C66.3204 86.4424 58.8876 80.9279 53.8564 86.5458L56.1425 88.2573C56.1425 88.2573 58.4864 83.3295 66.4025 89.4125" stroke="#263238" stroke-width="0.5" stroke-linecap="round" stroke-linejoin="round"/>
<path d="M63.7578 74.9422C63.7578 74.9422 71.7743 75.7325 74.258 70.4946L63.7578 74.9422Z" fill="#757575"/>
<path d="M63.7578 74.9422C63.7578 74.9422 71.7743 75.7325 74.258 70.4946" stroke="#263238" stroke-width="0.5" stroke-linecap="round" stroke-linejoin="round"/>
<path d="M49.6218 87.0383C49.6218 87.0383 52.7773 84.8221 55.5741 86.4546C56.3576 86.9005 56.9832 87.5788 57.3644 88.3957C57.7456 89.2126 57.8636 90.1277 57.7021 91.0146C57.7021 91.0146 53.5039 91.3429 49.6218 87.0383Z" fill="#757575" stroke="#263238" stroke-width="0.5" stroke-linecap="round" stroke-linejoin="round"/>
<path d="M51.1663 87.0504C51.1663 87.0504 56.0728 88.3607 57.7144 91.0207" stroke="#263238" stroke-width="0.5" stroke-linecap="round" stroke-linejoin="round"/>
<path d="M70.1023 71.212L69.5338 68.8439C69.5338 68.8439 66.3692 68.7588 65.2778 70.5797L66.6884 72.4463" fill="#757575"/>
<path d="M70.1023 71.212L69.5338 68.8439C69.5338 68.8439 66.3692 68.7588 65.2778 70.5797L66.6884 72.4463" stroke="#263238" stroke-width="0.5" stroke-linecap="round" stroke-linejoin="round"/>
<path d="M69.9199 71.7075C69.2934 72.0536 68.6019 72.2658 67.8892 72.3307" stroke="#263238" stroke-width="0.5" stroke-linecap="round" stroke-linejoin="round"/>
<path d="M67.272 86.9136C67.272 86.9136 67.9864 87.8833 67.0896 89.1176" stroke="#263238" stroke-width="0.5" stroke-linecap="round" stroke-linejoin="round"/>
<path opacity="0.2" d="M124.236 74.9847C124.236 74.9847 121.296 85.12 114.812 90.1847C111.851 92.4981 98.2983 88.765 98.2983 88.765L99.1769 83.5119L103.615 81.4082C103.615 81.4082 111.471 69.1114 115.727 67.8924C119.983 66.6733 124.236 74.9847 124.236 74.9847Z" fill="#1C4D87"/>
<path d="M120.405 60.7241C117.277 60.8122 109.054 75.8815 109.054 75.8815C106.825 76.7266 107.886 78.6783 107.886 78.6783C107.886 78.6783 113.112 85.3055 114.1 85.8709C116.532 87.2693 117.411 84.8221 117.411 84.8221C117.411 84.8221 127.68 75.4924 126.981 67.8954C126.281 60.2985 123.941 60.4687 123.941 60.4687" fill="white"/>
<path d="M120.405 60.7241C117.277 60.8122 109.054 75.8815 109.054 75.8815C106.825 76.7266 107.886 78.6783 107.886 78.6783C107.886 78.6783 113.112 85.3055 114.1 85.8709C116.532 87.2693 117.411 84.8221 117.411 84.8221C117.411 84.8221 127.68 75.4924 126.981 67.8954C126.281 60.2985 123.941 60.4687 123.941 60.4687" stroke="#263238" stroke-width="0.5" stroke-linecap="round" stroke-linejoin="round"/>
<path d="M108.434 78.0885L105.303 81.472C98.648 80.8245 86.5154 85.8648 83.0072 84.0317C80.9674 82.9647 76.0699 84.0621 75.3403 84.4299C74.6107 84.7978 73.0695 86.7069 73.641 86.9531C74.2125 87.1994 75.465 86.0594 76.1763 86.1627C76.8312 86.2141 77.4894 86.208 78.1432 86.1445C78.1432 86.1445 75.0576 89.072 74.3675 89.1967C73.6775 89.3213 70.1723 90.817 71.4431 91.0784C73.2215 91.4432 73.8994 91.2608 73.8994 91.2608C73.8994 91.2608 75.5045 92.4008 76.6992 92.5224C77.3072 92.5863 80.6816 91.9783 80.6816 91.9783L83.7642 89.0386C83.7642 89.0386 104.278 90.1056 107.887 88.5887C112.593 86.6127 114.1 84.9802 114.1 84.9802C114.1 84.9802 112.109 79.2042 108.434 78.0885Z" fill="#BFBFBF" stroke="#263238" stroke-width="0.5" stroke-linecap="round" stroke-linejoin="round"/>
<path d="M105.445 102.907C105.376 102.892 103.859 111.872 106.005 113.772C106.005 113.772 107.245 118.062 107.014 121.01C106.783 123.959 108.394 129.96 108.394 129.96L109.47 136.767" stroke="#263238" stroke-width="0.5" stroke-linecap="round" stroke-linejoin="round"/>
<path d="M107.008 103.172C107.008 103.172 106.248 107.616 106.552 109.212C106.856 110.808 106.196 112.447 105.272 112.501" stroke="#263238" stroke-width="0.5" stroke-linecap="round" stroke-linejoin="round"/>
<path d="M121.183 101.816C121.183 101.816 122.564 109.218 124.831 109.829" stroke="#263238" stroke-width="0.5" stroke-linecap="round" stroke-linejoin="round"/>
<path d="M123.956 100.794C124.658 104.5 124.947 108.273 124.819 112.042C124.64 118.56 126.114 131.632 126.251 133.228C126.328 134.406 126.328 135.588 126.251 136.767" stroke="#263238" stroke-width="0.5" stroke-linecap="round" stroke-linejoin="round"/>
<path d="M111.772 111.468C111.188 111.72 104.044 113.848 102.676 115.52" stroke="#263238" stroke-width="0.5" stroke-linecap="round" stroke-linejoin="round"/>
<path d="M107.008 115.69C107.008 115.69 111.942 121.676 114.337 122.284" stroke="#263238" stroke-width="0.5" stroke-linecap="round" stroke-linejoin="round"/>
<path d="M104.859 116.28C104.859 116.28 97.2799 123.728 95.9453 122.883" stroke="#263238" stroke-width="0.5" stroke-linecap="round" stroke-linejoin="round"/>
<path d="M107.224 124.944C107.224 124.944 105.132 133.213 105.272 134.131C105.412 135.049 104.561 136.767 104.561 136.767" stroke="#263238" stroke-width="0.5" stroke-linecap="round" stroke-linejoin="round"/>
<path d="M105.184 92.5284C105.184 92.5284 105.643 94.9118 105.184 96.3619C104.725 97.812 105.227 100.01 105.856 100.125" stroke="#263238" stroke-width="0.5" stroke-linecap="round" stroke-linejoin="round"/>
<path d="M87.552 75.9027C87.552 75.9027 89.984 78.5293 89.984 80.5691" stroke="#263238" stroke-width="0.5" stroke-linecap="round" stroke-linejoin="round"/>
<path d="M56.7719 92.5284C56.7719 92.5284 56.5713 93.176 56.2886 94.2856" stroke="#263238" stroke-width="0.5" stroke-linecap="round" stroke-linejoin="round"/>
<path d="M55.8538 96.0914C55.6745 96.9031 55.4829 97.8242 55.3005 98.8274" stroke="#263238" stroke-width="0.5" stroke-linecap="round" stroke-linejoin="round" stroke-dasharray="6.11 6.11"/>
<path d="M55.1424 99.7424C55.0481 100.323 54.9539 100.925 54.8718 101.548" stroke="#263238" stroke-width="0.5" stroke-linecap="round" stroke-linejoin="round"/>
<path d="M52.6315 90.9447C52.6315 90.9447 52.2576 91.5253 51.7195 92.5194" stroke="#263238" stroke-width="0.5" stroke-linecap="round" stroke-linejoin="round"/>
<path d="M50.5308 94.8693C49.9743 96.0587 49.4801 97.2764 49.0503 98.5173" stroke="#263238" stroke-width="0.5" stroke-linecap="round" stroke-linejoin="round" stroke-dasharray="8.66 8.66"/>
<path d="M48.6398 99.782C48.4696 100.36 48.3155 100.948 48.1777 101.548" stroke="#263238" stroke-width="0.5" stroke-linecap="round" stroke-linejoin="round"/>
<path d="M49.6218 88.4397C49.0554 88.6632 48.5217 88.9617 48.0349 89.3274" stroke="#263238" stroke-width="0.5" stroke-linecap="round" stroke-linejoin="round"/>
<path d="M46.3934 90.592C45.6056 91.2654 44.8736 92.0015 44.2046 92.793" stroke="#263238" stroke-width="0.5" stroke-linecap="round" stroke-linejoin="round" stroke-dasharray="6.82 6.82"/>
<path d="M43.5601 93.6046C43.1972 94.0919 42.8623 94.5994 42.5569 95.1246" stroke="#263238" stroke-width="0.5" stroke-linecap="round" stroke-linejoin="round"/>
<path d="M109.054 75.8815C111.34 76.228 114.684 80.408 115.292 82.004" stroke="#263238" stroke-width="0.5" stroke-linecap="round" stroke-linejoin="round"/>
<path d="M126.251 70.4946C126.251 70.4946 120.764 73.8386 115.292 74.1761" stroke="#263238" stroke-width="0.5" stroke-linecap="round" stroke-linejoin="round"/>
<path d="M87.2478 74.176C87.2478 74.176 90.0689 73.6044 91.5038 75.9027C92.39 77.3395 93.0321 78.9133 93.4038 80.56" stroke="#263238" stroke-width="0.5" stroke-linecap="round" stroke-linejoin="round"/>
<path d="M91.2 69.1478C91.2 69.1478 92.5649 72.1422 94.164 73.3856" stroke="#263238" stroke-width="0.5" stroke-linecap="round" stroke-linejoin="round"/>
<path d="M105.184 77.824C105.311 79.0356 105.349 80.2548 105.299 81.472" stroke="#263238" stroke-width="0.5" stroke-linecap="round" stroke-linejoin="round"/>
<path d="M100.776 91.808C100.776 91.808 106.78 98.5659 116.052 96.7449" stroke="#263238" stroke-width="0.5" stroke-linecap="round" stroke-linejoin="round"/>
<path d="M105.692 63.536C105.689 63.6026 105.666 63.6669 105.627 63.7208C105.588 63.7748 105.534 63.816 105.471 63.8395C105.409 63.863 105.341 63.8676 105.276 63.8528C105.211 63.838 105.152 63.8044 105.106 63.7562C105.059 63.7081 105.028 63.6474 105.016 63.5818C105.005 63.5162 105.012 63.4485 105.038 63.3872C105.064 63.3259 105.108 63.2736 105.164 63.2368C105.219 63.2 105.284 63.1804 105.351 63.1803C105.443 63.1827 105.531 63.2214 105.595 63.288C105.658 63.3547 105.693 63.4438 105.692 63.536Z" fill="#263238"/>
<path d="M106.114 72.4889C106.111 72.5555 106.089 72.6197 106.05 72.6737C106.01 72.7277 105.956 72.7689 105.894 72.7924C105.831 72.8158 105.763 72.8204 105.698 72.8056C105.633 72.7908 105.574 72.7573 105.528 72.7091C105.482 72.6609 105.451 72.6003 105.439 72.5347C105.427 72.4691 105.435 72.4014 105.461 72.3401C105.487 72.2788 105.531 72.2265 105.586 72.1897C105.642 72.1529 105.707 72.1332 105.774 72.1332C105.82 72.134 105.865 72.1438 105.907 72.1622C105.949 72.1805 105.986 72.207 106.018 72.24C106.05 72.2731 106.075 72.3121 106.091 72.3548C106.108 72.3975 106.115 72.4431 106.114 72.4889Z" fill="#263238"/>
<path d="M10.9441 136.767H141.056" stroke="#263238" stroke-width="0.5" stroke-linecap="round" stroke-linejoin="round"/>
<path d="M37.55 119.305C37.55 119.305 42.4596 117.581 39.2616 107.881C36.0635 98.1799 40.1553 98.3927 41.9793 93.4861C43.8033 88.5795 41.1099 85.2568 41.1099 85.2568" stroke="#263238" stroke-width="0.5" stroke-linecap="round" stroke-linejoin="round"/>
<path d="M39.976 116.906H25.688C25.688 116.906 27.6153 131.425 28.1717 135.627C28.272 136.39 28.88 136.767 29.6157 136.767H49.4243C50.16 136.767 50.768 136.39 50.8683 135.627C51.4246 131.425 53.352 116.906 53.352 116.906H39.976Z" fill="#263238"/>
<path d="M25.159 115.69H53.8809C54.0607 115.69 54.2331 115.762 54.3603 115.889C54.4874 116.016 54.5588 116.188 54.5588 116.368V117.441C54.5588 117.621 54.4874 117.794 54.3603 117.921C54.2331 118.048 54.0607 118.119 53.8809 118.119H25.159C24.9784 118.119 24.8052 118.047 24.6775 117.92C24.5498 117.792 24.478 117.619 24.478 117.438V116.365C24.478 116.276 24.4956 116.187 24.5299 116.105C24.5641 116.022 24.6142 115.947 24.6775 115.884C24.7407 115.82 24.8158 115.77 24.8984 115.736C24.981 115.702 25.0696 115.684 25.159 115.684V115.69Z" fill="#263238"/>
<path d="M27.2109 118.122H41.7026" stroke="white" stroke-width="0.5" stroke-linecap="round" stroke-linejoin="round"/>
<path d="M43.5266 118.122H44.6423" stroke="white" stroke-width="0.5" stroke-linecap="round" stroke-linejoin="round"/>
<path d="M51.3304 118.122H49.3027" stroke="white" stroke-width="0.5" stroke-linecap="round" stroke-linejoin="round"/>
<path d="M28.3267 122.883H34.0023" stroke="white" stroke-width="0.5" stroke-linecap="round" stroke-linejoin="round"/>
<path d="M37.2429 122.883H38.7629" stroke="white" stroke-width="0.5" stroke-linecap="round" stroke-linejoin="round"/>
<path d="M50.9229 122.883H45.4509" stroke="white" stroke-width="0.5" stroke-linecap="round" stroke-linejoin="round"/>
<path d="M50.3151 126.835H49.3027" stroke="white" stroke-width="0.5" stroke-linecap="round" stroke-linejoin="round"/>
<path d="M34.0023 126.835H31.8743" stroke="white" stroke-width="0.5" stroke-linecap="round" stroke-linejoin="round"/>
<path d="M44.083 130.687H47.579" stroke="white" stroke-width="0.5" stroke-linecap="round" stroke-linejoin="round"/>
<path d="M35.9266 130.687H30.4546" stroke="white" stroke-width="0.5" stroke-linecap="round" stroke-linejoin="round"/>
<path d="M29.3389 134.131H31.1629" stroke="white" stroke-width="0.5" stroke-linecap="round" stroke-linejoin="round"/>
<path d="M34.0024 134.131H44.6424" stroke="white" stroke-width="0.5" stroke-linecap="round" stroke-linejoin="round"/>
<path d="M49.8104 134.131H48.187" stroke="white" stroke-width="0.5" stroke-linecap="round" stroke-linejoin="round"/>
<path d="M44.7397 126.227C44.7403 127.259 44.4346 128.269 43.8615 129.128C43.2883 129.986 42.4733 130.656 41.5196 131.051C40.5658 131.447 39.5162 131.551 38.5035 131.35C37.4908 131.149 36.5605 130.652 35.8302 129.922C35.0999 129.192 34.6025 128.262 34.4008 127.249C34.1992 126.237 34.3024 125.187 34.6973 124.233C35.0923 123.279 35.7613 122.464 36.6198 121.89C37.4782 121.316 38.4875 121.01 39.52 121.01C40.9038 121.01 42.231 121.56 43.2098 122.538C44.1886 123.516 44.7388 124.843 44.7397 126.227Z" fill="#1C4D87" stroke="#263238" stroke-width="0.5" stroke-linecap="round" stroke-linejoin="round"/>
<path d="M39.1127 123.825V123.476H39.9274V123.825C40.6327 123.935 40.9914 124.336 40.9914 124.974V125.123H40.052V124.944C40.052 124.607 39.8727 124.479 39.5565 124.479C39.2404 124.479 39.061 124.607 39.061 124.944C39.061 125.281 39.2404 125.513 39.9092 125.911C40.7208 126.394 41.0005 126.762 41.0005 127.3C41.0005 127.938 40.6327 128.349 39.9274 128.455V128.799H39.1127V128.44C38.4013 128.334 38.0396 127.923 38.0396 127.285V126.963H38.9789V127.333C38.9789 127.668 39.1765 127.789 39.4927 127.789C39.8088 127.789 40.0095 127.668 40.0095 127.333C40.0095 126.999 39.8271 126.756 39.1583 126.364C38.3466 125.889 38.0669 125.513 38.0669 124.974C38.0669 124.336 38.4196 123.941 39.1127 123.825Z" fill="white" stroke="#263238" stroke-width="0.5" stroke-linecap="round" stroke-linejoin="round"/>
<path d="M43.852 126.227C43.8538 127.084 43.6013 127.923 43.1263 128.636C42.6514 129.35 41.9755 129.906 41.1841 130.236C40.3927 130.565 39.5214 130.652 38.6805 130.486C37.8395 130.32 37.0668 129.908 36.46 129.302C35.8533 128.697 35.4398 127.925 35.2719 127.085C35.104 126.244 35.1893 125.372 35.5169 124.58C35.8445 123.788 36.3997 123.111 37.1123 122.635C37.8249 122.158 38.6628 121.904 39.52 121.904C40.6671 121.905 41.7671 122.36 42.5791 123.171C43.391 123.981 43.8488 125.08 43.852 126.227Z" stroke="#263238" stroke-width="0.5" stroke-linecap="round" stroke-linejoin="round"/>
<path d="M38.8694 106.619C38.8694 106.619 39.9121 101.217 44.2775 100.794C48.643 100.372 49.1415 96.9518 49.1415 96.9518" stroke="#263238" stroke-width="0.5" stroke-linecap="round" stroke-linejoin="round"/>
<path d="M39.3132 97.2527C39.3132 97.2527 38.2522 96.742 34.3184 94.3465C30.3847 91.9509 30.5367 88.1327 30.5367 88.1327" stroke="#263238" stroke-width="0.5" stroke-linecap="round" stroke-linejoin="round"/>
<path d="M40.1554 111.468C40.1554 111.468 32.4551 111.164 31.312 104.847" stroke="#263238" stroke-width="0.5" stroke-linecap="round" stroke-linejoin="round"/>
<path d="M45.0223 82.5573C44.939 83.2389 44.6555 83.8805 44.2076 84.401C43.7597 84.9214 43.1676 85.2974 42.506 85.4813C41.8444 85.6652 41.1432 85.6488 40.491 85.4342C39.8387 85.2195 39.2648 84.8163 38.8417 84.2755C38.4186 83.7346 38.1655 83.0805 38.1142 82.3957C38.0629 81.711 38.2158 81.0264 38.5536 80.4286C38.8914 79.8308 39.3989 79.3466 40.0119 79.0372C40.6249 78.7278 41.3159 78.6071 41.9974 78.6905C42.9113 78.8022 43.7434 79.2723 44.3106 79.9975C44.8779 80.7227 45.1339 81.6434 45.0223 82.5573Z" fill="white"/>
<path d="M45.0223 82.5573C44.939 83.2389 44.6555 83.8805 44.2076 84.401C43.7597 84.9214 43.1676 85.2974 42.506 85.4813C41.8444 85.6652 41.1432 85.6488 40.491 85.4342C39.8387 85.2195 39.2648 84.8163 38.8417 84.2755C38.4186 83.7346 38.1655 83.0805 38.1142 82.3957C38.0629 81.711 38.2158 81.0264 38.5536 80.4286C38.8914 79.8308 39.3989 79.3466 40.0119 79.0372C40.6249 78.7278 41.3159 78.6071 41.9974 78.6905C42.9113 78.8022 43.7434 79.2723 44.3106 79.9975C44.8779 80.7227 45.1339 81.6434 45.0223 82.5573Z" stroke="#263238" stroke-width="0.5" stroke-linecap="round" stroke-linejoin="round"/>
<path d="M44.3596 82.4752C44.2921 83.0258 44.0627 83.544 43.7005 83.9642C43.3383 84.3843 42.8595 84.6876 42.3248 84.8355C41.7902 84.9834 41.2237 84.9693 40.697 84.795C40.1704 84.6208 39.7073 84.2941 39.3664 83.8565C39.0255 83.4189 38.8221 82.8899 38.782 82.3366C38.7419 81.7833 38.8669 81.2306 39.1411 80.7484C39.4154 80.2662 39.8266 79.8762 40.3226 79.6278C40.8186 79.3794 41.3772 79.2838 41.9276 79.3531C42.6639 79.445 43.3337 79.8254 43.7897 80.4109C44.2457 80.9963 44.4507 81.7388 44.3596 82.4752Z" stroke="#263238" stroke-width="0.5" stroke-linecap="round" stroke-linejoin="round"/>
<path d="M41.1584 80.7425C41.2641 80.6229 41.4126 80.5498 41.5718 80.5388L41.5992 80.3077L42.0005 80.3564L41.9701 80.5874C42.0476 80.6114 42.1196 80.6506 42.1817 80.7028C42.2438 80.755 42.2949 80.8192 42.3318 80.8914C42.4073 81.0568 42.4317 81.241 42.4018 81.4204V81.5177L41.9397 81.4629L41.9549 81.3322C41.9736 81.2508 41.9617 81.1653 41.9214 81.0921C41.9016 81.0642 41.8757 81.0413 41.8457 81.0249C41.8156 81.0086 41.7823 80.9993 41.7482 80.9978C41.7149 80.991 41.6805 80.9921 41.6477 81.0011C41.615 81.0101 41.5848 81.0267 41.5597 81.0495C41.5029 81.1109 41.4705 81.1909 41.4685 81.2745C41.4561 81.3593 41.4645 81.4459 41.4928 81.5268C41.5212 81.6002 41.559 81.6697 41.6053 81.7335C41.6509 81.7943 41.7208 81.8703 41.8059 81.9645C41.8965 82.0519 41.9798 82.1465 42.0552 82.2473C42.1219 82.3393 42.1722 82.4421 42.2042 82.5513C42.2415 82.6805 42.2508 82.8163 42.2315 82.9495C42.2171 83.1317 42.1483 83.3054 42.0339 83.4481C41.9802 83.5077 41.9152 83.5562 41.8427 83.5906C41.7702 83.6251 41.6915 83.6448 41.6114 83.6487L41.584 83.8737L41.1827 83.825L41.2131 83.6001C41.135 83.5764 41.0625 83.5374 40.9998 83.4851C40.9371 83.4329 40.8856 83.3686 40.8483 83.2961C40.7711 83.1311 40.7467 82.9464 40.7784 82.7671L40.8027 82.5543L41.2648 82.609L41.2344 82.8522C41.2101 83.0529 41.283 83.1562 41.4502 83.1866C41.6174 83.217 41.7147 83.1167 41.739 82.9161C41.7512 82.8302 41.7428 82.7427 41.7147 82.6607C41.6877 82.5866 41.6498 82.5169 41.6022 82.454C41.5399 82.3741 41.4729 82.2979 41.4016 82.226C41.3117 82.1368 41.2284 82.0413 41.1523 81.9402C41.0867 81.848 41.0373 81.7451 41.0064 81.6362C40.9644 81.4855 40.9573 81.3272 40.9858 81.1734C41.0142 81.0195 41.0774 80.8742 41.1706 80.7485L41.1584 80.7425Z" fill="#263238"/>
<path d="M34.0967 85.3146C34.189 85.9949 34.0775 86.6872 33.7763 87.3042C33.4752 87.9211 32.9978 88.4349 32.4047 88.7806C31.8116 89.1263 31.1293 89.2884 30.4441 89.2464C29.7588 89.2044 29.1014 88.9602 28.555 88.5446C28.0085 88.129 27.5975 87.5608 27.374 86.9117C27.1505 86.2626 27.1244 85.5617 27.2991 84.8978C27.4738 84.2339 27.8414 83.6367 28.3555 83.1817C28.8696 82.7266 29.507 82.4342 30.1872 82.3414C30.6392 82.2798 31.0988 82.3078 31.5399 82.4239C31.981 82.5399 32.395 82.7418 32.758 83.0179C33.1211 83.294 33.4262 83.639 33.6559 84.033C33.8856 84.4271 34.0353 84.8626 34.0967 85.3146Z" fill="white"/>
<path d="M34.0967 85.3146C34.189 85.9949 34.0775 86.6872 33.7763 87.3042C33.4752 87.9211 32.9978 88.4349 32.4047 88.7806C31.8116 89.1263 31.1293 89.2884 30.4441 89.2464C29.7588 89.2044 29.1014 88.9602 28.555 88.5446C28.0085 88.129 27.5975 87.5608 27.374 86.9117C27.1505 86.2626 27.1244 85.5617 27.2991 84.8978C27.4738 84.2339 27.8414 83.6367 28.3555 83.1817C28.8696 82.7266 29.507 82.4342 30.1872 82.3414C30.6392 82.2798 31.0988 82.3078 31.5399 82.4239C31.981 82.5399 32.395 82.7418 32.758 83.0179C33.1211 83.294 33.4262 83.639 33.6559 84.033C33.8856 84.4271 34.0353 84.8626 34.0967 85.3146Z" stroke="#263238" stroke-width="0.5" stroke-linecap="round" stroke-linejoin="round"/>
<path d="M33.4399 85.4028C33.5122 85.9517 33.4203 86.5097 33.1758 87.0064C32.9313 87.5032 32.5452 87.9164 32.0662 88.1939C31.5872 88.4715 31.0367 88.6009 30.4841 88.566C29.9316 88.531 29.4018 88.3333 28.9615 87.9976C28.5213 87.6619 28.1903 87.2033 28.0103 86.6797C27.8304 86.1562 27.8095 85.591 27.9504 85.0556C28.0912 84.5202 28.3875 84.0385 28.8018 83.6712C29.2161 83.304 29.7299 83.0677 30.2783 82.9921C30.6444 82.9416 31.0168 82.964 31.3741 83.0581C31.7315 83.1521 32.0667 83.3158 32.3605 83.5398C32.6544 83.7639 32.901 84.0438 33.0862 84.3635C33.2715 84.6833 33.3917 85.0364 33.4399 85.4028Z" stroke="#263238" stroke-width="0.5" stroke-linecap="round" stroke-linejoin="round"/>
<path d="M29.9014 84.5334C29.9732 84.3899 30.0989 84.2806 30.251 84.2294L30.2176 83.9983L30.6158 83.9436L30.6492 84.1746C30.8103 84.1809 30.9623 84.2509 31.0718 84.3692C31.1872 84.5094 31.2581 84.6809 31.2755 84.8617V84.959L30.8134 85.0198L30.7982 84.8921C30.7938 84.8093 30.7605 84.7308 30.704 84.6702C30.6492 84.6295 30.5808 84.6118 30.5132 84.6209C30.4456 84.63 30.3842 84.6651 30.3422 84.7188C30.3033 84.7925 30.2924 84.8779 30.3118 84.959C30.3207 85.0442 30.351 85.1257 30.4 85.1961C30.4447 85.2615 30.499 85.3199 30.5611 85.3694C30.6219 85.415 30.704 85.4727 30.8134 85.5396C30.9196 85.6033 31.0212 85.6744 31.1174 85.7524C31.2048 85.8228 31.2789 85.9083 31.3363 86.0047C31.4066 86.1192 31.4503 86.248 31.464 86.3817C31.4988 86.5613 31.4765 86.7474 31.4001 86.9137C31.3635 86.9856 31.3129 87.0496 31.2513 87.1018C31.1897 87.154 31.1184 87.1934 31.0414 87.2177L31.0718 87.4457L30.6736 87.4974L30.6432 87.2724C30.5624 87.2701 30.4828 87.2517 30.4092 87.2183C30.3356 87.1849 30.2694 87.1371 30.2145 87.0778C30.098 86.9374 30.0279 86.7643 30.0139 86.5823L29.9835 86.3726L30.4456 86.3087L30.479 86.5519C30.5033 86.7526 30.6036 86.8559 30.783 86.8194C30.9624 86.783 31.0201 86.6826 30.9928 86.482C30.9838 86.3968 30.9535 86.3152 30.9046 86.2449C30.8598 86.1794 30.8055 86.121 30.7435 86.0716C30.6827 86.026 30.6006 85.9682 30.4912 85.9014C30.3851 85.8386 30.2835 85.7685 30.1872 85.6916C30.1004 85.6193 30.0264 85.533 29.9683 85.4362C29.8896 85.2989 29.8428 85.1457 29.8312 84.9878C29.8196 84.83 29.8436 84.6716 29.9014 84.5242V84.5334Z" fill="#263238"/>
<path d="M33.8958 101.919C33.9502 102.604 33.8004 103.289 33.4653 103.888C33.1303 104.487 32.625 104.974 32.0135 105.286C31.4019 105.598 30.7116 105.722 30.0296 105.642C29.3477 105.562 28.7049 105.281 28.1825 104.836C27.66 104.39 27.2814 103.8 27.0945 103.139C26.9076 102.478 26.9208 101.777 27.1324 101.124C27.344 100.471 27.7446 99.8949 28.2835 99.4694C28.8223 99.0439 29.4752 98.7877 30.1597 98.7332C30.6143 98.6966 31.0716 98.7501 31.5056 98.8905C31.9395 99.0308 32.3415 99.2554 32.6885 99.5513C33.0355 99.8473 33.3208 100.209 33.5279 100.615C33.7351 101.021 33.8601 101.464 33.8958 101.919Z" fill="white"/>
<path d="M33.8958 101.919C33.9502 102.604 33.8004 103.289 33.4653 103.888C33.1303 104.487 32.625 104.974 32.0135 105.286C31.4019 105.598 30.7116 105.722 30.0296 105.642C29.3477 105.562 28.7049 105.281 28.1825 104.836C27.66 104.39 27.2814 103.8 27.0945 103.139C26.9076 102.478 26.9208 101.777 27.1324 101.124C27.344 100.471 27.7446 99.8949 28.2835 99.4694C28.8223 99.0439 29.4752 98.7877 30.1597 98.7332C30.6143 98.6966 31.0716 98.7501 31.5056 98.8905C31.9395 99.0308 32.3415 99.2554 32.6885 99.5513C33.0355 99.8473 33.3208 100.209 33.5279 100.615C33.7351 101.021 33.8601 101.464 33.8958 101.919Z" stroke="#263238" stroke-width="0.5" stroke-linecap="round" stroke-linejoin="round"/>
<path d="M33.2303 101.971C33.276 102.523 33.1567 103.077 32.8875 103.562C32.6183 104.047 32.2114 104.441 31.7181 104.695C31.2248 104.948 30.6674 105.05 30.1165 104.986C29.5655 104.923 29.0457 104.697 28.6229 104.339C28.2002 103.98 27.8933 103.503 27.7413 102.97C27.5894 102.437 27.599 101.87 27.7691 101.342C27.9392 100.814 28.262 100.349 28.6968 100.005C29.1316 99.6602 29.6587 99.4526 30.2115 99.408C30.9513 99.3491 31.6843 99.5857 32.2501 100.066C32.8158 100.546 33.1683 101.231 33.2303 101.971Z" stroke="#263238" stroke-width="0.5" stroke-linecap="round" stroke-linejoin="round"/>
<path d="M29.7434 100.928C29.8231 100.79 29.9541 100.688 30.1082 100.645L30.0899 100.414L30.4912 100.381L30.5095 100.612C30.6694 100.627 30.8169 100.704 30.9199 100.828C31.0277 100.975 31.0891 101.15 31.0962 101.332V101.43L30.6341 101.466V101.338C30.6362 101.255 30.6081 101.174 30.5551 101.11C30.5028 101.066 30.4353 101.045 30.3671 101.05C30.2989 101.055 30.2354 101.086 30.1903 101.138C30.1466 101.21 30.1305 101.295 30.1447 101.378C30.151 101.463 30.177 101.545 30.2207 101.618C30.2621 101.686 30.3133 101.748 30.3727 101.801C30.4498 101.867 30.531 101.929 30.6159 101.986C30.722 102.055 30.8235 102.132 30.9199 102.214C31.0018 102.29 31.0706 102.38 31.1235 102.478C31.1863 102.598 31.2226 102.73 31.2299 102.865C31.2533 103.045 31.2204 103.229 31.1357 103.39C31.0949 103.459 31.0408 103.52 30.9767 103.568C30.9125 103.616 30.8395 103.65 30.7618 103.67L30.78 103.898L30.3787 103.932L30.3605 103.704C30.28 103.697 30.2017 103.674 30.1302 103.636C30.0587 103.598 29.9954 103.547 29.944 103.485C29.8372 103.338 29.7769 103.162 29.7707 102.98L29.7525 102.767L30.2176 102.728L30.2359 102.974C30.2359 103.178 30.3453 103.278 30.5125 103.257C30.6797 103.235 30.7587 103.135 30.7435 102.934C30.7372 102.849 30.7112 102.765 30.6675 102.691C30.6261 102.623 30.5749 102.562 30.5155 102.509C30.4578 102.46 30.3787 102.399 30.2723 102.326C30.1654 102.257 30.0638 102.18 29.9683 102.095C29.8854 102.019 29.8155 101.93 29.7616 101.831C29.6998 101.712 29.6636 101.582 29.6552 101.448C29.6297 101.27 29.6605 101.088 29.7434 100.928Z" fill="#263238"/>
<path d="M54.1332 95.9546C53.8446 96.5777 53.3777 97.1013 52.7916 97.459C52.2055 97.8168 51.5264 97.9927 50.8403 97.9645C50.1542 97.9363 49.4919 97.7052 48.9371 97.3006C48.3823 96.8959 47.96 96.3358 47.7235 95.6911C47.4871 95.0464 47.4471 94.3461 47.6087 93.6787C47.7703 93.0113 48.1263 92.4068 48.6314 91.9417C49.1366 91.4766 49.7684 91.1717 50.4468 91.0657C51.1253 90.9597 51.8199 91.0572 52.4429 91.346C53.2781 91.7331 53.9253 92.4361 54.2423 93.3003C54.5593 94.1646 54.52 95.1193 54.1332 95.9546Z" fill="white"/>
<path d="M54.1332 95.9546C53.8446 96.5777 53.3777 97.1013 52.7916 97.459C52.2055 97.8168 51.5264 97.9927 50.8403 97.9645C50.1542 97.9363 49.4919 97.7052 48.9371 97.3006C48.3823 96.8959 47.96 96.3358 47.7235 95.6911C47.4871 95.0464 47.4471 94.3461 47.6087 93.6787C47.7703 93.0113 48.1263 92.4068 48.6314 91.9417C49.1366 91.4766 49.7684 91.1717 50.4468 91.0657C51.1253 90.9597 51.8199 91.0572 52.4429 91.346C53.2781 91.7331 53.9253 92.4361 54.2423 93.3003C54.5593 94.1646 54.52 95.1193 54.1332 95.9546Z" stroke="#263238" stroke-width="0.5" stroke-linecap="round" stroke-linejoin="round"/>
<path d="M53.5282 95.6749C53.2948 96.1776 52.9177 96.5998 52.4444 96.8881C51.9711 97.1765 51.4229 97.3181 50.8692 97.295C50.3155 97.2719 49.781 97.0852 49.3334 96.7584C48.8858 96.4316 48.545 95.9795 48.3543 95.4591C48.1636 94.9388 48.1314 94.3735 48.2618 93.8349C48.3923 93.2962 48.6795 92.8084 49.0871 92.4329C49.4947 92.0574 50.0046 91.8112 50.5521 91.7254C51.0996 91.6396 51.6603 91.7181 52.1633 91.9509C52.4978 92.1053 52.7986 92.3242 53.0484 92.5951C53.2982 92.866 53.492 93.1835 53.6188 93.5295C53.7457 93.8755 53.8029 94.2431 53.7874 94.6112C53.7718 94.9794 53.6838 95.3408 53.5282 95.6749Z" stroke="#263238" stroke-width="0.5" stroke-linecap="round" stroke-linejoin="round"/>
<path d="M51.005 93.0423C51.1424 92.961 51.3062 92.937 51.461 92.9754L51.5583 92.7656L51.9231 92.9359L51.8258 93.1456C51.9581 93.2369 52.0488 93.3768 52.0782 93.5347C52.1 93.7155 52.0671 93.8987 51.9839 94.0607L51.9414 94.1488L51.5218 93.9543L51.5735 93.8357C51.6158 93.7633 51.6309 93.6781 51.6161 93.5955C51.6064 93.563 51.5893 93.5331 51.5661 93.5083C51.5428 93.4835 51.5142 93.4645 51.4823 93.4527C51.4515 93.4378 51.4177 93.4302 51.3835 93.4302C51.3493 93.4302 51.3155 93.4378 51.2847 93.4527C51.2133 93.4949 51.1586 93.5603 51.1297 93.6381C51.0917 93.7156 51.0729 93.8011 51.075 93.8874C51.078 93.966 51.0923 94.0439 51.1175 94.1184C51.1449 94.1914 51.1844 94.2856 51.2391 94.3981C51.2963 94.5103 51.346 94.626 51.3881 94.7447C51.4223 94.8528 51.4387 94.9657 51.4367 95.0791C51.4327 95.2129 51.4005 95.3445 51.3425 95.4651C51.2721 95.6343 51.1524 95.7784 50.999 95.8786C50.9297 95.9186 50.8533 95.9446 50.774 95.955C50.6947 95.9655 50.6141 95.9601 50.5369 95.9394L50.4396 96.1461L50.0748 95.9759L50.1599 95.76C50.0936 95.7148 50.0368 95.6568 49.993 95.5895C49.9492 95.5222 49.9191 95.4469 49.9046 95.3679C49.8821 95.1861 49.915 95.0018 49.9988 94.8389L50.09 94.6443L50.5126 94.842L50.4092 95.0639C50.3241 95.2463 50.3575 95.3679 50.5126 95.4469C50.6676 95.5259 50.7862 95.4469 50.8713 95.2767C50.9072 95.1996 50.9249 95.1154 50.923 95.0304C50.9215 94.9506 50.9071 94.8716 50.8804 94.7963C50.8458 94.7007 50.8051 94.6073 50.7588 94.5167C50.7006 94.405 50.6508 94.2892 50.6098 94.1701C50.5752 94.0632 50.5598 93.951 50.5642 93.8387C50.5661 93.7046 50.5983 93.5726 50.6585 93.4527C50.7302 93.2842 50.8509 93.1412 51.005 93.0423Z" fill="#263238"/>
<path d="M48.9926 97.5355C48.9926 97.7513 52.2302 95.4075 55.3766 96.9001C55.3766 96.9001 52.0873 99.8884 48.9045 98.031C45.7216 96.1735 46.1685 91.6166 46.1685 91.6166C46.1685 91.6166 49.248 93.7659 48.9926 97.5355Z" fill="#1C4D87" stroke="#263238" stroke-width="0.5" stroke-linecap="round" stroke-linejoin="round"/>
<path d="M41.5811 85.6885C41.6845 85.877 43.1437 82.1408 46.6093 81.6848C46.6093 81.6848 45.4662 85.9803 41.7848 86.1445C38.1033 86.3086 36.0088 82.2381 36.0088 82.2381C36.0088 82.2381 39.748 82.384 41.5811 85.6885Z" fill="#1C4D87" stroke="#263238" stroke-width="0.5" stroke-linecap="round" stroke-linejoin="round"/>
<path d="M31.0476 89.6071C31.1813 89.7774 32.0325 85.8558 35.3796 84.8586C35.3796 84.8586 34.9296 89.2818 31.3242 90.0266C27.7188 90.7714 25.0071 87.0809 25.0071 87.0809C25.0071 87.0809 28.7159 86.6401 31.0476 89.6071Z" fill="#1C4D87" stroke="#263238" stroke-width="0.5" stroke-linecap="round" stroke-linejoin="round"/>
<path d="M31.7497 106.157C31.9108 106.3 32.078 102.29 35.2062 100.737C35.2062 100.737 35.5102 105.172 32.0932 106.513C28.6763 107.853 25.3657 104.689 25.3657 104.689C25.3657 104.689 28.9468 103.622 31.7497 106.157Z" fill="#1C4D87" stroke="#263238" stroke-width="0.5" stroke-linecap="round" stroke-linejoin="round"/>
<path d="M76.456 116.906H62.168C62.168 116.906 64.0953 131.425 64.6516 135.627C64.752 136.39 65.36 136.767 66.0956 136.767H85.9043C86.64 136.767 87.248 136.39 87.3483 135.627C87.9076 131.425 89.832 116.906 89.832 116.906H76.456Z" fill="#263238"/>
<path d="M61.639 115.69H90.3609C90.5415 115.69 90.7147 115.762 90.8424 115.89C90.9701 116.017 91.0418 116.191 91.0418 116.371V117.444C91.0418 117.624 90.9704 117.797 90.8433 117.924C90.7162 118.051 90.5437 118.122 90.3639 118.122H61.639C61.4584 118.122 61.2852 118.051 61.1575 117.923C61.0298 117.795 60.958 117.622 60.958 117.441V116.368C60.958 116.279 60.9756 116.191 61.0099 116.108C61.0442 116.026 61.0944 115.951 61.1576 115.888C61.2209 115.825 61.296 115.775 61.3786 115.741C61.4612 115.707 61.5497 115.69 61.639 115.69Z" fill="#263238"/>
<path d="M63.6909 118.122H78.1826" stroke="white" stroke-width="0.5" stroke-linecap="round" stroke-linejoin="round"/>
<path d="M80.0066 118.122H81.1223" stroke="white" stroke-width="0.5" stroke-linecap="round" stroke-linejoin="round"/>
<path d="M87.8104 118.122H85.7827" stroke="white" stroke-width="0.5" stroke-linecap="round" stroke-linejoin="round"/>
<path d="M64.8066 122.883H70.4823" stroke="white" stroke-width="0.5" stroke-linecap="round" stroke-linejoin="round"/>
<path d="M73.7229 122.883H75.2429" stroke="white" stroke-width="0.5" stroke-linecap="round" stroke-linejoin="round"/>
<path d="M87.4029 122.883H81.9309" stroke="white" stroke-width="0.5" stroke-linecap="round" stroke-linejoin="round"/>
<path d="M86.795 126.835H85.7827" stroke="white" stroke-width="0.5" stroke-linecap="round" stroke-linejoin="round"/>
<path d="M70.4822 126.835H68.3542" stroke="white" stroke-width="0.5" stroke-linecap="round" stroke-linejoin="round"/>
<path d="M80.563 130.687H84.059" stroke="white" stroke-width="0.5" stroke-linecap="round" stroke-linejoin="round"/>
<path d="M72.4066 130.687H66.9346" stroke="white" stroke-width="0.5" stroke-linecap="round" stroke-linejoin="round"/>
<path d="M65.8191 134.131H67.6431" stroke="white" stroke-width="0.5" stroke-linecap="round" stroke-linejoin="round"/>
<path d="M70.4824 134.131H81.1224" stroke="white" stroke-width="0.5" stroke-linecap="round" stroke-linejoin="round"/>
<path d="M86.2904 134.131H84.667" stroke="white" stroke-width="0.5" stroke-linecap="round" stroke-linejoin="round"/>
<path d="M81.2196 126.227C81.2202 127.259 80.9146 128.269 80.3414 129.128C79.7683 129.986 78.9533 130.656 77.9995 131.051C77.0458 131.447 75.9962 131.551 74.9835 131.35C73.9708 131.149 73.0405 130.652 72.3102 129.922C71.5799 129.192 71.0824 128.262 70.8808 127.249C70.6791 126.237 70.7823 125.187 71.1773 124.233C71.5723 123.279 72.2413 122.464 73.0997 121.89C73.9582 121.316 74.9675 121.01 76 121.01C77.3838 121.01 78.711 121.56 79.6898 122.538C80.6685 123.516 81.2188 124.843 81.2196 126.227Z" fill="#1C4D87" stroke="#263238" stroke-width="0.5" stroke-linecap="round" stroke-linejoin="round"/>
<path d="M80.332 126.227C80.3338 127.084 80.0812 127.923 79.6063 128.636C79.1314 129.35 78.4555 129.906 77.6641 130.236C76.8727 130.565 76.0014 130.652 75.1604 130.486C74.3195 130.32 73.5468 129.908 72.94 129.302C72.3333 128.697 71.9198 127.925 71.7519 127.085C71.584 126.244 71.6692 125.372 71.9968 124.58C72.3245 123.788 72.8797 123.111 73.5923 122.635C74.3049 122.158 75.1428 121.904 76 121.904C77.1471 121.905 78.2471 122.36 79.059 123.171C79.871 123.981 80.3287 125.08 80.332 126.227Z" stroke="#263238" stroke-width="0.5" stroke-linecap="round" stroke-linejoin="round"/>
<path d="M76 123.78L74.7232 125.044V124.184H74.3189V125.446L73.6257 126.133H74.2337V128.221H77.7662V126.133H78.3742L76 123.78Z" fill="white" stroke="#263238" stroke-width="0.5" stroke-linecap="round" stroke-linejoin="round"/>
<path d="M76.2704 118.408C76.2704 118.408 78.0944 114.912 73.7229 111.872C69.3514 108.832 68.4029 105.683 69.1051 103.305" stroke="#263238" stroke-width="0.5" stroke-linecap="round" stroke-linejoin="round"/>
<path d="M75.547 113.559C75.547 113.559 75.0363 111.282 79.0339 109.677C83.0315 108.072 83.6274 103.293 83.6274 103.293" stroke="#263238" stroke-width="0.5" stroke-linecap="round" stroke-linejoin="round"/>
<path d="M71.3305 99.4871C71.9719 99.4871 71.8594 103.512 68.8985 104.272C68.8985 104.272 67.4575 103.819 67.2295 101.88C67.1421 101.356 67.2011 100.818 67.4001 100.325C67.5992 99.8328 67.9304 99.4049 68.3574 99.0889C68.5419 99.7219 68.7936 100.333 69.1082 100.913C69.1082 100.913 70.1145 99.4932 71.3305 99.4871Z" fill="#1C4D87" stroke="#263238" stroke-width="0.5" stroke-linecap="round" stroke-linejoin="round"/>
<path d="M69.1053 100.91C69.1053 100.91 68.2876 101.591 68.8804 102.828L69.1053 100.91Z" fill="#1C4D87"/>
<path d="M69.1053 100.91C69.1053 100.91 68.2876 101.591 68.8804 102.828" stroke="#263238" stroke-width="0.5" stroke-linecap="round" stroke-linejoin="round"/>
<path d="M83.4206 104.272C83.4206 104.272 81.2926 102.336 81.931 100.91C82.3634 100.017 83.0695 99.2852 83.9465 98.8213C83.9465 98.8213 84.4025 99.7059 84.667 100.128L85.7584 99.487C85.7584 99.487 87.9897 103.816 83.4206 104.272Z" fill="#1C4D87" stroke="#263238" stroke-width="0.5" stroke-linecap="round" stroke-linejoin="round"/>
<path d="M84.6669 100.129C84.6669 100.129 85.9984 102.257 84.3264 103.305L84.6669 100.129Z" fill="#1C4D87"/>
<path d="M84.6669 100.129C84.6669 100.129 85.9984 102.257 84.3264 103.305" stroke="#263238" stroke-width="0.5" stroke-linecap="round" stroke-linejoin="round"/>
<path d="M76.9605 110.835C76.9605 110.835 74.9024 105.667 76.6079 99.8732" stroke="#263238" stroke-width="0.5" stroke-linecap="round" stroke-linejoin="round"/>
<path d="M76.7052 99.9066C76.7052 99.9066 79.4412 99.028 79.4412 97.4746C79.4196 96.4832 79.082 95.5246 78.4775 94.7386C78.4775 94.7386 77.6932 95.3466 77.2767 95.6293L76.5501 94.5927C76.5501 94.5927 72.738 97.584 76.7052 99.9066Z" fill="#1C4D87" stroke="#263238" stroke-width="0.5" stroke-linecap="round" stroke-linejoin="round"/>
<path d="M77.289 95.6202C77.289 95.6202 75.1944 97.0095 76.2827 98.6602L77.289 95.6202Z" fill="#1C4D87"/>
<path d="M77.289 95.6202C77.289 95.6202 75.1944 97.0095 76.2827 98.6602" stroke="#263238" stroke-width="0.5" stroke-linecap="round" stroke-linejoin="round"/>
<path d="M112.936 116.906H98.6479C98.6479 116.906 100.572 131.425 101.132 135.627C101.232 136.39 101.84 136.767 102.576 136.767H122.384C123.12 136.767 123.728 136.39 123.828 135.627C124.388 131.425 126.312 116.906 126.312 116.906H112.936Z" fill="#263238"/>
<path d="M98.119 115.69H126.841C127.021 115.69 127.193 115.762 127.32 115.889C127.447 116.016 127.519 116.188 127.519 116.368V117.441C127.519 117.621 127.447 117.794 127.32 117.921C127.193 118.048 127.021 118.119 126.841 118.119H98.119C97.9384 118.119 97.7651 118.048 97.6374 117.92C97.5097 117.792 97.438 117.619 97.438 117.438V116.365C97.4384 116.276 97.4563 116.188 97.4908 116.106C97.5252 116.024 97.5755 115.949 97.6387 115.887C97.7019 115.824 97.7769 115.774 97.8593 115.741C97.9417 115.707 98.0299 115.69 98.119 115.69Z" fill="#263238"/>
<path d="M100.171 118.122H114.663" stroke="white" stroke-width="0.5" stroke-linecap="round" stroke-linejoin="round"/>
<path d="M116.487 118.122H117.602" stroke="white" stroke-width="0.5" stroke-linecap="round" stroke-linejoin="round"/>
<path d="M124.29 118.122H122.263" stroke="white" stroke-width="0.5" stroke-linecap="round" stroke-linejoin="round"/>
<path d="M101.287 122.883H106.962" stroke="white" stroke-width="0.5" stroke-linecap="round" stroke-linejoin="round"/>
<path d="M110.203 122.883H111.723" stroke="white" stroke-width="0.5" stroke-linecap="round" stroke-linejoin="round"/>
<path d="M123.883 122.883H118.411" stroke="white" stroke-width="0.5" stroke-linecap="round" stroke-linejoin="round"/>
<path d="M123.275 126.835H122.263" stroke="white" stroke-width="0.5" stroke-linecap="round" stroke-linejoin="round"/>
<path d="M106.962 126.835H104.834" stroke="white" stroke-width="0.5" stroke-linecap="round" stroke-linejoin="round"/>
<path d="M117.043 130.687H120.539" stroke="white" stroke-width="0.5" stroke-linecap="round" stroke-linejoin="round"/>
<path d="M108.887 130.687H103.415" stroke="white" stroke-width="0.5" stroke-linecap="round" stroke-linejoin="round"/>
<path d="M102.299 134.131H104.123" stroke="white" stroke-width="0.5" stroke-linecap="round" stroke-linejoin="round"/>
<path d="M106.962 134.131H117.602" stroke="white" stroke-width="0.5" stroke-linecap="round" stroke-linejoin="round"/>
<path d="M122.77 134.131H121.147" stroke="white" stroke-width="0.5" stroke-linecap="round" stroke-linejoin="round"/>
<path d="M117.7 126.227C117.7 127.259 117.395 128.269 116.821 129.128C116.248 129.986 115.433 130.656 114.48 131.051C113.526 131.447 112.476 131.551 111.463 131.35C110.451 131.149 109.52 130.652 108.79 129.922C108.06 129.192 107.562 128.262 107.361 127.249C107.159 126.237 107.262 125.187 107.657 124.233C108.052 123.279 108.721 122.464 109.58 121.89C110.438 121.316 111.447 121.01 112.48 121.01C113.864 121.01 115.191 121.56 116.17 122.538C117.149 123.516 117.699 124.843 117.7 126.227Z" fill="#1C4D87" stroke="#263238" stroke-width="0.5" stroke-linecap="round" stroke-linejoin="round"/>
<path d="M114.474 125.655V127.479C114.474 127.479 114.091 128.118 112.48 128.118C110.869 128.118 110.486 127.479 110.486 127.479V125.655" fill="white"/>
<path d="M114.474 125.655V127.479C114.474 127.479 114.091 128.118 112.48 128.118C110.869 128.118 110.486 127.479 110.486 127.479V125.655" stroke="#263238" stroke-width="0.5" stroke-linecap="round" stroke-linejoin="round"/>
<path d="M112.48 124.339L115.246 125.367L112.48 126.394L109.714 125.367L112.48 124.339Z" fill="white" stroke="#263238" stroke-width="0.5" stroke-linecap="round" stroke-linejoin="round"/>
<path d="M112.48 125.367L113.638 125.965V128.723" stroke="#263238" stroke-width="0.5" stroke-linecap="round" stroke-linejoin="round"/>
<path d="M116.812 126.227C116.814 127.084 116.561 127.923 116.086 128.636C115.611 129.35 114.935 129.906 114.144 130.236C113.353 130.565 112.481 130.652 111.64 130.486C110.799 130.32 110.027 129.908 109.42 129.302C108.813 128.697 108.4 127.925 108.232 127.085C108.064 126.244 108.149 125.372 108.477 124.58C108.804 123.788 109.36 123.111 110.072 122.635C110.785 122.158 111.623 121.904 112.48 121.904C113.627 121.905 114.727 122.36 115.539 123.171C116.351 123.981 116.809 125.08 116.812 126.227Z" stroke="#263238" stroke-width="0.5" stroke-linecap="round" stroke-linejoin="round"/>
<path d="M112.48 119.572C112.48 119.572 111.097 116.028 112.48 111.468" stroke="#263238" stroke-width="0.5" stroke-linecap="round" stroke-linejoin="round"/>
<path d="M112.48 107.616C112.48 107.616 116.812 110.556 111.872 113.492C111.872 113.492 106.962 110.556 112.48 107.616Z" fill="#1C4D87" stroke="#263238" stroke-width="0.5" stroke-linecap="round" stroke-linejoin="round"/>
<path d="M112.48 107.616C112.48 107.616 113.225 108.732 112.48 109.744C112.26 110.079 112.108 110.454 112.033 110.848C111.959 111.242 111.963 111.647 112.045 112.039" stroke="#263238" stroke-width="0.5" stroke-linecap="round" stroke-linejoin="round"/>
</svg>
