<svg width="131" height="131" viewBox="0 0 131 131" fill="none" xmlns="http://www.w3.org/2000/svg">
<path d="M96.6866 121.566C96.6866 121.566 120.59 103.168 126.231 74.4701C131.872 45.7722 108.706 39.9883 95.1186 30.2639C81.5315 20.5395 76.531 9.59653 56.8425 8.9266C37.1537 8.25667 26.9682 15.6485 19.8583 29.9704C12.7484 44.2921 8.95095 58.9987 6.71557 73.3514C4.48018 87.704 5.5777 99.1678 18.2153 104.885C30.8528 110.603 36.718 108.094 42.7209 114.679C48.7236 121.263 76.1217 136.167 96.6866 121.566Z" fill="#1C4D87"/>
<path opacity="0.7" d="M96.6866 121.566C96.6866 121.566 120.59 103.168 126.231 74.4701C131.872 45.7722 108.706 39.9883 95.1186 30.2639C81.5315 20.5395 76.531 9.59653 56.8425 8.9266C37.1537 8.25667 26.9682 15.6485 19.8583 29.9704C12.7484 44.2921 8.95095 58.9987 6.71557 73.3514C4.48018 87.704 5.5777 99.1678 18.2153 104.885C30.8528 110.603 36.718 108.094 42.7209 114.679C48.7236 121.263 76.1217 136.167 96.6866 121.566Z" fill="white"/>
<g opacity="0.3">
<path d="M58.8425 26.1913C59.9607 26.191 61.2707 26.191 62.3187 26.191C62.3187 35.885 62.3187 45.579 62.3187 55.273C65.2007 55.273 67.8207 55.273 70.7067 55.3367" stroke="black" stroke-miterlimit="10" stroke-linecap="round"/>
<path d="M8.70044 68.585H12.7719V49.5701H18.2967V40.6862H28.7487V58.2981H31.4365V24.1399H42.9339V39.1276H50.1012V26.1914H56.6043" stroke="black" stroke-miterlimit="10" stroke-linecap="round"/>
<path d="M15.6088 52.6874H14.4143V54.246H15.6088V52.6874Z" stroke="black" stroke-miterlimit="10" stroke-linecap="round"/>
<path d="M17.5499 52.6874H16.3555V54.246H17.5499V52.6874Z" stroke="black" stroke-miterlimit="10" stroke-linecap="round"/>
<path d="M19.4911 52.6874H18.2966V54.246H19.4911V52.6874Z" stroke="black" stroke-miterlimit="10" stroke-linecap="round"/>
<path d="M21.4323 52.6874H20.2378V54.246H21.4323V52.6874Z" stroke="black" stroke-miterlimit="10" stroke-linecap="round"/>
<path d="M23.3732 52.6874H22.1787V54.246H23.3732V52.6874Z" stroke="black" stroke-miterlimit="10" stroke-linecap="round"/>
<path d="M25.3143 52.6874H24.1199V54.246H25.3143V52.6874Z" stroke="black" stroke-miterlimit="10" stroke-linecap="round"/>
<path d="M34.4227 41.1538H33.2283V42.7124H34.4227V41.1538Z" stroke="black" stroke-miterlimit="10" stroke-linecap="round"/>
<path d="M36.3639 41.1538H35.1694V42.7124H36.3639V41.1538Z" stroke="black" stroke-miterlimit="10" stroke-linecap="round"/>
<path d="M38.3048 41.1538H37.1104V42.7124H38.3048V41.1538Z" stroke="black" stroke-miterlimit="10" stroke-linecap="round"/>
<path d="M40.246 41.1538H39.0515V42.7124H40.246V41.1538Z" stroke="black" stroke-miterlimit="10" stroke-linecap="round"/>
<path d="M34.4227 38.3484H33.2283V39.907H34.4227V38.3484Z" stroke="black" stroke-miterlimit="10" stroke-linecap="round"/>
<path d="M36.3639 38.3484H35.1694V39.907H36.3639V38.3484Z" stroke="black" stroke-miterlimit="10" stroke-linecap="round"/>
<path d="M38.3048 38.3484H37.1104V39.907H38.3048V38.3484Z" stroke="black" stroke-miterlimit="10" stroke-linecap="round"/>
<path d="M40.246 38.3484H39.0515V39.907H40.246V38.3484Z" stroke="black" stroke-miterlimit="10" stroke-linecap="round"/>
<path d="M34.4227 35.5428H33.2283V37.1015H34.4227V35.5428Z" stroke="black" stroke-miterlimit="10" stroke-linecap="round"/>
<path d="M36.3639 35.5428H35.1694V37.1015H36.3639V35.5428Z" stroke="black" stroke-miterlimit="10" stroke-linecap="round"/>
<path d="M38.3048 35.5428H37.1104V37.1015H38.3048V35.5428Z" stroke="black" stroke-miterlimit="10" stroke-linecap="round"/>
<path d="M40.246 35.5428H39.0515V37.1015H40.246V35.5428Z" stroke="black" stroke-miterlimit="10" stroke-linecap="round"/>
<path d="M34.4227 32.7373H33.2283V34.2959H34.4227V32.7373Z" stroke="black" stroke-miterlimit="10" stroke-linecap="round"/>
<path d="M36.3639 32.7373H35.1694V34.2959H36.3639V32.7373Z" stroke="black" stroke-miterlimit="10" stroke-linecap="round"/>
<path d="M38.3048 32.7373H37.1104V34.2959H38.3048V32.7373Z" stroke="black" stroke-miterlimit="10" stroke-linecap="round"/>
<path d="M40.246 32.7373H39.0515V34.2959H40.246V32.7373Z" stroke="black" stroke-miterlimit="10" stroke-linecap="round"/>
<path d="M34.4227 29.9321H33.2283V31.4908H34.4227V29.9321Z" stroke="black" stroke-miterlimit="10" stroke-linecap="round"/>
<path d="M36.3639 29.9321H35.1694V31.4908H36.3639V29.9321Z" stroke="black" stroke-miterlimit="10" stroke-linecap="round"/>
<path d="M38.3048 29.9321H37.1104V31.4908H38.3048V29.9321Z" stroke="black" stroke-miterlimit="10" stroke-linecap="round"/>
<path d="M40.246 29.9321H39.0515V31.4908H40.246V29.9321Z" stroke="black" stroke-miterlimit="10" stroke-linecap="round"/>
<path d="M42.1871 41.1538H40.9927V42.7124H42.1871V41.1538Z" stroke="black" stroke-miterlimit="10" stroke-linecap="round"/>
<path d="M44.1283 41.1538H42.9338V42.7124H44.1283V41.1538Z" stroke="black" stroke-miterlimit="10" stroke-linecap="round"/>
<path d="M34.4227 44.2709H33.2283V45.8295H34.4227V44.2709Z" stroke="black" stroke-miterlimit="10" stroke-linecap="round"/>
<path d="M36.3639 44.2709H35.1694V45.8295H36.3639V44.2709Z" stroke="black" stroke-miterlimit="10" stroke-linecap="round"/>
<path d="M38.3048 44.2709H37.1104V45.8295H38.3048V44.2709Z" stroke="black" stroke-miterlimit="10" stroke-linecap="round"/>
<path d="M40.246 44.2709H39.0515V45.8295H40.246V44.2709Z" stroke="black" stroke-miterlimit="10" stroke-linecap="round"/>
<path d="M42.1871 44.2709H40.9927V45.8295H42.1871V44.2709Z" stroke="black" stroke-miterlimit="10" stroke-linecap="round"/>
<path d="M44.1283 44.2709H42.9338V45.8295H44.1283V44.2709Z" stroke="black" stroke-miterlimit="10" stroke-linecap="round"/>
<path d="M15.6088 55.9603H14.4143V57.519H15.6088V55.9603Z" stroke="black" stroke-miterlimit="10" stroke-linecap="round"/>
<path d="M17.5499 55.9603H16.3555V57.519H17.5499V55.9603Z" stroke="black" stroke-miterlimit="10" stroke-linecap="round"/>
<path d="M19.4911 55.9603H18.2966V57.519H19.4911V55.9603Z" stroke="black" stroke-miterlimit="10" stroke-linecap="round"/>
<path d="M21.4323 55.9603H20.2378V57.519H21.4323V55.9603Z" stroke="black" stroke-miterlimit="10" stroke-linecap="round"/>
<path d="M23.3732 55.9603H22.1787V57.519H23.3732V55.9603Z" stroke="black" stroke-miterlimit="10" stroke-linecap="round"/>
<path d="M25.3143 55.9603H24.1199V57.519H25.3143V55.9603Z" stroke="black" stroke-miterlimit="10" stroke-linecap="round"/>
<path d="M15.6088 59.2335H14.4143V60.7922H15.6088V59.2335Z" stroke="black" stroke-miterlimit="10" stroke-linecap="round"/>
<path d="M17.5499 59.2335H16.3555V60.7922H17.5499V59.2335Z" stroke="black" stroke-miterlimit="10" stroke-linecap="round"/>
<path d="M19.4911 59.2335H18.2966V60.7922H19.4911V59.2335Z" stroke="black" stroke-miterlimit="10" stroke-linecap="round"/>
<path d="M21.4323 59.2335H20.2378V60.7922H21.4323V59.2335Z" stroke="black" stroke-miterlimit="10" stroke-linecap="round"/>
<path d="M23.3732 59.2335H22.1787V60.7922H23.3732V59.2335Z" stroke="black" stroke-miterlimit="10" stroke-linecap="round"/>
<path d="M25.3143 59.2335H24.1199V60.7922H25.3143V59.2335Z" stroke="black" stroke-miterlimit="10" stroke-linecap="round"/>
<path d="M15.6088 62.5063H14.4143V64.065H15.6088V62.5063Z" stroke="black" stroke-miterlimit="10" stroke-linecap="round"/>
<path d="M17.5499 62.5063H16.3555V64.065H17.5499V62.5063Z" stroke="black" stroke-miterlimit="10" stroke-linecap="round"/>
<path d="M19.4911 62.5063H18.2966V64.065H19.4911V62.5063Z" stroke="black" stroke-miterlimit="10" stroke-linecap="round"/>
<path d="M21.4323 62.5063H20.2378V64.065H21.4323V62.5063Z" stroke="black" stroke-miterlimit="10" stroke-linecap="round"/>
<path d="M23.3732 62.5063H22.1787V64.065H23.3732V62.5063Z" stroke="black" stroke-miterlimit="10" stroke-linecap="round"/>
<path d="M25.3143 62.5063H24.1199V64.065H25.3143V62.5063Z" stroke="black" stroke-miterlimit="10" stroke-linecap="round"/>
<path d="M15.6088 65.7795H14.4143V67.3382H15.6088V65.7795Z" stroke="black" stroke-miterlimit="10" stroke-linecap="round"/>
<path d="M17.5499 65.7795H16.3555V67.3382H17.5499V65.7795Z" stroke="black" stroke-miterlimit="10" stroke-linecap="round"/>
<path d="M19.4911 65.7795H18.2966V67.3382H19.4911V65.7795Z" stroke="black" stroke-miterlimit="10" stroke-linecap="round"/>
<path d="M21.4323 65.7795H20.2378V67.3382H21.4323V65.7795Z" stroke="black" stroke-miterlimit="10" stroke-linecap="round"/>
<path d="M23.3732 65.7795H22.1787V67.3382H23.3732V65.7795Z" stroke="black" stroke-miterlimit="10" stroke-linecap="round"/>
<path d="M25.3143 65.7795H24.1199V67.3382H25.3143V65.7795Z" stroke="black" stroke-miterlimit="10" stroke-linecap="round"/>
<path d="M55.6053 29.6204H54.4109V31.179H55.6053V29.6204Z" stroke="black" stroke-miterlimit="10" stroke-linecap="round"/>
<path d="M57.5465 29.6204H56.3521V31.179H57.5465V29.6204Z" stroke="black" stroke-miterlimit="10" stroke-linecap="round"/>
<path d="M55.6053 33.5168H54.4109V35.0755H55.6053V33.5168Z" stroke="black" stroke-miterlimit="10" stroke-linecap="round"/>
<path d="M57.5465 33.5168H56.3521V35.0755H57.5465V33.5168Z" stroke="black" stroke-miterlimit="10" stroke-linecap="round"/>
<path d="M55.6053 37.4133H54.4109V38.972H55.6053V37.4133Z" stroke="black" stroke-miterlimit="10" stroke-linecap="round"/>
<path d="M57.5465 37.4133H56.3521V38.972H57.5465V37.4133Z" stroke="black" stroke-miterlimit="10" stroke-linecap="round"/>
<path d="M55.6053 41.3098H54.4109V42.8684H55.6053V41.3098Z" stroke="black" stroke-miterlimit="10" stroke-linecap="round"/>
<path d="M57.5465 41.3098H56.3521V42.8684H57.5465V41.3098Z" stroke="black" stroke-miterlimit="10" stroke-linecap="round"/>
<path d="M55.6053 45.2063H54.4109V46.7649H55.6053V45.2063Z" stroke="black" stroke-miterlimit="10" stroke-linecap="round"/>
<path d="M57.5465 45.2063H56.3521V46.7649H57.5465V45.2063Z" stroke="black" stroke-miterlimit="10" stroke-linecap="round"/>
<path d="M55.6053 49.1028H54.4109V50.6614H55.6053V49.1028Z" stroke="black" stroke-miterlimit="10" stroke-linecap="round"/>
<path d="M57.5465 49.1028H56.3521V50.6614H57.5465V49.1028Z" stroke="black" stroke-miterlimit="10" stroke-linecap="round"/>
<path d="M55.6053 52.9991H54.4109V54.5578H55.6053V52.9991Z" stroke="black" stroke-miterlimit="10" stroke-linecap="round"/>
<path d="M57.5465 52.9991H56.3521V54.5578H57.5465V52.9991Z" stroke="black" stroke-miterlimit="10" stroke-linecap="round"/>
<path d="M55.6053 56.8956H54.4109V58.4543H55.6053V56.8956Z" stroke="black" stroke-miterlimit="10" stroke-linecap="round"/>
<path d="M57.5465 56.8956H56.3521V58.4543H57.5465V56.8956Z" stroke="black" stroke-miterlimit="10" stroke-linecap="round"/>
<path d="M55.6053 60.7921H54.4109V62.3507H55.6053V60.7921Z" stroke="black" stroke-miterlimit="10" stroke-linecap="round"/>
<path d="M57.5465 60.7921H56.3521V62.3507H57.5465V60.7921Z" stroke="black" stroke-miterlimit="10" stroke-linecap="round"/>
</g>
<path d="M121.669 121.195H127.52" stroke="#263238" stroke-miterlimit="10" stroke-linecap="round"/>
<path d="M6.10767 121.195H119.37" stroke="#263238" stroke-miterlimit="10" stroke-linecap="round"/>
<g opacity="0.3">
<path d="M40.3754 5.69218C39.7228 5.05631 38.9423 4.52104 38.0258 4.23913C34.5396 3.1665 32.9307 5.84807 32.3944 7.63596C31.858 9.42359 30.8748 7.36767 28.3719 7.81464C25.869 8.26162 26.4053 9.51293 25.422 9.87056C24.4387 10.2282 23.6341 9.42359 23.0978 9.78122C22.5615 10.1388 22.2932 10.7645 22.2932 10.7645H47.4114C47.4114 10.7645 46.9644 9.51293 45.6235 8.97661C44.2826 8.4403 43.8356 10.5856 43.0313 10.0492C43.0313 10.0492 42.4269 8.1652 41.1061 6.50412" stroke="black" stroke-miterlimit="10" stroke-linecap="round"/>
<path d="M67.701 21.0402H82.1157C82.1157 21.0402 81.5718 19.5174 79.9403 18.8648C78.3088 18.2122 77.7649 20.8227 76.7858 20.1701C76.7858 20.1701 74.9366 14.4053 70.6946 13.1C66.4525 11.7947 64.4946 15.0579 63.842 17.2333C63.1893 19.4087 61.9928 16.9069 58.9473 17.4508C55.9018 17.9947 56.5542 19.5174 55.3579 19.9526C54.1613 20.3878 53.1825 19.4087 52.5299 19.8439C51.8772 20.2791 51.551 21.0405 51.551 21.0405H65.2358" stroke="black" stroke-miterlimit="10" stroke-linecap="round"/>
</g>
<path d="M109.952 32.8837L113.727 36.4598L95.449 54.7377L85.5152 51.5591L62.2706 74.4063L44.3899 65.8635L6.44336 93.7424V112.97L45.9794 80.3665L64.2573 86.9228L87.502 61.6912L98.4289 64.87L120.084 40.4333L124.058 44.0093L126.839 27.7181L109.952 32.8837Z" fill="#263238" stroke="#263238" stroke-miterlimit="10" stroke-linecap="round" stroke-linejoin="round"/>
<path d="M109.952 31.64L113.727 35.216L95.449 53.4939L85.5152 50.3151L62.2706 73.1625L44.3899 64.6197L6.44336 92.4986V111.726L45.9794 79.1227L64.2573 85.679L87.502 60.4474L98.4289 63.6262L120.084 39.1895L124.058 42.7655L126.839 26.4744L109.952 31.64Z" fill="#1C4D87" stroke="#263238" stroke-miterlimit="10"/>
<g opacity="0.18">
<path d="M46.1626 65.4665L44.3899 64.6198L6.44336 92.4986V111.726L34.7276 88.4012C37.9934 81.2437 41.8912 73.1921 46.1626 65.4665Z" fill="black" stroke="black" stroke-miterlimit="10" stroke-linecap="round"/>
</g>
<path d="M109.952 31.64L113.727 35.216L95.449 53.4939L85.5152 50.3151L62.2706 73.1625L44.3899 64.6197L6.44336 92.4986V111.726L45.9794 79.1227L64.2573 85.679L87.502 60.4474L98.4289 63.6262L120.084 39.1895L124.058 42.7655L126.839 26.4744L109.952 31.64Z" stroke="#263238" stroke-miterlimit="10"/>
<path d="M109.049 74.5707H85.9504V123.916L105.2 127.766L109.049 123.916V74.5707Z" fill="#263238" stroke="#263238" stroke-miterlimit="10"/>
<path d="M105.2 78.4205H82.1006V127.766H105.2V78.4205Z" fill="#1C4D87" stroke="#263238" stroke-miterlimit="10"/>
<path d="M82.1006 78.4205L85.7516 74.5424L109.049 74.5707L105.2 78.4205H82.1006Z" fill="#1C4D87" stroke="#263238" stroke-miterlimit="10"/>
<path d="M78.025 103.656H54.926V123.916L74.1752 127.766L78.025 123.916V103.656Z" fill="#263238" stroke="#263238" stroke-miterlimit="10"/>
<path d="M74.1751 107.506H51.0762V127.766H74.1751V107.506Z" fill="#1C4D87" stroke="#263238" stroke-miterlimit="10"/>
<path d="M51.0762 107.506L54.7271 103.628L78.025 103.656L74.1751 107.506H51.0762Z" fill="#1C4D87" stroke="#263238" stroke-miterlimit="10"/>
<path d="M43.5536 116.152H20.4546V123.916L39.7037 127.766L43.5536 123.916V116.152Z" fill="#263238" stroke="#263238" stroke-miterlimit="10"/>
<path d="M39.7037 120.002H16.6047V127.766H39.7037V120.002Z" fill="#1C4D87" stroke="#263238" stroke-miterlimit="10"/>
<path d="M16.6047 120.002L20.2554 116.124L43.5535 116.152L39.7037 120.002H16.6047Z" fill="#1C4D87" stroke="#263238" stroke-miterlimit="10"/>
<path d="M92.3496 109.759V93.8588C92.1686 93.9573 91.9632 94.0561 91.7334 94.1546C91.5031 94.2531 91.2607 94.3561 91.0061 94.4627C90.7511 94.5699 90.5046 94.6723 90.2667 94.7708C90.0283 94.8693 89.8106 94.9679 89.6133 95.0666V92.0099C89.7938 91.9114 90.0485 91.7759 90.3775 91.6033C90.7061 91.4306 91.0593 91.2378 91.4373 91.024C91.8151 90.8107 92.1683 90.5927 92.4974 90.3705C92.8259 90.1486 93.0725 89.9558 93.237 89.7913H96.4664V109.759H92.3496Z" fill="#263238" stroke="#263238" stroke-miterlimit="10" stroke-linecap="round" stroke-linejoin="round"/>
</svg>
