<svg width="133" height="122" viewBox="0 0 133 122" fill="none" xmlns="http://www.w3.org/2000/svg">
<path d="M80.4017 19.728L66.8555 1L53.3093 19.728H58.8815V40.5367H74.8298V19.728H80.4017Z" fill="#FF8D1D" stroke="#263238" stroke-width="0.5" stroke-miterlimit="10" stroke-linecap="round" stroke-linejoin="round"/>
<path d="M68.9931 51.7324C76.6058 50.5017 81.7795 43.3325 80.5487 35.7195C79.3179 28.1066 72.1488 22.9329 64.5361 24.1636C56.9233 25.3944 51.7497 32.5636 52.9805 40.1765C54.2112 47.7894 61.3803 52.9632 68.9931 51.7324Z" fill="white" stroke="#263238" stroke-width="0.5" stroke-miterlimit="10" stroke-linecap="round" stroke-linejoin="round"/>
<path d="M77.3895 43.3114C80.3493 37.4412 77.9899 30.2831 72.1197 27.3234C66.2495 24.3636 59.0913 26.723 56.1316 32.5932C53.1718 38.4634 55.5312 45.6215 61.4014 48.5813C67.2716 51.541 74.4297 49.1817 77.3895 43.3114Z" fill="white" stroke="#263238" stroke-width="0.5" stroke-miterlimit="10" stroke-linecap="round" stroke-linejoin="round"/>
<path d="M70.7371 39.7369C70.7371 36.6222 66.322 36.5536 66.322 35.2527C66.322 34.5684 66.6811 34.3627 67.4172 34.3627C68.0503 34.3627 68.5806 34.6367 69.1972 35.1844L70.6518 33.5071C69.9756 32.7895 69.1501 32.2563 68.0676 32.0743V30.3237H66.1502V32.1261C64.5009 32.4828 63.5145 33.6593 63.5145 35.3898C63.5145 38.3851 67.9305 38.5732 67.9305 39.9424C67.9305 40.6099 67.5885 40.9012 66.7329 40.9012C66.0139 40.9012 65.2949 40.6272 64.3704 39.9424L63.1042 41.9278C63.9529 42.6917 65.1719 43.1 66.1504 43.2206V44.9405H68.0679V43.1005C69.8549 42.6755 70.7371 41.3847 70.7371 39.7369Z" fill="#FF8D1D" stroke="#263238" stroke-width="0.5" stroke-miterlimit="10" stroke-linecap="round" stroke-linejoin="round"/>
<path d="M108.593 108.356H110.242V92.4663H108.593V108.356Z" fill="#263238" stroke="#263238" stroke-width="0.5" stroke-miterlimit="10" stroke-linecap="round" stroke-linejoin="round"/>
<path d="M116.808 93.0325L119.717 93.3726L121.562 77.5905L118.653 77.2504L116.808 93.0325Z" fill="#263238" stroke="#263238" stroke-width="0.5" stroke-miterlimit="10" stroke-linecap="round" stroke-linejoin="round"/>
<path d="M107.324 109.005V106.327H111.511V109.029L128.257 115.75V118.922H127.115V116.512L109.357 112.471L92.0699 116.512V118.922H90.9583V115.75L107.324 109.005Z" fill="#8C8C8C" stroke="#263238" stroke-width="0.5" stroke-miterlimit="10" stroke-linecap="round" stroke-linejoin="round"/>
<path d="M105.294 97.5405H113.541V92.4666H105.294V97.5405Z" fill="#263238" stroke="#263238" stroke-width="0.5" stroke-miterlimit="10" stroke-linecap="round" stroke-linejoin="round"/>
<path d="M128.257 119.049C128.257 118.068 129.052 117.273 130.033 117.273C131.014 117.273 131.81 118.068 131.81 119.049C131.81 120.03 131.014 120.826 130.033 120.826C129.053 120.825 128.257 120.03 128.257 119.049Z" fill="#263238" stroke="#263238" stroke-width="0.5" stroke-miterlimit="10" stroke-linecap="round" stroke-linejoin="round"/>
<path d="M129.272 119.049C129.272 118.628 129.613 118.288 130.033 118.288C130.454 118.288 130.795 118.628 130.795 119.049C130.795 119.469 130.454 119.81 130.033 119.81C129.613 119.81 129.272 119.469 129.272 119.049Z" fill="white" stroke="#263238" stroke-width="0.5" stroke-miterlimit="10" stroke-linecap="round" stroke-linejoin="round"/>
<path d="M87.2791 119.049C87.2791 118.068 88.0742 117.273 89.0553 117.273C90.0362 117.273 90.8316 118.068 90.8316 119.049C90.8316 120.03 90.0365 120.826 89.0553 120.826C88.0745 120.825 87.2791 120.03 87.2791 119.049Z" fill="#263238" stroke="#263238" stroke-width="0.5" stroke-miterlimit="10" stroke-linecap="round" stroke-linejoin="round"/>
<path d="M89.0555 119.81C89.4759 119.81 89.8167 119.469 89.8167 119.049C89.8167 118.628 89.4759 118.288 89.0555 118.288C88.635 118.288 88.2942 118.628 88.2942 119.049C88.2942 119.469 88.635 119.81 89.0555 119.81Z" fill="white" stroke="#263238" stroke-width="0.5" stroke-miterlimit="10" stroke-linecap="round" stroke-linejoin="round"/>
<path d="M108.656 119.013H110.052L110.75 109.498H107.959L108.656 119.013Z" fill="#8C8C8C" stroke="#263238" stroke-width="0.5" stroke-miterlimit="10" stroke-linecap="round" stroke-linejoin="round"/>
<path d="M108.72 120.917H110.115V116.984H108.72V120.917Z" fill="#263238" stroke="#263238" stroke-width="0.5" stroke-miterlimit="10" stroke-linecap="round" stroke-linejoin="round"/>
<path d="M120.403 85.1619C123.825 85.4911 126.867 82.984 127.196 79.5619L129.144 59.3227C129.473 55.9006 126.966 52.8593 123.544 52.53C120.122 52.2008 117.08 54.7079 116.751 58.13L114.803 78.3692C114.474 81.7913 116.981 84.8323 120.403 85.1619Z" fill="#8C8C8C" stroke="#263238" stroke-width="0.5" stroke-miterlimit="10" stroke-linecap="round" stroke-linejoin="round"/>
<path d="M118.927 85.0198C122.349 85.349 125.39 82.8419 125.72 79.4198L127.668 59.1806C127.997 55.7585 125.49 52.7172 122.068 52.3879C118.646 52.0587 115.604 54.5658 115.275 57.9879L113.327 78.2269C112.998 81.6492 115.505 84.6905 118.927 85.0198Z" fill="#8C8C8C" stroke="#263238" stroke-width="0.5" stroke-miterlimit="10" stroke-linecap="round" stroke-linejoin="round"/>
<path d="M91.8429 94.0558L120.879 94.8191C121.557 94.8405 122.123 94.3087 122.145 93.6313L122.291 88.9833C122.313 88.306 121.781 87.7394 121.104 87.718L92.0672 86.9547C91.3898 86.9333 90.8233 87.4651 90.8019 88.1425L90.6552 92.7905C90.6338 93.4678 91.1656 94.0344 91.8429 94.0558Z" fill="#8C8C8C" stroke="#263238" stroke-width="0.5" stroke-miterlimit="10" stroke-linecap="round" stroke-linejoin="round"/>
<path d="M103.98 94.2853L120.88 94.8188C121.557 94.8402 122.123 94.3084 122.145 93.6311L122.292 88.9831C122.313 88.3057 121.781 87.7392 121.104 87.7178L104.204 87.1842C103.527 87.1628 102.96 87.6946 102.939 88.372L102.792 93.02C102.771 93.6973 103.303 94.2639 103.98 94.2853Z" fill="#8C8C8C" stroke="#263238" stroke-width="0.5" stroke-miterlimit="10" stroke-linecap="round" stroke-linejoin="round"/>
<path d="M89.9072 113.938L89.7646 115.009C89.7646 115.009 88.4799 117.578 87.9802 118.006C87.4805 118.435 84.34 119.791 83.7691 120.005C83.1982 120.219 84.1973 120.861 85.5535 120.933C86.9096 121.004 89.4078 121.004 90.2643 120.79C91.1207 120.576 92.7625 119.363 93.1192 119.291L93.4048 120.219C93.4048 120.219 94.9751 119.648 95.5459 119.506C96.1171 119.363 97.0447 118.649 97.0447 118.649C97.0447 118.649 96.3309 116.508 95.9027 115.723C95.4745 114.938 94.9036 114.438 94.9036 114.438L93.833 113.153L89.9072 113.938Z" fill="#263238" stroke="#263238" stroke-width="0.5" stroke-miterlimit="10" stroke-linecap="round" stroke-linejoin="round"/>
<path d="M98.5435 73.1641L96.1883 74.5917L91.0492 76.0905C91.0492 76.0905 74.776 79.0884 73.8481 80.1589C72.9202 81.2295 73.2772 82.1574 74.0622 83.5136C74.8472 84.8697 88.6225 114.938 88.6225 114.938L94.3324 113.796L84.7682 85.0124C84.7682 85.0124 102.755 88.6523 105.895 88.0814C109.035 87.5106 113.032 84.1559 113.746 81.5863C114.46 79.0166 111.177 74.9484 111.177 74.9484L98.5435 73.1641Z" fill="#1C4D87" stroke="#263238" stroke-width="0.5" stroke-miterlimit="10" stroke-linecap="round" stroke-linejoin="round"/>
<path d="M80.7295 82.2202C80.7295 82.2202 84.3275 83.9731 84.9733 85.9102" stroke="#263238" stroke-width="0.5" stroke-miterlimit="10" stroke-linecap="round" stroke-linejoin="round"/>
<path d="M117.172 49.3253L109.463 48.6118L98.1863 74.1637L105.609 75.4484L117.172 49.3253Z" fill="white" stroke="#263238" stroke-width="0.5" stroke-miterlimit="10" stroke-linecap="round" stroke-linejoin="round"/>
<path d="M109.604 50.9976C109.604 50.9976 98.329 73.8068 98.1863 74.1635C98.0437 74.5203 94.8317 75.4482 94.1179 75.5912C93.4041 75.7338 91.0488 76.0908 91.0488 76.0908L95.0458 73.3785L97.9008 66.0269L94.4035 64.2425C94.4035 64.2425 100.827 54.6071 102.255 51.3237C103.682 48.0405 104.253 47.184 105.681 47.1126C107.108 47.0411 111.176 47.3267 111.176 47.3267L109.604 50.9976Z" fill="#1C4D87" stroke="#263238" stroke-width="0.5" stroke-miterlimit="10" stroke-linecap="round" stroke-linejoin="round"/>
<path d="M108.036 55.8202L108.179 57.462C108.179 57.462 100.685 70.8803 100.613 71.1658C100.542 71.4514 101.184 73.4499 101.184 73.4499L103.825 71.5229L108.821 57.7476L110.177 56.9623L110.192 54.4126L108.036 55.8202Z" fill="#263238" stroke="#263238" stroke-width="0.5" stroke-miterlimit="10" stroke-linecap="round" stroke-linejoin="round"/>
<path d="M111.017 31.1552C111.017 31.1552 108.367 37.5731 107.778 39.516C107.19 41.459 106.778 44.6386 106.895 44.9919C107.013 45.3452 107.778 46.5815 109.133 46.6405C110.487 46.6993 111.665 46.6993 111.665 46.6993L109.604 50.9975C109.604 50.9975 109.839 54.3536 110.193 54.4123C110.546 54.4713 115.727 50.4674 115.845 50.2909C115.963 50.1144 119.26 43.0486 119.26 43.0486C119.26 43.0486 122.204 41.5768 122.38 40.2814C122.557 38.986 121.615 38.3384 121.615 38.3384V36.7488L122.911 32.8629C122.911 32.8629 119.672 30.7432 116.081 29.8601C112.489 28.977 111.724 29.5658 111.724 29.5658L111.017 31.1552Z" fill="white" stroke="#263238" stroke-width="0.5" stroke-miterlimit="10" stroke-linecap="round" stroke-linejoin="round"/>
<path d="M116.964 27.5635C116.964 27.5635 111.665 26.1503 109.309 28.211C106.954 30.2717 113.078 33.5691 115.08 33.8633C117.081 34.1579 119.554 33.7456 118.965 34.2754C118.377 34.8052 117.081 35.6295 117.729 36.1596C118.377 36.6896 119.083 36.9249 119.083 36.9249C119.083 36.9249 116.316 42.9895 115.845 43.6961C115.374 44.4027 114.491 44.3436 113.961 44.1671C113.431 43.9903 110.899 42.4007 110.074 42.1064C109.25 41.8122 107.719 40.9288 107.366 41.8709C107.013 42.813 106.13 46.8167 107.425 47.7C108.72 48.5831 115.02 46.3459 115.962 45.6981C116.904 45.0502 117.199 43.8729 117.375 43.6374C117.552 43.4018 120.084 39.2214 120.32 38.9271C120.555 38.6329 121.615 38.3383 121.615 38.3383C121.615 38.3383 123.735 34.0992 123.911 32.4505C124.088 30.8018 118.553 27.5044 116.964 27.5635Z" fill="#263238" stroke="#263238" stroke-width="0.5" stroke-miterlimit="10" stroke-linecap="round" stroke-linejoin="round"/>
<path d="M111.429 35.7476L111.311 38.3383C111.311 38.3383 108.544 41.4589 108.544 41.8122C108.544 42.1655 111.842 41.7535 111.842 41.7535" stroke="#263238" stroke-width="0.5" stroke-miterlimit="10" stroke-linecap="round" stroke-linejoin="round"/>
<path d="M111.017 35.1588C111.017 35.1588 110.664 34.4522 109.898 34.6877" stroke="#263238" stroke-width="0.5" stroke-miterlimit="10" stroke-linecap="round" stroke-linejoin="round"/>
<path d="M113.49 36.6311C113.49 36.6311 115.197 36.4546 115.727 37.7497" stroke="#263238" stroke-width="0.5" stroke-miterlimit="10" stroke-linecap="round" stroke-linejoin="round"/>
<path d="M108.897 43.1665C108.897 43.1665 110.428 44.1086 111.429 44.1086" stroke="white" stroke-width="0.5" stroke-miterlimit="10" stroke-linecap="round" stroke-linejoin="round"/>
<path d="M114.072 39.1829C113.911 39.5023 113.616 39.6776 113.412 39.5752C113.209 39.4725 113.175 39.1305 113.337 38.8113C113.498 38.4919 113.793 38.3163 113.997 38.419C114.2 38.5214 114.233 38.8634 114.072 39.1829Z" fill="#263238"/>
<path d="M110.386 37.7482C110.225 38.0676 109.93 38.2429 109.726 38.1405C109.523 38.0378 109.489 37.6958 109.65 37.3767C109.812 37.0572 110.107 36.8819 110.31 36.9843C110.513 37.0867 110.547 37.4287 110.386 37.7482Z" fill="#263238"/>
<path d="M84.8397 111.552L84.34 114.55L83.2694 114.835C83.2694 114.835 82.2703 116.049 82.0559 116.334C81.8418 116.62 79.201 118.547 78.4872 118.903C77.7733 119.26 75.989 119.403 76.0604 119.902C76.1319 120.402 79.9145 120.83 82.3415 120.902C84.7682 120.973 86.1244 120.188 86.1244 120.188L86.3385 120.687L88.8367 120.473C88.8367 120.473 88.694 118.118 88.7652 117.119C88.8367 116.12 88.6226 114.692 88.6226 114.692L88.4799 112.622L84.8397 111.552Z" fill="#263238" stroke="#263238" stroke-width="0.5" stroke-miterlimit="10" stroke-linecap="round" stroke-linejoin="round"/>
<path d="M104.896 76.519C104.896 76.519 84.6255 79.0172 84.1972 79.5166C83.769 80.0163 84.1258 94.7908 84.1258 94.7908L81.7705 112.083L89.0507 114.295C89.0507 114.295 91.3347 99.7157 92.1197 95.7899C92.905 91.8644 93.2618 86.9394 93.2618 86.9394C93.2618 86.9394 104.467 89.5088 108.322 87.3677C112.176 85.2265 111.391 82.5857 111.391 82.5857" fill="#1C4D87"/>
<path d="M104.896 76.519C104.896 76.519 84.6255 79.0172 84.1972 79.5166C83.769 80.0163 84.1258 94.7908 84.1258 94.7908L81.7705 112.083L89.0507 114.295C89.0507 114.295 91.3347 99.7157 92.1197 95.7899C92.905 91.8644 93.2618 86.9394 93.2618 86.9394C93.2618 86.9394 104.467 89.5088 108.322 87.3677C112.176 85.2265 111.391 82.5857 111.391 82.5857" stroke="#263238" stroke-width="0.5" stroke-miterlimit="10" stroke-linecap="round" stroke-linejoin="round"/>
<path d="M84.5117 94.2132C84.5117 94.2132 85.4342 90.0617 85.6188 87.8477" stroke="#263238" stroke-width="0.5" stroke-miterlimit="10" stroke-linecap="round" stroke-linejoin="round"/>
<path d="M91.7559 84.5533C91.4934 84.2278 91.2232 83.95 90.9697 83.7886" stroke="#263238" stroke-width="0.5" stroke-miterlimit="10" stroke-linecap="round" stroke-linejoin="round"/>
<path d="M93.2617 86.9396C93.2617 86.9396 92.8523 86.1367 92.313 85.3228" stroke="#263238" stroke-width="0.5" stroke-miterlimit="10" stroke-linecap="round" stroke-linejoin="round"/>
<path d="M116.887 47.9692C116.887 47.9692 108.822 62.8151 107.108 66.598C105.395 70.3809 103.111 75.6626 103.111 76.2334C103.111 76.8043 101.613 91.4361 102.112 91.7217C102.612 92.0073 110.106 89.5805 113.604 88.2244C117.101 86.8682 117.244 85.8691 117.529 85.0839C117.815 84.2986 117.743 74.1635 117.743 74.1635C117.743 74.1635 125.023 53.465 124.952 52.5371C124.88 51.6095 116.887 47.9692 116.887 47.9692Z" fill="#1C4D87" stroke="#263238" stroke-width="0.5" stroke-miterlimit="10" stroke-linecap="round" stroke-linejoin="round"/>
<path d="M110.754 62.9795C109.433 64.276 108.322 65.2419 108.322 65.2419" stroke="#263238" stroke-width="0.5" stroke-miterlimit="10" stroke-linecap="round" stroke-linejoin="round"/>
<path d="M119.456 49.6108C119.456 49.6108 116.101 56.1772 114.389 58.818C113.708 59.8675 112.61 61.0972 111.534 62.1981" stroke="#263238" stroke-width="0.5" stroke-miterlimit="10" stroke-linecap="round" stroke-linejoin="round"/>
<path d="M108.726 48.2329C108.726 48.2329 105.253 54.0357 104.254 57.4615C103.254 60.8873 103.04 62.6717 103.04 62.6717" stroke="#263238" stroke-width="0.5" stroke-miterlimit="10" stroke-linecap="round" stroke-linejoin="round"/>
<path d="M106.894 56.5339L110.193 54.4121L110.32 59.3888" stroke="#263238" stroke-width="0.5" stroke-miterlimit="10" stroke-linecap="round" stroke-linejoin="round"/>
<path d="M113.93 78.8338L115.031 78.6602" stroke="#263238" stroke-width="0.5" stroke-miterlimit="10" stroke-linecap="round" stroke-linejoin="round"/>
<path d="M114.674 77.3755L106.894 78.3034V79.9451L112.448 79.0681" stroke="#263238" stroke-width="0.5" stroke-miterlimit="10" stroke-linecap="round" stroke-linejoin="round"/>
<path d="M103.825 50.467C103.825 50.467 105.11 47.7547 105.752 47.6835C106.395 47.6121 107.822 47.6835 107.822 48.2544C107.822 48.8253 107.037 48.8967 107.037 48.8967H105.967L105.467 50.1814L103.825 50.467Z" fill="white" stroke="#263238" stroke-width="0.5" stroke-miterlimit="10" stroke-linecap="round" stroke-linejoin="round"/>
<path d="M102.041 55.6061L102.54 52.8227C102.54 52.8227 102.755 50.3959 103.111 50.2533C103.468 50.1106 106.752 50.1818 106.752 50.1818C106.752 50.1818 106.823 53.0368 106.537 53.7506C106.252 54.4644 104.967 54.75 104.967 54.75C104.967 54.75 104.682 55.7491 104.467 56.0347C104.253 56.3202 103.468 56.677 103.468 56.677L103.254 57.2479L101.398 56.0344L102.041 55.6061Z" fill="white" stroke="#263238" stroke-width="0.5" stroke-miterlimit="10" stroke-linecap="round" stroke-linejoin="round"/>
<path d="M104.967 54.7499L104.61 53.3937L105.966 53.3223" fill="white"/>
<path d="M104.967 54.7499L104.61 53.3937L105.966 53.3223" stroke="#263238" stroke-width="0.5" stroke-miterlimit="10" stroke-linecap="round" stroke-linejoin="round"/>
<path d="M101.327 55.3921L104.253 57.4621L103.111 58.6753L100.613 56.3912L101.327 55.3921Z" fill="white" stroke="#263238" stroke-width="0.5" stroke-miterlimit="10" stroke-linecap="round" stroke-linejoin="round"/>
<path d="M100.613 56.3911L103.968 58.8893L97.5441 68.6676C97.5441 68.6676 96.4735 68.9532 95.26 68.525C94.0465 68.0968 92.9048 65.6701 92.9048 65.3845C92.9048 65.0989 100.613 56.3911 100.613 56.3911Z" fill="#1C4D87" stroke="#263238" stroke-width="0.5" stroke-miterlimit="10" stroke-linecap="round" stroke-linejoin="round"/>
<path d="M98.0438 67.7397C98.0438 67.7397 96.9732 65.7412 96.9018 65.1704C96.8303 64.5995 96.7591 63.4575 96.4021 63.0292C96.0453 62.601 95.6168 62.3154 95.4741 61.6731C95.3315 61.0307 94.6892 61.3163 94.6177 61.9587C94.5462 62.601 95.1174 63.2433 95.1174 63.2433C95.1174 63.2433 93.333 62.6725 93.0474 62.8151C92.7618 62.9578 92.191 63.1719 92.3336 63.6716C92.4763 64.1713 92.6904 64.5995 92.6904 64.5995C92.6904 64.5995 91.5483 66.0983 91.5483 66.8121C91.5483 67.5259 92.3336 68.6679 92.9045 69.0962C93.4754 69.5244 95.4739 69.9526 95.4739 69.9526L98.0438 67.7397Z" fill="white" stroke="#263238" stroke-width="0.5" stroke-miterlimit="10" stroke-linecap="round" stroke-linejoin="round"/>
<path d="M118.638 53.0537L112.176 66.4549L96.4021 67.3114C96.4021 67.3114 95.046 67.597 94.7604 68.9531C94.4748 70.3093 94.5463 70.9516 94.5463 70.9516C94.5463 70.9516 105.038 72.2363 108.322 72.4504C111.605 72.6645 115.602 73.0927 116.101 72.5931C116.601 72.0934 122.525 59.8171 122.525 59.8171" fill="#1C4D87"/>
<path d="M118.638 53.0537L112.176 66.4549L96.4021 67.3114C96.4021 67.3114 95.046 67.597 94.7604 68.9531C94.4748 70.3093 94.5463 70.9516 94.5463 70.9516C94.5463 70.9516 105.038 72.2363 108.322 72.4504C111.605 72.6645 115.602 73.0927 116.101 72.5931C116.601 72.0934 122.525 59.8171 122.525 59.8171" stroke="#263238" stroke-width="0.5" stroke-miterlimit="10" stroke-linecap="round" stroke-linejoin="round"/>
<path d="M24.2169 92.4663H22.5676V108.356H24.2169V92.4663Z" fill="#263238" stroke="#263238" stroke-width="0.5" stroke-miterlimit="10" stroke-linecap="round" stroke-linejoin="round"/>
<path d="M14.1605 77.2435L11.2517 77.5835L13.0966 93.3656L16.0054 93.0256L14.1605 77.2435Z" fill="#263238" stroke="#263238" stroke-width="0.5" stroke-miterlimit="10" stroke-linecap="round" stroke-linejoin="round"/>
<path d="M25.4856 109.005V106.327H21.2991V109.029L4.55249 115.75V118.922H5.69424V116.512L23.4524 112.471L40.7401 116.512V118.922H41.8514V115.75L25.4856 109.005Z" fill="#8C8C8C" stroke="#263238" stroke-width="0.5" stroke-miterlimit="10" stroke-linecap="round" stroke-linejoin="round"/>
<path d="M27.5153 92.4663H19.269V97.5402H27.5153V92.4663Z" fill="#263238" stroke="#263238" stroke-width="0.5" stroke-miterlimit="10" stroke-linecap="round" stroke-linejoin="round"/>
<path d="M4.55256 119.049C4.55256 118.068 3.75744 117.273 2.77628 117.273C1.79541 117.273 1 118.068 1 119.049C1 120.03 1.79512 120.826 2.77628 120.826C3.75744 120.825 4.55256 120.03 4.55256 119.049Z" fill="#263238" stroke="#263238" stroke-width="0.5" stroke-miterlimit="10" stroke-linecap="round" stroke-linejoin="round"/>
<path d="M3.53741 119.049C3.53741 118.628 3.19657 118.288 2.77615 118.288C2.35574 118.288 2.01489 118.628 2.01489 119.049C2.01489 119.469 2.35574 119.81 2.77615 119.81C3.19686 119.81 3.53741 119.469 3.53741 119.049Z" fill="white" stroke="#263238" stroke-width="0.5" stroke-miterlimit="10" stroke-linecap="round" stroke-linejoin="round"/>
<path d="M45.5308 119.049C45.5308 118.068 44.7357 117.273 43.7545 117.273C42.7733 117.273 41.9785 118.068 41.9785 119.049C41.9785 120.03 42.7736 120.826 43.7545 120.826C44.7354 120.826 45.5308 120.03 45.5308 119.049Z" fill="#263238" stroke="#263238" stroke-width="0.5" stroke-miterlimit="10" stroke-linecap="round" stroke-linejoin="round"/>
<path d="M43.7547 119.81C44.1751 119.81 44.5159 119.469 44.5159 119.049C44.5159 118.628 44.1751 118.288 43.7547 118.288C43.3342 118.288 42.9934 118.628 42.9934 119.049C42.9934 119.469 43.3342 119.81 43.7547 119.81Z" fill="white" stroke="#263238" stroke-width="0.5" stroke-miterlimit="10" stroke-linecap="round" stroke-linejoin="round"/>
<path d="M24.1537 119.013H22.7582L22.0605 109.498H24.8515L24.1537 119.013Z" fill="#8C8C8C" stroke="#263238" stroke-width="0.5" stroke-miterlimit="10" stroke-linecap="round" stroke-linejoin="round"/>
<path d="M24.0901 116.983H22.6946V120.916H24.0901V116.983Z" fill="#263238" stroke="#263238" stroke-width="0.5" stroke-miterlimit="10" stroke-linecap="round" stroke-linejoin="round"/>
<path d="M12.4062 85.1619C8.98419 85.4911 5.9429 82.984 5.61363 79.5619L3.66577 59.3227C3.3365 55.9006 5.84366 52.8593 9.26572 52.53C12.6878 52.2008 15.7291 54.7079 16.0583 58.13L18.0062 78.3692C18.3358 81.7913 15.8286 84.8323 12.4062 85.1619Z" fill="#8C8C8C" stroke="#263238" stroke-width="0.5" stroke-miterlimit="10" stroke-linecap="round" stroke-linejoin="round"/>
<path d="M13.8823 85.0198C10.4603 85.349 7.41898 82.8419 7.0897 79.4198L5.14185 59.1806C4.81258 55.7585 7.31974 52.7172 10.7418 52.3879C14.1639 52.0587 17.2051 54.5658 17.5344 57.9879L19.4823 78.2269C19.8118 81.6492 17.3047 84.6905 13.8823 85.0198Z" fill="#8C8C8C" stroke="#263238" stroke-width="0.5" stroke-miterlimit="10" stroke-linecap="round" stroke-linejoin="round"/>
<path d="M41.9716 94.0558L11.9299 94.8191C11.2526 94.8405 10.6861 94.3087 10.6647 93.6313L10.518 88.9833C10.4965 88.306 11.0284 87.7394 11.7057 87.718L41.7473 86.9547C42.4247 86.9333 42.9912 87.4651 43.0126 88.1425L43.1593 92.7905C43.1807 93.4678 42.6489 94.0344 41.9716 94.0558Z" fill="#8C8C8C" stroke="#263238" stroke-width="0.5" stroke-miterlimit="10" stroke-linecap="round" stroke-linejoin="round"/>
<path d="M28.8296 94.2853L11.9299 94.8188C11.2526 94.8402 10.6861 94.3084 10.6647 93.6311L10.518 88.9831C10.4965 88.3057 11.0284 87.7392 11.7057 87.7178L28.6054 87.1842C29.2827 87.1628 29.8493 87.6946 29.8707 88.372L30.0174 93.02C30.0388 93.6973 29.507 94.2639 28.8296 94.2853Z" fill="#8C8C8C" stroke="#263238" stroke-width="0.5" stroke-miterlimit="10" stroke-linecap="round" stroke-linejoin="round"/>
<path d="M45.8191 84.5923C45.8191 84.5923 46.0757 89.5548 46.7603 94.004C47.4449 98.4533 48.5733 111.938 48.5733 111.938C48.5733 111.938 49.1723 114.249 50.0279 115.874C50.8835 117.5 51.568 118.184 51.568 118.184C51.568 118.184 53.7928 120.409 53.7072 120.751C53.6215 121.094 52.2248 121.056 50.8557 120.799C49.4868 120.542 49.2061 120.216 48.4362 119.703C47.6662 119.189 45.9172 118.523 45.1472 118.266C44.3773 118.009 44.1241 117.329 44.3808 116.559C44.6374 115.789 45.493 113.992 45.493 112.879C45.493 111.767 44.7922 106.496 42.9097 102.988C41.0273 99.4799 39.915 93.4048 39.915 93.4048L45.8191 84.5923Z" fill="white" stroke="#263238" stroke-width="0.5" stroke-miterlimit="10" stroke-linecap="round" stroke-linejoin="round"/>
<path d="M46.263 116.816C45.7196 116.393 45.2101 115.939 44.7758 115.528C44.614 115.942 44.4647 116.306 44.3805 116.559C44.1239 117.329 44.3768 118.01 45.147 118.266C45.9169 118.523 47.666 119.19 48.436 119.703C49.2059 120.216 49.4866 120.543 50.8554 120.799C52.2243 121.056 53.6213 121.094 53.7069 120.752C53.7926 120.409 51.5678 118.185 51.5678 118.185L50.4556 118.698C50.4556 118.698 47.8029 118.013 46.263 116.816Z" fill="#1C4D87" stroke="#263238" stroke-width="0.5" stroke-miterlimit="10" stroke-linecap="round" stroke-linejoin="round"/>
<path d="M12.9875 74.3951C12.9875 74.3951 12.2164 77.4092 12.6371 79.3018C13.0578 81.1944 15.9315 85.6104 20.9085 86.6618C25.8855 87.7133 38.3932 87.3725 38.3932 87.3725C38.3932 87.3725 35.3806 91.9504 34.2577 97.4662C33.5143 101.117 31.2436 106.228 30.8932 106.999C30.5428 107.77 26.4069 109.172 26.5472 109.803C26.6876 110.434 27.178 114.359 28.2295 115.971C29.2809 117.584 31.0332 118.285 31.7343 118.495C32.4354 118.705 32.5754 118.705 32.5754 118.004C32.5754 117.303 32.0847 116.322 32.0847 115.691C32.0847 115.06 32.0147 110.784 32.295 110.223C32.5754 109.663 41.758 95.2226 43.1599 92.8396C44.5617 90.4563 46.7347 85.83 47.3658 85.0589C47.9965 84.2878 48.7676 83.2363 48.1369 81.9045C47.5061 80.5726 33.0248 76.1057 33.0248 76.1057L32.2644 73.4134L25.0444 72.9927L12.9875 74.3951Z" fill="white" stroke="#263238" stroke-width="0.5" stroke-miterlimit="10" stroke-linecap="round" stroke-linejoin="round"/>
<path d="M33.0243 76.1062L32.2639 73.4139L25.044 72.9932L12.9873 74.395C12.9873 74.395 12.2 77.4129 12.6369 79.3017C13.3322 82.3094 15.9314 85.6103 20.9084 86.6617C25.8854 87.7132 38.3931 87.3724 38.3931 87.3724C38.3931 87.3724 39.5803 81.444 41.8985 79.1296C39.0994 78.2034 33.0243 76.1062 33.0243 76.1062Z" fill="#263238" stroke="#263238" stroke-width="0.5" stroke-miterlimit="10" stroke-linecap="round" stroke-linejoin="round"/>
<path d="M38.3928 87.3729C38.3928 87.3729 41.1265 86.6718 43.2295 85.5503L38.3928 87.3729Z" fill="white"/>
<path d="M38.3928 87.3729C38.3928 87.3729 41.1265 86.6718 43.2295 85.5503" stroke="#263238" stroke-width="0.5" stroke-miterlimit="10" stroke-linecap="round" stroke-linejoin="round"/>
<path d="M28.93 113.168C28.4309 112.02 28.465 109.7 28.5258 108.459C27.4694 108.983 26.477 109.489 26.5467 109.804C26.6867 110.434 27.1774 114.36 28.2289 115.972C29.2804 117.584 31.0327 118.285 31.7337 118.495C32.4348 118.706 32.5749 118.706 32.5749 118.005C32.5749 117.305 32.0859 116.325 32.0844 115.695C31.1889 115.611 29.9112 115.271 29.9112 115.271C29.9112 115.271 29.6311 114.78 28.93 113.168Z" fill="#1C4D87" stroke="#263238" stroke-width="0.5" stroke-miterlimit="10" stroke-linecap="round" stroke-linejoin="round"/>
<path d="M27.9178 46.6372L25.7449 47.5483C25.7449 47.5483 27.4971 63.9509 27.4271 66.2639C27.3571 68.5772 27.2168 73.2035 27.2168 73.2035C27.2168 73.2035 30.2308 74.1147 32.2638 73.4139L32.1237 65.4931C32.1237 65.4931 33.5956 57.9227 33.0349 55.4694C32.4741 53.0161 30.7216 48.6701 30.7216 48.6701C30.7216 48.6701 29.8805 46.7075 27.9178 46.6372Z" fill="white" stroke="#263238" stroke-width="0.5" stroke-miterlimit="10" stroke-linecap="round" stroke-linejoin="round"/>
<path d="M27.2868 53.7171L29.3909 50.5092L31.9834 54.2779C31.9834 54.2779 30.8619 49.0205 30.7216 48.6701C30.5815 48.3197 30.0908 47.6187 29.2497 47.0579C28.4086 46.4972 27.4245 46.4737 26.8664 46.4271C26.3082 46.3806 25.7449 47.5486 25.7449 47.5486L27.2868 53.7171Z" fill="white" stroke="#263238" stroke-width="0.5" stroke-miterlimit="10" stroke-linecap="round" stroke-linejoin="round"/>
<path d="M26.3081 46.3804C26.3081 46.3804 19.262 47.9217 18.6564 48.3621C18.0508 48.8025 17.7757 50.2338 17.9409 50.7842C18.1061 51.3345 19.7024 63.2251 19.7024 63.2251L11.6104 75.0604C11.6104 75.0604 14.2526 77.2623 16.7297 77.7026C19.2068 78.143 24.4916 77.4824 26.3631 76.7116C28.2349 75.9411 28.2348 75.9411 28.2348 75.9411C28.2348 75.9411 29.1156 61.5735 28.1799 55.9035C27.2441 50.2336 26.3081 46.3804 26.3081 46.3804Z" fill="#1C4D87" stroke="#263238" stroke-width="0.5" stroke-miterlimit="10" stroke-linecap="round" stroke-linejoin="round"/>
<path d="M47.9421 64.6565L50.6947 63.4453C50.6947 63.4453 51.5204 61.6288 51.6304 61.4636C51.7403 61.2984 52.6764 61.0232 53.1168 60.6378C53.5571 60.2524 54.1627 59.5919 54.3279 59.5369C54.4932 59.4819 54.7683 59.9773 54.3279 60.6378C53.8876 61.2984 53.172 61.904 53.172 61.904L55.8693 60.913C55.8693 60.913 56.9153 59.1515 57.1904 59.9223C57.4656 60.6928 56.0345 63.0599 55.7041 63.8307C55.3736 64.6015 55.0435 64.9867 54.4379 65.0969C53.8323 65.2069 51.9608 65.5373 51.5754 65.5923C51.19 65.6472 48.8229 67.0236 48.8229 67.0236L47.9421 64.6565Z" fill="white" stroke="#263238" stroke-width="0.5" stroke-miterlimit="10" stroke-linecap="round" stroke-linejoin="round"/>
<path d="M51.7615 64.1058C52.2502 63.6929 52.8144 63.28 53.117 63.28C53.7226 63.28 55.0438 63.39 55.0438 63.39C55.0438 63.39 55.8146 61.6285 56.1997 61.3533C56.5851 61.0781 56.9153 61.4633 56.5851 62.0139" fill="white"/>
<path d="M51.7615 64.1058C52.2502 63.6929 52.8144 63.28 53.117 63.28C53.7226 63.28 55.0438 63.39 55.0438 63.39C55.0438 63.39 55.8146 61.6285 56.1997 61.3533C56.5851 61.0781 56.9153 61.4633 56.5851 62.0139" stroke="#263238" stroke-width="0.5" stroke-miterlimit="10" stroke-linecap="round" stroke-linejoin="round"/>
<path d="M29.9966 47.7012C29.9966 47.7012 31.7581 55.3529 31.7031 58.2153C31.6482 61.0778 30.7674 62.5092 30.9323 63.4999C31.0975 64.4909 31.4829 76.051 31.4829 76.051L33.0243 76.106C33.0243 76.106 32.6389 71.7022 32.6938 70.8764C32.7488 70.0506 33.2994 66.7478 33.2994 66.7478C33.2994 66.7478 36.052 72.1975 36.4371 72.4727C36.8225 72.7479 49.5938 67.2981 49.5938 67.2981L48.6581 64.1602L38.9144 66.1419C38.9144 66.1419 36.9877 59.7564 36.7125 58.38C36.4374 57.0038 36.2172 52.1594 35.4464 50.9485C34.6756 49.7381 29.9966 47.7012 29.9966 47.7012Z" fill="#1C4D87" stroke="#263238" stroke-width="0.5" stroke-miterlimit="10" stroke-linecap="round" stroke-linejoin="round"/>
<path d="M33.2993 66.7481C33.2993 66.7481 33.6297 65.372 34.1801 61.7387C34.7304 58.1054 34.2351 55.188 34.2351 55.188" stroke="#263238" stroke-width="0.5" stroke-miterlimit="10" stroke-linecap="round" stroke-linejoin="round"/>
<path d="M32.6973 51.9893C32.9585 53.9692 33.1582 56.4179 32.804 57.7753C32.1435 60.3076 31.2627 62.2893 31.2627 62.2893" stroke="#263238" stroke-width="0.5" stroke-miterlimit="10" stroke-linecap="round" stroke-linejoin="round"/>
<path d="M32.1982 48.9126C32.1982 48.9126 32.3643 49.7436 32.5449 50.9241" stroke="#263238" stroke-width="0.5" stroke-miterlimit="10" stroke-linecap="round" stroke-linejoin="round"/>
<path d="M26.9434 59.6177C27.658 61.3893 28.2903 63.1153 28.2903 63.1153" stroke="#263238" stroke-width="0.5" stroke-miterlimit="10" stroke-linecap="round" stroke-linejoin="round"/>
<path d="M23.6111 47.2612C23.6111 47.2612 24.8772 55.0232 25.868 57.1148C26.0699 57.5413 26.2904 58.0433 26.5132 58.5725" stroke="#263238" stroke-width="0.5" stroke-miterlimit="10" stroke-linecap="round" stroke-linejoin="round"/>
<path d="M39.2444 63.0048L41.3913 62.3992C41.3913 62.3992 42.7674 60.6377 43.0979 60.1973C43.4283 59.757 44.1988 59.757 44.7494 59.4268C45.3 59.0964 46.0156 57.8855 46.2908 58.1057C46.5659 58.3259 46.2908 59.3169 46.0156 59.592C45.7404 59.8672 45.0799 60.2526 44.8597 60.4178C44.6395 60.583 47.447 59.9225 47.447 59.9225C47.447 59.9225 49.2635 58.3262 49.3737 58.7665C49.4839 59.2069 48.5479 60.7482 48.5479 60.7482C48.5479 60.7482 47.2268 62.0144 46.5662 62.5647C45.9056 63.1151 44.3093 63.3356 43.869 63.4455C43.4286 63.5555 42.6578 63.6657 42.6578 63.6657L39.3549 64.8766L39.2444 63.0048Z" fill="white" stroke="#263238" stroke-width="0.5" stroke-miterlimit="10" stroke-linecap="round" stroke-linejoin="round"/>
<path d="M48.107 61.0781C48.107 61.0781 46.9511 61.6285 46.3455 61.9039L48.107 61.0781Z" fill="white"/>
<path d="M48.107 61.0781C48.107 61.0781 46.9511 61.6285 46.3455 61.9039" stroke="#263238" stroke-width="0.5" stroke-miterlimit="10" stroke-linecap="round" stroke-linejoin="round"/>
<path d="M44.8591 60.418L43.8684 60.6382" stroke="#263238" stroke-width="0.5" stroke-miterlimit="10" stroke-linecap="round" stroke-linejoin="round"/>
<path d="M19.8676 47.9214C19.8676 47.9214 16.6197 49.0223 16.1243 49.8481C15.629 50.6739 17.3905 57.4448 18.7116 61.1881C20.0328 64.9313 23.5558 71.2069 23.9962 71.427C24.4366 71.6472 35.9417 67.5736 38.584 66.7478C41.2263 65.922 41.6667 65.4816 41.6667 65.4816L40.5107 62.5089L27.299 64.876L23.2254 52.16" fill="#1C4D87"/>
<path d="M19.8676 47.9214C19.8676 47.9214 16.6197 49.0223 16.1243 49.8481C15.629 50.6739 17.3905 57.4448 18.7116 61.1881C20.0328 64.9313 23.5558 71.2069 23.9962 71.427C24.4366 71.6472 35.9417 67.5736 38.584 66.7478C41.2263 65.922 41.6667 65.4816 41.6667 65.4816L40.5107 62.5089L27.299 64.876L23.2254 52.16" stroke="#263238" stroke-width="0.5" stroke-miterlimit="10" stroke-linecap="round" stroke-linejoin="round"/>
<path d="M35.818 31.1577C35.818 31.1577 37.1044 32.0382 36.4523 32.9603C35.8001 33.8825 34.4217 33.9591 34.4217 33.9591L33.2197 32.0671C33.2197 32.0671 34.6554 30.3716 35.818 31.1577Z" fill="#263238" stroke="#263238" stroke-width="0.5" stroke-miterlimit="10" stroke-linecap="round" stroke-linejoin="round"/>
<path d="M34.4717 32.2853C34.4717 32.2853 36.4419 36.9617 36.3302 37.3656C36.2185 37.7698 35.3036 38.3942 35.7199 39.0042C36.1363 39.6141 37.3585 40.8366 37.3261 41.0079C37.2937 41.1789 35.8013 42.0489 35.8013 42.0489C35.8013 42.0489 34.7567 45.8023 34.3325 46.3601C33.9084 46.918 30.3162 46.2403 30.3162 46.2403L29.5566 50.4549L25.2932 46.4796L23.6995 44.9745C23.6995 44.9745 22.2704 38.558 25.3007 34.7008C28.3307 30.8435 34.4717 32.2853 34.4717 32.2853Z" fill="white" stroke="#263238" stroke-width="0.5" stroke-miterlimit="10" stroke-linecap="round" stroke-linejoin="round"/>
<path d="M34.1979 38.874C34.1904 39.2692 34.0368 39.5866 33.8542 39.5832C33.6719 39.5797 33.5301 39.2565 33.5374 38.8615C33.5449 38.4663 33.6985 38.1489 33.8811 38.1524C34.0637 38.1558 34.2055 38.479 34.1979 38.874Z" fill="#263238"/>
<path d="M34.2065 42.9881C32.9692 42.8788 32.4215 42.1201 32.4215 42.1201C32.4215 42.1201 32.3144 43.8139 32.8425 43.9135C33.3706 44.013 34.2065 42.9881 34.2065 42.9881Z" fill="#263238" stroke="#263238" stroke-width="0.5" stroke-miterlimit="10" stroke-linecap="round" stroke-linejoin="round"/>
<path d="M33.0996 37.3055C33.0996 37.3055 34.1956 36.3784 35.1771 37.4672" stroke="#263238" stroke-width="0.5" stroke-miterlimit="10" stroke-linecap="round" stroke-linejoin="round"/>
<path d="M30.3159 46.2401L28.5359 45.8159L29.8741 48.3002L30.3159 46.2401Z" fill="#263238" stroke="#263238" stroke-width="0.5" stroke-miterlimit="10" stroke-linecap="round" stroke-linejoin="round"/>
<path d="M34.4717 32.2852C34.4717 32.2852 34.0822 33.5048 32.1876 35.0962C30.293 36.6876 28.5971 37.6962 28.6021 38.1401C28.607 38.5839 28.8845 38.9904 28.5101 39.0969C28.1356 39.2034 27.6001 38.943 27.6001 38.943C27.6001 38.943 26.6797 41.5682 26.5431 43.4203C26.4062 45.2724 27.0876 47.0128 27.0876 47.0128C27.0876 47.0128 23.0067 47.235 20.6518 45.4445C18.2968 43.6541 17.6328 41.6333 17.8935 39.8755C18.1542 38.1178 18.8992 32.5719 22.5293 29.8553C26.1594 27.1389 31.3436 27.2663 33.1037 28.36C34.8637 29.4537 36.1429 30.2795 35.8177 31.157C35.4931 32.0349 34.4717 32.2852 34.4717 32.2852Z" fill="#263238" stroke="#263238" stroke-width="0.5" stroke-miterlimit="10" stroke-linecap="round" stroke-linejoin="round"/>
<path d="M25.9142 87.5497C25.8103 87.5497 25.705 87.5268 25.6031 87.4791C25.1891 87.2843 24.9932 86.7461 25.1648 86.2771C26.4717 82.7084 27.9726 76.3382 26.4356 74.4378C26.0765 74.1574 23.9163 73.5651 12.2725 74.7749C11.8752 74.8162 11.583 74.846 11.4247 74.8599C10.6108 74.9305 9.91667 76.105 9.73786 76.5109C9.53734 76.9649 9.04922 77.1486 8.64877 76.9224C8.24803 76.6955 8.08542 76.1426 8.28565 75.688C8.39849 75.4328 9.44012 73.1872 11.3003 73.0255C11.454 73.0125 11.7381 72.983 12.1246 72.9427C24.5311 71.6529 26.9101 72.3013 27.6323 73.1942C30.366 76.5743 27.0507 85.927 26.6641 86.9823C26.5342 87.3364 26.2322 87.5497 25.9142 87.5497Z" fill="white" stroke="#263238" stroke-width="0.5" stroke-miterlimit="10" stroke-linecap="round" stroke-linejoin="round"/>
<path d="M77.0658 60.3574H58.0522L53.6533 75.2563H72.6672L77.0658 60.3574Z" fill="#D9D9D9" stroke="#263238" stroke-width="0.5" stroke-miterlimit="10" stroke-linecap="round" stroke-linejoin="round"/>
<path d="M39.7459 74.4399L39.5049 75.2562H72.6671L72.9081 74.4399H39.7459Z" fill="#D9D9D9" stroke="#263238" stroke-width="0.5" stroke-miterlimit="10" stroke-linecap="round" stroke-linejoin="round"/>
<path d="M53.9288 74.4399L53.6877 75.2562H72.6672L72.9082 74.4399H53.9288Z" fill="#263238" stroke="#263238" stroke-width="0.5" stroke-miterlimit="10" stroke-linecap="round" stroke-linejoin="round"/>
<path d="M72.3938 77.4922H69.1775V120.512H72.3938V77.4922Z" fill="white" stroke="#263238" stroke-width="0.5" stroke-miterlimit="10" stroke-linecap="round" stroke-linejoin="round"/>
<path d="M72.3938 77.4922H69.1775V84.5973H72.3938V77.4922Z" fill="#263238" stroke="#263238" stroke-width="0.5" stroke-miterlimit="10" stroke-linecap="round" stroke-linejoin="round"/>
<path d="M111.481 75.2646H29.7993V77.6543H111.481V75.2646Z" fill="white" stroke="#263238" stroke-width="0.5" stroke-miterlimit="10" stroke-linecap="round" stroke-linejoin="round"/>
<path d="M87.5732 120.863H53.707C57.0524 119.289 60.7039 118.473 64.4009 118.473H76.8794C80.5763 118.473 84.2275 119.289 87.5732 120.863Z" fill="white" stroke="#263238" stroke-width="0.5" stroke-miterlimit="10" stroke-linecap="round" stroke-linejoin="round"/>
</svg>
